<svg width="80" height="80" viewBox="0 0 80 80" fill="none" xmlns="http://www.w3.org/2000/svg">
<g id="saro_pink_tennis_ball_words_dark">
<path id="Vector" d="M39.9996 74.9C59.2743 74.9 74.8996 59.2747 74.8996 40C74.8996 20.7252 59.2743 5.09998 39.9996 5.09998C20.7249 5.09998 5.09961 20.7252 5.09961 40C5.09961 59.2747 20.7249 74.9 39.9996 74.9Z" fill="#F17BB0"/>
<path id="Vector_2" d="M39.7041 25.4167C30.0582 25.4167 20.9541 22.6667 14.0791 17.675C13.7153 17.4018 13.4735 16.9965 13.406 16.5466C13.3384 16.0967 13.4504 15.6383 13.7178 15.2702C13.9852 14.9022 14.3866 14.654 14.8354 14.5793C15.2842 14.5046 15.7443 14.6093 16.1166 14.8709C22.4041 19.4542 30.7832 21.9542 39.7041 21.9542C48.8707 21.9542 57.3957 19.3209 63.7291 14.5417C64.0972 14.289 64.5487 14.1881 64.9895 14.26C65.4302 14.332 65.8261 14.5713 66.0948 14.928C66.3634 15.2848 66.484 15.7314 66.4314 16.1749C66.3788 16.6183 66.157 17.0244 65.8124 17.3084C58.8832 22.5375 49.6082 25.4167 39.7041 25.4167Z" fill="white"/>
<path id="Vector_3" d="M64.5085 65.6125C64.139 65.6116 63.7796 65.4918 63.4835 65.2708C57.171 60.6125 48.7293 58.0458 39.7043 58.0458C30.821 58.0458 22.4709 60.5458 16.1876 65.0791C15.8152 65.3471 15.3516 65.4562 14.8988 65.3823C14.4459 65.3085 14.041 65.0578 13.773 64.6854C13.505 64.313 13.396 63.8494 13.4698 63.3966C13.5437 62.9437 13.7944 62.5388 14.1668 62.2708C21.0293 57.3166 30.1001 54.5833 39.7043 54.5833C49.4626 54.5833 58.6376 57.3875 65.5376 62.5C65.83 62.7171 66.0466 63.0207 66.1566 63.3679C66.2667 63.715 66.2646 64.088 66.1507 64.4338C66.0368 64.7797 65.8168 65.081 65.522 65.2948C65.2273 65.5086 64.8726 65.6241 64.5085 65.625V65.6125Z" fill="white"/>
<path id="Vector_4" d="M40.0003 76.6291C32.7557 76.6291 25.6738 74.4808 19.6502 70.456C13.6266 66.4311 8.93171 60.7104 6.15934 54.0173C3.38696 47.3242 2.66159 39.9593 4.07493 32.854C5.48827 25.7486 8.97686 19.2219 14.0995 14.0992C19.2222 8.97656 25.7489 5.48797 32.8543 4.07462C39.9596 2.66128 47.3245 3.38666 54.0176 6.15903C60.7107 8.93141 66.4314 13.6263 70.4563 19.6499C74.4811 25.6735 76.6294 32.7554 76.6294 40C76.6195 49.7116 72.7572 59.0226 65.89 65.8897C59.0229 72.7569 49.7119 76.6192 40.0003 76.6291ZM40.0003 6.8333C33.4405 6.8333 27.0281 8.77849 21.5739 12.4229C16.1196 16.0673 11.8686 21.2472 9.35827 27.3076C6.84796 33.368 6.19115 40.0367 7.4709 46.4704C8.75064 52.9041 11.9095 58.8139 16.5479 63.4523C21.1863 68.0908 27.0961 71.2496 33.5298 72.5293C39.9635 73.8091 46.6322 73.1523 52.6926 70.6419C58.753 68.1316 63.9329 63.8806 67.5773 58.4264C71.2217 52.9721 73.1669 46.5597 73.1669 40C73.157 31.2067 69.6595 22.7764 63.4417 16.5586C57.2239 10.3407 48.7936 6.84323 40.0003 6.8333Z" fill="black"/>
<path id="Vector_5" d="M15.1004 38.8083C15.5848 38.9762 16.0259 39.2494 16.392 39.6083C16.6634 39.8887 16.8834 40.2144 17.042 40.5708C17.1684 40.8639 17.2498 41.1743 17.2837 41.4917C17.3129 41.7792 17.3254 42.0167 17.3254 42.1958C17.3272 42.7122 17.2118 43.2222 16.9879 43.6875C16.7654 44.1603 16.4526 44.5849 16.067 44.9375C15.6665 45.2989 15.2014 45.5816 14.6962 45.7708C14.1632 45.9697 13.5984 46.0699 13.0295 46.0667C12.2623 46.0768 11.5056 45.8873 10.8337 45.5167C10.2264 45.1992 9.70795 44.7352 9.32537 44.1667C9.19995 43.9894 9.11723 43.7854 9.0837 43.5708C9.04621 43.3544 9.04621 43.1331 9.0837 42.9167C9.11732 42.7042 9.19541 42.5011 9.31287 42.3208C9.42861 42.1505 9.58093 42.0081 9.7587 41.9042C10.0651 41.7305 10.4106 41.6373 10.7629 41.6333C11.1892 41.6272 11.6035 41.7752 11.9295 42.05C12.1696 42.2535 12.4276 42.4348 12.7004 42.5917C12.8619 42.6859 13.043 42.7415 13.2295 42.7542C13.3122 42.7638 13.3953 42.7409 13.4613 42.6903C13.5274 42.6398 13.5713 42.5656 13.5837 42.4833C13.6379 42.2458 13.5295 42.0667 13.2587 41.9792L12.2295 41.6125C12.063 41.5783 11.8988 41.5338 11.7379 41.4792C11.5766 41.4266 11.4225 41.3538 11.2795 41.2625C11.1337 41.1917 10.9379 41.0875 10.6962 40.95C10.4216 40.7917 10.174 40.5906 9.96287 40.3542C9.69821 40.0602 9.48292 39.7253 9.32537 39.3625C9.13072 38.89 9.03841 38.3816 9.05453 37.8708C9.05316 37.3545 9.16854 36.8446 9.39204 36.3792C9.61673 35.9067 9.93085 35.4822 10.317 35.1292C10.7164 34.7682 11.18 34.4855 11.6837 34.2958C12.2165 34.0957 12.7812 33.994 13.3504 33.9958C14.1158 33.9793 14.8724 34.1616 15.5462 34.525C16.1459 34.8349 16.663 35.2834 17.0545 35.8333C17.1787 36.0186 17.2645 36.2269 17.3067 36.4459C17.349 36.6649 17.3468 36.8902 17.3004 37.1083C17.2698 37.3193 17.193 37.5208 17.0756 37.6987C16.9582 37.8766 16.8031 38.0264 16.6212 38.1375C16.3162 38.3151 15.97 38.4099 15.617 38.4125C15.4085 38.4209 15.2 38.3942 15.0004 38.3333C14.7945 38.2612 14.6048 38.1494 14.442 38.0042C14.2089 37.8024 13.9547 37.6263 13.6837 37.4792C13.5252 37.3904 13.3484 37.3391 13.167 37.3292C13.0764 37.3147 12.9836 37.3344 12.9066 37.3845C12.8297 37.4345 12.774 37.5113 12.7504 37.6C12.7129 37.725 12.8004 37.8583 13.0087 37.9917C13.2426 38.1325 13.4913 38.247 13.7504 38.3333C14.0337 38.4417 14.3087 38.5375 14.5837 38.6167C14.7601 38.6686 14.9328 38.7326 15.1004 38.8083Z" fill="white"/>
<path id="Vector_6" d="M17.596 39.975C17.589 39.1816 17.6971 38.3915 17.9169 37.6291C18.1099 36.9473 18.4125 36.3014 18.8127 35.7166C19.1672 35.2003 19.6239 34.7621 20.1544 34.4291C20.646 34.1195 21.215 33.9549 21.796 33.9541C22.2539 33.9589 22.7055 34.0605 23.1213 34.2523C23.5371 34.444 23.9076 34.7215 24.2085 35.0667C24.382 34.7105 24.6579 34.4143 25.0009 34.216C25.3439 34.0178 25.7383 33.9266 26.1335 33.9541C26.3856 33.9508 26.6344 34.0109 26.8572 34.1288C27.08 34.2468 27.2696 34.4188 27.4085 34.6291C27.7807 35.1929 28.0384 35.8243 28.1669 36.4875C28.3652 37.3934 28.4837 38.315 28.521 39.2416C28.5766 40.2861 28.603 41.4069 28.6002 42.6042C28.5974 43.8014 28.571 44.9125 28.521 45.9375C28.4829 46.8586 28.3644 47.7745 28.1669 48.675C28.0384 49.3382 27.7807 49.9696 27.4085 50.5333C27.2696 50.7437 27.08 50.9157 26.8572 51.0336C26.6344 51.1516 26.3856 51.2117 26.1335 51.2083C25.934 51.2167 25.735 51.1841 25.5486 51.1124C25.3623 51.0407 25.1926 50.9316 25.0502 50.7917C24.7262 50.4465 24.4829 50.0338 24.3377 49.5833C24.1329 48.9762 23.9933 48.3491 23.921 47.7125C23.821 46.9903 23.753 46.2042 23.7169 45.3542C23.1776 45.7808 22.5086 46.0102 21.821 46.0042C21.24 46.0034 20.671 45.8388 20.1794 45.5292C19.6468 45.1989 19.1896 44.7602 18.8377 44.2417C18.4283 43.6558 18.1172 43.0069 17.9169 42.3208C17.6976 41.5584 17.5896 40.7683 17.596 39.975ZM21.6085 39.975C21.5987 40.3602 21.7191 40.7375 21.9502 41.0458C22.0421 41.1826 22.1661 41.2947 22.3114 41.3724C22.4567 41.4501 22.6188 41.4911 22.7835 41.4917C22.9621 41.4966 23.1384 41.4507 23.2919 41.3592C23.4454 41.2677 23.5696 41.1344 23.6502 40.975C23.8381 40.6746 23.9417 40.3292 23.9502 39.975C23.946 39.6868 23.8806 39.4027 23.7585 39.1417C23.6812 38.9448 23.5474 38.7753 23.3739 38.6544C23.2004 38.5336 22.9949 38.4668 22.7835 38.4625C22.6188 38.4631 22.4567 38.504 22.3114 38.5817C22.1661 38.6594 22.0421 38.7716 21.9502 38.9083C21.7203 39.2157 21.6 39.5912 21.6085 39.975Z" fill="white"/>
<path id="Vector_7" d="M33.1087 46.0458C32.5283 46.0446 31.9598 45.8816 31.467 45.575C30.9329 45.2396 30.4757 44.7952 30.1253 44.2708C29.7266 43.6807 29.4242 43.0309 29.2295 42.3458C29.0086 41.5837 28.8991 40.7935 28.9045 40C28.9045 39.1667 28.942 38.3875 29.0128 37.6542C29.0694 37.0015 29.2095 36.3588 29.4295 35.7417C29.5976 35.2507 29.8837 34.8086 30.2628 34.4542C30.6275 34.1295 31.1041 33.9592 31.592 33.9792C31.9376 33.9857 32.2714 34.1058 32.542 34.3209C32.8466 34.5431 33.0809 34.8483 33.217 35.2C33.3862 35.6064 33.4916 36.0365 33.5295 36.475C33.5753 36.9459 33.6003 37.3917 33.6003 37.8167C33.6016 38.2022 33.5822 38.5875 33.542 38.9709C33.5087 39.3125 33.4795 39.5584 33.4628 39.7C33.4246 40.1255 33.4429 40.5543 33.517 40.975C33.5878 41.3542 33.7878 41.5458 34.1128 41.5458C34.2687 41.5587 34.4245 41.5206 34.5568 41.4372C34.6891 41.3537 34.7906 41.2296 34.8462 41.0833C34.9671 40.7356 35.0195 40.3677 35.0003 40C35.0003 39.7292 35.0003 39.3625 35.0003 38.9C35.0003 38.4375 35.0253 37.9625 35.0545 37.4667C35.0837 36.9709 35.1253 36.4917 35.1878 36.0417C35.2302 35.6828 35.3242 35.332 35.467 35C35.6086 34.6302 35.8899 34.3309 36.2503 34.1667C36.5912 34.0331 36.9551 33.968 37.3212 33.975C37.5747 33.9679 37.8259 34.0253 38.0511 34.1419C38.2763 34.2586 38.4682 34.4305 38.6087 34.6417C38.9422 35.1294 39.1824 35.6747 39.317 36.25C39.4822 36.8991 39.5909 37.5613 39.642 38.2292C39.6962 38.9167 39.7253 39.5125 39.7253 40.0209C39.7253 40.6542 39.7253 41.3209 39.6712 42.025C39.6398 42.684 39.5449 43.3384 39.3878 43.9792C39.2609 44.5186 39.0146 45.0226 38.667 45.4542C38.5011 45.6488 38.2927 45.8026 38.0579 45.9037C37.8231 46.0049 37.5682 46.0507 37.3128 46.0375C36.9332 46.0431 36.5605 45.9357 36.242 45.7292C35.9375 45.5366 35.6969 45.2583 35.5503 44.9292C35.2174 45.2725 34.8267 45.5545 34.3962 45.7625C33.9934 45.9515 33.5535 46.0483 33.1087 46.0458Z" fill="white"/>
<path id="Vector_8" d="M47.4539 41.9542C47.6337 41.9296 47.8159 41.9296 47.9956 41.9542C48.1915 41.9794 48.3801 42.0447 48.5498 42.1458C48.7298 42.2482 48.8838 42.3908 48.9998 42.5625C49.1355 42.7881 49.2102 43.0451 49.2164 43.3083C49.2391 43.6988 49.1385 44.0865 48.9289 44.4167C48.7115 44.7489 48.4278 45.0326 48.0956 45.25C47.7421 45.4907 47.3525 45.6736 46.9414 45.7917C46.5357 45.9167 46.1156 45.9895 45.6914 46.0083H45.4456C44.6174 46.0355 43.7923 45.8937 43.0206 45.5917C42.4279 45.3442 41.892 44.9784 41.4456 44.5167C41.0508 44.0998 40.7459 43.6063 40.5498 43.0667C40.3676 42.5616 40.2364 42.0395 40.1581 41.5083C40.065 40.7801 40.019 40.0466 40.0206 39.3125C40.0168 38.5762 40.1279 37.8438 40.3498 37.1417C40.5635 36.4586 40.9232 35.8302 41.4039 35.3C41.9704 34.7112 42.6932 34.2963 43.4873 34.1042C43.8945 33.993 44.3151 33.9383 44.7373 33.9417C45.2515 33.9465 45.7629 34.0194 46.2581 34.1583C46.7732 34.2993 47.2597 34.5291 47.6956 34.8375C48.1394 35.1556 48.502 35.5739 48.7539 36.0583C49.0434 36.6282 49.1866 37.2611 49.1706 37.9C49.1805 38.4863 49.0889 39.0699 48.8998 39.625C48.7409 40.0891 48.4869 40.5148 48.1539 40.875C47.8441 41.2044 47.4638 41.4594 47.0414 41.6208C46.6049 41.7862 46.1416 41.8696 45.6748 41.8667C45.2673 41.8845 44.8604 41.8193 44.4789 41.675C44.3314 41.6463 44.1903 41.5913 44.0623 41.5125C44.0595 41.8336 44.1587 42.1472 44.3456 42.4083C44.4729 42.5539 44.638 42.6613 44.8226 42.7187C45.0072 42.776 45.2041 42.7811 45.3914 42.7333C45.5998 42.7028 45.8039 42.6483 45.9998 42.5708C46.1679 42.5006 46.3309 42.4185 46.4873 42.325L46.9373 42.0667C47.0991 41.9916 47.2755 41.9532 47.4539 41.9542ZM44.0081 37.8583C43.9339 38.1041 43.9486 38.3682 44.0498 38.6042C44.1032 38.7097 44.1816 38.8006 44.2782 38.8688C44.3748 38.9371 44.4866 38.9807 44.6039 38.9958C44.7106 39.0191 44.8198 39.0289 44.9289 39.025C45.1306 39.0248 45.3282 38.9685 45.4998 38.8625C45.5886 38.8118 45.6648 38.7416 45.7226 38.6571C45.7803 38.5727 45.8181 38.4762 45.8331 38.375C45.8706 38.2455 45.8803 38.1095 45.8616 37.9759C45.843 37.8424 45.7963 37.7143 45.7248 37.6C45.6597 37.4844 45.57 37.3845 45.4619 37.3075C45.3539 37.2304 45.2303 37.1781 45.0998 37.1542C45.0215 37.1307 44.9397 37.1208 44.8581 37.125C44.754 37.1165 44.6492 37.1288 44.5498 37.1612C44.4505 37.1935 44.3586 37.2454 44.2795 37.3136C44.2004 37.3819 44.1356 37.4652 44.089 37.5587C44.0425 37.6522 44.0149 37.7541 44.0081 37.8583Z" fill="white"/>
<path id="Vector_9" d="M57.8914 33.9541C58.1475 33.9403 58.4032 33.9858 58.6388 34.087C58.8744 34.1881 59.0835 34.3423 59.2498 34.5375C59.596 34.9693 59.8409 35.4734 59.9664 36.0125C60.1276 36.6568 60.2239 37.3156 60.254 37.9791C60.2873 38.6958 60.3081 39.3666 60.3081 40C60.3081 40.4875 60.2789 41.0791 60.2248 41.775C60.1744 42.4484 60.0657 43.1162 59.8998 43.7708C59.7618 44.3484 59.5173 44.8953 59.1789 45.3833C59.0383 45.594 58.8462 45.7653 58.621 45.8813C58.3957 45.9972 58.1447 46.0538 57.8914 46.0458C57.512 46.0501 57.1397 45.9429 56.8206 45.7375C56.5171 45.5438 56.2768 45.2658 56.129 44.9375C55.824 45.2839 55.4491 45.5618 55.029 45.7529C54.6088 45.9439 54.153 46.0437 53.6914 46.0458C53.111 46.0452 52.5423 45.8821 52.0498 45.575C51.5157 45.2395 51.0585 44.7951 50.7081 44.2708C50.3094 43.6807 50.007 43.0309 49.8123 42.3458C49.379 40.8119 49.379 39.188 49.8123 37.6541C50.007 36.9691 50.3094 36.3193 50.7081 35.7291C51.0587 35.2061 51.5159 34.7631 52.0498 34.4291C52.5411 34.1189 53.1103 33.9542 53.6914 33.9541C54.1414 33.9548 54.5855 34.0559 54.9914 34.25C55.4188 34.4552 55.8044 34.7377 56.129 35.0833C56.2687 34.7413 56.5102 34.4504 56.8206 34.25C57.1403 34.0473 57.5131 33.9444 57.8914 33.9541ZM54.6664 41.5458C54.8329 41.5445 54.9965 41.5015 55.142 41.4207C55.2876 41.3399 55.4106 41.2239 55.4998 41.0833C55.728 40.7692 55.8453 40.3881 55.8331 40C55.8436 39.6147 55.7232 39.2372 55.4914 38.9291C55.4001 38.7919 55.2762 38.6793 55.1308 38.6016C54.9854 38.5238 54.823 38.4832 54.6581 38.4833C54.4934 38.4842 54.3315 38.5253 54.1862 38.603C54.041 38.6807 53.9169 38.7927 53.8248 38.9291C53.6007 39.2402 53.4864 39.6169 53.4998 40C53.4907 40.3883 53.6093 40.7688 53.8373 41.0833C53.9269 41.2226 54.0494 41.3376 54.194 41.4183C54.3386 41.4989 54.5009 41.5427 54.6664 41.5458Z" fill="white"/>
<path id="Vector_10" d="M68.6338 39.6458C69.1176 39.6853 69.5795 39.8649 69.963 40.1625C70.2778 40.3922 70.5137 40.7139 70.638 41.0833C70.6921 41.2666 70.7505 41.5 70.813 41.8166C70.88 42.1435 70.9218 42.475 70.938 42.8083C70.9554 43.1558 70.9457 43.504 70.9088 43.85C70.8809 44.1732 70.7888 44.4877 70.638 44.775C70.4633 45.1422 70.2033 45.4622 69.8796 45.7083C69.5469 45.9407 69.1478 46.0591 68.7421 46.0458C68.3953 46.0381 68.061 45.915 67.7921 45.6958C67.4879 45.4651 67.253 45.1552 67.113 44.8C66.9659 44.4692 66.8529 44.1244 66.7755 43.7708C66.7143 43.4625 66.656 43.2 66.6005 42.9833C66.5608 42.8101 66.5007 42.6423 66.4213 42.4833C66.3881 42.4225 66.3394 42.3715 66.2801 42.3356C66.2208 42.2998 66.1531 42.2803 66.0838 42.2791C65.9799 42.2487 65.8688 42.2535 65.7678 42.2927C65.6669 42.3318 65.5817 42.4032 65.5255 42.4958C65.4157 42.7139 65.3385 42.947 65.2963 43.1875C65.2421 43.4666 65.1921 43.7708 65.1463 44.0958C65.1037 44.4125 64.9974 44.7172 64.8338 44.9916C64.7062 45.2797 64.5027 45.5276 64.2451 45.7088C63.9875 45.8901 63.6855 45.998 63.3713 46.0208C63.3193 46.0399 63.2641 46.0484 63.2088 46.0458H63.0713C62.8433 46.0518 62.6171 46.0049 62.4103 45.9088C62.2036 45.8126 62.0219 45.6698 61.8796 45.4916C61.5307 45.0357 61.277 44.5143 61.1338 43.9583C60.9239 43.2048 60.7844 42.4334 60.7171 41.6541C60.6393 40.7708 60.5907 39.8125 60.5713 38.7791V37.3958C60.5713 36.2041 60.6018 35.0833 60.663 34.0333C60.7121 33.1132 60.8304 32.1981 61.0171 31.2958C61.1395 30.6368 61.3931 30.009 61.763 29.45C61.9019 29.2396 62.0915 29.0676 62.3143 28.9496C62.537 28.8317 62.7859 28.7716 63.038 28.775C63.3459 28.7724 63.648 28.8592 63.9076 29.0249C64.1671 29.1905 64.3731 29.4279 64.5005 29.7083C64.8957 30.4919 65.1536 31.3375 65.263 32.2083C65.263 32.3375 65.2963 32.5833 65.3171 32.9541C65.338 33.325 65.3505 33.75 65.3713 34.2291C65.3921 34.7083 65.4005 35.2166 65.4088 35.7458C65.4171 36.275 65.4088 36.775 65.4088 37.225C65.4088 37.675 65.5796 37.8333 65.9213 37.85C66.0217 37.8532 66.1203 37.823 66.2017 37.7642C66.2831 37.7054 66.3428 37.6213 66.3713 37.525C66.4631 37.2649 66.5314 36.9972 66.5755 36.725C66.6296 36.4083 66.688 36.0791 66.7505 35.7333C66.8065 35.4085 66.9209 35.0966 67.088 34.8125C67.2494 34.543 67.4852 34.326 67.7671 34.1875C68.059 34.0299 68.3854 33.9468 68.7171 33.9458C68.9857 33.9234 69.2558 33.9645 69.5055 34.0658C69.7553 34.1672 69.9776 34.3259 70.1546 34.5291C70.4612 34.9183 70.6608 35.3808 70.7338 35.8708C70.8172 36.3687 70.8172 36.8771 70.7338 37.375C70.6928 37.7359 70.5972 38.0885 70.4505 38.4208C70.293 38.708 70.0806 38.9614 69.8255 39.1666C69.4841 39.4403 69.0695 39.6069 68.6338 39.6458Z" fill="white"/>
</g>
</svg>
