<svg id="Layer_1" data-name="Layer 1" xmlns="http://www.w3.org/2000/svg" viewBox="0 0 192 192"><path d="M61,95.71C54,88.87,47.28,82.83,41.26,76.14,33.58,67.6,26,59,21.75,47.91,17.41,36.49,21.14,26,32.35,21.49a19.79,19.79,0,0,1,18.18,1.35,237.47,237.47,0,0,1,25.2,18c7.14,6,13.29,13.13,20.12,20,6.59-6.69,12.64-13.45,19.36-19.47,8.81-7.88,17.51-16.26,29.15-19.88,8.28-2.57,16.52-2.22,22.73,5,6.08,7.07,6.37,15.56,2.16,23.13a161.82,161.82,0,0,1-17.53,24.94c-6.2,7.39-13.6,13.78-21.55,21.68,2.31,1.87,4.53,3.35,6.39,5.2,10.38,10.27,21.32,20.12,28.75,32.89,2.75,4.73,5.24,10,6.07,15.37,2.33,15-12.34,27.13-28.44,19.74-7.66-3.51-14.77-8.66-21.28-14.08-9.07-7.57-17.34-16.1-26.27-24.51C88.6,137.81,82,145.15,74.68,151.78c-8.37,7.6-16.82,15.21-28.16,18.52-8.07,2.36-15.35,1.52-21.16-4.58-6.17-6.48-6.77-14.23-3.43-22.46,4.54-11.22,12.31-20.17,20.31-28.9C48,108.09,54.29,102.31,61,95.71Z"/></svg>