<svg width="46" height="46" viewBox="0 0 46 46" fill="none" xmlns="http://www.w3.org/2000/svg">
<g id="saro_mail_dark">
<path id="Vector" d="M43.8915 22.1376C44.1311 23.8146 44.27 26.2105 43.4986 28.0073C43.0338 29.0903 42.2863 29.8138 41.3423 30.0989C40.9996 30.2026 40.6472 30.2709 40.2905 30.3025C40.0764 31.2432 39.7252 32.1473 39.2483 32.9859C38.7244 33.8999 38.0644 34.7288 37.2909 35.444C37.0897 35.6309 36.8837 35.8106 36.6656 35.9879C35.8539 36.6394 34.9743 37.2017 34.0422 37.6649C33.1789 38.0955 32.2853 38.4622 31.3684 38.7622C29.5237 39.356 27.6238 39.7621 25.6975 39.9745C24.9237 40.0632 24.2744 40.1087 23.8072 40.1303C23.34 40.1518 23.0549 40.1542 23.0094 40.1542C20.1707 40.0932 17.3556 39.6244 14.6503 38.7622C13.7341 38.4618 12.8412 38.0942 11.979 37.6625C11.0424 37.2006 10.1587 36.6382 9.34355 35.9855C9.12553 35.8082 8.91709 35.6285 8.71824 35.4416C7.94477 34.7264 7.28474 33.8975 6.76084 32.9835C6.28296 32.1454 5.93175 31.2411 5.71865 30.3002C5.36198 30.2687 5.00952 30.2004 4.66688 30.0965C3.70855 29.8114 2.96584 29.0879 2.51063 28.0049C1.73917 26.2057 1.87094 23.8194 2.12011 22.1352C2.45708 19.8583 3.14825 17.6481 4.16855 15.5849C6.62667 10.7214 10.2683 8.60588 12.887 7.69068C14.4057 7.15285 16.0029 6.86952 17.614 6.85214C18.8194 6.44523 20.0615 6.15637 21.3227 5.98964C21.8019 5.92495 22.1996 5.89141 22.4847 5.87464C22.7698 5.85786 22.9495 5.85547 22.9902 5.85547C24.8258 5.91698 26.6416 6.25542 28.376 6.85932C29.9871 6.87671 31.5843 7.16004 33.103 7.69786C35.7217 8.61307 39.3609 10.7286 41.8215 15.5921C42.8476 17.653 43.546 19.8614 43.8915 22.1376ZM41.8239 27.291C42.8086 25.0006 42.0802 20.1203 40.2043 16.4091C38.7788 13.5844 36.7974 11.5001 34.3033 10.1799C33.7479 9.89269 33.1731 9.64452 32.5831 9.43724C31.1373 8.90865 29.6062 8.65198 28.067 8.68016H28.0454C27.6453 8.5388 27.2644 8.41901 26.9074 8.31839C25.6363 7.9426 24.324 7.72375 22.9998 7.66672C21.6761 7.71994 20.3638 7.93477 19.0922 8.30641C18.74 8.40703 18.3567 8.52682 17.9566 8.66818H17.9326C16.3927 8.64389 14.8616 8.90463 13.4165 9.43724C12.8271 9.64773 12.2531 9.89911 11.6987 10.1895C9.20219 11.5001 7.22084 13.5844 5.79292 16.4091C3.91938 20.125 3.19344 25.0006 4.17334 27.291C4.41292 27.8756 4.75792 28.223 5.19157 28.3547C5.28261 28.3835 5.37126 28.4027 5.4623 28.4218C6.06727 28.5478 6.69515 28.5064 7.27834 28.302C7.70378 28.1532 8.10683 27.9469 8.47626 27.6887C7.57303 27.8324 6.62428 27.7558 5.93188 27.1904C4.79865 26.2704 4.78667 23.4385 6.17146 19.1356C8.7398 11.1838 16.234 9.25036 17.3864 10.132C17.7793 10.4315 17.3456 11.1311 17.039 11.8451C16.9815 11.9792 16.9192 12.1182 16.8521 12.2595C16.2915 13.7426 16.0255 15.1705 15.738 16.7709C15.429 18.4791 15.1079 20.2472 14.3365 22.3124C13.3374 24.9934 11.9406 27.1568 10.3306 28.5728C9.53478 29.2987 8.58451 29.8344 7.55146 30.1396C7.93407 31.6228 8.72708 32.968 9.83949 34.0209L10.6181 34.6965C12.0031 35.7375 13.5578 36.531 15.2133 37.042C16.95 37.5984 18.7384 37.9781 20.5513 38.1753C22.0055 38.3382 22.9806 38.343 22.9998 38.343C25.6435 38.2771 28.2647 37.8391 30.7863 37.042C32.4416 36.5306 33.9962 35.7371 35.3815 34.6965L36.1577 34.0209C37.271 32.9683 38.0649 31.623 38.4481 30.1396C37.4146 29.834 36.4636 29.2983 35.6666 28.5728C35.2063 28.1665 34.7807 27.7226 34.3944 27.2455C33.7935 28.1355 33.0764 28.9413 32.2621 29.6413C31.6621 30.1353 31.0209 30.577 30.3454 30.9614C30.2884 30.9945 30.2229 31.0103 30.157 31.0069C30.0912 31.0034 30.0277 30.9809 29.9744 30.9421C29.9211 30.9032 29.8802 30.8497 29.8568 30.7881C29.8333 30.7264 29.8283 30.6593 29.8423 30.5948L30.2616 28.6087C30.7349 28.2909 31.114 27.8514 31.3589 27.3365C32.0992 27.291 32.437 26.934 32.5927 26.6178C32.6732 26.4626 32.7207 26.2925 32.7322 26.1181C32.7438 25.9436 32.7191 25.7687 32.6598 25.6043C32.593 25.4256 32.4906 25.2623 32.3588 25.1243C32.2271 24.9864 32.0686 24.8766 31.8931 24.8017L29.4039 23.7284C29.6842 22.7365 29.8112 22.2741 29.8687 22.0513C29.8872 21.9783 29.9293 21.9135 29.9884 21.8668C30.3747 21.564 30.8002 21.3149 31.2534 21.1265C30.8299 19.6974 30.4986 18.2425 30.2616 16.7709C29.9741 15.1824 29.7153 13.7545 29.1331 12.2715C29.066 12.1302 29.0038 11.9912 28.9463 11.857C28.6396 11.1383 28.2059 10.4435 28.5989 10.144C29.7489 9.26234 37.2454 11.1958 39.8138 19.1475C41.2033 23.46 41.1914 26.2823 40.0533 27.2023C39.3585 27.7678 38.4122 27.8444 37.509 27.7007C37.8788 27.9581 38.2818 28.1644 38.7069 28.314C39.2909 28.5183 39.9195 28.5597 40.5253 28.4338C40.6164 28.4146 40.705 28.3955 40.7961 28.3667C41.2417 28.223 41.5723 27.8756 41.8239 27.291Z" fill="black"/>
<path id="Vector_2" d="M40.2044 16.4104C42.0804 20.1215 42.8087 25.0018 41.824 27.2922C41.5844 27.8768 41.2418 28.2242 40.8082 28.356C40.7172 28.3847 40.6285 28.4039 40.5375 28.4231C39.9317 28.549 39.3031 28.5076 38.719 28.3033C38.2939 28.1537 37.891 27.9474 37.5211 27.6899C38.4243 27.8337 39.3707 27.757 40.0655 27.1916C41.1987 26.2716 41.2107 23.4397 39.8259 19.1368C37.2576 11.1851 29.7634 9.25161 28.611 10.1333C28.2181 10.4328 28.6517 11.1323 28.9584 11.8463C29.0159 11.9805 29.0782 12.1194 29.1453 12.2608C29.7275 13.7438 29.9862 15.1717 30.2737 16.7602C30.512 18.2343 30.8449 19.6916 31.2704 21.123C30.8172 21.3114 30.3916 21.5604 30.0054 21.8633C29.9463 21.9099 29.9042 21.9748 29.8856 22.0478C29.8281 22.2873 29.7011 22.7402 29.4208 23.7248L31.9101 24.7982C32.0856 24.8731 32.244 24.9828 32.3758 25.1208C32.5076 25.2588 32.61 25.4221 32.6767 25.6008C32.736 25.7652 32.7607 25.9401 32.7492 26.1145C32.7376 26.2889 32.6901 26.459 32.6097 26.6142C32.4539 26.9185 32.1161 27.2755 31.3758 27.333C31.1309 27.8479 30.7519 28.2873 30.2785 28.6052L29.8592 30.5913C29.8452 30.6558 29.8503 30.7229 29.8737 30.7845C29.8972 30.8462 29.938 30.8997 29.9914 30.9385C30.0447 30.9774 30.1081 30.9999 30.174 31.0033C30.2399 31.0067 30.3053 30.991 30.3624 30.9579C31.0378 30.5734 31.6791 30.1318 32.279 29.6378C33.0934 28.9377 33.8105 28.132 34.4113 27.2419C34.7977 27.719 35.2232 28.163 35.6835 28.5692C36.4805 29.2948 37.4315 29.8305 38.4651 30.1361C38.0818 31.6195 37.2879 32.9647 36.1747 34.0173L35.3984 34.693C34.0131 35.7335 32.4585 36.527 30.8032 37.0385C28.2761 37.8355 25.6491 38.2719 23 38.3346C22.9808 38.3346 22.0057 38.3346 20.5514 38.1669C18.7385 37.9697 16.9502 37.5901 15.2135 37.0337C13.558 36.5227 12.0033 35.7292 10.6183 34.6882L9.83966 34.0221C8.72725 32.9692 7.93424 31.624 7.55164 30.1409C8.58469 29.8357 9.53496 29.2999 10.3308 28.574C11.9528 27.1581 13.3376 24.9946 14.3366 22.3137C15.1081 20.2485 15.4291 18.4804 15.7382 16.7721C16.0257 15.1837 16.2845 13.7558 16.8666 12.2728C16.9337 12.1314 16.996 11.9924 17.0535 11.8583C17.3602 11.1395 17.7938 10.4447 17.4009 10.1453C16.2509 9.26359 8.75435 11.197 6.18601 19.1488C4.79643 23.4613 4.80841 26.2836 5.94643 27.2036C6.63883 27.769 7.58758 27.8457 8.49081 27.7019C8.12138 27.9601 7.71833 28.1665 7.29289 28.3153C6.7097 28.5196 6.08182 28.561 5.47685 28.435C5.38581 28.4159 5.29716 28.3967 5.20612 28.368C4.77247 28.2362 4.43945 27.8888 4.18789 27.3042C3.20799 25.0138 3.93393 20.1335 5.80747 16.4223C7.24497 13.5977 9.21674 11.5133 11.7108 10.1932C12.2613 9.90244 12.8312 9.65027 13.4166 9.43849C14.8617 8.91025 16.392 8.65358 17.9304 8.68141H17.9543C18.3545 8.54005 18.7378 8.42026 19.09 8.31964C20.3618 7.94375 21.6749 7.7249 23 7.66797C24.3229 7.72129 25.6344 7.93612 26.9052 8.30766C27.2622 8.40828 27.6431 8.52807 28.0432 8.66943H28.0648C29.6055 8.64479 31.1375 8.90553 32.5833 9.43849C33.1727 9.64898 33.7467 9.90036 34.3011 10.1908C36.7976 11.5013 38.7789 13.5857 40.2044 16.4104ZM31.7927 26.2069C31.8177 26.1547 31.8314 26.0978 31.8327 26.0399C31.834 25.982 31.8229 25.9245 31.8003 25.8712C31.7776 25.8179 31.7438 25.7701 31.7012 25.7309C31.6586 25.6917 31.6081 25.662 31.5531 25.6439L29.1764 24.6161L27.9785 24.1034L27.6766 23.9716H27.6383C27.3224 24.0122 27.0295 24.1582 26.8069 24.3861C26.5034 24.699 26.2977 25.0937 26.2152 25.5217C26.1589 25.817 26.1614 26.1205 26.2225 26.4148C26.2835 26.7091 26.402 26.9885 26.5711 27.2371C26.7402 27.4856 26.9566 27.6984 27.2079 27.8632C27.4593 28.0281 27.7407 28.1418 28.036 28.1979C28.3742 28.2638 28.7227 28.254 29.0566 28.1691C29.4752 28.0639 29.8551 27.8418 30.1521 27.5287C30.449 27.2156 30.6508 26.8245 30.7337 26.401H30.7601C30.8224 26.401 30.9997 26.4273 31.2081 26.4273C31.4429 26.4249 31.7016 26.3842 31.7927 26.2069ZM28.4744 30.9075L28.853 29.1203C28.7292 29.1375 28.6043 29.1463 28.4792 29.1466C27.9538 29.1446 27.4367 29.0151 26.9722 28.7693C26.5078 28.5236 26.1099 28.1688 25.8127 27.7355C25.4006 27.1335 25.2092 26.4076 25.2707 25.6807C25.3323 24.9538 25.6431 24.2705 26.1505 23.7464L26.1721 23.7248L26.1936 23.7057C26.3698 23.5416 26.5663 23.4007 26.7782 23.2864C27.0401 23.1374 27.3347 23.0551 27.6359 23.0468H27.7365H27.8923L28.036 23.1091L28.2277 23.1906C28.3043 22.9151 28.3762 22.6635 28.4361 22.4503C28.4539 22.3882 28.4537 22.3223 28.4354 22.2604C28.4172 22.1985 28.3817 22.143 28.3331 22.1005C27.6551 21.5135 26.6105 20.8235 25.4461 20.8259L25.3958 20.845H25.312C24.6649 20.8818 24.0456 21.1207 23.5414 21.5279C23.1779 21.8016 22.8827 22.1559 22.6789 22.5629C22.6789 22.5844 22.6574 22.6036 22.6478 22.6276C22.6294 22.6656 22.6133 22.7048 22.5999 22.7449C22.5735 22.8024 22.552 22.8623 22.5304 22.9246C22.5299 22.9505 22.5267 22.9762 22.5208 23.0013C22.5016 23.0708 22.4849 23.1403 22.4681 23.2121L22.4489 23.2912C22.4489 23.3511 22.4322 23.4158 22.4226 23.4805L22.4082 23.5883C22.4082 23.6649 22.4082 23.7464 22.4082 23.8279V23.8734C22.4082 25.8236 24.0086 28.138 25.7624 29.6402C26.46 30.2107 27.2091 30.7152 28.0001 31.1471C28.0464 31.1688 28.0971 31.1797 28.1483 31.1789C28.1995 31.1782 28.2498 31.1658 28.2955 31.1427C28.3412 31.1196 28.3811 31.0865 28.4121 31.0457C28.4431 31.005 28.4644 30.9577 28.4744 30.9075ZM24.0326 34.7169C24.6555 34.185 25.2305 33.3633 25.2305 32.6709V32.6565C25.2305 32.6254 25.2305 32.599 25.2305 32.5727C25.2295 32.5599 25.2295 32.5471 25.2305 32.5343C25.2305 32.5104 25.2305 32.4888 25.2305 32.4648V32.4385C25.2267 32.4131 25.2202 32.3883 25.2113 32.3642C25.2132 32.3563 25.2132 32.3481 25.2113 32.3403L25.1898 32.278L25.173 32.2348C25.1672 32.2288 25.1631 32.2214 25.161 32.2133C25.0884 32.0684 24.9825 31.9428 24.852 31.8467C24.6741 31.7028 24.4552 31.6189 24.2266 31.6071H24.1787C23.8354 31.6156 23.5048 31.7387 23.2396 31.9569C23.214 31.9755 23.1961 32.0027 23.1892 32.0336C23.1581 32.163 23.0623 32.4984 22.7987 33.4232L23.1916 33.2315C23.2407 33.2095 23.2957 33.2046 23.3478 33.2177C23.4 33.2307 23.4462 33.2609 23.4791 33.3034C23.4989 33.3316 23.5124 33.3638 23.5186 33.3977C23.5248 33.4316 23.5236 33.4664 23.5151 33.4998L23.194 35.0212C23.1883 35.0474 23.1903 35.0746 23.1997 35.0997C23.2091 35.1248 23.2255 35.1466 23.247 35.1625C23.2686 35.1785 23.2942 35.1879 23.3209 35.1896C23.3477 35.1913 23.3743 35.1852 23.3977 35.1721C23.6217 35.0385 23.8341 34.8863 24.0326 34.7169ZM22.6909 35.1506L22.9688 33.8472L22.5376 34.0557C22.5094 34.0706 22.4784 34.0794 22.4466 34.0815C22.4148 34.0835 22.3829 34.0788 22.3531 34.0677C22.3007 34.0454 22.2579 34.0052 22.2325 33.9543C22.207 33.9033 22.2005 33.845 22.2141 33.7897C22.3555 33.3106 22.5567 32.5918 22.6717 32.1893C22.6788 32.1637 22.6785 32.1367 22.6708 32.1112C22.6632 32.0858 22.6486 32.0631 22.6286 32.0456C22.3512 31.7852 21.9924 31.6286 21.6128 31.6023H21.5625C21.3332 31.6141 21.1136 31.698 20.9348 31.8419C20.8049 31.938 20.6998 32.0637 20.6281 32.2085V32.23C20.6281 32.2444 20.6281 32.2564 20.6113 32.2732C20.5946 32.2899 20.5946 32.3139 20.5874 32.3355V32.3594C20.5874 32.3834 20.5874 32.4073 20.5682 32.4337C20.549 32.46 20.5682 32.4505 20.5682 32.46C20.5682 32.4696 20.5682 32.5056 20.5562 32.5295C20.555 32.5423 20.555 32.5551 20.5562 32.5679C20.5562 32.5942 20.5562 32.6206 20.5562 32.6517V32.6661C20.5562 33.3585 21.1264 34.1803 21.7541 34.7121C21.995 34.911 22.2541 35.0867 22.528 35.2368C22.561 35.2454 22.596 35.2413 22.6262 35.2253C22.6563 35.2094 22.6794 35.1827 22.6909 35.1506ZM17.7148 28.2027C18.3113 28.0894 18.8385 27.7439 19.1804 27.242C19.5223 26.7402 19.6509 26.1231 19.538 25.5265C19.4546 25.0982 19.2481 24.7036 18.9438 24.3909C18.7139 24.1517 18.4048 24.0043 18.0741 23.9764L14.2073 25.6367C14.1525 25.6552 14.1023 25.685 14.0599 25.7243C14.0175 25.7635 13.9838 25.8113 13.9612 25.8645C13.9386 25.9177 13.9275 25.975 13.9286 26.0328C13.9297 26.0906 13.943 26.1475 13.9677 26.1997C14.1498 26.5567 15.0266 26.3579 15.0338 26.3938C15.1514 26.9878 15.4995 27.5111 16.0019 27.8492C16.5043 28.1873 17.1202 28.3126 17.7148 28.1979V28.2027Z" fill="white"/>
<path id="Vector_3" d="M31.5437 25.6356C31.5987 25.6538 31.6492 25.6834 31.6918 25.7226C31.7345 25.7618 31.7682 25.8097 31.7909 25.8629C31.8136 25.9162 31.8246 25.9737 31.8233 26.0316C31.822 26.0895 31.8084 26.1464 31.7833 26.1986C31.6923 26.3759 31.4335 26.4167 31.1916 26.4167C30.9903 26.4167 30.8058 26.3903 30.7435 26.3903H30.7172C30.6343 26.8138 30.4325 27.2049 30.1355 27.518C29.8386 27.8311 29.4586 28.0533 29.0401 28.1584C28.7062 28.2433 28.3576 28.2531 28.0195 28.1872C27.7242 28.1311 27.4428 28.0174 27.1914 27.8526C26.9401 27.6877 26.7236 27.4749 26.5545 27.2264C26.3854 26.9779 26.267 26.6985 26.2059 26.4041C26.1448 26.1098 26.1424 25.8063 26.1986 25.511C26.2812 25.083 26.4869 24.6883 26.7904 24.3754C27.0129 24.1475 27.3059 24.0015 27.6218 23.9609H27.6601L27.962 24.0927L29.1599 24.6054L31.5437 25.6356Z" fill="black"/>
<path id="Vector_4" d="M28.853 29.1261L28.4745 30.9063C28.4637 30.9585 28.4407 31.0075 28.4074 31.0491C28.3741 31.0908 28.3314 31.124 28.2827 31.1459C28.2341 31.1679 28.181 31.178 28.1277 31.1755C28.0744 31.173 28.0225 31.1579 27.9762 31.1315C27.1852 30.6995 26.4361 30.195 25.7384 29.6245C23.9871 28.1223 22.3843 25.8079 22.3843 23.8577V23.8122C22.3843 23.7331 22.3843 23.6517 22.3843 23.5726L22.3987 23.4648C22.3987 23.4001 22.4154 23.3354 22.425 23.2755L22.4442 23.1965C22.4609 23.1246 22.4777 23.0551 22.4969 22.9856C22.5051 22.9655 22.5115 22.9446 22.516 22.9233C22.5376 22.861 22.5592 22.8011 22.5855 22.7436C22.599 22.7035 22.615 22.6643 22.6334 22.6263C22.6334 22.6023 22.655 22.5831 22.6646 22.5616C22.8683 22.1546 23.1635 21.8003 23.5271 21.5266C24.0352 21.1165 24.6599 20.8776 25.312 20.8438H25.3958H25.4462C26.6105 20.8438 27.6551 21.5314 28.3331 22.1183C28.3817 22.1609 28.4172 22.2163 28.4355 22.2783C28.4537 22.3402 28.4539 22.4061 28.4362 22.4681C28.3763 22.6814 28.3044 22.9329 28.2277 23.2084L28.036 23.127L27.8923 23.0647H27.7366H27.6359C27.3347 23.073 27.0402 23.1553 26.7782 23.3043C26.5666 23.4171 26.3701 23.5563 26.1937 23.7188L26.1721 23.7379L26.1505 23.7595C25.7228 24.2149 25.4375 24.7854 25.3296 25.4008C25.2218 26.0162 25.2962 26.6497 25.5436 27.2234C25.791 27.7972 26.2006 28.2861 26.7222 28.6301C27.2438 28.9741 27.8545 29.1582 28.4793 29.1597C28.6045 29.157 28.7294 29.1458 28.853 29.1261Z" fill="black"/>
<path id="Vector_5" d="M25.2235 32.6692C25.2235 33.3616 24.6557 34.1834 24.0256 34.7153C23.8239 34.8834 23.6083 35.0341 23.3811 35.1657C23.3577 35.1788 23.3311 35.1848 23.3044 35.1831C23.2776 35.1814 23.252 35.172 23.2305 35.1561C23.209 35.1401 23.1925 35.1183 23.1831 35.0932C23.1737 35.0682 23.1717 35.0409 23.1775 35.0147L23.4985 33.4934C23.5087 33.4619 23.5123 33.4285 23.509 33.3955C23.5057 33.3625 23.4956 33.3306 23.4793 33.3017C23.4461 33.2611 23.4004 33.2325 23.3493 33.2204C23.2982 33.2083 23.2446 33.2133 23.1966 33.2346L22.8037 33.4263C23.0673 32.5015 23.1631 32.1661 23.1942 32.0367C23.2011 32.0059 23.219 31.9786 23.2445 31.9601C23.4995 31.7475 23.8163 31.6231 24.1478 31.6055H24.1957C24.4242 31.6173 24.6431 31.7011 24.821 31.8451C24.9515 31.9411 25.0575 32.0667 25.1301 32.2116C25.1321 32.2197 25.1362 32.2272 25.142 32.2332L25.1588 32.2763L25.1804 32.3386C25.1822 32.3465 25.1822 32.3547 25.1804 32.3626C25.1893 32.3866 25.1957 32.4115 25.1995 32.4368V32.4632C25.1995 32.4871 25.1995 32.5087 25.1995 32.5327C25.1985 32.5454 25.1985 32.5582 25.1995 32.571C25.1995 32.5973 25.1995 32.6237 25.1995 32.6548V32.6692H25.2235Z" fill="black"/>
<path id="Vector_6" d="M22.969 33.8456L22.6911 35.1489C22.6867 35.17 22.6774 35.1898 22.6639 35.2066C22.6505 35.2234 22.6332 35.2368 22.6136 35.2457C22.594 35.2545 22.5725 35.2587 22.551 35.2577C22.5295 35.2567 22.5085 35.2506 22.4898 35.2399C22.2159 35.0898 21.9568 34.9142 21.716 34.7153C21.0954 34.1834 20.518 33.3616 20.518 32.6692V32.6548C20.518 32.6237 20.518 32.5973 20.518 32.571C20.5168 32.5582 20.5168 32.5454 20.518 32.5327C20.518 32.5087 20.518 32.4871 20.53 32.4632C20.542 32.4392 20.53 32.4464 20.53 32.4368C20.53 32.4272 20.53 32.3865 20.5492 32.3626V32.3386C20.5492 32.317 20.566 32.2955 20.5731 32.2763C20.5803 32.2571 20.5851 32.2476 20.5899 32.2332V32.2116C20.6616 32.0668 20.7667 31.9412 20.8966 31.8451C21.0754 31.7011 21.295 31.6172 21.5243 31.6055H21.5722C21.9518 31.6317 22.3106 31.7883 22.588 32.0487C22.608 32.0662 22.6226 32.089 22.6303 32.1144C22.6379 32.1398 22.6382 32.1669 22.6312 32.1924C22.5569 32.583 22.3556 33.3017 22.2143 33.7809C22.2006 33.8362 22.2071 33.8945 22.2326 33.9454C22.2581 33.9964 22.3008 34.0365 22.3532 34.0588C22.3831 34.07 22.415 34.0747 22.4468 34.0726C22.4786 34.0705 22.5096 34.0618 22.5377 34.0468L22.969 33.8456Z" fill="black"/>
<path id="Vector_7" d="M19.538 25.5197C19.6546 26.1186 19.5285 26.7393 19.1875 27.2452C18.8464 27.7511 18.3184 28.1009 17.7195 28.2174C17.1207 28.334 16.5 28.208 15.9941 27.8669C15.4881 27.5259 15.1384 26.9979 15.0218 26.399C15.0218 26.3631 14.1378 26.5619 13.9557 26.2049C13.931 26.1527 13.9177 26.0958 13.9166 26.038C13.9155 25.9802 13.9266 25.9229 13.9492 25.8697C13.9718 25.8165 14.0055 25.7688 14.0479 25.7295C14.0903 25.6902 14.1405 25.6604 14.1953 25.6419L18.0621 23.9648C18.3928 23.9928 18.7019 24.1401 18.9318 24.3793C19.2413 24.6918 19.4521 25.0884 19.538 25.5197Z" fill="black"/>
</g>
</svg>
