<svg width="40" height="40" viewBox="0 0 40 40" fill="none" xmlns="http://www.w3.org/2000/svg">
<path d="M38.5057 15.3418C37.472 12.1628 32.8005 10.9604 28.1464 10.5842C26.3493 5.96926 23.6276 1.28516 20.0029 1.28516C16.3782 1.28516 13.6565 5.96926 11.855 10.5798C7.20535 10.9604 2.53385 12.1628 1.5001 15.3375C0.466347 18.5121 3.61558 22.2576 7.20971 25.2852C6.01457 30.2115 5.49988 35.8688 8.5924 37.9449C11.4494 39.8652 16.0293 37.8151 20.0029 35.1854C23.9722 37.8151 28.5521 39.8652 31.409 37.9449C34.5016 35.8688 33.9869 30.2115 32.7917 25.2852C36.3815 22.2749 39.5482 18.551 38.5057 15.3418Z" fill="#F5F093"/>
<path d="M28.7403 39.9987C26.3631 39.9987 23.4406 38.9044 20.0166 36.7332C14.7039 40.0938 10.6213 40.8637 7.88206 39.0212C4.95529 37.0576 4.25304 32.5984 5.78403 25.7647C1.11253 21.6818 -0.741238 18.0487 0.266341 14.9476C1.27392 11.8465 4.85933 9.99967 10.9441 9.37253C13.5088 3.15301 16.5533 0 20.0035 0C23.4537 0 26.4983 3.15301 29.0587 9.37253C35.1652 9.99967 38.7375 11.8724 39.7364 14.9476C40.7352 18.0228 38.8945 21.6818 34.2318 25.7604C35.7671 32.5941 35.0649 37.0533 32.1381 39.0169C31.1336 39.6814 29.9475 40.0241 28.7403 39.9987ZM20.0166 33.9132C20.2727 33.9139 20.5229 33.9891 20.7363 34.1295C25.3075 37.1571 28.8449 38.1389 30.6987 36.8932C32.6877 35.5568 32.9887 31.5474 31.5711 25.596C31.5147 25.3609 31.5257 25.1149 31.6027 24.8857C31.6798 24.6564 31.8199 24.4531 32.0072 24.2985C36.0637 20.8644 37.948 17.8368 37.2545 15.7348C36.5828 13.6717 33.3071 12.2747 28.0249 11.8422C27.7825 11.8211 27.5508 11.7335 27.3559 11.5891C27.161 11.4447 27.0105 11.2492 26.9214 11.0247C24.8059 5.5794 22.3415 2.56912 20.0035 2.56912C17.6656 2.56912 15.2055 5.5967 13.0639 11.042C12.9745 11.2672 12.8233 11.463 12.6276 11.6075C12.4318 11.7519 12.1992 11.8392 11.956 11.8595C6.67384 12.292 3.39376 13.6717 2.72204 15.7521C2.05032 17.8325 3.94335 20.8644 8.03037 24.3245C8.21771 24.479 8.3578 24.6824 8.43487 24.9116C8.51193 25.1409 8.52291 25.3869 8.46655 25.622C7.02715 31.5474 7.33248 35.5698 9.33891 36.8932C11.1927 38.1389 14.7301 37.1571 19.3013 34.1295C19.5097 33.9923 19.7534 33.9173 20.0035 33.9132H20.0166Z" fill="black"/>
<path d="M11.916 24.0173C14.2551 24.0173 16.1513 21.4942 16.1513 18.3817C16.1513 15.2692 14.2551 12.7461 11.916 12.7461C9.57688 12.7461 7.68066 15.2692 7.68066 18.3817C7.68066 21.4942 9.57688 24.0173 11.916 24.0173Z" fill="black"/>
<path d="M10.3727 22.4791C11.2231 22.4791 11.9124 21.5613 11.9124 20.429C11.9124 19.2968 11.2231 18.3789 10.3727 18.3789C9.52236 18.3789 8.83301 19.2968 8.83301 20.429C8.83301 21.5613 9.52236 22.4791 10.3727 22.4791Z" fill="white"/>
<path d="M13.8442 17.6967C14.6054 17.6967 15.2225 16.9802 15.2225 16.0964C15.2225 15.2126 14.6054 14.4961 13.8442 14.4961C13.0829 14.4961 12.4658 15.2126 12.4658 16.0964C12.4658 16.9802 13.0829 17.6967 13.8442 17.6967Z" fill="white"/>
<path d="M28.0898 24.0173C30.4289 24.0173 32.3251 21.4942 32.3251 18.3817C32.3251 15.2692 30.4289 12.7461 28.0898 12.7461C25.7507 12.7461 23.8545 15.2692 23.8545 18.3817C23.8545 21.4942 25.7507 24.0173 28.0898 24.0173Z" fill="black"/>
<path d="M26.5505 22.4791C27.4008 22.4791 28.0902 21.5613 28.0902 20.429C28.0902 19.2968 27.4008 18.3789 26.5505 18.3789C25.7001 18.3789 25.0107 19.2968 25.0107 20.429C25.0107 21.5613 25.7001 22.4791 26.5505 22.4791Z" fill="white"/>
<path d="M30.018 17.6967C30.7792 17.6967 31.3963 16.9802 31.3963 16.0964C31.3963 15.2126 30.7792 14.4961 30.018 14.4961C29.2568 14.4961 28.6396 15.2126 28.6396 16.0964C28.6396 16.9802 29.2568 17.6967 30.018 17.6967Z" fill="white"/>
<path d="M12.7104 29.684C14.9074 29.684 16.6884 28.4912 16.6884 27.0197C16.6884 25.5483 14.9074 24.3555 12.7104 24.3555C10.5134 24.3555 8.73242 25.5483 8.73242 27.0197C8.73242 28.4912 10.5134 29.684 12.7104 29.684Z" fill="#F4C3DA"/>
<path d="M27.2915 29.684C29.4884 29.684 31.2694 28.4912 31.2694 27.0197C31.2694 25.5483 29.4884 24.3555 27.2915 24.3555C25.0945 24.3555 23.3135 25.5483 23.3135 27.0197C23.3135 28.4912 25.0945 29.684 27.2915 29.684Z" fill="#F4C3DA"/>
<path d="M21.461 25.6226C21.0248 25.0258 20.2092 25.4626 20.0041 25.5924C19.7948 25.4626 18.9922 25.0258 18.5473 25.6226C18.1024 26.2195 18.6738 26.8553 19.0315 27.2056C19.1967 27.3613 19.4143 27.4507 19.6421 27.4565C19.7627 27.4634 19.8836 27.4634 20.0041 27.4565C20.1247 27.4635 20.2456 27.4635 20.3662 27.4565C20.593 27.4518 20.8096 27.3621 20.9725 27.2056C21.3301 26.8683 21.8754 26.1936 21.461 25.6226Z" fill="#231F20"/>
</svg>
