<svg id="Layer_1" data-name="Layer 1" xmlns="http://www.w3.org/2000/svg" viewBox="0 0 192 192"><path d="M69.89,58.94a22,22,0,0,1,3.74-.32,26.25,26.25,0,0,1,3.08.19c.18-14.07,8.92-25.44,19.65-25.44S115.8,44.7,116,58.73c.79-.07,1.58-.11,2.37-.11a22,22,0,0,1,3.74.32C122,39.78,110.33,24.24,96,24.24S70,39.78,69.89,58.94Z" fill="#6dcff6"/><path d="M134.55,65.64a22.36,22.36,0,0,0-8.33-5.59c0-.27,0-.54,0-.81,0-21.57-13.56-39.11-30.23-39.11S65.77,37.67,65.77,59.24c0,.27,0,.54,0,.81a22.36,22.36,0,0,0-8.33,5.59,27.49,27.49,0,0,0-7.16,20.43c.64,11.61,5.9,22,15.62,30.83,8,7.33,17.5,12.07,24,14.75l0,0a15.86,15.86,0,0,0,11.93.05l.49-.2c6.5-2.71,15.92-7.47,23.9-14.8,9.59-8.81,14.79-19.13,15.42-30.65A27.49,27.49,0,0,0,134.55,65.64Zm3.06,20.2c-1.32,23.66-23.62,36.39-36.8,41.88l-.43.17a11.76,11.76,0,0,1-8.88,0c-13.29-5.48-35.79-18.22-37.11-42a23.38,23.38,0,0,1,6-17.37,17.75,17.75,0,0,1,13.19-5.73A21.84,21.84,0,0,1,94.07,77a2.05,2.05,0,0,0,3.86,0,21.84,21.84,0,0,1,20.44-14.29,17.75,17.75,0,0,1,13.19,5.73A23.38,23.38,0,0,1,137.61,85.84Zm-15.5-26.9a22,22,0,0,0-3.74-.32c-.79,0-1.58,0-2.37.11-.2-14-8.93-25.36-19.64-25.36S76.89,44.74,76.71,58.81a26.25,26.25,0,0,0-3.08-.19,22,22,0,0,0-3.74.32C70,39.78,81.67,24.24,96,24.24S122,39.78,122.11,58.94Zm-41.29.3c0-12,7-21.76,15.54-21.76s15.54,9.76,15.54,21.76c0,.07,0,.14,0,.22A26,26,0,0,0,96,71.5,26.08,26.08,0,0,0,80.82,59.65Z" fill="#74489d"/><path d="M81.26,92.55A6.53,6.53,0,1,0,74.73,86,6.53,6.53,0,0,0,81.26,92.55Zm1.63-6.81a1.18,1.18,0,1,1-1.18,1.18A1.18,1.18,0,0,1,82.89,85.74Zm-5.35-2.08a2.09,2.09,0,1,1,2.09,2.08A2.09,2.09,0,0,1,77.54,83.66Z"/><circle cx="79.63" cy="83.66" r="2.09" fill="#fff"/><circle cx="82.89" cy="86.92" r="1.18" fill="#fff"/><path d="M114.19,79.72,105.4,84a2.07,2.07,0,0,0-1.16,1.85,2,2,0,0,0,1.16,1.85L114.19,92a2.08,2.08,0,0,0,.9.21,2,2,0,0,0,1.85-1.16A2.05,2.05,0,0,0,116,88.3l-5-2.44,5-2.44a2.06,2.06,0,0,0-1.81-3.7Z"/><path d="M96,105.47a4.5,4.5,0,0,0,4.5-4.49V96.55a7.42,7.42,0,0,0,2.16-2.8,1,1,0,0,0-1.88-.84,5.26,5.26,0,0,1-9.56,0,1,1,0,0,0-1.88.84,7.42,7.42,0,0,0,2.16,2.8V101A4.5,4.5,0,0,0,96,105.47ZM95.06,98V99.2a1,1,0,1,0,2.06,0V98a8,8,0,0,0,1.32-.32V101a2.44,2.44,0,1,1-4.88,0V97.64A7.28,7.28,0,0,0,95.06,98Z"/><path d="M97,116.81h0l-.27-.89a1,1,0,0,1,.46-1.19,2.38,2.38,0,1,0-2.38,0,1,1,0,0,1,.46,1.19L93.43,122h5.14Z" fill="#6dcff6"/><path d="M99,116.21h0l0-.19a4.43,4.43,0,1,0-5.82,0l-2,6.72a1,1,0,0,0,1,1.33H100a1,1,0,0,0,.83-.42,1.05,1.05,0,0,0,.16-.91Zm-3.69-.29a1,1,0,0,0-.46-1.19,2.38,2.38,0,1,1,2.38,0,1,1,0,0,0-.46,1.19l.27.89h0l1.57,5.2H93.43Z" fill="#74489d"/><path d="M102.14,92.4a1,1,0,0,0-1.36.51,5.26,5.26,0,0,1-9.56,0,1,1,0,0,0-1.88.84,7.42,7.42,0,0,0,2.16,2.8V101a4.5,4.5,0,0,0,9,0V96.55a7.42,7.42,0,0,0,2.16-2.8A1,1,0,0,0,102.14,92.4ZM98.44,101a2.44,2.44,0,1,1-4.88,0V97.64a7.28,7.28,0,0,0,1.5.34V99.2a1,1,0,1,0,2.06,0V98a8,8,0,0,0,1.32-.32Z" fill="none"/><path d="M99,116.21h0l0-.19a4.43,4.43,0,1,0-5.82,0l-2,6.72a1,1,0,0,0,1,1.33H100a1,1,0,0,0,.83-.42,1.05,1.05,0,0,0,.16-.91Z" fill="none"/><circle cx="81.26" cy="86.02" r="6.53" fill="none"/><path d="M115.09,92.21a2,2,0,0,0,1.85-1.16A2.05,2.05,0,0,0,116,88.3l-5-2.44,5-2.44a2.06,2.06,0,0,0-1.81-3.7L105.4,84a2.07,2.07,0,0,0-1.16,1.85,2,2,0,0,0,1.16,1.85L114.19,92A2.08,2.08,0,0,0,115.09,92.21Z" fill="none"/><path d="M131.56,68.47a17.75,17.75,0,0,0-13.19-5.73A21.84,21.84,0,0,0,97.93,77a2.05,2.05,0,0,1-3.86,0A21.84,21.84,0,0,0,73.63,62.74a17.75,17.75,0,0,0-13.19,5.73,23.38,23.38,0,0,0-6,17.37c1.32,23.79,23.82,36.53,37.11,42a11.76,11.76,0,0,0,8.88,0l.43-.17c13.18-5.49,35.48-18.22,36.8-41.88A23.38,23.38,0,0,0,131.56,68.47ZM81.26,92.55A6.53,6.53,0,1,1,87.79,86,6.53,6.53,0,0,1,81.26,92.55Zm19.53,31.1a1,1,0,0,1-.83.42H92a1,1,0,0,1-1-1.33l2-6.72a4.43,4.43,0,1,1,5.82,0l0,.19h0l2,6.53A1.05,1.05,0,0,1,100.79,123.65Zm1.87-29.9a7.42,7.42,0,0,1-2.16,2.8V101a4.5,4.5,0,0,1-9,0V96.55a7.42,7.42,0,0,1-2.16-2.8,1,1,0,0,1,1.88-.84,5.26,5.26,0,0,0,9.56,0,1,1,0,0,1,1.88.84Zm1.58-7.89A2.07,2.07,0,0,1,105.4,84l8.79-4.29a2.06,2.06,0,0,1,1.81,3.7l-5,2.44,5,2.44a2.05,2.05,0,0,1,.94,2.75,2,2,0,0,1-1.85,1.16,2.08,2.08,0,0,1-.9-.21l-8.79-4.29A2,2,0,0,1,104.24,85.86Z" fill="#f17bb0"/><path d="M97.12,99.2a1,1,0,1,1-2.06,0V98a7.28,7.28,0,0,1-1.5-.34V101a2.44,2.44,0,1,0,4.88,0V97.64a8,8,0,0,1-1.32.32Z" fill="#f17bb0"/><path d="M93.56,101a2.44,2.44,0,1,0,4.88,0V97.64a8,8,0,0,1-1.32.32V99.2a1,1,0,1,1-2.06,0V98a7.28,7.28,0,0,1-1.5-.34Z" fill="#fff" opacity="0.4"/><ellipse cx="74.91" cy="96.2" rx="4.72" ry="1.9" fill="#fff" opacity="0.4"/><ellipse cx="116.56" cy="96.2" rx="4.72" ry="1.9" fill="#fff" opacity="0.4"/><path d="M182.17,144c-1.23-6.92-5-8-7.14-8a6.65,6.65,0,0,0-5.06,1.94,6.43,6.43,0,0,0-4.44-1.94,7,7,0,0,0-1.9.26c-.1-.65-.21-1.26-.33-1.82-1.38-6.08-4.91-7-6.89-7s-5.5.91-6.88,7a26.85,26.85,0,0,0-.45,2.69,8.57,8.57,0,0,0-7.9-.26,6.76,6.76,0,0,0-3.26-.84,6.52,6.52,0,0,0-5.4,2.78,9.71,9.71,0,0,0-13.26-.32,6.77,6.77,0,0,0-3.62-2h0a29.47,29.47,0,0,0-6.18-.42c-4,0-7,.39-9,1.91a12.4,12.4,0,0,0-9.72-1.51,12.77,12.77,0,0,0-2.48,1,7.37,7.37,0,1,0-13.85-5,7,7,0,0,0-6.1-5.08c-2.29-.18-6.32.62-7.63,8-.1.55-.23,1.42-.34,2.51a11.34,11.34,0,0,0-13.37.95l-.52-.42a12.28,12.28,0,0,0-10.24-1.88,11.07,11.07,0,0,0-5.18,3,9.25,9.25,0,0,0-7-3.39c-.65-4-2.35-8.64-7.2-8.64-2,0-5.5.91-6.88,7a51,51,0,0,0-.83,10.89,51.08,51.08,0,0,0,.83,10.9c1.34,5.92,4.72,6.94,6.72,7h.41a6.75,6.75,0,0,0,3.26-.83,8.57,8.57,0,0,0,3.68.83,9.36,9.36,0,0,0,7.18-3.56,12.18,12.18,0,0,0,9.2,3.56h.54a11,11,0,0,0,6.21-2.08,11.19,11.19,0,0,0,6.59,2.09,10.91,10.91,0,0,0,9-4.62,9.89,9.89,0,0,0,8.58,4.62,9.09,9.09,0,0,0,5.44-1.76,6.82,6.82,0,0,0,9.95-.86,12.68,12.68,0,0,0,8.19,2.62h.54a11.12,11.12,0,0,0,5.47-1.58,6.81,6.81,0,0,0,2.62,1.16h0a28.13,28.13,0,0,0,5.54.42h.64c4.39,0,7.55-.47,9.57-2.4a9.87,9.87,0,0,0,6.38,2.4,10.06,10.06,0,0,0,7-2.9,6.31,6.31,0,0,0,5.26,2.9,6.7,6.7,0,0,0,5.06-1.93,6.42,6.42,0,0,0,4.44,1.93,6.79,6.79,0,0,0,4.67-1.79,6,6,0,0,0,4.32,1.79,5.67,5.67,0,0,0,1.12-.1,8.08,8.08,0,0,0,2.25,5.25,11.87,11.87,0,0,0,8.19,3.5h.63c7.84,0,13.05-4.66,14-12.58A61.57,61.57,0,0,0,182.17,144Z" fill="#74489d"/><path d="M39,148a1.58,1.58,0,0,0,2-1.06,1.68,1.68,0,0,0-1.24-2,1.45,1.45,0,0,0-1.81,1.2A1.41,1.41,0,0,0,39,148Z" fill="none"/><path d="M125.71,147.09a2.62,2.62,0,1,0,1.94,2.53A2.29,2.29,0,0,0,125.71,147.09Z" fill="none"/><path d="M22.36,147.12a1.77,1.77,0,0,0-1.48.91,3,3,0,0,0-.45,1.61,3.13,3.13,0,0,0,.32,1.39,1.87,1.87,0,0,0,1.61,1.13,2.61,2.61,0,0,0,0-5Z" fill="none"/><path d="M93.56,148a1.58,1.58,0,0,0,2-1.06,1.68,1.68,0,0,0-1.23-2,1.46,1.46,0,0,0-1.82,1.2A1.41,1.41,0,0,0,93.56,148Z" fill="none"/><path d="M57.12,147.61c-.5-.2-4-1.09-3.81-2,.15-.58,1-.83,2.76.71a3.13,3.13,0,0,0,3.58.22,2.74,2.74,0,0,0,.73-3.77,7.2,7.2,0,0,0-6.12-3.12c-3.93,0-7.12,2.86-7.12,6.39a5.79,5.79,0,0,0,3.7,5.61,7.33,7.33,0,0,0,1.55.56c1.34.47,2.41.69,2.27,1.45-.11.59-1,.83-2.77-.7a3.13,3.13,0,0,0-3.58-.23,2.74,2.74,0,0,0-.72,3.77,7.19,7.19,0,0,0,6.12,3.12c3.93,0,7.12-2.86,7.12-6.39A5.43,5.43,0,0,0,57.12,147.61Z" fill="#f17bb0"/><ellipse cx="81.34" cy="149.62" rx="4.11" ry="9.99" fill="#f17bb0"/><circle cx="81.34" cy="134.83" r="3.77" fill="#f17bb0"/><path d="M24,139.67a5.33,5.33,0,0,0-3.18,1.1c-.26-5.66-1.2-9.74-4-9.74-3.52,0-4.11,6.39-4.11,14.28s.59,14.29,4.11,14.29h.25A3.21,3.21,0,0,0,20,157.76a5.59,5.59,0,0,0,4,1.85c3.82,0,6.93-4.46,6.93-10S27.81,139.67,24,139.67Zm-1.63,12.49A1.87,1.87,0,0,1,20.75,151a3.13,3.13,0,0,1-.32-1.39,3,3,0,0,1,.45-1.61,1.77,1.77,0,0,1,1.48-.91,2.61,2.61,0,0,1,0,5Z" fill="#f17bb0"/><path d="M43.72,152.83c-1.15.14-1.82,1.17-3.35,1.34a1.82,1.82,0,0,1-2.21-2,5,5,0,0,0,2.64.59c3.21,0,5.8-2.18,5.8-6.55,0-5.93-6.19-7.21-9.44-6.3-5.94,1.67-6.09,7.66-5.5,12.28.44,3.51,2.43,7.63,9.14,7.44,2.8-.09,5.93-1.76,5.82-4.5A2.38,2.38,0,0,0,43.72,152.83ZM38,146.08a1.45,1.45,0,0,1,1.81-1.2,1.68,1.68,0,0,1,1.24,2A1.58,1.58,0,0,1,39,148,1.41,1.41,0,0,1,38,146.08Z" fill="#6dcff6"/><path d="M98.25,152.83c-1.15.14-1.82,1.17-3.34,1.34a1.83,1.83,0,0,1-2.22-2,5,5,0,0,0,2.65.59c3.2,0,5.8-2.18,5.8-6.55,0-5.93-6.2-7.21-9.45-6.3-5.94,1.67-6.08,7.66-5.5,12.28.44,3.51,2.44,7.63,9.15,7.44,2.79-.09,5.92-1.76,5.81-4.5A2.38,2.38,0,0,0,98.25,152.83Zm-5.71-6.75a1.46,1.46,0,0,1,1.82-1.2,1.68,1.68,0,0,1,1.23,2,1.58,1.58,0,0,1-2,1.06A1.41,1.41,0,0,1,92.54,146.08Z" fill="#6dcff6"/><path d="M73.69,150.9c-.92,0-1.1.34-1.68.34a.92.92,0,0,1-1-.74,15,15,0,0,1-.07-3.17c3.24-.41,5.75-1.42,5.75-3.76s-2.25-3.24-5.23-3.69a22.38,22.38,0,0,0-.32-5.71c-.47-2-1.62-3.15-3.16-3.27-2.38-.18-3.34,2.38-3.81,5-.14.77-.36,2.45-.51,4.59a3.21,3.21,0,0,0-2.35,3.08,3.18,3.18,0,0,0,2.2,3c0,1.21.12,2.43.26,3.61.28,2.28,1.1,9.41,7.52,9.41a5.27,5.27,0,0,0,5.4-5.42C76.66,152.65,75.86,150.9,73.69,150.9Z" fill="#6dcff6"/><path d="M144.87,139.62a5.61,5.61,0,0,0-4,1.87,3.21,3.21,0,0,0-2.91-1.87c-3.82,0-4,5.77-4,10,0,3.31.41,10,4,10a2.92,2.92,0,0,0,3.06-1.74,10.14,10.14,0,0,0,.53-2.75c.2-2.21.2-4.87.2-5.5,0-1.4.32-2.53,1.53-2.53s1.21,1.51,1.08,3c-.08,1-.64,4.9.42,7.46a3.18,3.18,0,0,0,2.68,2c3.54,0,4.4-4.47,4.4-10S148.71,139.62,144.87,139.62Z" fill="#f17bb0"/><path d="M175,139.59a2.92,2.92,0,0,0-3.06,1.75,10.06,10.06,0,0,0-.53,2.74c-.2,2.21-.2,4.88-.2,5.51,0,1.39-.32,2.52-1.53,2.52s-1.21-1.5-1.08-3c.08-1,.64-4.9-.42-7.46a3.19,3.19,0,0,0-2.68-2c-3.54,0-4.4,4.48-4.4,10s3.11,10,7,10a5.28,5.28,0,0,0,3.16-1.09v.35c0,1.4-.66,2.79-2.65,2.55-1.82-.21-2.63-1.52-4-1.7a2.88,2.88,0,0,0-3.47,2.88c-.13,3.47,3.61,5.59,7,5.69,8,.25,10.41-5,10.94-9.4a57.74,57.74,0,0,0-.39-14.28C178.16,142,177.16,139.59,175,139.59Z" fill="#f17bb0"/><path d="M125.71,139.62c-4.23,0-7.67,4.48-7.67,10s3.44,10,7.67,10,7.67-4.47,7.67-10S129.94,139.62,125.71,139.62Zm0,12.53a2.62,2.62,0,1,1,1.94-2.53A2.3,2.3,0,0,1,125.71,152.15Z" fill="#6dcff6"/><ellipse cx="156.41" cy="145.33" rx="4.11" ry="14.29" fill="#6dcff6"/><path d="M117.53,156.42c-.1-2.37-2.55-3-6.53-3,.46-.56.94-1.14,1.41-1.74a39.64,39.64,0,0,0,4.79-7.1l0,0a3.25,3.25,0,0,0-2.29-4.52h0a27.63,27.63,0,0,0-5.43-.35c-4.71,0-7.89.52-7.78,3.19.1,2.37,2.53,3,6.5,3l-1.41,1.74a40.38,40.38,0,0,0-4.79,7.1l0,0a3.25,3.25,0,0,0,2.3,4.52h0a27.52,27.52,0,0,0,5.42.35C114.43,159.57,117.64,159.08,117.53,156.42Z" fill="#f17bb0"/></svg>