<svg id="Layer_1" data-name="Layer 1" xmlns="http://www.w3.org/2000/svg" viewBox="0 0 192 192"><circle cx="96" cy="96" r="84" fill="#89f179"/><path d="M95.29,60.89c-23.22,0-45.13-6.62-61.68-18.64a4.17,4.17,0,0,1,4.9-6.74c15.14,11,35.3,17.05,56.78,17.05,22,0,42.58-6.33,57.83-17.83a4.17,4.17,0,0,1,5,6.65C141.45,54,119.13,60.89,95.29,60.89Z" fill="#fff"/><path d="M155,157.64a4.15,4.15,0,0,1-2.47-.81c-15.19-11.21-35.51-17.39-57.23-17.39-21.38,0-41.49,6-56.61,16.92a4.16,4.16,0,0,1-4.87-6.75c16.53-11.93,38.36-18.5,61.48-18.5,23.48,0,45.57,6.75,62.18,19a4.17,4.17,0,0,1-2.48,7.52Z" fill="#fff"/><path d="M96,184.17A88.17,88.17,0,1,1,184.17,96,88.27,88.27,0,0,1,96,184.17Zm0-168A79.83,79.83,0,1,0,175.83,96,79.92,79.92,0,0,0,96,16.17Z"/><path d="M36.07,93.13a8.32,8.32,0,0,1,3.1,1.92,7.64,7.64,0,0,1,2.16,4.54c.06.7.09,1.26.09,1.7a8.23,8.23,0,0,1-.81,3.59,9.8,9.8,0,0,1-2.22,3,10.36,10.36,0,0,1-3.3,2,11.27,11.27,0,0,1-4,.72,10.65,10.65,0,0,1-5.29-1.28A9.93,9.93,0,0,1,22.17,106a3.49,3.49,0,0,1-.59-1.44,4.6,4.6,0,0,1,0-1.57,3.63,3.63,0,0,1,.56-1.43,3.35,3.35,0,0,1,1.07-1,5,5,0,0,1,2.42-.65,4.28,4.28,0,0,1,2.81,1,11.69,11.69,0,0,0,1.85,1.31,2.94,2.94,0,0,0,1.28.39.77.77,0,0,0,.85-.66c.13-.56-.13-1-.79-1.2l-2.48-.88q-.58-.14-1.17-.33a5.1,5.1,0,0,1-1.11-.52l-1.4-.75a7.47,7.47,0,0,1-1.77-1.44,8.79,8.79,0,0,1-1.53-2.38,8.63,8.63,0,0,1-.65-3.59,8.23,8.23,0,0,1,.81-3.59,9.8,9.8,0,0,1,2.22-3,10.25,10.25,0,0,1,3.3-2,11.27,11.27,0,0,1,4-.72,10.67,10.67,0,0,1,5.29,1.27A10.24,10.24,0,0,1,40.77,86a4,4,0,0,1,.59,3.07,3.5,3.5,0,0,1-1.63,2.48,4.89,4.89,0,0,1-2.42.65A4.3,4.3,0,0,1,35.84,92a3.8,3.8,0,0,1-1.33-.78,10.82,10.82,0,0,0-1.83-1.27,2.86,2.86,0,0,0-1.24-.36.91.91,0,0,0-1,.65c-.09.31.12.62.62,1a10,10,0,0,0,1.76.88c.68.26,1.34.49,2,.68A9.93,9.93,0,0,1,36.07,93.13Z" fill="#fff"/><path d="M42.08,95.94a19.83,19.83,0,0,1,.78-5.65A15.76,15.76,0,0,1,45,85.69a10.91,10.91,0,0,1,3.23-3.1,7.44,7.44,0,0,1,3.95-1.14A7.81,7.81,0,0,1,58,84.12a4.8,4.8,0,0,1,4.64-2.67,3.6,3.6,0,0,1,3.06,1.63,12.09,12.09,0,0,1,1.83,4.47,38.21,38.21,0,0,1,.85,6.62c.13,2.53.2,5.22.2,8.1s-.07,5.56-.2,8.06a38.09,38.09,0,0,1-.85,6.59,12.24,12.24,0,0,1-1.83,4.47A3.6,3.6,0,0,1,62.64,123,3.54,3.54,0,0,1,60,122,7.81,7.81,0,0,1,58.3,119a22,22,0,0,1-1-4.5c-.24-1.74-.4-3.64-.49-5.68a7.3,7.3,0,0,1-4.57,1.57,7.45,7.45,0,0,1-3.95-1.15,10.91,10.91,0,0,1-3.23-3.1,15.76,15.76,0,0,1-2.15-4.6A19.81,19.81,0,0,1,42.08,95.94Zm9.66,0a4.13,4.13,0,0,0,.81,2.57,2.44,2.44,0,0,0,2,1.08,2.27,2.27,0,0,0,2.09-1.24,4.8,4.8,0,0,0,.72-2.41,5,5,0,0,0-.46-2,2.58,2.58,0,0,0-2.35-1.63,2.44,2.44,0,0,0-2,1.08A4.14,4.14,0,0,0,51.74,95.94Z" fill="#fff"/><path d="M79.41,110.56a7.37,7.37,0,0,1-4-1.15,10.67,10.67,0,0,1-3.23-3.13,16.32,16.32,0,0,1-2.15-4.63A19.93,19.93,0,0,1,69.29,96a55.89,55.89,0,0,1,.27-5.65,18.6,18.6,0,0,1,1-4.6,7.76,7.76,0,0,1,2-3.1,4.54,4.54,0,0,1,3.2-1.14,3.83,3.83,0,0,1,2.29.82,4.84,4.84,0,0,1,1.63,2.12,10.24,10.24,0,0,1,.75,3.07c.11,1.13.16,2.2.16,3.23a25.9,25.9,0,0,1-.13,2.77c-.09.83-.15,1.41-.2,1.76a12.16,12.16,0,0,0,.13,3.07c.18.91.66,1.37,1.44,1.37a1.73,1.73,0,0,0,1.76-1.11A6.73,6.73,0,0,0,84,96q0-1,0-2.64c0-1.11.07-2.26.13-3.46s.18-2.34.33-3.43A9.22,9.22,0,0,1,85.09,84,3.66,3.66,0,0,1,87,82a6.78,6.78,0,0,1,2.58-.46,3.61,3.61,0,0,1,3.1,1.6A11.62,11.62,0,0,1,94.36,87a28.1,28.1,0,0,1,.78,4.77c.13,1.65.2,3.09.2,4.31,0,1.52,0,3.13-.13,4.83a24,24,0,0,1-.69,4.7,8.93,8.93,0,0,1-1.73,3.55,4,4,0,0,1-3.26,1.41,4.59,4.59,0,0,1-2.58-.75,4.4,4.4,0,0,1-1.66-1.93,10,10,0,0,1-2.78,2A7.2,7.2,0,0,1,79.41,110.56Z" fill="#fff"/><path d="M113.94,100.7a5.76,5.76,0,0,1,1.3,0,3.68,3.68,0,0,1,1.34.46,3.33,3.33,0,0,1,1.08,1,3.61,3.61,0,0,1,.52,1.8,4.49,4.49,0,0,1-.68,2.67,7.11,7.11,0,0,1-2,2,10,10,0,0,1-2.78,1.3,12.53,12.53,0,0,1-3,.53h-.59a14.52,14.52,0,0,1-5.84-1A11.26,11.26,0,0,1,99.48,107a9.85,9.85,0,0,1-2.15-3.5,18.76,18.76,0,0,1-1-3.75,41.16,41.16,0,0,1-.33-5.29,17.37,17.37,0,0,1,.79-5.22,12,12,0,0,1,2.54-4.44,10.37,10.37,0,0,1,5-2.87,11.16,11.16,0,0,1,3.07-.39,13.63,13.63,0,0,1,3.65.52,11.23,11.23,0,0,1,3.46,1.63,8.4,8.4,0,0,1,2.55,2.94,9.33,9.33,0,0,1,1,4.44,11.91,11.91,0,0,1-.66,4.14,8.54,8.54,0,0,1-1.79,3A7.22,7.22,0,0,1,113,100a9.15,9.15,0,0,1-3.29.59,7.28,7.28,0,0,1-2.88-.46,2.6,2.6,0,0,1-1-.39,3.64,3.64,0,0,0,.68,2.15,2.5,2.5,0,0,0,2.51.79,6.51,6.51,0,0,0,1.47-.39,10,10,0,0,0,1.18-.59l1.07-.62A2.86,2.86,0,0,1,113.94,100.7Zm-8.29-9.86a2.64,2.64,0,0,0,.1,1.8,1.77,1.77,0,0,0,1.34,1,3.7,3.7,0,0,0,.78.06,2.64,2.64,0,0,0,1.37-.39,1.6,1.6,0,0,0,.78-1.18,2.3,2.3,0,0,0-.26-1.86,2.19,2.19,0,0,0-1.5-1.07,1.78,1.78,0,0,0-.59-.07A1.89,1.89,0,0,0,105.65,90.84Z" fill="#fff"/><path d="M139.07,81.45a4,4,0,0,1,3.26,1.4,8.91,8.91,0,0,1,1.73,3.56,23.91,23.91,0,0,1,.69,4.73c.08,1.72.13,3.34.13,4.86,0,1.18-.07,2.6-.2,4.28a28,28,0,0,1-.78,4.79,11.58,11.58,0,0,1-1.73,3.89,3.63,3.63,0,0,1-3.1,1.6,4.59,4.59,0,0,1-2.58-.75,4.4,4.4,0,0,1-1.66-1.93,7.89,7.89,0,0,1-5.88,2.68,7.37,7.37,0,0,1-3.95-1.15,10.67,10.67,0,0,1-3.23-3.13,16.32,16.32,0,0,1-2.15-4.63,20.6,20.6,0,0,1,0-11.3,16.32,16.32,0,0,1,2.15-4.63A10.67,10.67,0,0,1,125,82.59,7.44,7.44,0,0,1,129,81.45a7.13,7.13,0,0,1,3.13.71,9.46,9.46,0,0,1,2.75,2,4.29,4.29,0,0,1,1.66-2A4.59,4.59,0,0,1,139.07,81.45ZM131.3,99.72a2.41,2.41,0,0,0,2-1.11,4.25,4.25,0,0,0,.82-2.61,4.12,4.12,0,0,0-.82-2.58,2.39,2.39,0,0,0-4,0,4.12,4.12,0,0,0-.82,2.58,4.25,4.25,0,0,0,.82,2.61A2.41,2.41,0,0,0,131.3,99.72Z" fill="#fff"/><path d="M164.91,95.15a6,6,0,0,1,3.2,1.24,4.44,4.44,0,0,1,1.63,2.22c.13.44.28,1,.43,1.76a15.79,15.79,0,0,1,.29,2.39,16.16,16.16,0,0,1-.06,2.51,6.06,6.06,0,0,1-.66,2.22,6,6,0,0,1-1.82,2.25,4.54,4.54,0,0,1-2.74.82,3.76,3.76,0,0,1-2.29-.85,5.05,5.05,0,0,1-1.63-2.16,13.75,13.75,0,0,1-.82-2.48q-.23-1.11-.42-1.89a5.17,5.17,0,0,0-.43-1.21,1,1,0,0,0-.81-.49,1.2,1.2,0,0,0-1.34.53,5.66,5.66,0,0,0-.55,1.66q-.19,1-.36,2.19a5.68,5.68,0,0,1-.75,2.15,4.87,4.87,0,0,1-1.57,1.83,4.79,4.79,0,0,1-2,.65,1,1,0,0,1-.39.07h-.33a3.57,3.57,0,0,1-2.87-1.34,10.08,10.08,0,0,1-1.79-3.69,29.08,29.08,0,0,1-1-5.55q-.3-3.2-.36-6.92V89.73q0-4.31.23-8.09a41.8,41.8,0,0,1,.85-6.59,12.05,12.05,0,0,1,1.79-4.44A3.61,3.61,0,0,1,151.47,69,3.85,3.85,0,0,1,155,71.23a18.39,18.39,0,0,1,1.83,6c0,.3.09.9.13,1.79s.09,1.92.13,3.07.08,2.37.1,3.66,0,2.47,0,3.55.42,1.46,1.24,1.5a1.09,1.09,0,0,0,1.08-.78,10.25,10.25,0,0,0,.49-1.92c.13-.77.27-1.56.42-2.39a6.93,6.93,0,0,1,.82-2.22,4,4,0,0,1,1.63-1.5,4.84,4.84,0,0,1,2.29-.58,4.12,4.12,0,0,1,3.45,1.4A6.89,6.89,0,0,1,170,86.08a11.57,11.57,0,0,1,0,3.62,8.68,8.68,0,0,1-.69,2.51A6,6,0,0,1,167.79,94,5.36,5.36,0,0,1,164.91,95.15Z" fill="#fff"/></svg>