<svg width="200" height="106" viewBox="0 0 200 106" fill="none" xmlns="http://www.w3.org/2000/svg">
<path d="M187.41 65.5083V66.1711C187.41 72.1967 181.538 76.9368 174.52 76.6556C131.576 74.9383 99.4967 79.6684 81.932 83.2435C74.1665 84.8403 66.71 79.8391 66.71 73.0402C66.71 68.3202 70.3983 64.1726 75.7515 62.9273C91.3523 59.2718 126.492 52.8847 175.717 55.0238C182.266 55.3049 187.41 59.9246 187.41 65.5083Z" fill="#A2A2A3"/>
<path d="M187.41 43.8361V44.4889C187.41 50.5144 181.538 55.2546 174.52 54.9734C131.586 53.226 99.4967 57.946 81.922 61.5714C74.1665 63.1682 66.71 58.1569 66.71 51.3681C66.71 46.638 70.3983 42.5004 75.7515 41.2451C91.3523 37.5896 126.492 31.2025 175.717 33.3516C182.266 33.6328 187.41 38.2524 187.41 43.8361Z" fill="#7F7F7F"/>
<path d="M187.41 22.1545V22.8173C187.41 28.8428 181.538 33.583 174.52 33.3018C131.585 31.5744 99.5065 36.3146 81.9318 39.8897C74.1762 41.4865 66.7197 36.4853 66.7197 29.6864C66.7197 24.9563 70.4081 20.8188 75.7612 19.5635C91.3721 15.9079 126.501 9.52082 175.726 11.6699C182.266 11.9411 187.41 16.5708 187.41 22.1545Z" fill="#5C5C5C"/>
<path d="M113.114 44.5288C115.107 44.4284 116.214 44.9405 116.334 46.0653C116.453 47.1901 115.536 47.9232 113.572 48.2546C113.572 48.8672 113.572 49.4195 113.572 49.9418C113.56 50.3968 113.493 50.8486 113.373 51.2875C113.289 51.6176 113.136 51.9259 112.924 52.1913C112.731 52.415 112.46 52.5553 112.167 52.583C112.032 52.5959 111.897 52.5812 111.768 52.5397C111.64 52.4983 111.521 52.431 111.419 52.342C111.165 52.1151 110.956 51.8427 110.801 51.5385C110.604 51.1495 110.444 50.7427 110.323 50.3234C110.193 49.8614 110.073 49.3894 109.974 48.8973C109.874 48.4052 109.774 47.8931 109.705 47.4311C109.635 46.9691 109.565 46.4871 109.525 46.0753C109.339 44.8405 109.339 43.5844 109.525 42.3495C109.66 41.5609 109.956 40.8088 110.392 40.1402C110.704 39.6666 111.138 39.2881 111.648 39.0455C112.044 38.8644 112.464 38.7426 112.894 38.684C113.225 38.6379 113.561 38.6379 113.891 38.684C114.245 38.7349 114.584 38.8579 114.888 39.0455C115.177 39.2203 115.431 39.4486 115.636 39.7184C115.843 40.0144 115.967 40.3614 115.995 40.7226C116.035 41.0282 116.015 41.339 115.935 41.6365C115.86 41.9131 115.739 42.1748 115.576 42.4098C115.42 42.6391 115.216 42.8311 114.978 42.9722C114.743 43.1214 114.477 43.2141 114.2 43.2433C113.749 43.2968 113.293 43.1864 112.914 42.932L112.974 43.5044C112.974 43.6551 112.974 43.8057 113.024 43.9664C113.074 44.1271 113.104 44.338 113.114 44.5288Z" fill="white"/>
<path d="M120.241 42.1092C120.74 42.069 121.24 42.1554 121.697 42.3603C122.172 42.5766 122.596 42.8914 122.943 43.2842C123.328 43.7097 123.639 44.1988 123.86 44.7303C124.104 45.3153 124.256 45.9356 124.308 46.5681C124.37 47.1965 124.33 47.8308 124.189 48.4461C124.058 49.0097 123.84 49.5487 123.541 50.0429C123.271 50.5088 122.904 50.9098 122.464 51.2179C122.05 51.4964 121.574 51.6687 121.079 51.72C120.577 51.7619 120.073 51.6755 119.613 51.4689C119.139 51.2472 118.714 50.9292 118.367 50.535C117.568 49.6011 117.092 48.4309 117.011 47.2008C116.95 46.5691 116.99 45.9315 117.131 45.3128C117.259 44.7515 117.478 44.2154 117.779 43.7261C118.055 43.2846 118.418 42.9052 118.846 42.6113C119.26 42.3263 119.741 42.1534 120.241 42.1092ZM120.77 48.1348C120.899 48.1215 121.023 48.076 121.131 48.0024C121.239 47.9287 121.327 47.8293 121.388 47.713C121.547 47.448 121.614 47.1369 121.577 46.8293C121.559 46.5241 121.44 46.2339 121.238 46.0058C121.156 45.9039 121.05 45.8234 120.93 45.7709C120.811 45.7185 120.68 45.6957 120.55 45.7045C120.422 45.7184 120.299 45.7631 120.192 45.8347C120.084 45.9063 119.995 46.0029 119.932 46.1162C119.772 46.3772 119.705 46.6855 119.743 46.9899C119.76 47.298 119.88 47.5914 120.082 47.8235C120.164 47.9248 120.27 48.0044 120.39 48.0551C120.51 48.1059 120.64 48.1263 120.77 48.1147V48.1348Z" fill="white"/>
<path d="M125.843 37.5698C126.042 37.5527 126.242 37.586 126.425 37.6667C126.608 37.7474 126.767 37.8729 126.89 38.0317C127.209 38.4554 127.445 38.9358 127.588 39.4478C127.798 40.1494 127.944 40.8687 128.026 41.5969C128.126 42.4204 128.216 43.3041 128.285 44.2481C128.355 45.1921 128.395 46.0859 128.405 46.9094C128.431 47.6413 128.391 48.3741 128.285 49.0987C128.222 49.6282 128.056 50.14 127.797 50.6051C127.697 50.7758 127.558 50.9197 127.392 51.0244C127.225 51.1291 127.035 51.1916 126.839 51.2064C126.643 51.2212 126.447 51.1879 126.266 51.1095C126.086 51.031 125.927 50.9096 125.803 50.7558C125.482 50.3312 125.248 49.8464 125.115 49.3297C124.909 48.6305 124.763 47.9149 124.677 47.1906C124.564 46.3671 124.474 45.4834 124.408 44.5394C124.338 43.5351 124.298 42.7016 124.288 41.868C124.27 41.1392 124.314 40.4102 124.418 39.6888C124.474 39.159 124.636 38.6464 124.896 38.1824C124.991 38.0087 125.127 37.8616 125.292 37.7546C125.458 37.6476 125.647 37.584 125.843 37.5698Z" fill="white"/>
<path d="M130.051 37.2783C130.242 37.2707 130.433 37.3097 130.606 37.3918C130.78 37.4739 130.931 37.5969 131.047 37.7503C131.367 38.1798 131.6 38.6674 131.735 39.1864C131.939 39.8886 132.079 40.6079 132.154 41.3355C132.244 42.159 132.323 43.0427 132.383 43.9867C132.443 44.9308 132.473 45.8245 132.483 46.6581C132.5 47.3876 132.45 48.1171 132.333 48.8373C132.267 49.369 132.094 49.8815 131.825 50.3437C131.723 50.5213 131.579 50.6698 131.404 50.7752C131.23 50.8806 131.031 50.9395 130.828 50.9463C130.628 50.9592 130.427 50.922 130.245 50.8379C130.062 50.7538 129.903 50.6254 129.781 50.4642C129.464 50.0388 129.234 49.5541 129.104 49.0382C128.914 48.3331 128.778 47.6147 128.695 46.8891C128.595 46.0656 128.515 45.1818 128.456 44.2378C128.396 43.2838 128.366 42.4 128.366 41.5665C128.359 40.8372 128.409 40.1085 128.515 39.3872C128.573 38.8549 128.743 38.3412 129.014 37.8808C129.119 37.6975 129.27 37.5453 129.452 37.4395C129.634 37.3338 129.841 37.2781 130.051 37.2783Z" fill="white"/>
<path d="M136.211 41.0243C136.708 41.0023 137.202 41.1095 137.647 41.3356C138.119 41.5776 138.534 41.9203 138.863 42.3399C139.23 42.779 139.52 43.2783 139.72 43.8161C139.94 44.4121 140.068 45.0388 140.099 45.674C140.132 46.3074 140.061 46.9418 139.889 47.552C139.744 48.1109 139.504 48.6407 139.182 49.1187C138.89 49.5585 138.51 49.9315 138.065 50.2133C137.643 50.4812 137.158 50.6335 136.66 50.6552C136.156 50.6793 135.655 50.572 135.204 50.3439C134.738 50.0963 134.327 49.7545 133.998 49.3396C133.64 48.8883 133.354 48.3835 133.151 47.8432C132.926 47.2487 132.798 46.6212 132.772 45.9854C132.741 45.3527 132.808 44.7191 132.971 44.1074C133.125 43.5526 133.367 43.0268 133.689 42.5508C133.978 42.1173 134.355 41.7509 134.796 41.4762C135.221 41.2057 135.709 41.05 136.211 41.0243ZM136.49 47.0499C136.62 47.0429 136.747 47.0035 136.858 46.9351C136.97 46.8668 137.062 46.7716 137.128 46.6582C137.292 46.3984 137.372 46.0942 137.358 45.7869C137.343 45.4796 137.235 45.1842 137.048 44.9409C136.972 44.8364 136.87 44.7525 136.754 44.6966C136.637 44.6407 136.509 44.6146 136.38 44.6206C136.251 44.6265 136.125 44.6644 136.014 44.7307C135.903 44.7971 135.81 44.89 135.743 45.0012C135.571 45.2547 135.491 45.5591 135.513 45.8648C135.523 46.1754 135.631 46.4748 135.822 46.7185C135.896 46.8258 135.997 46.9119 136.114 46.9683C136.231 47.0246 136.361 47.0493 136.49 47.0398V47.0499Z" fill="white"/>
<path d="M151.064 40.5726C151.448 40.5485 151.827 40.6744 152.121 40.9241C152.419 41.2014 152.648 41.5454 152.789 41.9284C152.973 42.4161 153.094 42.9258 153.148 43.4448C153.208 44.0273 153.257 44.6399 153.267 45.3027C153.287 45.9362 153.213 46.5692 153.048 47.1807C152.907 47.7282 152.681 48.25 152.38 48.7273C152.118 49.1258 151.779 49.4673 151.383 49.7315C151.002 49.9887 150.556 50.1315 150.097 50.1433H149.031C148.293 50.1669 147.565 49.9713 146.937 49.5809C146.327 49.9959 145.61 50.2227 144.874 50.2337H143.797C143.339 50.2445 142.887 50.1263 142.491 49.8922C142.069 49.6339 141.703 49.2923 141.415 48.8879C141.09 48.4251 140.841 47.9132 140.677 47.3715C140.484 46.7677 140.383 46.1379 140.378 45.5036C140.359 44.8805 140.375 44.2568 140.428 43.6356C140.459 43.1173 140.552 42.6046 140.707 42.1092C140.837 41.7304 141.052 41.3869 141.335 41.1049C141.606 40.8513 141.962 40.7082 142.332 40.7032C142.606 40.7054 142.872 40.797 143.089 40.9643C143.334 41.1333 143.525 41.3707 143.638 41.6472C143.781 41.965 143.872 42.3042 143.907 42.6515C143.952 43.0047 143.978 43.36 143.987 43.716C144.002 44.0238 144.002 44.3321 143.987 44.6399C143.987 44.9111 143.987 45.1019 143.927 45.2224C143.904 45.5588 143.927 45.8968 143.997 46.2266C144.056 46.5279 144.216 46.6786 144.475 46.6685C144.587 46.6768 144.698 46.6517 144.796 46.5963C144.893 46.5409 144.973 46.4577 145.023 46.3572C145.128 46.1166 145.182 45.8567 145.183 45.594C145.183 45.3831 145.183 45.0717 145.183 44.6901C145.183 44.3085 145.183 43.8968 145.183 43.485C145.183 43.0733 145.183 42.6816 145.263 42.3C145.279 42.007 145.343 41.7186 145.452 41.4464C145.545 41.2218 145.684 41.0198 145.861 40.8538C146.102 40.6556 146.407 40.5553 146.718 40.5726C146.994 40.5476 147.271 40.6147 147.505 40.7635C147.692 40.8928 147.846 41.0649 147.954 41.2656C148.06 41.4891 148.137 41.7253 148.183 41.9686C148.23 42.223 148.27 42.474 148.303 42.7218C148.303 43.1837 148.373 43.6457 148.403 44.1177C148.433 44.5897 148.403 45.0617 148.403 45.5237C148.423 45.7861 148.494 46.042 148.612 46.2769C148.662 46.3746 148.74 46.4549 148.836 46.5069C148.932 46.5589 149.042 46.5802 149.15 46.5681C149.409 46.5681 149.559 46.4074 149.609 46.1061C149.653 45.7729 149.653 45.4351 149.609 45.1019C149.609 44.9914 149.609 44.8006 149.549 44.5294C149.489 44.2583 149.489 43.947 149.479 43.6055C149.45 43.2513 149.45 42.8952 149.479 42.541C149.507 42.1968 149.584 41.8585 149.709 41.5367C149.812 41.2552 149.992 41.0083 150.227 40.8237C150.463 40.6339 150.763 40.5439 151.064 40.5726Z" fill="white"/>
<path d="M168.948 40.7528C169.407 40.7646 169.853 40.9074 170.234 41.1646C170.631 41.4269 170.971 41.7687 171.231 42.1689C171.536 42.6492 171.764 43.1743 171.909 43.7255C172.061 44.3359 172.132 44.9641 172.118 45.5934C172.118 46.2562 172.058 46.8788 171.989 47.4613C171.929 47.9793 171.808 48.4883 171.63 48.9778C171.49 49.3614 171.261 49.7058 170.962 49.982C170.816 50.1093 170.647 50.206 170.464 50.2663C170.281 50.3267 170.087 50.3495 169.895 50.3335C169.625 50.3235 169.366 50.2247 169.158 50.0523C168.922 49.8678 168.743 49.6209 168.639 49.3393C168.515 49.018 168.441 48.6792 168.42 48.335C168.4 47.9771 168.4 47.6184 168.42 47.2605C168.42 46.9291 168.42 46.6177 168.48 46.3466C168.539 46.0754 168.539 45.8846 168.559 45.7641C168.605 45.4309 168.605 45.093 168.559 44.7599C168.555 44.6379 168.505 44.5221 168.42 44.4348C168.336 44.3476 168.222 44.2952 168.101 44.2879C168.022 44.2826 167.943 44.2942 167.869 44.3219C167.796 44.3496 167.728 44.3928 167.672 44.4485C167.61 44.5166 167.565 44.5995 167.543 44.6896C167.543 44.8 167.543 44.9105 167.493 45.021C167.443 45.1314 167.493 45.2218 167.493 45.3222V45.503C167.493 46.1658 167.433 46.7885 167.363 47.3709C167.308 47.8898 167.188 48.3994 167.004 48.8874C166.867 49.2721 166.637 49.617 166.336 49.8916C166.042 50.1405 165.664 50.2662 165.28 50.2431C165.004 50.2319 164.74 50.1256 164.532 49.9419C164.299 49.7593 164.12 49.5163 164.014 49.2389C163.888 48.9174 163.811 48.5789 163.784 48.2346C163.755 47.8737 163.755 47.5109 163.784 47.15C163.784 46.8086 163.784 46.4972 163.864 46.2261C163.944 45.9549 163.924 45.7541 163.934 45.6436C163.98 45.3105 163.98 44.9725 163.934 44.6393C163.934 44.3381 163.725 44.1774 163.465 44.1673C163.342 44.1577 163.219 44.1861 163.112 44.2489C163.005 44.3117 162.92 44.4059 162.867 44.5188C162.75 44.7845 162.689 45.0717 162.688 45.3624C162.688 45.4327 162.688 45.5633 162.688 45.7541C162.688 45.9449 162.688 46.1558 162.688 46.4068C162.688 46.6579 162.688 46.9291 162.688 47.2103C162.688 47.4915 162.688 47.7526 162.598 48.0137C162.581 48.2976 162.541 48.5797 162.479 48.8573C162.434 49.0974 162.343 49.3262 162.209 49.5301C162.079 49.7236 161.9 49.8794 161.691 49.982C161.422 50.1036 161.128 50.1553 160.834 50.1327C160.635 50.133 160.439 50.0826 160.265 49.986C160.09 49.8894 159.943 49.7498 159.837 49.5803C159.582 49.1796 159.397 48.7381 159.289 48.2748C159.168 47.7536 159.095 47.2225 159.069 46.688C159.069 46.1357 159.069 45.6838 159.069 45.272C159.069 44.8603 159.069 44.2678 159.159 43.6753C159.194 43.1523 159.281 42.6342 159.418 42.1287C159.525 41.6988 159.73 41.3 160.016 40.9637C160.15 40.8119 160.317 40.6931 160.504 40.6165C160.69 40.5399 160.892 40.5075 161.093 40.5219C161.396 40.5273 161.69 40.6215 161.94 40.793C162.174 40.9564 162.357 41.1826 162.469 41.4458C162.722 41.1701 163.031 40.9529 163.375 40.809C163.719 40.6652 164.09 40.598 164.462 40.6122C164.92 40.6232 165.365 40.7623 165.748 41.014C166.152 41.2978 166.491 41.6639 166.745 42.0885C166.986 41.6728 167.329 41.3268 167.742 41.0843C168.11 40.8723 168.525 40.7583 168.948 40.7528Z" fill="white"/>
<path d="M178.219 47.5421C178.362 47.5282 178.505 47.5282 178.648 47.5421C178.804 47.569 178.953 47.627 179.086 47.7129C179.224 47.8041 179.337 47.9284 179.415 48.0744C179.516 48.2588 179.568 48.4665 179.565 48.677C179.561 48.9883 179.467 49.2919 179.296 49.5507C179.111 49.8064 178.877 50.0216 178.608 50.1834C178.316 50.3582 178 50.4901 177.671 50.575C177.344 50.654 177.01 50.6945 176.674 50.6955H176.445C175.79 50.6847 175.146 50.5376 174.551 50.2637C174.092 50.0434 173.682 49.7327 173.344 49.3498C173.051 48.9995 172.83 48.593 172.696 48.1547C172.572 47.7456 172.489 47.3251 172.447 46.8994C172.417 46.3306 172.42 45.7606 172.457 45.1922C172.486 44.6051 172.603 44.026 172.806 43.4749C173.004 42.94 173.314 42.4538 173.713 42.0488C174.196 41.595 174.798 41.2916 175.448 41.1751C175.775 41.1069 176.11 41.0799 176.445 41.0948C176.849 41.1196 177.248 41.2007 177.631 41.3358C178.032 41.4642 178.407 41.665 178.737 41.9283C179.072 42.1989 179.341 42.5422 179.525 42.9326C179.728 43.4 179.813 43.9104 179.774 44.4189C179.756 44.8832 179.661 45.3413 179.495 45.7746C179.347 46.147 179.131 46.4878 178.857 46.7789C178.596 47.0273 178.282 47.2127 177.94 47.3212C177.589 47.4351 177.221 47.4827 176.853 47.4618C176.53 47.4618 176.211 47.3933 175.916 47.261C175.805 47.2345 175.7 47.1868 175.607 47.1204C175.589 47.3759 175.656 47.6302 175.797 47.8434C175.891 47.9635 176.016 48.0551 176.158 48.1082C176.301 48.1614 176.455 48.174 176.604 48.1447C176.771 48.1278 176.935 48.0907 177.093 48.0342C177.23 47.9877 177.363 47.9306 177.491 47.8635L177.85 47.6727C177.963 47.6051 178.089 47.5607 178.219 47.5421ZM175.667 44.1879C175.597 44.3791 175.597 44.5893 175.667 44.7804C175.705 44.8677 175.764 44.9439 175.839 45.0019C175.914 45.0598 176.002 45.0977 176.096 45.1118C176.178 45.1215 176.262 45.1215 176.345 45.1118C176.504 45.1125 176.662 45.0746 176.803 45.0014C176.875 44.9648 176.937 44.9124 176.986 44.848C177.034 44.7836 177.067 44.709 177.083 44.6298C177.117 44.5277 177.13 44.4193 177.12 44.3119C177.11 44.2045 177.076 44.1005 177.023 44.0071C176.979 43.9119 176.913 43.828 176.832 43.7619C176.751 43.6958 176.656 43.6491 176.554 43.6255C176.488 43.6128 176.421 43.6128 176.355 43.6255C176.273 43.6158 176.19 43.6227 176.11 43.6459C176.031 43.6691 175.957 43.708 175.893 43.7604C175.829 43.8129 175.776 43.8777 175.737 43.9511C175.698 44.0245 175.674 44.1051 175.667 44.1879Z" fill="white"/>
<path d="M102.816 51.6695C102.816 42.4202 89.5276 35.7318 77.8942 31.6545C73.7872 20.8285 67.5269 9.66113 59.1333 9.66113C50.7398 9.66113 44.5393 20.8285 40.4322 31.6545C28.8388 35.7318 15.5107 42.4202 15.5107 51.6695C15.5107 58.0465 21.8308 63.2085 29.5465 67.1351C27.1541 78.0716 26.4563 90.0424 33.1253 94.6017C39.6348 99.0506 50.0719 94.3005 59.1333 88.2046C68.1948 94.3005 78.6319 99.0506 85.1514 94.6017C91.6708 90.1528 91.1325 78.0716 88.7301 67.1351C96.4956 63.2085 102.816 58.0465 102.816 51.6695Z" fill="#A2A2A3"/>
<path d="M39.2666 99.3216C36.5163 99.3824 33.8134 98.5939 31.521 97.062C25.2009 92.7437 23.4265 83.2132 26.2576 68.7217C17.1961 63.7004 12.6006 57.956 12.6006 51.6492C12.6006 42.9925 21.2035 35.4705 38.17 29.2843C44.0814 14.2705 51.1292 6.6582 59.1838 6.6582C67.2385 6.6582 74.2962 14.2705 80.2076 29.2843C97.1542 35.4705 105.767 42.9925 105.767 51.6492C105.767 57.9359 101.182 63.7004 92.1201 68.7217C94.9512 83.2132 93.1768 92.7437 86.8567 97.062C80.5366 101.38 71.3057 99.5425 59.1838 91.7595C51.3485 96.7908 44.6895 99.3216 39.2666 99.3216ZM59.2038 12.6336C53.8008 12.6336 48.1187 19.7638 43.254 32.7188C43.0975 33.1231 42.8561 33.4885 42.5464 33.7901C42.2367 34.0917 41.866 34.3224 41.4597 34.4663C26.7062 39.6583 18.5319 45.7642 18.5319 51.6693C18.5319 57.0321 25.2806 61.5914 30.9528 64.4736C31.5389 64.7695 32.0097 65.2548 32.2898 65.8519C32.5699 66.4491 32.6432 67.1236 32.4979 67.7676C29.7067 80.5419 30.5042 89.1886 34.8505 92.1311C39.1968 95.0736 47.1418 92.7437 57.5689 85.7339C58.0533 85.4045 58.6244 85.2285 59.2088 85.2285C59.7932 85.2285 60.3642 85.4045 60.8486 85.7339C71.2758 92.7638 79.3404 95.0233 83.5571 92.1311C87.7738 89.2388 88.7208 80.5419 85.8897 67.7676C85.7558 67.1228 85.8354 66.4515 86.1162 65.8566C86.3971 65.2617 86.8638 64.7759 87.4448 64.4736C93.107 61.5914 99.8657 57.0321 99.8657 51.6693C99.8657 45.7642 91.7313 39.6181 76.9379 34.4663C76.5334 34.3211 76.1647 34.0899 75.8567 33.7884C75.5488 33.4869 75.309 33.1221 75.1535 32.7188C70.2789 19.7638 64.5968 12.6336 59.1838 12.6336H59.2038Z" fill="black"/>
<path d="M46.1445 38.4336L31.5604 45.2425C31.2441 46.5576 31.0868 47.9064 31.0919 49.2596C31.0919 56.4702 35.4183 62.315 40.7515 62.315C46.0847 62.315 50.4011 56.4702 50.4011 49.2596C50.4655 47.2576 50.1209 45.2636 49.3887 43.4013C48.6564 41.539 47.5522 39.8482 46.1445 38.4336Z" fill="black"/>
<path d="M72.2227 38.4336L86.8167 45.2425C87.1282 46.5585 87.2854 47.9067 87.2852 49.2596C87.2852 56.4702 82.9588 62.315 77.6256 62.315C72.2924 62.315 67.9661 56.4702 67.9661 49.2596C67.9041 47.2578 68.2498 45.2646 68.9818 43.4026C69.7139 41.5407 70.8169 39.8496 72.2227 38.4336Z" fill="black"/>
<path d="M37.2326 58.7494C39.1705 58.7494 40.7415 56.6226 40.7415 53.9992C40.7415 51.3757 39.1705 49.249 37.2326 49.249C35.2946 49.249 33.7236 51.3757 33.7236 53.9992C33.7236 56.6226 35.2946 58.7494 37.2326 58.7494Z" fill="white"/>
<path d="M45.1479 47.6722C46.8822 47.6722 48.288 46.0131 48.288 43.9665C48.288 41.9199 46.8822 40.2607 45.1479 40.2607C43.4137 40.2607 42.0078 41.9199 42.0078 43.9665C42.0078 46.0131 43.4137 47.6722 45.1479 47.6722Z" fill="white"/>
<path d="M42.5656 75.43C47.5756 75.43 51.637 72.6693 51.637 69.2638C51.637 65.8583 47.5756 63.0977 42.5656 63.0977C37.5556 63.0977 33.4941 65.8583 33.4941 69.2638C33.4941 72.6693 37.5556 75.43 42.5656 75.43Z" fill="#5C5C5C"/>
<path d="M75.8117 75.43C80.8217 75.43 84.8831 72.6693 84.8831 69.2638C84.8831 65.8583 80.8217 63.0977 75.8117 63.0977C70.8017 63.0977 66.7402 65.8583 66.7402 69.2638C66.7402 72.6693 70.8017 75.43 75.8117 75.43Z" fill="#5C5C5C"/>
<path d="M74.1164 58.7494C76.0543 58.7494 77.6253 56.6226 77.6253 53.9992C77.6253 51.3757 76.0543 49.249 74.1164 49.249C72.1784 49.249 70.6074 51.3757 70.6074 53.9992C70.6074 56.6226 72.1784 58.7494 74.1164 58.7494Z" fill="white"/>
<path d="M82.0214 47.6722C82.8408 47.614 83.6103 47.2544 84.1838 46.6619C84.7572 46.0694 85.0945 45.2853 85.1316 44.4586L79.4694 41.8174C79.08 42.4652 78.8764 43.2091 78.8813 43.9665C78.8151 44.8762 79.1077 45.7756 79.6955 46.4694C80.2834 47.1631 81.1192 47.5954 82.0214 47.6722Z" fill="white"/>
<path d="M61.7256 70.1984C61.438 70.2 61.1549 70.1269 60.9035 69.9861C60.652 69.8454 60.4408 69.6418 60.2902 69.395C59.9782 69.1415 59.5895 69.0032 59.1886 69.0032C58.7878 69.0032 58.3991 69.1415 58.0871 69.395C57.9699 69.5843 57.8169 69.7484 57.6368 69.8781C57.4567 70.0078 57.2529 70.1004 57.0373 70.1508C56.8216 70.2012 56.5982 70.2082 56.3798 70.1716C56.1614 70.135 55.9523 70.0554 55.7644 69.9373C55.5766 69.8193 55.4136 69.6651 55.2849 69.4837C55.1562 69.3022 55.0642 69.097 55.0142 68.8797C54.9642 68.6624 54.9572 68.4373 54.9936 68.2173C55.0299 67.9973 55.109 67.7866 55.2261 67.5974C55.6904 66.9738 56.2924 66.4676 56.9845 66.119C57.6766 65.7704 58.4398 65.5889 59.2136 65.5889C59.9874 65.5889 60.7505 65.7704 61.4426 66.119C62.1347 66.4676 62.7367 66.9738 63.201 67.5974C63.4353 67.9802 63.5102 68.4407 63.4094 68.8789C63.3086 69.317 63.0403 69.6974 62.6627 69.9373C62.3839 70.1181 62.0571 70.2091 61.7256 70.1984Z" fill="#231F20"/>
</svg>
