<svg id="Layer_1" data-name="Layer 1" xmlns="http://www.w3.org/2000/svg" viewBox="0 0 192 192"><path d="M74.26,84.43a22.3,22.3,0,0,1-.09,3.36,23.44,23.44,0,0,1,.58-3.3Z" fill="none"/><path d="M116.9,89.51a23.65,23.65,0,0,1-.09,3.36,22.31,22.31,0,0,1,.58-3.3Z" fill="none"/><path d="M55.06,63.33a22.15,22.15,0,0,1,19.2,21.1l.49.06a21.16,21.16,0,0,1,23-16.07,22.14,22.14,0,0,1,19.2,21.09l.49.06a21.16,21.16,0,0,1,23-16.07,22.14,22.14,0,0,1,19.2,21.09l.39,0c3.66-36.27-22.08-69.09-57.48-73.31s-67.07,21.76-70.72,58l.38,0A21.18,21.18,0,0,1,55.06,63.33Z" fill="#989ba0"/><path d="M159.93,98.51a3.55,3.55,0,0,1-.46,0l-.39,0a3.88,3.88,0,0,1-3.41-3.67,18.37,18.37,0,0,0-15.79-17.43,17.18,17.18,0,0,0-18.73,13.18,3.87,3.87,0,0,1-4.22,2.9l-.49-.06A3.88,3.88,0,0,1,113,89.69,18.36,18.36,0,0,0,97.24,72.26,17.18,17.18,0,0,0,78.51,85.44a3.86,3.86,0,0,1-4.22,2.89l-.49,0a3.88,3.88,0,0,1-3.41-3.67C70,75.7,63.19,68.2,54.61,67.18A17.2,17.2,0,0,0,35.87,80.36a3.86,3.86,0,0,1-4.21,2.89l-.39,0A3.88,3.88,0,0,1,27.87,79,68.9,68.9,0,0,1,53.32,31.69a66.15,66.15,0,0,1,49.59-14.2C140.34,22,167.64,56.73,163.78,95a3.87,3.87,0,0,1-3.85,3.48ZM95.27,64.4a23.46,23.46,0,0,1,2.89.17,25.57,25.57,0,0,1,20.11,14.6,24.93,24.93,0,0,1,22.53-9.52,25.3,25.3,0,0,1,14.6,6.92C150.65,50,129.37,28.44,102,25.18A58.5,58.5,0,0,0,58.17,37.73,60.57,60.57,0,0,0,39.56,63.09a24.63,24.63,0,0,1,16-3.6h0a25.57,25.57,0,0,1,20.11,14.6A25,25,0,0,1,95.27,64.4Z" fill="#565a66"/><path d="M117.39,93.44l-.46,0-.13,0a3.88,3.88,0,0,1-3.39-4.31,3.84,3.84,0,0,1,.23-.9c3.63-37.78-4.31-62.14-11.7-63-1.24-.15-2.66.41-4.22,1.66-7.19,5.76-16.33,26-19.6,57a4.25,4.25,0,0,1,0,1.07,3.88,3.88,0,0,1-4.31,3.39l-.13,0A3.87,3.87,0,0,1,70.31,84c3-29.84,11.87-54.67,22.56-63.24,3.24-2.6,6.61-3.71,10-3.31,16.49,2,21.78,38.81,18.38,72.48a3.86,3.86,0,0,1-1.43,2.63A3.82,3.82,0,0,1,117.39,93.44Z" fill="#565a66"/><path d="M99.23,183.81a14.68,14.68,0,0,1-1.87-.12c-8.27-1-14.35-8.19-13.56-16.07l10-99.23a3.87,3.87,0,0,1,7.71.78l-10,99.23c-.37,3.7,2.66,7.11,6.77,7.6a7.62,7.62,0,0,0,5.66-1.53,6.07,6.07,0,0,0,2.31-4.17,3.87,3.87,0,0,1,7.71.78,13.81,13.81,0,0,1-5.17,9.43A15.31,15.31,0,0,1,99.23,183.81Z" fill="#565a66"/><path d="M102.46,25.21l-.4,0a3.87,3.87,0,0,1-3.46-4.25l.93-9.26a3.87,3.87,0,0,1,7.71.77l-.94,9.27A3.87,3.87,0,0,1,102.46,25.21Z" fill="#565a66"/><path d="M118.8,123.59c0,5-3.78,7.11-6,7.11s-6.05-2.11-6.05-7.11,6.05-11.73,6.05-11.73S118.8,118.59,118.8,123.59Z" fill="#6dcff6"/><path d="M112.76,134.58c-4.78,0-9.92-4.2-9.92-11,0-6.17,5.86-13,7-14.32a3.87,3.87,0,0,1,5.77,0c1.17,1.31,7,8.15,7,14.32C122.68,130.38,117.53,134.58,112.76,134.58Zm0-16.27c-1.21,1.92-2.18,3.94-2.18,5.28,0,2.93,2.16,3.24,2.18,3.24s2.17-.31,2.17-3.24C114.93,122.25,114,120.23,112.76,118.31Z"/><path d="M145.1,102.92c0,5-3.78,7.12-6,7.12s-6-2.12-6-7.12,6-11.73,6-11.73S145.1,97.93,145.1,102.92Z" fill="#6dcff6"/><path d="M139.06,113.91c-4.78,0-9.93-4.2-9.93-11,0-6.16,5.87-13,7-14.32a3.89,3.89,0,0,1,2.89-1.28h0a3.88,3.88,0,0,1,2.88,1.28c1.17,1.31,7,8.16,7,14.32C149,109.71,143.83,113.91,139.06,113.91Zm0-16.27c-1.21,1.92-2.18,3.94-2.18,5.28,0,2.94,2.16,3.24,2.18,3.24s2.17-.3,2.17-3.24C141.23,101.58,140.26,99.56,139.06,97.64Z"/><path d="M143,147.76c0,5-3.78,7.12-6.05,7.12s-6-2.12-6-7.12,6-11.73,6-11.73S143,142.77,143,147.76Z" fill="#6dcff6"/><path d="M136.92,158.75c-4.77,0-9.92-4.2-9.92-11,0-6.16,5.87-13,7-14.32a3.89,3.89,0,0,1,5.77,0c1.17,1.31,7,8.16,7,14.32C146.85,154.55,141.7,158.75,136.92,158.75Zm0-16.27c-1.2,1.92-2.17,3.94-2.17,5.28,0,2.94,2.16,3.24,2.18,3.24s2.17-.3,2.17-3.24C139.1,146.42,138.13,144.4,136.92,142.48Z"/></svg>