<svg width="110" height="110" viewBox="0 0 110 110" fill="none" xmlns="http://www.w3.org/2000/svg">
<path d="M96.8621 44.1793C94.4995 36.808 83.8232 34.0162 73.1966 33.1324C69.0796 22.4169 62.8592 11.5508 54.5753 11.5508C46.2914 11.5508 40.081 22.4169 35.9639 33.1324C25.3374 34.0262 14.6511 36.818 12.2885 44.1793C9.92595 51.5405 17.1233 60.2475 25.3474 67.2773C22.616 78.746 21.4397 91.8818 28.5074 96.7023C35.0368 101.161 45.454 96.401 54.5753 90.2951C63.6567 96.401 74.1237 101.161 80.6532 96.7023C87.7109 91.8818 86.5446 78.746 83.8132 67.2773C92.0273 60.2475 99.2546 51.641 96.8621 44.1793Z" fill="#F5F093"/>
<path d="M74.5422 101.423C69.1093 101.423 62.4304 98.8918 54.605 93.8404C42.4633 101.643 33.1426 103.441 26.8724 99.163C20.1835 94.5936 18.5785 84.2396 22.0875 68.3722C11.431 58.902 7.20435 50.4562 9.50709 43.2657C11.8098 36.0751 19.9243 31.7769 33.8803 30.3207C39.7319 15.8894 46.69 8.56836 54.5751 8.56836C62.4603 8.56836 69.4184 15.8894 75.2799 30.3207C89.2359 31.7769 97.4002 36.1354 99.683 43.2657C101.966 50.3959 97.7491 58.9121 87.1027 68.3722C90.6016 84.2396 88.9967 94.5936 82.3177 99.163C80.0141 100.695 77.3018 101.483 74.5422 101.423ZM54.5751 87.3629C55.1612 87.359 55.7346 87.5341 56.2199 87.865C66.667 94.8948 74.7516 97.1745 78.9882 94.2822C83.5339 91.1791 84.2317 81.8595 80.9819 68.0509C80.8531 67.505 80.8782 66.9337 81.0543 66.4014C81.2305 65.8691 81.5506 65.3969 81.9788 65.0381C91.3593 57.004 95.6757 49.9741 94.1305 45.1135C92.5954 40.3131 85.099 37.0794 73.027 36.0751C72.4748 36.0245 71.9474 35.8202 71.5038 35.485C71.0602 35.1498 70.7178 34.697 70.5149 34.1771C65.5605 21.5133 59.9283 14.5337 54.5751 14.5337C49.222 14.5337 43.6097 21.5635 38.7251 34.1972C38.5289 34.7279 38.1883 35.1922 37.7422 35.5367C37.2961 35.8813 36.7627 36.0923 36.203 36.1454C24.141 37.1497 16.6446 40.3533 15.1094 45.1838C13.5743 50.0143 17.8707 57.0944 27.2612 65.1084C27.6893 65.4672 28.0095 65.9394 28.1856 66.4717C28.3618 67.004 28.3868 67.5753 28.258 68.1212C24.9684 81.9298 25.6562 91.2192 30.2517 94.3525C34.4884 97.2448 42.5729 94.9651 53.02 87.9353C53.4727 87.5974 54.0128 87.3986 54.5751 87.3629Z" fill="black"/>
<path d="M36.0936 64.3244C41.4394 64.3244 45.7731 58.4658 45.7731 51.2389C45.7731 44.0119 41.4394 38.1533 36.0936 38.1533C30.7477 38.1533 26.4141 44.0119 26.4141 51.2389C26.4141 58.4658 30.7477 64.3244 36.0936 64.3244Z" fill="black"/>
<path d="M32.5746 60.7597C34.518 60.7597 36.0935 58.6285 36.0935 55.9995C36.0935 53.3705 34.518 51.2393 32.5746 51.2393C30.6311 51.2393 29.0557 53.3705 29.0557 55.9995C29.0557 58.6285 30.6311 60.7597 32.5746 60.7597Z" fill="white"/>
<path d="M40.4997 49.662C42.2394 49.662 43.6498 47.9984 43.6498 45.9462C43.6498 43.8941 42.2394 42.2305 40.4997 42.2305C38.7599 42.2305 37.3496 43.8941 37.3496 45.9462C37.3496 47.9984 38.7599 49.662 40.4997 49.662Z" fill="white"/>
<path d="M73.0672 64.3244C78.413 64.3244 82.7467 58.4658 82.7467 51.2389C82.7467 44.0119 78.413 38.1533 73.0672 38.1533C67.7214 38.1533 63.3877 44.0119 63.3877 51.2389C63.3877 58.4658 67.7214 64.3244 73.0672 64.3244Z" fill="black"/>
<path d="M69.5384 60.7597C71.4819 60.7597 73.0574 58.6285 73.0574 55.9995C73.0574 53.3705 71.4819 51.2393 69.5384 51.2393C67.595 51.2393 66.0195 53.3705 66.0195 55.9995C66.0195 58.6285 67.595 60.7597 69.5384 60.7597Z" fill="white"/>
<path d="M77.4733 49.662C79.2131 49.662 80.6234 47.9984 80.6234 45.9462C80.6234 43.8941 79.2131 42.2305 77.4733 42.2305C75.7336 42.2305 74.3232 43.8941 74.3232 45.9462C74.3232 47.9984 75.7336 49.662 77.4733 49.662Z" fill="white"/>
<path d="M37.9175 77.4907C42.9386 77.4907 47.0089 74.721 47.0089 71.3044C47.0089 67.8879 42.9386 65.1182 37.9175 65.1182C32.8965 65.1182 28.8262 67.8879 28.8262 71.3044C28.8262 74.721 32.8965 77.4907 37.9175 77.4907Z" fill="#F4C3DA"/>
<path d="M71.2427 77.4907C76.2638 77.4907 80.3341 74.721 80.3341 71.3044C80.3341 67.8879 76.2638 65.1182 71.2427 65.1182C66.2217 65.1182 62.1514 67.8879 62.1514 71.3044C62.1514 74.721 66.2217 77.4907 71.2427 77.4907Z" fill="#F4C3DA"/>
<path d="M57.9052 68.091C56.9083 66.6951 55.0541 67.7194 54.5756 68.0107C54.1071 67.7194 52.2729 66.6951 51.2461 68.091C50.2194 69.4869 51.5452 70.9431 52.3626 71.7666C52.7331 72.1316 53.2301 72.3369 53.7483 72.339C54.0238 72.3544 54.3001 72.3544 54.5756 72.339C54.8512 72.3544 55.1275 72.3544 55.403 72.339C55.9236 72.3343 56.4228 72.1296 56.7986 71.7666C57.6161 70.9431 58.8621 69.3765 57.9052 68.091Z" fill="#231F20"/>
</svg>
