<svg id="Layer_1" data-name="Layer 1" xmlns="http://www.w3.org/2000/svg" viewBox="0 0 192 192"><path d="M183.2,92.4c1,7,1.58,17-1.64,24.5-1.94,4.52-5.06,7.54-9,8.73a21.82,21.82,0,0,1-4.39.85,41.13,41.13,0,0,1-4.35,11.2,43.31,43.31,0,0,1-8.17,10.26c-.84.78-1.7,1.53-2.61,2.27a60.55,60.55,0,0,1-10.95,7,82.47,82.47,0,0,1-11.16,4.58,120.3,120.3,0,0,1-23.67,5.06c-3.23.37-5.94.56-7.89.65s-3.14.1-3.33.1a123.64,123.64,0,0,1-34.89-5.81A81.94,81.94,0,0,1,50,157.2a60.21,60.21,0,0,1-11-7c-.91-.74-1.78-1.49-2.61-2.27a43.31,43.31,0,0,1-8.17-10.26,40.81,40.81,0,0,1-4.35-11.2,21.69,21.69,0,0,1-4.39-.85c-4-1.19-7.1-4.21-9-8.73-3.22-7.51-2.67-17.47-1.63-24.5A92.09,92.09,0,0,1,17.4,65.05C27.66,44.75,42.86,35.92,53.79,32.1a61.08,61.08,0,0,1,19.73-3.5A82,82,0,0,1,89,25c2-.27,3.66-.41,4.85-.48s1.94-.08,2.11-.08a76.12,76.12,0,0,1,22.48,4.19,61.08,61.08,0,0,1,19.73,3.5c10.93,3.82,26.12,12.65,36.39,32.95A92.4,92.4,0,0,1,183.2,92.4Zm-8.63,21.51c4.11-9.56,1.07-29.93-6.76-45.42-5.95-11.79-14.22-20.49-24.63-26A56.14,56.14,0,0,0,136,39.39a52.12,52.12,0,0,0-18.85-3.16l-.09,0h0c-1.67-.59-3.26-1.09-4.75-1.51A67.82,67.82,0,0,0,96,32a67.86,67.86,0,0,0-16.31,2.67c-1.47.42-3.07.92-4.74,1.51h0l-.1,0A52.13,52.13,0,0,0,56,39.39a56.14,56.14,0,0,0-7.17,3.14C38.41,48,30.14,56.7,24.18,68.49,16.36,84,13.33,104.35,17.42,113.91c1,2.44,2.44,3.89,4.25,4.44.38.12.75.2,1.13.28a14.18,14.18,0,0,0,7.58-.5,20.6,20.6,0,0,0,5-2.56c-3.77.6-7.73.28-10.62-2.08-4.73-3.84-4.78-15.66,1-33.62,10.72-33.19,42-41.26,46.81-37.58,1.64,1.25-.17,4.17-1.45,7.15-.24.56-.5,1.14-.78,1.73C68,57.36,66.89,63.32,65.69,70c-1.29,7.13-2.63,14.51-5.85,23.13-4.17,11.19-10,20.22-16.72,26.13a29.7,29.7,0,0,1-11.6,6.54A34,34,0,0,0,41.07,142l3.25,2.82a62.7,62.7,0,0,0,19.18,9.79,113.12,113.12,0,0,0,22.28,4.73c6.07.68,10.14.7,10.22.7a117.54,117.54,0,0,0,32.5-5.43,62.81,62.81,0,0,0,19.18-9.79l3.24-2.82a34,34,0,0,0,9.56-16.2,29.8,29.8,0,0,1-11.61-6.54,46,46,0,0,1-5.31-5.54,50.3,50.3,0,0,1-8.9,10,56.74,56.74,0,0,1-8,5.51,1.42,1.42,0,0,1-2.1-1.53l1.75-8.29a13.25,13.25,0,0,0,4.58-5.31c3.09-.19,4.5-1.68,5.15-3a5.29,5.29,0,0,0,.28-4.23,5.88,5.88,0,0,0-3.2-3.35l-10.39-4.48c1.17-4.14,1.7-6.07,1.94-7a1.43,1.43,0,0,1,.5-.77,22.64,22.64,0,0,1,5.28-3.09A145.32,145.32,0,0,1,126.31,70c-1.2-6.63-2.28-12.59-4.71-18.78-.28-.59-.54-1.17-.78-1.73-1.28-3-3.09-5.9-1.45-7.15,4.8-3.68,36.09,4.39,46.81,37.58,5.8,18,5.75,29.78,1,33.62-2.9,2.36-6.85,2.68-10.62,2.08a20.89,20.89,0,0,0,5,2.56,14.22,14.22,0,0,0,7.59.5c.38-.08.75-.16,1.13-.28C172.14,117.8,173.52,116.35,174.57,113.91Z"/><path d="M167.81,68.49c7.83,15.49,10.87,35.86,6.76,45.42-1,2.44-2.43,3.89-4.24,4.44-.38.12-.75.2-1.13.28a14.22,14.22,0,0,1-7.59-.5,20.89,20.89,0,0,1-5-2.56c3.77.6,7.72.28,10.62-2.08,4.73-3.84,4.78-15.66-1-33.62-10.72-33.19-42-41.26-46.81-37.58-1.64,1.25.17,4.17,1.45,7.15.24.56.5,1.14.78,1.73,2.43,6.19,3.51,12.15,4.71,18.78a145.32,145.32,0,0,0,4.16,18.21,22.64,22.64,0,0,0-5.28,3.09,1.43,1.43,0,0,0-.5.77c-.24,1-.77,2.89-1.94,7l10.39,4.48a5.88,5.88,0,0,1,3.2,3.35,5.29,5.29,0,0,1-.28,4.23c-.65,1.27-2.06,2.76-5.15,3a13.25,13.25,0,0,1-4.58,5.31l-1.75,8.29a1.42,1.42,0,0,0,2.1,1.53,56.74,56.74,0,0,0,8-5.51,50.3,50.3,0,0,0,8.9-10,46,46,0,0,0,5.31,5.54,29.8,29.8,0,0,0,11.61,6.54,34,34,0,0,1-9.56,16.2l-3.24,2.82a62.81,62.81,0,0,1-19.18,9.79A117.54,117.54,0,0,1,96,160c-.08,0-4.15,0-10.22-.7a113.12,113.12,0,0,1-22.28-4.73,62.7,62.7,0,0,1-19.18-9.79L41.07,142a34,34,0,0,1-9.55-16.2,29.7,29.7,0,0,0,11.6-6.54c6.77-5.91,12.55-14.94,16.72-26.13,3.22-8.62,4.56-16,5.85-23.13,1.2-6.63,2.28-12.59,4.71-18.78.28-.59.54-1.17.78-1.73,1.28-3,3.09-5.9,1.45-7.15-4.8-3.68-36.09,4.39-46.81,37.58-5.8,18-5.75,29.78-1,33.62,2.89,2.36,6.85,2.68,10.62,2.08a20.6,20.6,0,0,1-5,2.56,14.18,14.18,0,0,1-7.58.5c-.38-.08-.75-.16-1.13-.28-1.81-.55-3.2-2-4.25-4.44-4.09-9.56-1.06-29.93,6.76-45.42,6-11.79,14.23-20.49,24.64-26A56.14,56.14,0,0,1,56,39.39a52.13,52.13,0,0,1,18.84-3.16l.1,0h0c1.67-.59,3.27-1.09,4.74-1.51A67.86,67.86,0,0,1,96,32a67.82,67.82,0,0,1,16.3,2.67c1.49.42,3.08.92,4.75,1.51h0l.09,0A52.12,52.12,0,0,1,136,39.39a56.14,56.14,0,0,1,7.17,3.14C153.59,48,161.86,56.7,167.81,68.49ZM132.7,109.38a1.7,1.7,0,0,0-1-2.35l-9.92-4.29-5-2.14-1.26-.55h-.16a5.9,5.9,0,0,0-3.47,1.73,9.35,9.35,0,0,0-2.47,4.74,9.55,9.55,0,0,0,7.6,11.17,9.73,9.73,0,0,0,4.26-.12,9.49,9.49,0,0,0,7-7.38h.11c.26,0,1,.11,1.87.11C131.24,110.29,132.32,110.12,132.7,109.38ZM118.85,129l1.58-7.46a11.46,11.46,0,0,1-1.56.11,13.56,13.56,0,0,1-11.13-5.89,13.21,13.21,0,0,1,1.41-16.65l.09-.09.09-.08a11.79,11.79,0,0,1,2.44-1.75,7.67,7.67,0,0,1,3.58-1l.42,0,.65,0,.6.26.8.34c.32-1.15.62-2.2.87-3.09a1.42,1.42,0,0,0-.43-1.46c-2.83-2.45-7.19-5.33-12.05-5.32L106,87h-.35a12.93,12.93,0,0,0-7.39,2.85,12.3,12.3,0,0,0-3.6,4.32c0,.09-.09.17-.13.27a4.19,4.19,0,0,0-.2.49c-.11.24-.2.49-.29.75A1.53,1.53,0,0,1,94,96c-.08.29-.15.58-.22.88l-.08.33c0,.25-.07.52-.11.79l-.06.45c0,.32,0,.66,0,1v.19c0,8.14,6.68,17.8,14,24.07a60.72,60.72,0,0,0,9.34,6.29A1.41,1.41,0,0,0,118.85,129ZM100.31,144.9c2.6-2.22,5-5.65,5-8.54h0v-.06c0-.13,0-.24,0-.35a1,1,0,0,1,0-.16c0-.1,0-.19,0-.29l0-.11a1.57,1.57,0,0,0-.08-.31.22.22,0,0,0,0-.1l-.09-.26-.07-.18a.2.2,0,0,1-.05-.09,4.28,4.28,0,0,0-1.29-1.53,4.52,4.52,0,0,0-2.61-1h-.2A6.42,6.42,0,0,0,97,133.38a.54.54,0,0,0-.21.32c-.13.54-.53,1.94-1.63,5.8l1.64-.8A1,1,0,0,1,98,139a1,1,0,0,1,.15.82l-1.34,6.35a.58.58,0,0,0,.85.63A19.34,19.34,0,0,0,100.31,144.9Zm-5.6,1.81,1.16-5.44-1.8.87a.94.94,0,0,1-.77.05,1,1,0,0,1-.58-1.16c.59-2,1.43-5,1.91-6.68a.59.59,0,0,0-.18-.6,6.89,6.89,0,0,0-4.24-1.85H90a4.55,4.55,0,0,0-2.62,1,4.25,4.25,0,0,0-1.28,1.53l0,.09c0,.06,0,.11-.07.18s-.07.17-.1.26l0,.1c0,.1,0,.2-.08.31s0,.07,0,.11,0,.19-.05.29a.81.81,0,0,0,0,.16c0,.11,0,.22,0,.35v.06h0c0,2.89,2.38,6.32,5,8.54a20.68,20.68,0,0,0,3.23,2.19A.57.57,0,0,0,94.71,146.71Zm-20.77-29a9.56,9.56,0,0,0,7.61-11.17,9.36,9.36,0,0,0-2.48-4.74,5.7,5.7,0,0,0-3.63-1.73L59.3,107a1.71,1.71,0,0,0-1,2.35c.76,1.49,4.42.66,4.45.81A9.56,9.56,0,0,0,73.94,117.69Z" fill="#fff"/><path d="M131.66,107a1.7,1.7,0,0,1,1,2.35c-.38.74-1.46.91-2.47.91-.84,0-1.61-.11-1.87-.11h-.11a9.49,9.49,0,0,1-7,7.38,9.73,9.73,0,0,1-4.26.12,9.55,9.55,0,0,1-7.6-11.17,9.35,9.35,0,0,1,2.47-4.74,5.9,5.9,0,0,1,3.47-1.73h.16l1.26.55,5,2.14Z"/><path d="M120.43,121.57,118.85,129a1.41,1.41,0,0,1-2.08.94,60.72,60.72,0,0,1-9.34-6.29c-7.31-6.27-14-15.93-14-24.07v-.19c0-.33,0-.67,0-1l.06-.45c0-.27.07-.54.11-.79l.08-.33c.07-.3.14-.59.22-.88a1.53,1.53,0,0,0,.08-.26c.09-.26.18-.51.29-.75a4.19,4.19,0,0,1,.2-.49c0-.1.09-.18.13-.27a12.3,12.3,0,0,1,3.6-4.32A12.93,12.93,0,0,1,105.65,87H106l.21,0c4.86,0,9.22,2.87,12.05,5.32a1.42,1.42,0,0,1,.43,1.46c-.25.89-.55,1.94-.87,3.09l-.8-.34-.6-.26-.65,0-.42,0a7.67,7.67,0,0,0-3.58,1A11.79,11.79,0,0,0,109.33,99l-.09.08-.09.09a13.38,13.38,0,0,0,9.72,22.54A11.46,11.46,0,0,0,120.43,121.57Z"/><path d="M105.28,136.36c0,2.89-2.37,6.32-5,8.54a19.34,19.34,0,0,1-2.69,1.88.58.58,0,0,1-.85-.63l1.34-6.35A1,1,0,0,0,98,139a1,1,0,0,0-1.18-.28l-1.64.8c1.1-3.86,1.5-5.26,1.63-5.8a.54.54,0,0,1,.21-.32,6.42,6.42,0,0,1,3.77-1.48h.2a4.52,4.52,0,0,1,2.61,1,4.28,4.28,0,0,1,1.29,1.53.2.2,0,0,0,.05.09l.07.18.09.26a.22.22,0,0,1,0,.1,1.57,1.57,0,0,1,.08.31l0,.11c0,.1,0,.19,0,.29a1,1,0,0,0,0,.16c0,.11,0,.22,0,.35v.06Z"/><path d="M95.87,141.27l-1.16,5.44a.57.57,0,0,1-.84.38,20.68,20.68,0,0,1-3.23-2.19c-2.59-2.22-5-5.65-5-8.54h0v-.06c0-.13,0-.24,0-.35a.81.81,0,0,1,0-.16c0-.1,0-.19.05-.29s0-.07,0-.11,0-.21.08-.31l0-.1c0-.09.07-.18.1-.26s.05-.12.07-.18l0-.09a4.25,4.25,0,0,1,1.28-1.53,4.55,4.55,0,0,1,2.62-1h.2a6.89,6.89,0,0,1,4.24,1.85.59.59,0,0,1,.18.6C94.15,136,93.31,139,92.72,141a1,1,0,0,0,.58,1.16.94.94,0,0,0,.77-.05Z"/><path d="M81.55,106.52a9.6,9.6,0,0,1-18.85,3.67c0-.15-3.69.68-4.45-.81a1.71,1.71,0,0,1,1-2.35l16.14-7a5.7,5.7,0,0,1,3.63,1.73A9.36,9.36,0,0,1,81.55,106.52Z"/></svg>