<svg width="46" height="46" viewBox="0 0 46 46" fill="none" xmlns="http://www.w3.org/2000/svg">
<g id="stickers_saro_lurking">
<path id="Vector" d="M33.5537 27.72V18.3499C33.1401 18.3413 32.7278 18.3029 32.3198 18.2349C32.4238 19.0305 32.419 19.8365 32.3054 20.6307C32.2134 21.2006 32.0731 21.7617 31.8862 22.3078C31.8704 22.3539 31.8418 22.3946 31.8036 22.4248C31.7654 22.4551 31.7193 22.4738 31.6708 22.4786C31.6223 22.4834 31.5735 22.4741 31.5301 22.4519C31.4867 22.4297 31.4506 22.3955 31.4262 22.3533L30.6858 21.0356C30.7933 20.6259 30.7891 20.195 30.6739 19.7874C30.8175 19.6686 30.9255 19.5125 30.986 19.3362C31.0465 19.1599 31.057 18.9703 31.0165 18.7883C30.9847 18.6621 30.9275 18.5437 30.8484 18.4403C30.7693 18.3369 30.67 18.2507 30.5565 18.187C30.4314 18.1202 30.2941 18.0795 30.1529 18.0671C30.0117 18.0548 29.8694 18.0711 29.7347 18.1151L27.818 18.738C27.4874 18.0456 27.3389 17.7246 27.2502 17.5689C27.2245 17.5187 27.2161 17.4614 27.2263 17.4059C27.2938 17.0472 27.4091 16.6991 27.5689 16.3709C26.6284 15.7808 25.7273 15.1301 24.8712 14.4231C23.9957 13.6758 23.0478 13.0177 22.0417 12.4585C21.9339 12.413 21.8308 12.3651 21.7326 12.3196C21.2127 12.08 20.6257 11.8931 20.6976 11.5314C20.8821 10.6066 24.8448 8.49823 29.4113 10.125C29.4796 9.78518 29.5791 9.45236 29.7083 9.13073C27.854 8.44102 25.838 8.31106 23.9104 8.75698C23.4585 8.86668 23.0149 9.00839 22.5831 9.18104C21.5146 9.59464 20.5318 10.2022 19.6842 10.9731H19.6674C19.3727 11.0905 19.0996 11.2127 18.8528 11.3301C17.9603 11.7464 17.1219 12.2702 16.3564 12.8898C15.6433 13.5689 15.0157 14.3324 14.4876 15.1634C14.3391 15.403 14.1857 15.6426 14.03 15.9229V15.9373C13.1552 16.6756 12.4242 17.5691 11.8738 18.5727C11.647 18.9791 11.4493 19.401 11.282 19.8353C10.5321 21.7927 10.4482 23.9298 11.0424 26.2082C11.8163 29.2006 13.8048 32.2841 15.4771 33.0819C15.6398 33.1789 15.8224 33.238 16.0112 33.2546C16.1999 33.2712 16.39 33.2449 16.5672 33.1777C16.6306 33.1496 16.6922 33.1176 16.7517 33.0819C17.1523 32.8555 17.4837 32.5242 17.71 32.1235C17.8768 31.8307 18.0025 31.5163 18.0838 31.1892C17.6501 31.7139 17.0823 32.1331 16.4067 32.1475C15.3238 32.1882 13.927 30.6118 12.5925 27.5259C10.1248 21.8239 13.364 17.0633 14.4397 16.9843C14.8063 16.9579 14.9189 17.5617 15.0866 18.1103C15.1201 18.2157 15.1537 18.3235 15.1848 18.4338C15.6056 19.5065 16.1338 20.5339 16.7613 21.5004C17.5239 22.7098 18.1689 23.9894 18.6875 25.3218C19.4446 27.3079 19.7321 29.1982 19.5213 30.7843C19.4316 31.5803 19.1638 32.346 18.7378 33.0244C19.6784 33.6661 20.7816 34.0283 21.9195 34.069H22.6862C23.9705 33.9693 25.2282 33.65 26.4045 33.125C27.6496 32.5869 28.8368 31.9239 29.9479 31.146C30.4459 30.8022 30.9257 30.4327 31.3854 30.0392C32.1665 29.3228 32.8914 28.5475 33.5537 27.72ZM26.9675 19.7107L27.2071 19.6365L28.1247 19.3394L29.9479 18.7452C29.9874 18.7278 30.0302 18.7189 30.0734 18.7193C30.1166 18.7197 30.1593 18.7293 30.1985 18.7474C30.2377 18.7655 30.2726 18.7918 30.3008 18.8245C30.3291 18.8572 30.3501 18.8955 30.3624 18.9369C30.4007 19.0806 30.2738 19.2316 30.1396 19.349C30.0054 19.4664 29.9 19.5239 29.8761 19.555C30.0365 19.8322 30.1154 20.1491 30.1035 20.4691C30.0917 20.7892 29.9895 21.0993 29.809 21.3639C29.6589 21.5832 29.4606 21.7651 29.2292 21.8957C28.8399 22.1246 28.3758 22.1896 27.9386 22.0764C27.5015 21.9632 27.1272 21.681 26.898 21.292C26.7357 21.0126 26.6575 20.6923 26.6728 20.3696C26.685 20.1322 26.777 19.906 26.934 19.7275L26.9675 19.7107ZM23.4792 26.9581C23.3432 27.137 23.1733 27.2872 22.9791 27.4001C22.7849 27.513 22.5702 27.5863 22.3476 27.616C22.1249 27.6456 21.8985 27.6308 21.6816 27.5726C21.4646 27.5144 21.2613 27.4139 21.0833 27.2768C21.0618 27.26 20.6689 27.8015 20.3909 27.6913C20.3513 27.6735 20.3159 27.6475 20.2871 27.6149C20.2584 27.5824 20.2369 27.5441 20.2242 27.5025C20.2115 27.461 20.2078 27.4172 20.2135 27.3741C20.2191 27.3311 20.2338 27.2897 20.2568 27.2528L21.5984 24.4209C21.796 24.2739 22.0408 24.2048 22.2861 24.2269C22.609 24.2521 22.9177 24.3702 23.1749 24.5671C23.532 24.844 23.7646 25.2514 23.8216 25.6997C23.8787 26.148 23.7555 26.6006 23.4792 26.9581ZM29.6029 28.5514C29.3767 28.6004 29.1466 28.6293 28.9153 28.6376C28.3068 28.6376 27.5832 28.4675 27.2382 28.0794C27.224 28.0638 27.2111 28.047 27.1999 28.0291L27.1831 28.0075C27.173 27.9932 27.1641 27.9779 27.1568 27.962V27.9452C27.1478 27.9289 27.1398 27.9121 27.1328 27.8949C27.1313 27.8894 27.1313 27.8836 27.1328 27.8781C27.1244 27.863 27.118 27.8469 27.1137 27.8302C27.1137 27.8182 27.1137 27.8086 27.1137 27.7991V27.7799C27.0859 27.6633 27.0859 27.5419 27.1137 27.4253C27.1448 27.2553 27.2286 27.0994 27.3532 26.9797C27.58 26.8122 27.8574 26.7277 28.1391 26.7401C28.159 26.7405 28.1784 26.7463 28.1953 26.7568C28.2121 26.7674 28.2258 26.7823 28.2349 26.8C28.3667 27.0779 28.6039 27.5763 28.7644 27.9189C28.7822 27.9577 28.8143 27.9883 28.8539 28.0043C28.8935 28.0203 28.9378 28.0206 28.9776 28.0051C28.9997 27.9961 29.0197 27.9827 29.0366 27.9659C29.0535 27.949 29.0668 27.929 29.0758 27.9069L29.2124 27.581L29.6916 28.4435C29.6929 28.4701 29.684 28.4961 29.6665 28.5162C29.6491 28.5363 29.6246 28.5489 29.5981 28.5514H29.6029ZM30.2091 27.4996C30.1775 27.6922 30.131 27.882 30.0701 28.0674C30.0631 28.086 30.051 28.1022 30.0352 28.1142C30.0194 28.1262 30.0005 28.1335 29.9808 28.1353C29.961 28.137 29.9411 28.1332 29.9234 28.1241C29.9058 28.1151 29.891 28.1012 29.8808 28.0842L29.3082 27.0731C29.2951 27.0434 29.2736 27.0182 29.2464 27.0005C29.2192 26.9828 29.1874 26.9734 29.1549 26.9734C29.1224 26.9734 29.0907 26.9828 29.0634 27.0005C29.0362 27.0182 29.0147 27.0434 29.0016 27.0731L28.877 27.375C28.5703 26.7257 28.4601 26.4933 28.4122 26.4167C28.4049 26.3949 28.4049 26.3714 28.4122 26.3496C28.4511 26.1065 28.567 25.8822 28.7428 25.7099C28.88 25.6027 29.0479 25.5422 29.222 25.5374C29.3421 25.5274 29.4629 25.5463 29.5742 25.5925H29.5933L29.6221 25.6069L29.6676 25.6308H29.682L29.7275 25.662L29.7467 25.6764L29.785 25.7099L29.8066 25.7267L29.8497 25.7722C30.2067 26.1579 30.2905 26.8982 30.2043 27.4996H30.2091ZM30.6547 23.5656C30.0013 23.7127 29.3355 23.7985 28.6662 23.822C26.9507 23.8435 24.9143 23.3428 23.9631 22.2455L23.944 22.224C23.9056 22.1784 23.8673 22.1305 23.8338 22.085C23.8002 22.0395 23.805 22.0395 23.7882 22.0179L23.7116 21.8981L23.6828 21.8454C23.6565 21.7975 23.6325 21.7496 23.6086 21.6993C23.6032 21.6845 23.5968 21.6701 23.5894 21.6561C23.5701 21.6124 23.5533 21.5676 23.5391 21.522C23.5391 21.4932 23.5175 21.4645 23.5103 21.4333C23.5031 21.4022 23.5103 21.3974 23.4936 21.383C23.4094 21.0554 23.4012 20.7129 23.4696 20.3816C23.5515 19.9059 23.7802 19.4677 24.1237 19.1285L24.1476 19.107L24.1692 19.0878C24.1776 19.0786 24.1873 19.0705 24.1979 19.0639C24.8472 18.4913 25.7696 18.3643 26.438 18.3595C26.488 18.3554 26.538 18.367 26.5809 18.3928C26.6239 18.4186 26.6577 18.4572 26.6776 18.5032L26.9172 19.0207L26.7711 19.0686L26.6584 19.1046L26.5674 19.1741L26.5075 19.222C26.344 19.374 26.2191 19.563 26.1433 19.773C26.082 19.9407 26.0418 20.1153 26.0236 20.2929V20.3384C25.9977 20.8802 26.1594 21.4144 26.4815 21.8508C26.8036 22.2873 27.2663 22.5993 27.7917 22.7343C28.4018 22.8971 29.0516 22.8109 29.5981 22.4947C29.7231 22.4104 29.8402 22.315 29.9479 22.2096C30.0181 22.149 30.0838 22.0833 30.1444 22.0131L30.8104 23.1967C30.8326 23.23 30.846 23.2683 30.8495 23.3082C30.853 23.348 30.8465 23.3881 30.8306 23.4248C30.8146 23.4615 30.7897 23.4936 30.7581 23.5182C30.7266 23.5428 30.6894 23.5591 30.6499 23.5656H30.6547Z" fill="white"/>
<path id="Vector_2" d="M26.9075 21.2917C27.0367 21.5075 27.2118 21.6922 27.4203 21.8328C27.6288 21.9734 27.8657 22.0665 28.1142 22.1053C28.3627 22.1442 28.6167 22.1279 28.8582 22.0577C29.0997 21.9875 29.3229 21.865 29.5118 21.699C29.6198 21.6043 29.7156 21.4964 29.7969 21.3779C29.9774 21.1134 30.0795 20.8032 30.0914 20.4832C30.1033 20.1631 30.0244 19.8462 29.864 19.5691C29.8975 19.5379 30.0149 19.4637 30.1275 19.363C30.2401 19.2624 30.3886 19.0947 30.3503 18.951C30.338 18.9095 30.317 18.8712 30.2887 18.8386C30.2605 18.8059 30.2256 18.7796 30.1864 18.7615C30.1472 18.7434 30.1045 18.7338 30.0613 18.7334C30.0181 18.733 29.9753 18.7419 29.9358 18.7593L28.103 19.3535L27.1974 19.6457L26.9578 19.72L26.9338 19.7368C26.7833 19.9127 26.6949 20.1333 26.6823 20.3645C26.666 20.6888 26.7442 21.0109 26.9075 21.2917Z" fill="black"/>
<path id="Vector_3" d="M30.1537 22.0126C30.0931 22.0828 30.0275 22.1484 29.9573 22.209C29.8405 22.3107 29.7146 22.4014 29.5811 22.4798C29.0346 22.796 28.3848 22.8821 27.7747 22.7193C27.2493 22.5844 26.7866 22.2723 26.4645 21.8359C26.1424 21.3995 25.9807 20.8653 26.0066 20.3235V20.278C26.0248 20.1004 26.065 19.9258 26.1263 19.7581C26.2021 19.548 26.327 19.3591 26.4905 19.2071L26.5504 19.1591L26.6414 19.0897L26.7541 19.0537L26.9002 19.0058L26.6606 18.4883C26.6407 18.4423 26.6069 18.4037 26.5639 18.3779C26.521 18.3521 26.471 18.3404 26.421 18.3446C25.7526 18.3446 24.8302 18.4763 24.1809 19.0489C24.1703 19.0556 24.1606 19.0636 24.1522 19.0729L24.1306 19.0921L24.1067 19.1136C23.7632 19.4528 23.5345 19.8909 23.4526 20.3666C23.3842 20.6979 23.3924 21.0405 23.4766 21.3681C23.4766 21.3825 23.4766 21.4016 23.4933 21.4184C23.5101 21.4352 23.5125 21.4783 23.5221 21.5071C23.5363 21.5527 23.5531 21.5975 23.5724 21.6412C23.5798 21.6551 23.5862 21.6695 23.5916 21.6843C23.6155 21.7347 23.6395 21.7826 23.6658 21.8305L23.6946 21.8832L23.7712 22.003C23.788 22.0246 23.8 22.0461 23.8168 22.0701C23.8335 22.094 23.8886 22.1635 23.927 22.209L23.9461 22.2306C24.9045 23.3279 26.9337 23.8286 28.6492 23.8071C29.3185 23.7836 29.9843 23.6977 30.6377 23.5507C30.678 23.5456 30.7163 23.5303 30.7491 23.5062C30.7819 23.4822 30.808 23.4502 30.825 23.4134C30.842 23.3765 30.8493 23.3358 30.8463 23.2953C30.8433 23.2548 30.8301 23.2157 30.8078 23.1817L30.1537 22.0126Z" fill="black"/>
<path id="Vector_4" d="M29.8639 25.7716L29.8208 25.7261L29.7992 25.7093L29.7609 25.6758L29.7417 25.6614L29.6962 25.6302H29.6818L29.6363 25.6063L29.6075 25.5919H29.5884C29.477 25.5457 29.3563 25.5268 29.2362 25.5368C29.0621 25.5416 28.8942 25.6021 28.757 25.7093C28.5812 25.8816 28.4653 26.1059 28.4264 26.349C28.4191 26.3707 28.4191 26.3943 28.4264 26.4161C28.4743 26.5047 28.5845 26.7371 28.8912 27.3744L29.0158 27.0725C29.0289 27.0428 29.0504 27.0176 29.0776 26.9999C29.1048 26.9822 29.1366 26.9727 29.1691 26.9727C29.2016 26.9727 29.2333 26.9822 29.2606 26.9999C29.2878 27.0176 29.3093 27.0428 29.3224 27.0725L29.8902 28.0812C29.9004 28.0982 29.9151 28.1121 29.9328 28.1211C29.9505 28.1302 29.9704 28.134 29.9901 28.1323C30.0099 28.1305 30.0288 28.1232 30.0446 28.1112C30.0604 28.0992 30.0725 28.083 30.0795 28.0644C30.1404 27.879 30.1869 27.6892 30.2185 27.4966C30.3047 26.8952 30.2185 26.1549 29.8783 25.7716H29.8639Z" fill="black"/>
<path id="Vector_5" d="M29.1811 27.5375L29.0446 27.8633C29.0355 27.8854 29.0222 27.9054 29.0053 27.9223C28.9885 27.9391 28.9684 27.9525 28.9463 27.9615C28.9065 27.977 28.8622 27.9767 28.8226 27.9607C28.783 27.9447 28.751 27.9141 28.7331 27.8753C28.5726 27.5327 28.3354 27.0343 28.2036 26.7564C28.1945 26.7387 28.1808 26.7238 28.164 26.7132C28.1471 26.7027 28.1277 26.6969 28.1078 26.6965C27.8261 26.6841 27.5488 26.7686 27.322 26.9361C27.1973 27.0558 27.1135 27.2117 27.0824 27.3817C27.0546 27.4983 27.0546 27.6197 27.0824 27.7363V27.7555C27.0824 27.7555 27.0824 27.7746 27.0824 27.7866C27.0867 27.8033 27.0931 27.8195 27.1015 27.8345C27.1 27.84 27.1 27.8458 27.1015 27.8513C27.1085 27.8685 27.1165 27.8853 27.1255 27.9016V27.9184C27.1328 27.9343 27.1417 27.9496 27.1519 27.9639L27.1686 27.9855C27.1799 28.0034 27.1927 28.0202 27.207 28.0358C27.5448 28.4239 28.2683 28.6012 28.884 28.594C29.1153 28.5857 29.3454 28.5568 29.5716 28.5078C29.5875 28.5045 29.6024 28.4976 29.615 28.4876C29.6277 28.4775 29.6379 28.4646 29.6446 28.4499C29.6514 28.4352 29.6546 28.4191 29.654 28.4029C29.6534 28.3868 29.649 28.371 29.6411 28.3568L29.1811 27.5375Z" fill="black"/>
<path id="Vector_6" d="M23.1796 24.5669C22.9198 24.3683 22.6075 24.25 22.2812 24.2267C22.0359 24.2046 21.7912 24.2737 21.5936 24.4207L20.2519 27.2526C20.229 27.2895 20.2142 27.3309 20.2086 27.3739C20.203 27.417 20.2067 27.4608 20.2194 27.5023C20.2321 27.5439 20.2535 27.5822 20.2823 27.6148C20.3111 27.6473 20.3465 27.6733 20.3861 27.6911C20.664 27.8013 21.0569 27.2598 21.0785 27.2766C21.4378 27.5539 21.8926 27.6772 22.3428 27.6192C22.793 27.5613 23.2018 27.3268 23.4791 26.9675C23.7565 26.6082 23.8797 26.1534 23.8218 25.7032C23.7638 25.253 23.5294 24.8442 23.1701 24.5669H23.1796Z" fill="black"/>
<path id="Vector_7" d="M35.6333 32.7345C35.8336 32.2958 35.8866 31.8041 35.7842 31.3329C35.7359 31.0826 35.6368 30.8448 35.4929 30.6342C35.3491 30.4236 35.1637 30.2448 34.9481 30.1086V15.9924C34.9888 15.9708 35.0296 15.9517 35.0703 15.9277C35.306 15.7873 35.5081 15.597 35.6625 15.3702C35.8169 15.1434 35.9198 14.8856 35.9639 14.6148C36.0552 14.141 35.9888 13.6504 35.7747 13.218C36.0658 12.9909 36.301 12.7 36.4622 12.3677C36.6234 12.0354 36.7062 11.6706 36.7042 11.3014C36.7027 10.9909 36.6583 10.6821 36.5725 10.3837C36.4571 9.94958 36.2051 9.56403 35.8537 9.28406C35.8485 8.95223 35.7986 8.62263 35.7052 8.30417C35.5773 7.82976 35.3142 7.40276 34.9481 7.0751V2.73625C34.9481 2.55134 34.8746 2.37401 34.7439 2.24326C34.6131 2.11252 34.4358 2.03906 34.2509 2.03906C34.066 2.03906 33.8887 2.11252 33.7579 2.24326C33.6272 2.37401 33.5537 2.55134 33.5537 2.73625V6.53604C33.105 6.52161 32.657 6.58317 32.2288 6.71812C31.5084 6.92934 30.8691 7.35464 30.396 7.9376C26.8023 6.60792 23.865 7.19729 22.0106 7.9376C20.8981 8.3826 19.8668 9.00835 18.9583 9.78958C17.6932 10.3045 16.5125 11.0063 15.4556 11.8716C15.4316 11.8907 15.3334 11.9794 15.1825 12.1303C15.0315 12.2812 14.8279 12.4921 14.5907 12.7652C13.9653 13.4859 13.4116 14.2658 12.9376 15.094C12.0461 15.8948 11.2925 16.837 10.7071 17.8827C9.69362 19.6796 8.69695 22.648 9.71039 26.5724C10.1516 28.2269 10.8484 29.8023 11.7756 31.2419C12.4632 32.3056 13.5605 33.7024 14.8758 34.3301C15.2166 34.5143 15.5945 34.6195 15.9814 34.6377C16.3684 34.656 16.7545 34.5869 17.1111 34.4355C17.3564 34.3217 17.5892 34.1828 17.8059 34.021C18.3868 34.4416 19.0261 34.775 19.7034 35.0105C20.4451 35.2624 21.2204 35.4013 22.0034 35.4226C22.2071 35.4226 22.4131 35.4226 22.6215 35.4226C23.3937 35.3865 24.1599 35.2685 24.9072 35.0704C25.6013 34.887 26.2811 34.6532 26.9412 34.3708C27.7569 34.0249 28.5485 33.6247 29.3107 33.1729C29.2011 33.6876 29.1552 34.2139 29.1741 34.7398C29.2019 35.6178 29.415 36.48 29.7994 37.2698C30.0352 37.7738 30.3778 38.2205 30.8035 38.5788C31.2292 38.9371 31.7279 39.1984 32.2648 39.3446C32.6832 39.4651 33.1188 39.5153 33.5537 39.4931V43.2785C33.5537 43.4634 33.6272 43.6408 33.7579 43.7715C33.8887 43.9023 34.066 43.9757 34.2509 43.9757C34.4358 43.9757 34.6131 43.9023 34.7439 43.7715C34.8746 43.6408 34.9481 43.4634 34.9481 43.2785V38.9205C35.3178 38.5795 35.5786 38.1369 35.698 37.6483C35.7807 37.3267 35.8217 36.9958 35.8202 36.6636C36.1628 36.3735 36.4037 35.9815 36.5078 35.5448C36.5853 35.2445 36.6208 34.9349 36.6132 34.6248C36.6048 34.2558 36.5122 33.8937 36.3423 33.5661C36.1725 33.2384 35.93 32.954 35.6333 32.7345ZM32.6122 8.01667C33.2614 7.825 33.7406 7.84656 34.0329 8.07417C34.2529 8.27555 34.3974 8.54605 34.4426 8.84083C33.6879 8.84083 33.2974 9.14031 33.1009 9.39427C33.0779 9.42514 33.0639 9.46178 33.0604 9.50014C33.057 9.53849 33.0642 9.57705 33.0813 9.61154C33.0984 9.64603 33.1248 9.67511 33.1574 9.69554C33.1901 9.71597 33.2277 9.72696 33.2662 9.72729C34.9721 9.72729 35.341 10.8461 35.3506 11.3301C35.3409 11.5178 35.2857 11.7003 35.1897 11.8618C35.0937 12.0234 34.9598 12.1591 34.7996 12.2573C34.5569 12.1367 34.2845 12.0891 34.0154 12.1201C33.7462 12.1512 33.4918 12.2596 33.283 12.4322C33.2533 12.4576 33.2315 12.4909 33.2201 12.5282C33.2086 12.5655 33.208 12.6053 33.2183 12.643C33.2286 12.6806 33.2494 12.7146 33.2782 12.7409C33.3071 12.7672 33.3428 12.7848 33.3812 12.7916C33.7105 12.8452 34.022 12.9775 34.2892 13.1773C34.4576 13.3113 34.5818 13.4929 34.6454 13.6984C34.7091 13.904 34.7094 14.124 34.6462 14.3297C34.3947 15.2042 33.0075 15.0269 32.6673 14.9215C32.5436 14.8835 32.4228 14.837 32.3055 14.7825C32.1197 14.6936 31.9459 14.5817 31.788 14.4495C30.6691 13.5223 30.614 11.8141 30.6188 11.4235C30.6212 10.9468 30.7362 8.5725 32.6122 8.01667ZM26.4117 33.1226C25.2354 33.6476 23.9777 33.9669 22.6934 34.0666H21.9267C20.7888 34.0259 19.6857 33.6637 18.7451 33.022C19.1711 32.3436 19.4388 31.5779 19.5285 30.7819C19.7393 29.1958 19.4518 27.3055 18.6948 25.3194C18.1703 23.9989 17.5213 22.7314 16.7565 21.534C16.1291 20.5674 15.6009 19.54 15.1801 18.4673C15.1489 18.3571 15.1154 18.2493 15.0818 18.1439C14.9022 17.5952 14.8015 16.9915 14.435 17.0178C13.3592 17.0873 10.1225 21.8478 12.5878 27.5595C13.9223 30.6453 15.319 32.2218 16.402 32.181C17.068 32.1547 17.6358 31.7354 18.079 31.2227C17.9978 31.5498 17.872 31.8642 17.7053 32.1571C17.4789 32.5577 17.1476 32.8891 16.747 33.1154C16.6875 33.1511 16.6259 33.1832 16.5625 33.2113C16.3853 33.2784 16.1952 33.3047 16.0065 33.2881C15.8177 33.2715 15.6351 33.2125 15.4724 33.1154C13.7953 32.3176 11.8115 29.2342 11.0377 26.2418C10.4483 23.9633 10.5322 21.8263 11.2773 19.8689C11.4445 19.4346 11.6423 19.0127 11.869 18.6063C12.4195 17.6026 13.1505 16.7092 14.0253 15.9708V15.9565C14.181 15.6809 14.3343 15.427 14.4829 15.197C15.011 14.3659 15.6386 13.6024 16.3516 12.9233C17.1172 12.3037 17.9556 11.78 18.8481 11.3636C19.0877 11.2439 19.368 11.1241 19.6627 11.0067H19.6795C20.5256 10.2363 21.5068 9.62871 22.5736 9.21458C23.0054 9.04193 23.449 8.90021 23.9009 8.79052C25.8282 8.33195 27.8478 8.45026 29.7084 9.13073C29.5787 9.44995 29.4785 9.78035 29.4089 10.1178C24.8425 8.49104 20.8798 10.597 20.6953 11.5242C20.6234 11.8859 21.2104 12.0632 21.7303 12.3124C21.8285 12.3579 21.9315 12.4058 22.0393 12.4514C23.0478 13.0085 23.9981 13.6651 24.876 14.4111C25.7321 15.1182 26.6333 15.7688 27.5737 16.359C27.4139 16.6872 27.2987 17.0352 27.2311 17.394C27.221 17.4494 27.2294 17.5067 27.2551 17.5569C27.3365 17.7126 27.4947 18.036 27.8229 18.726L29.7396 18.1031C29.8743 18.0591 30.0166 18.0428 30.1578 18.0551C30.299 18.0675 30.4363 18.1083 30.5613 18.175C30.6748 18.2387 30.7741 18.3249 30.8532 18.4283C30.9323 18.5317 30.9895 18.6501 31.0213 18.7764C31.0605 18.9594 31.0481 19.1497 30.9855 19.3261C30.9229 19.5025 30.8125 19.658 30.6667 19.7754C30.782 20.183 30.7861 20.6139 30.6787 21.0236L31.419 22.3414C31.4435 22.3835 31.4796 22.4177 31.523 22.4399C31.5663 22.4621 31.6152 22.4714 31.6637 22.4666C31.7122 22.4618 31.7583 22.4431 31.7964 22.4129C31.8346 22.3826 31.8633 22.342 31.879 22.2958C32.066 21.7497 32.2063 21.1886 32.2983 20.6187C32.4119 19.8245 32.4167 19.0185 32.3127 18.2229C32.7207 18.2909 33.133 18.3293 33.5465 18.3379V27.72C32.8876 28.5429 32.1668 29.3142 31.3903 30.0272C30.9306 30.4207 30.4507 30.7902 29.9528 31.1341C28.8428 31.9151 27.6564 32.5814 26.4117 33.1226ZM33.2207 36.2947C33.1822 36.2955 33.1447 36.3072 33.1125 36.3282C33.0803 36.3493 33.0546 36.379 33.0384 36.4139C33.0222 36.4488 33.0161 36.4876 33.0208 36.5258C33.0255 36.564 33.0408 36.6001 33.065 36.6301C33.2662 36.8697 33.6663 37.1716 34.421 37.15C34.379 37.4465 34.238 37.72 34.0209 37.9263C33.7358 38.1658 33.259 38.1946 32.605 38.0221C30.7123 37.519 30.5326 35.1471 30.5158 34.6679C30.5158 34.275 30.5158 32.5692 31.6035 31.6108C31.8576 31.3907 32.1522 31.2222 32.4708 31.1149C32.8086 31.0023 34.1886 30.7867 34.4641 31.654C34.5335 31.8577 34.5398 32.0776 34.482 32.2849C34.4243 32.4923 34.3054 32.6774 34.1407 32.8159C33.8776 33.0198 33.5695 33.1578 33.2423 33.2184C33.204 33.2263 33.1688 33.2448 33.1407 33.2718C33.1126 33.2989 33.0927 33.3334 33.0834 33.3713C33.0741 33.4092 33.0758 33.4489 33.0882 33.4859C33.1007 33.5229 33.1233 33.5556 33.1536 33.5802C33.3672 33.747 33.6245 33.8484 33.8945 33.8723C34.1644 33.8961 34.4355 33.8412 34.675 33.7144C34.8376 33.8085 34.9749 33.9408 35.0751 34.0998C35.1753 34.2589 35.2353 34.4398 35.25 34.6272C35.2643 35.1207 34.9265 36.2516 33.2207 36.2947Z" fill="black"/>
<path id="Vector_8" d="M34.6843 33.7238C34.4449 33.8507 34.1738 33.9055 33.9038 33.8817C33.6339 33.8579 33.3766 33.7565 33.163 33.5897C33.1327 33.5651 33.11 33.5324 33.0976 33.4954C33.0852 33.4584 33.0835 33.4186 33.0928 33.3807C33.1021 33.3428 33.1219 33.3083 33.1501 33.2813C33.1782 33.2542 33.2134 33.2357 33.2516 33.2279C33.5789 33.1672 33.8869 33.0292 34.1501 32.8254C34.3147 32.6868 34.4337 32.5017 34.4914 32.2944C34.5491 32.0871 34.5429 31.8671 34.4735 31.6634C34.198 30.7961 32.818 31.0118 32.4802 31.1244C32.1654 31.2345 31.875 31.4046 31.6249 31.6251C30.5324 32.5834 30.5252 34.2892 30.5371 34.6822C30.5539 35.1613 30.7336 37.5236 32.6263 38.0363C33.2804 38.2088 33.7571 38.1777 34.0423 37.9405C34.2558 37.7329 34.3934 37.4595 34.4328 37.1642C33.6781 37.1858 33.278 36.8935 33.0767 36.6444C33.0525 36.6144 33.0372 36.5783 33.0325 36.5401C33.0279 36.5018 33.034 36.4631 33.0502 36.4282C33.0664 36.3932 33.0921 36.3636 33.1243 36.3425C33.1565 36.3214 33.194 36.3098 33.2325 36.3089C34.9383 36.2658 35.2761 35.135 35.2713 34.651C35.2576 34.46 35.1969 34.2754 35.0944 34.1136C34.992 33.9518 34.8511 33.8179 34.6843 33.7238Z" fill="white"/>
<path id="Vector_9" d="M31.7881 14.4421C31.9459 14.5744 32.1198 14.6862 32.3056 14.7751C32.4228 14.8297 32.5437 14.8761 32.6673 14.9141C33.0075 15.0195 34.3947 15.1968 34.6463 14.3223C34.7079 14.1176 34.7068 13.8991 34.6432 13.695C34.5796 13.4909 34.4563 13.3106 34.2893 13.1771C34.0214 12.9799 33.71 12.85 33.3813 12.7986C33.3429 12.7918 33.3071 12.7742 33.2783 12.7479C33.2494 12.7216 33.2287 12.6876 33.2184 12.65C33.2081 12.6123 33.2087 12.5725 33.2201 12.5352C33.2316 12.4979 33.2534 12.4646 33.2831 12.4392C33.4919 12.2666 33.7463 12.1582 34.0154 12.1271C34.2846 12.0961 34.557 12.1437 34.7996 12.2643C34.9599 12.1661 35.0938 12.0304 35.1898 11.8688C35.2858 11.7073 35.341 11.5248 35.3507 11.3371C35.3507 10.8579 34.9721 9.7295 33.2663 9.73429C33.2278 9.73396 33.1901 9.72297 33.1575 9.70254C33.1248 9.68211 33.0985 9.65303 33.0814 9.61854C33.0643 9.58405 33.057 9.54549 33.0605 9.50714C33.064 9.46879 33.078 9.43214 33.101 9.40127C33.2974 9.14731 33.688 8.84544 34.4427 8.84783C34.3975 8.55305 34.2529 8.28255 34.033 8.08117C33.7407 7.84158 33.2615 7.84158 32.6122 8.02367C30.7363 8.5795 30.6213 10.9538 30.6189 11.4234C30.6141 11.8091 30.6668 13.5149 31.7881 14.4421Z" fill="white"/>
</g>
</svg>
