<svg width="192" height="192" viewBox="0 0 192 192" fill="none" xmlns="http://www.w3.org/2000/svg">
<path d="M96.4099 142.93C96.0559 142.474 95.8242 141.935 95.7367 141.365C95.6492 140.794 95.7088 140.211 95.9099 139.67L98.2599 133.35H97.9399H95.9999H94.0599H91.4699H89.8799C89.7134 133.36 89.5464 133.36 89.3799 133.35L82.3799 151.95L88.9999 150.69C89.5789 150.583 90.1755 150.63 90.7312 150.824C91.2868 151.018 91.7822 151.354 92.1687 151.798C92.5552 152.242 92.8194 152.779 92.9354 153.356C93.0513 153.933 93.0149 154.531 92.8299 155.09L89.7299 164.57L107.1 143.46L99.4899 144.23C98.9078 144.299 98.3179 144.215 97.7779 143.987C97.2379 143.759 96.7665 143.395 96.4099 142.93Z" fill="#EFE812"/>
<path d="M145.32 105.29L146.32 103.86C146.64 103.38 146.94 102.93 147.21 102.51C147.48 102.09 147.76 101.64 147.99 101.27C148.22 100.9 148.46 100.54 148.65 100.27C148.84 99.9996 148.97 99.6596 149.09 99.4796C149.148 99.3828 149.211 99.2893 149.28 99.1996C149.385 99.0588 149.542 98.9652 149.716 98.939C149.89 98.9128 150.067 98.9561 150.21 99.0596L150.34 99.1796L150.42 99.2896C151.9 98.1796 152.58 95.9596 152.89 94.3796C152.513 94.2132 152.146 94.0263 151.79 93.8196C151.24 93.5025 150.721 93.1342 150.24 92.7196C150.051 92.562 149.874 92.3916 149.71 92.2096C149.537 92.0124 149.448 91.7551 149.463 91.4932C149.478 91.2313 149.595 90.9858 149.79 90.8096L149.87 90.7496C150.576 90.2754 151.335 89.8829 152.13 89.5796C152.936 89.2717 153.765 89.0276 154.61 88.8496C155.07 88.7496 155.61 88.6696 156.09 88.6096L156.89 88.5396H157.72C158.84 88.4796 160.06 88.3996 161.3 88.2496C162.571 88.1286 163.833 87.9282 165.08 87.6496C166.213 87.4402 167.312 87.0803 168.35 86.5796C168.654 86.4324 168.937 86.244 169.19 86.0196C169.3 85.8796 169.32 85.8596 169.35 85.8596C169.345 85.8927 169.345 85.9264 169.35 85.9596V85.8096V85.6396C169.355 85.5764 169.355 85.5128 169.35 85.4496C169.335 85.3804 169.335 85.3088 169.35 85.2396C169.282 84.866 169.157 84.5051 168.98 84.1696C168.417 83.2033 167.705 82.3325 166.87 81.5896C165.942 80.7515 164.956 79.9796 163.92 79.2796C162.84 78.5496 161.85 77.9496 160.92 77.2796C159.331 76.2422 157.799 75.1206 156.33 73.9196C155.78 73.4596 155.33 73.0596 155.06 72.7896C154.79 72.5196 154.62 72.3496 154.62 72.3496C154.482 72.2077 154.404 72.0175 154.404 71.8196C154.404 71.6216 154.482 71.4315 154.62 71.2896C154.711 71.1535 154.844 71.0516 155 70.9996C155.796 70.8696 156.603 70.8127 157.41 70.8296C159.448 70.8652 161.47 71.2022 163.41 71.8296C163.93 71.9996 164.47 72.2096 165.02 72.4396C165.46 70.7376 165.46 68.9516 165.02 67.2496C164.231 64.6503 162.752 62.3138 160.74 60.4896C160.74 60.5896 160.67 60.6796 160.63 60.7696C160.355 61.416 160.02 62.0354 159.63 62.6196C159.528 62.7674 159.373 62.8692 159.197 62.903C159.021 62.9367 158.838 62.8995 158.69 62.7996C158.563 62.7095 158.472 62.579 158.43 62.4296C158.23 61.7596 158.07 61.1196 157.92 60.4896L157.46 58.6596C157.15 57.4796 156.84 56.3596 156.46 55.2896C156.38 55.0196 156.3 54.7496 156.2 54.4896L155.93 53.7296C155.74 53.1996 155.5 52.7296 155.3 52.2396L155.15 51.8696L154.95 51.5296L154.57 50.8396C154.313 50.3827 154.03 49.9419 153.72 49.5196C153.46 49.0696 153.06 48.7096 152.72 48.2896C152.38 47.8696 152 47.5296 151.66 47.1296L150.5 46.0596C150.08 45.7396 149.69 45.3696 149.25 45.0596C148.81 44.7496 148.38 44.4296 147.92 44.1296C147.46 43.8296 147 43.5596 146.54 43.2696L145.11 42.4796L144.39 42.1296C144.17 42.0196 143.88 41.8896 143.78 41.8196L142.58 40.9996C142.252 40.7671 141.975 40.4696 141.767 40.1255C141.558 39.7814 141.423 39.3981 141.37 38.9996L141 36.9996C140.89 36.3096 140.76 35.6196 140.63 34.9396C140.36 33.5696 140.06 32.2196 139.71 30.9396C139.53 30.2696 139.33 29.6196 139.14 28.9396C138.95 28.2596 138.72 27.6496 138.49 27.0196C138.066 25.7743 137.569 24.5555 137 23.3696C136.429 22.2364 135.76 21.1555 135 20.1396C134.292 19.1738 133.473 18.2944 132.56 17.5196C130.82 16.039 128.679 15.1096 126.41 14.8496C123.95 14.6096 121.467 14.8681 119.11 15.6096C116.547 16.3801 114.076 17.4262 111.74 18.7296C109.311 20.068 106.972 21.5646 104.74 23.2096C103.62 24.0296 102.52 24.8996 101.45 25.7896C100.38 26.6796 99.4497 27.4896 98.5597 28.3196C98.533 28.3619 98.5029 28.402 98.4697 28.4396C97.9725 28.9684 97.3156 29.3196 96.5997 29.4396H96.4097C96.2697 29.4396 96.1397 29.4396 95.9997 29.4396C95.8597 29.4396 95.7297 29.4396 95.5997 29.4396H95.3997C94.6838 29.3196 94.027 28.9684 93.5297 28.4396C93.4966 28.402 93.4665 28.3619 93.4397 28.3196C92.5497 27.4896 91.5397 26.6096 90.5497 25.7896C89.5597 24.9696 88.3797 23.9996 87.2597 23.2096C85.027 21.5646 82.6886 20.068 80.2597 18.7296C77.9231 17.4262 75.452 16.3801 72.8897 15.6096C70.5322 14.8681 68.0494 14.6096 65.5897 14.8496C63.3202 15.1096 61.1793 16.039 59.4397 17.5196C58.5266 18.2944 57.7077 19.1738 56.9997 20.1396C56.2396 21.1555 55.5704 22.2364 54.9997 23.3696C54.4179 24.548 53.907 25.7602 53.4697 26.9996C53.2397 27.6296 53.0297 28.2796 52.8197 28.9196C52.6097 29.5596 52.4297 30.2196 52.2497 30.9196C51.8997 32.2396 51.5997 33.5896 51.3297 34.9196C51.2097 35.5996 51.0697 36.2896 50.9597 36.9796L50.6297 39.0596C50.5718 39.4475 50.4355 39.8195 50.2292 40.153C50.0229 40.4865 49.7509 40.7746 49.4297 40.9996L48.1997 41.8496C48.0997 41.9196 47.8097 42.0496 47.5897 42.1596L46.8697 42.5096L45.4397 43.2996C44.9797 43.5896 44.4997 43.8496 44.0597 44.1596C43.6197 44.4696 43.1597 44.7696 42.7297 45.0896C42.2997 45.4096 41.8997 45.7596 41.4797 46.0896L40.3197 47.1596C39.9797 47.5596 39.5697 47.9096 39.2597 48.3196C38.9497 48.7296 38.5597 49.0996 38.2597 49.5496C37.9533 49.9743 37.6696 50.4149 37.4097 50.8696L37.0297 51.5596L36.8297 51.8996L36.6797 52.2696C36.4797 52.7596 36.2397 53.2696 36.0497 53.7596L35.7797 54.5196C35.6797 54.7796 35.5997 55.0496 35.5197 55.3196C35.1797 56.3896 34.8697 57.5096 34.5197 58.6896L34.0597 60.5196C33.9097 61.1496 33.7497 61.7896 33.5497 62.4596C33.5255 62.5444 33.4849 62.6235 33.43 62.6926C33.3752 62.7616 33.3073 62.8191 33.2302 62.8618C33.1531 62.9046 33.0683 62.9317 32.9807 62.9416C32.8931 62.9515 32.8044 62.944 32.7197 62.9196C32.5689 62.8751 32.4381 62.7797 32.3497 62.6496C31.9556 62.0678 31.6206 61.448 31.3497 60.7996C31.3037 60.7089 31.2636 60.6154 31.2297 60.5196C29.231 62.3583 27.769 64.7051 26.9997 67.3096C26.5598 69.0116 26.5598 70.7976 26.9997 72.4996C27.5497 72.2696 28.0897 72.0596 28.6097 71.8896C30.5495 71.2622 32.5713 70.9252 34.6097 70.8896C35.4081 70.8541 36.208 70.8909 36.9997 70.9996C37.097 71.0186 37.1894 71.0568 37.2716 71.1122C37.3537 71.1676 37.4239 71.2389 37.478 71.3219C37.5321 71.4049 37.569 71.4979 37.5864 71.5954C37.6039 71.6929 37.6016 71.793 37.5797 71.8896C37.5568 72.0248 37.4942 72.1501 37.3997 72.2496C37.3997 72.2496 37.2497 72.4096 36.9597 72.6896C36.6697 72.9696 36.2397 73.3596 35.6897 73.8196C34.2207 75.0206 32.6885 76.1422 31.0997 77.1796C30.0997 77.8096 29.1497 78.4096 28.0997 79.1796C27.0654 79.8821 26.0798 80.6539 25.1497 81.4896C24.3 82.2294 23.5742 83.1004 22.9997 84.0696C22.8221 84.4051 22.6973 84.766 22.6297 85.1396C22.6446 85.2088 22.6446 85.2804 22.6297 85.3496C22.6247 85.4128 22.6247 85.4764 22.6297 85.5396V85.7396V85.8896C22.6346 85.8564 22.6346 85.8227 22.6297 85.7896C22.6297 85.7896 22.6797 85.7896 22.7897 85.9496C23.0427 86.174 23.3253 86.3624 23.6297 86.5096C24.6672 87.0103 25.7669 87.3702 26.8997 87.5796C28.146 87.8582 29.4084 88.0586 30.6797 88.1796C31.9297 88.3296 33.1397 88.4096 34.2597 88.4696H35.0897L35.8997 88.5396C36.3997 88.5996 36.8997 88.6796 37.3697 88.7796C38.2142 88.9576 39.0434 89.2017 39.8497 89.5096C40.6449 89.8129 41.4031 90.2054 42.1097 90.6796C42.3209 90.8339 42.4632 91.0647 42.5062 91.3227C42.5492 91.5806 42.4894 91.8452 42.3397 92.0596L42.2697 92.1396C42.105 92.3216 41.928 92.492 41.7397 92.6496C41.2588 93.0642 40.7398 93.4325 40.1897 93.7496C39.836 93.9543 39.4722 94.1412 39.0997 94.3096C39.3997 95.8896 40.0997 98.1096 41.5597 99.2196L41.6397 99.1096C41.7513 98.972 41.9129 98.8843 42.0891 98.8656C42.2652 98.8468 42.4416 98.8986 42.5797 99.0096C42.6246 99.0444 42.6649 99.0847 42.6997 99.1296C42.7683 99.2193 42.8317 99.3128 42.8897 99.4096C43.0097 99.5896 43.1397 99.8696 43.3297 100.2L43.9897 101.2L44.7697 102.44C45.0397 102.86 45.3397 103.31 45.6597 103.79L46.6597 105.22C47.0026 105.72 47.3732 106.201 47.7697 106.66C48.1724 107.144 48.5996 107.608 49.0497 108.05C49.4997 108.51 49.9797 108.93 50.4497 109.34C50.9197 109.75 51.4497 110.14 51.8997 110.49L52.8997 111.18C52.8458 110.815 52.8157 110.448 52.8097 110.08C52.7896 109.867 52.7896 109.652 52.8097 109.44V109.37C52.8272 109.272 52.8715 109.18 52.9375 109.106C53.0036 109.032 53.0889 108.977 53.184 108.948C53.2792 108.919 53.3805 108.917 53.4768 108.942C53.5731 108.967 53.6606 109.018 53.7297 109.09C53.7297 109.09 53.8997 109.25 54.1897 109.49C54.4797 109.73 54.9097 110.08 55.4097 110.49C55.9097 110.9 56.5397 111.49 57.2497 112.04L57.7697 112.5L58.3397 112.96C58.7397 113.27 59.1097 113.62 59.5297 113.96C60.3897 114.62 61.2297 115.41 62.2297 116.13C63.2486 116.911 64.3103 117.636 65.4097 118.3C65.9597 118.66 66.5997 118.95 67.1997 119.3C67.7997 119.65 68.3997 119.98 69.0697 120.24C70.3744 120.836 71.7096 121.363 73.0697 121.82L75.0697 122.51C75.3953 122.634 75.7295 122.734 76.0697 122.81L77.0697 123.07C78.423 123.457 79.799 123.761 81.1897 123.98L83.1897 124.34C83.824 124.475 84.4649 124.579 85.1097 124.65C86.3797 124.76 87.5697 124.91 88.6797 125.04C89.2297 125.04 89.7597 125.18 90.2697 125.2L91.7197 125.28L94.0697 125.41L95.8597 125.55L97.6497 125.41L99.9997 125.28L101.45 125.2C101.96 125.2 102.45 125.09 103.04 125.04C104.15 124.91 105.34 124.76 106.61 124.65C107.255 124.579 107.895 124.475 108.53 124.34L110.53 123.98C111.92 123.761 113.296 123.457 114.65 123.07L115.65 122.81C115.99 122.734 116.324 122.634 116.65 122.51L118.65 121.82C120.01 121.363 121.345 120.836 122.65 120.24C123.32 119.98 123.9 119.61 124.52 119.3C125.14 118.99 125.76 118.68 126.31 118.3C127.409 117.636 128.471 116.911 129.49 116.13C130.49 115.41 131.33 114.62 132.19 113.96C132.61 113.61 132.98 113.26 133.38 112.96L133.95 112.5L134.47 112.04C135.18 111.46 135.77 110.92 136.31 110.49C136.85 110.06 137.26 109.68 137.53 109.49C137.8 109.3 137.99 109.09 137.99 109.09C138.04 109.038 138.1 108.998 138.166 108.97C138.232 108.943 138.303 108.928 138.375 108.928C138.446 108.928 138.517 108.943 138.583 108.97C138.65 108.998 138.709 109.038 138.76 109.09C138.836 109.162 138.888 109.256 138.91 109.36V109.43C138.93 109.642 138.93 109.857 138.91 110.07C138.904 110.438 138.874 110.805 138.82 111.17L139.82 110.48C140.31 110.13 140.82 109.73 141.27 109.33C141.72 108.93 142.22 108.5 142.67 108.04C143.12 107.598 143.547 107.134 143.95 106.65C144.433 106.224 144.89 105.77 145.32 105.29ZM54.4097 98.0796C51.1097 98.0796 48.4097 96.7096 48.4097 95.0196C48.4097 93.3296 51.0797 91.9596 54.4097 91.9596C57.7397 91.9596 60.4097 93.3296 60.4097 95.0196C60.4097 96.7096 57.7097 98.0796 54.4097 98.0796ZM71.1197 95.5796C65.8897 95.5796 61.6497 84.5796 61.6497 71.1296C61.5363 65.168 62.5053 59.2353 64.5097 53.6196C64.6412 53.2929 64.8456 53.0005 65.1073 52.7649C65.369 52.5293 65.6812 52.3566 66.0199 52.2601C66.3585 52.1637 66.7148 52.1459 67.0614 52.2082C67.408 52.2705 67.7358 52.4112 68.0197 52.6196L79.0197 60.6196C79.2656 60.7954 79.4737 61.0187 79.6317 61.2764C79.7897 61.534 79.8945 61.8207 79.9397 62.1196C80.3905 65.0983 80.6145 68.107 80.6097 71.1196C80.5797 84.6296 76.3397 95.5796 71.1197 95.5796ZM120.88 95.5796C115.66 95.5796 111.42 84.5796 111.42 71.1296C111.415 68.1169 111.639 65.1083 112.09 62.1296C112.185 61.5274 112.516 60.9879 113.01 60.6296L124.01 52.6296C124.294 52.4212 124.621 52.2805 124.968 52.2182C125.315 52.1559 125.671 52.1736 126.01 52.2701C126.348 52.3666 126.66 52.5393 126.922 52.7749C127.184 53.0105 127.388 53.3029 127.52 53.6296C129.524 59.2453 130.493 65.178 130.38 71.1396C130.35 84.6296 126.11 95.5796 120.88 95.5796ZM137.59 98.0796C134.29 98.0796 131.59 96.7096 131.59 95.0196C131.59 93.3296 134.26 91.9596 137.59 91.9596C140.92 91.9596 143.59 93.3296 143.59 95.0196C143.59 96.7096 140.89 98.0796 137.59 98.0796Z" fill="#414241"/>
<path d="M177.17 85.7595V85.5695V85.3195C177.146 84.6621 177.055 84.0087 176.9 83.3695C176.58 82.2153 176.08 81.1185 175.42 80.1195C174.309 78.5194 172.929 77.1252 171.34 75.9995L171.12 75.8495C172.392 72.3071 172.483 68.4481 171.38 64.8495C169.678 59.8636 166.299 55.6225 161.82 52.8495C161.82 52.6495 161.82 52.4595 161.75 52.3195C161.65 51.6095 161.43 50.8695 161.27 50.1495L161.13 49.5995L160.94 49.0695L160.55 47.9995C160.268 47.2891 159.933 46.6006 159.55 45.9395L159.29 45.4295L159 44.9995L158.38 43.9995C157.96 43.3695 157.46 42.7995 156.98 42.2095C156.5 41.6195 155.98 41.1095 155.41 40.5995C154.84 40.0895 154.3 39.5995 153.69 39.1695L152.8 38.5095L151.86 37.9195C151.54 37.7097 151.206 37.5225 150.86 37.3595C150.54 37.1895 150.22 36.9995 149.86 36.8495L148.86 36.3895L147.86 35.9795L147.69 35.9195V35.8395C147.57 35.0895 147.42 34.3395 147.29 33.5995C146.99 32.0995 146.65 30.5995 146.29 29.0995C146.09 28.3595 145.86 27.6095 145.64 26.8695C145.42 26.1295 145.16 25.3795 144.89 24.6395C144.344 23.1364 143.71 21.6672 142.99 20.2395C142.242 18.7659 141.373 17.3576 140.39 16.0295C139.36 14.6487 138.18 13.3875 136.87 12.2695C134.124 9.95198 130.758 8.49159 127.19 8.06952C123.823 7.72723 120.422 8.06734 117.19 9.06952C114.154 9.97804 111.227 11.2154 108.46 12.7595C105.763 14.2492 103.17 15.9197 100.7 17.7595C99.4795 18.6662 98.2795 19.6062 97.0995 20.5795L95.9995 21.4995L94.8895 20.5595C93.7095 19.5929 92.5096 18.6529 91.2896 17.7395C88.8187 15.8997 86.2261 14.2292 83.5295 12.7395C80.7613 11.2057 77.834 9.97847 74.7996 9.07952C71.5673 8.07734 68.1662 7.73723 64.7996 8.07952C61.2327 8.50673 57.8682 9.9665 55.1196 12.2795C53.8096 13.3975 52.6289 14.6587 51.5996 16.0395C50.6151 17.3772 49.7454 18.7955 48.9996 20.2795C48.2836 21.7091 47.6492 23.1781 47.0996 24.6795C46.8296 25.4195 46.5896 26.1595 46.3496 26.9095C46.1096 27.6595 45.8996 28.3995 45.6996 29.1395C45.3096 30.6395 44.9696 32.1395 44.6996 33.6395C44.5696 34.3795 44.4196 35.1295 44.2996 35.8795V35.9995L44.1296 36.0595L43.1296 36.4695L42.1296 36.9295C41.7996 37.0795 41.4796 37.2695 41.1296 37.4395C40.8006 37.6046 40.4832 37.7917 40.1796 37.9995L39.2396 38.5895L38.3496 39.2495C37.7396 39.6695 37.1996 40.1995 36.6296 40.6795C36.0596 41.1595 35.5096 41.6995 34.9996 42.2495C34.4896 42.7995 33.9996 43.4095 33.5996 44.0395L32.9996 44.9995L32.6896 45.4795L32.4296 45.9895C32.0458 46.6506 31.7116 47.3391 31.4296 48.0495L31.0396 49.1095L30.8496 49.6395L30.7096 50.1895C30.5496 50.9095 30.3296 51.6495 30.2296 52.3595C30.2296 52.4995 30.1796 52.6895 30.1596 52.8895C25.6801 55.6625 22.3013 59.9036 20.5996 64.8895C19.4963 68.4881 19.5875 72.3471 20.8596 75.8895L20.6496 76.0395C19.0621 77.1639 17.6845 78.5585 16.5796 80.1595C15.9188 81.1585 15.4194 82.2553 15.0996 83.4095C14.944 84.0487 14.8535 84.7021 14.8296 85.3595V85.6095V85.7995C14.8296 85.6195 14.8296 86.0695 14.8296 86.0295V86.4995C14.8263 86.5395 14.8263 86.5796 14.8296 86.6195V86.7995C14.8296 87.0195 14.8996 87.2495 14.9396 87.4795C15.2512 88.9832 15.9788 90.3691 17.0396 91.4795C17.9126 92.3586 18.9266 93.0853 20.0396 93.6295C21.7667 94.4477 23.6074 95.0006 25.4996 95.2695C27.784 95.5968 30.0934 95.7173 32.3996 95.6295C33.1496 99.6295 35.3996 104.63 40.3996 106.3C40.4496 106.53 40.4996 106.77 40.5596 107.01C40.6196 107.25 40.7896 107.82 40.9496 108.22C41.2728 109.044 41.6503 109.845 42.0796 110.62C42.527 111.407 43.0247 112.166 43.5696 112.89C45.5964 115.539 48.2537 117.639 51.2996 119C51.9219 119.276 52.5636 119.507 53.2196 119.69C53.8006 119.845 54.3921 119.959 54.9896 120.03C55.4819 120.075 55.9773 120.075 56.4696 120.03C56.8896 120.03 57.1196 119.93 57.1196 119.93H57.3096C57.5996 120.24 57.8896 120.55 58.2096 120.84C59.3072 121.91 60.4694 122.911 61.6896 123.84C62.3196 124.35 63.0096 124.76 63.6896 125.23C64.3655 125.718 65.0701 126.165 65.7996 126.57C67.2587 127.417 68.7681 128.175 70.3196 128.84L72.6596 129.84C73.0476 130 73.445 130.137 73.8496 130.25L75.0396 130.62C76.571 131.131 78.1302 131.555 79.7095 131.89L81.9595 132.34L82.4296 132.43L73.9096 155.05C73.6991 155.611 73.6411 156.219 73.7414 156.811C73.8416 157.402 74.0967 157.957 74.4806 158.418C74.8645 158.879 75.3636 159.23 75.9272 159.436C76.4908 159.642 77.0988 159.695 77.6896 159.59L84.5595 158.36L77.6296 179.57C77.3885 180.317 77.4153 181.125 77.7055 181.855C77.9957 182.585 78.531 183.191 79.2196 183.57C79.7174 183.848 80.279 183.993 80.8495 183.99C81.3512 183.989 81.8467 183.879 82.3011 183.667C82.7555 183.454 83.1578 183.144 83.4796 182.76L117.53 141.35C117.959 140.827 118.224 140.189 118.289 139.515C118.354 138.842 118.216 138.165 117.894 137.57C117.572 136.975 117.08 136.49 116.481 136.176C115.881 135.863 115.202 135.735 114.53 135.81L104.14 136.87L105.6 132.93C106.32 132.86 107.06 132.78 107.83 132.68C108.559 132.593 109.283 132.469 110 132.31L112.25 131.86C113.829 131.525 115.388 131.101 116.92 130.59L118.11 130.22C118.514 130.107 118.911 129.97 119.3 129.81L121.64 128.81C123.192 128.148 124.702 127.389 126.16 126.54C126.889 126.135 127.594 125.688 128.27 125.2C128.95 124.73 129.64 124.32 130.27 123.81C131.492 122.884 132.654 121.882 133.75 120.81C134.07 120.52 134.36 120.21 134.65 119.9H134.84C134.84 119.9 135.07 119.9 135.5 120C135.989 120.045 136.481 120.045 136.97 120C137.567 119.929 138.159 119.815 138.74 119.66C139.395 119.477 140.037 119.246 140.66 118.97C143.719 117.576 146.377 115.433 148.39 112.74C148.938 112.018 149.436 111.26 149.88 110.47C150.309 109.695 150.686 108.894 151.01 108.07C151.17 107.67 151.28 107.25 151.4 106.86C151.52 106.47 151.51 106.38 151.56 106.15C156.56 104.5 158.78 99.5095 159.56 95.4795C161.866 95.5673 164.175 95.4468 166.46 95.1195C168.352 94.8506 170.192 94.2977 171.92 93.4795C173.033 92.9353 174.047 92.2086 174.92 91.3295C175.98 90.2191 176.708 88.8332 177.02 87.3295C177.02 87.0995 177.1 86.8695 177.13 86.6495V86.4695C177.133 86.4296 177.133 86.3895 177.13 86.3495V85.9995C177.13 85.9995 177.18 85.5795 177.17 85.7595ZM89.6796 164.57L92.7795 155.09C92.9646 154.531 93.0009 153.933 92.885 153.356C92.7691 152.779 92.5049 152.242 92.1184 151.798C91.7319 151.354 91.2365 151.018 90.6808 150.824C90.1252 150.63 89.5285 150.583 88.9495 150.69L82.3696 151.87L89.3696 133.27C89.5361 133.279 89.703 133.279 89.8696 133.27H91.4595H94.0496H95.9895H97.9296H98.2495L95.8996 139.59C95.6999 140.131 95.6411 140.714 95.7288 141.284C95.8165 141.854 96.0477 142.392 96.4007 142.848C96.7538 143.304 97.217 143.663 97.7468 143.89C98.2767 144.118 98.8557 144.207 99.4296 144.15L107.04 143.38L89.6796 164.57ZM141.53 109.41C141.04 109.81 140.53 110.21 140.08 110.56L139.08 111.25C139.133 110.885 139.164 110.518 139.17 110.15C139.19 109.937 139.19 109.722 139.17 109.51V109.44C139.148 109.336 139.096 109.242 139.02 109.17C138.969 109.118 138.909 109.078 138.843 109.05C138.777 109.022 138.706 109.008 138.635 109.008C138.563 109.008 138.492 109.022 138.426 109.05C138.36 109.078 138.3 109.118 138.25 109.17C138.25 109.17 138.08 109.33 137.79 109.57C137.5 109.81 137.07 110.16 136.57 110.57C136.07 110.98 135.44 111.57 134.73 112.12L134.21 112.58L133.64 113.04C133.24 113.35 132.87 113.7 132.45 114.04C131.59 114.7 130.75 115.49 129.75 116.21C128.731 116.991 127.669 117.716 126.57 118.38C126.02 118.74 125.38 119.03 124.78 119.38C124.18 119.73 123.58 120.06 122.91 120.32C121.605 120.916 120.27 121.443 118.91 121.9L116.91 122.59C116.584 122.714 116.25 122.814 115.91 122.89L114.91 123.15C113.556 123.537 112.18 123.841 110.79 124.06L108.79 124.42C108.155 124.555 107.514 124.659 106.87 124.73C105.6 124.84 104.41 124.99 103.3 125.12C102.75 125.12 102.22 125.26 101.71 125.28L100.26 125.36L97.9096 125.49L96.1196 125.63L94.3296 125.49L91.9796 125.36L90.5295 125.28C90.0195 125.28 89.5296 125.17 88.9396 125.12C87.8296 124.99 86.6396 124.84 85.3696 124.73C84.7247 124.659 84.0839 124.555 83.4495 124.42L81.4495 124.06C80.0588 123.841 78.6829 123.537 77.3296 123.15L76.3296 122.89C75.9894 122.814 75.6552 122.714 75.3296 122.59L73.3296 121.9C71.9694 121.443 70.6342 120.916 69.3296 120.32C68.6596 120.06 68.0796 119.69 67.4596 119.38C66.8396 119.07 66.2196 118.76 65.6696 118.38C64.5701 117.716 63.5085 116.991 62.4896 116.21C61.4896 115.49 60.6496 114.7 59.7896 114.04C59.3696 113.69 58.9996 113.34 58.5996 113.04L58.0296 112.58L57.5096 112.12C56.7996 111.54 56.2096 111 55.6696 110.57C55.1296 110.14 54.7196 109.76 54.4496 109.57C54.1796 109.38 53.9896 109.17 53.9896 109.17C53.9205 109.098 53.8329 109.047 53.7366 109.022C53.6404 108.997 53.539 108.999 53.4439 109.028C53.3487 109.057 53.2634 109.112 53.1974 109.186C53.1313 109.26 53.0871 109.352 53.0696 109.45V109.52C53.0495 109.732 53.0495 109.947 53.0696 110.16C53.0756 110.528 53.1056 110.895 53.1596 111.26L52.1596 110.57C51.6696 110.22 51.1596 109.82 50.7096 109.42C50.2596 109.02 49.7596 108.59 49.3096 108.13C48.8595 107.688 48.4322 107.224 48.0296 106.74C47.633 106.281 47.2625 105.8 46.9196 105.3L45.9195 103.87C45.5995 103.39 45.2996 102.94 45.0296 102.52L43.9996 101.27L43.3396 100.27C43.1496 99.9395 43.0196 99.6595 42.8996 99.4795C42.8415 99.3827 42.7781 99.2892 42.7096 99.1995C42.6747 99.1547 42.6344 99.1144 42.5896 99.0795C42.4515 98.9685 42.2751 98.9167 42.0989 98.9355C41.9228 98.9542 41.7612 99.042 41.6496 99.1795L41.5696 99.2895C40.0896 98.1795 39.4096 95.9595 39.1096 94.3795C39.482 94.2112 39.8458 94.0243 40.1996 93.8195C40.7496 93.5024 41.2686 93.1341 41.7496 92.7195C41.9378 92.562 42.1149 92.3916 42.2796 92.2095L42.3496 92.1295C42.4993 91.9151 42.559 91.6506 42.5161 91.3926C42.4731 91.1346 42.3307 90.9038 42.1196 90.7495C41.4129 90.2753 40.6547 89.8828 39.8596 89.5795C39.0533 89.2716 38.2241 89.0275 37.3796 88.8495C36.9196 88.7495 36.3796 88.6695 35.9096 88.6095L35.0996 88.5395H34.2696C33.1496 88.4795 31.9396 88.3995 30.6896 88.2495C29.4183 88.1285 28.1558 87.9281 26.9096 87.6495C25.7768 87.4401 24.677 87.0803 23.6396 86.5795C23.3352 86.4323 23.0525 86.2439 22.7996 86.0195C22.6896 85.8795 22.6696 85.8595 22.6396 85.8595C22.6445 85.8927 22.6445 85.9264 22.6396 85.9595V85.8095V85.6095C22.6346 85.5463 22.6346 85.4828 22.6396 85.4195C22.6544 85.3503 22.6544 85.2787 22.6396 85.2095C22.6968 84.8125 22.8184 84.4274 22.9996 84.0695C23.5619 83.1032 24.2741 82.2324 25.1096 81.4895C26.0396 80.6538 27.0252 79.8821 28.0596 79.1795C29.1396 78.4495 30.1296 77.8495 31.0596 77.1795C32.6484 76.1421 34.1805 75.0205 35.6496 73.8195C36.1996 73.3595 36.6495 72.9595 36.9195 72.6895C37.1895 72.4195 37.3596 72.2495 37.3596 72.2495C37.454 72.1501 37.5167 72.0247 37.5396 71.8895C37.5849 71.7 37.5536 71.5002 37.4525 71.3335C37.3514 71.1669 37.1886 71.0469 36.9996 70.9995C36.2031 70.8696 35.3964 70.8127 34.5896 70.8295C32.5512 70.8651 30.5293 71.2021 28.5896 71.8295C28.0696 71.9995 27.5296 72.2095 26.9796 72.4395C26.5396 70.7375 26.5396 68.9516 26.9796 67.2495C27.7679 64.6502 29.2472 62.3138 31.2596 60.4895C31.2935 60.5853 31.3336 60.6789 31.3796 60.7695C31.6504 61.418 31.9854 62.0377 32.3796 62.6195C32.468 62.7496 32.5987 62.845 32.7496 62.8895C32.8343 62.914 32.9229 62.9214 33.0105 62.9115C33.0981 62.9016 33.1829 62.8745 33.26 62.8318C33.3371 62.7891 33.405 62.7315 33.4599 62.6625C33.5147 62.5935 33.5554 62.5143 33.5796 62.4295C33.7796 61.7595 33.9396 61.1195 34.0896 60.4895L34.5496 58.6595C34.8596 57.4795 35.1696 56.3595 35.5496 55.2895C35.6296 55.0195 35.7096 54.7495 35.8096 54.4895L36.0796 53.7295C36.2696 53.1995 36.5096 52.7295 36.7096 52.2395L36.8596 51.8695L37.0596 51.5295L37.4396 50.8395C37.6994 50.3849 37.9832 49.9442 38.2896 49.5195C38.5496 49.0695 38.9496 48.7095 39.2896 48.2895C39.6296 47.8695 40.0096 47.5295 40.3496 47.1295L41.5096 46.0595C41.9296 45.7395 42.3196 45.3695 42.7596 45.0595C43.1996 44.7495 43.6296 44.4295 44.0896 44.1295C44.5496 43.8295 45.0096 43.5595 45.4696 43.2695L46.8996 42.4795L47.6196 42.1295C47.8396 42.0195 48.1296 41.8895 48.2296 41.8195L49.4296 40.9995C49.7507 40.7745 50.0228 40.4864 50.2291 40.1529C50.4354 39.8194 50.5716 39.4474 50.6296 39.0595L50.9996 36.9995C51.1096 36.3095 51.2496 35.6195 51.3696 34.9395C51.6396 33.5695 51.9396 32.2195 52.2896 30.9395C52.4696 30.2695 52.6696 29.6195 52.8596 28.9395C53.0496 28.2595 53.2796 27.6495 53.5096 27.0195C53.933 25.7742 54.4306 24.5554 54.9996 23.3695C55.5702 22.2363 56.2395 21.1555 56.9996 20.1395C57.7076 19.1737 58.5265 18.2944 59.4396 17.5195C61.1792 16.0389 63.32 15.1095 65.5896 14.8495C68.0492 14.6095 70.5321 14.868 72.8896 15.6095C75.4518 16.38 77.9229 17.4261 80.2596 18.7295C82.6885 20.068 85.0268 21.5645 87.2596 23.2095C88.3796 24.0295 89.4796 24.8995 90.5496 25.7895C91.6196 26.6795 92.5496 27.4895 93.4396 28.3195C93.4663 28.3619 93.4964 28.402 93.5295 28.4395C94.0268 28.9683 94.6837 29.3196 95.3996 29.4395H95.5995C95.7295 29.4395 95.8595 29.4395 95.9995 29.4395C96.1395 29.4395 96.2696 29.4395 96.4096 29.4395H96.5995C97.3154 29.3196 97.9723 28.9683 98.4696 28.4395C98.5027 28.402 98.5328 28.3619 98.5595 28.3195C99.4495 27.4895 100.46 26.6095 101.45 25.7895C102.44 24.9695 103.62 24.0295 104.74 23.2095C106.972 21.5645 109.311 20.068 111.74 18.7295C114.076 17.4261 116.547 16.38 119.11 15.6095C121.467 14.868 123.95 14.6095 126.41 14.8495C128.679 15.1095 130.82 16.0389 132.56 17.5195C133.473 18.2944 134.292 19.1737 135 20.1395C135.76 21.1555 136.429 22.2363 137 23.3695C137.581 24.548 138.092 25.7601 138.53 26.9995C138.76 27.6295 138.97 28.2795 139.18 28.9195C139.39 29.5595 139.57 30.2195 139.75 30.9195C140.1 32.2395 140.4 33.5895 140.67 34.9195C140.8 35.5995 140.93 36.2895 141.04 36.9795L141.37 39.0595C141.423 39.4581 141.558 39.8413 141.766 40.1854C141.975 40.5295 142.251 40.827 142.58 41.0595L143.8 41.8995C143.9 41.9695 144.19 42.0995 144.41 42.2095L145.13 42.5595L146.56 43.3495C147.02 43.6395 147.5 43.8995 147.94 44.2095C148.38 44.5195 148.84 44.8195 149.27 45.1395C149.7 45.4595 150.1 45.8095 150.52 46.1395L151.68 47.2095C152.02 47.6095 152.43 47.9595 152.74 48.3695C153.05 48.7795 153.44 49.1495 153.74 49.5995C154.049 50.0219 154.333 50.4627 154.59 50.9195L154.97 51.6095L155.17 51.9495L155.32 52.3195C155.52 52.8095 155.76 53.3195 155.95 53.8095L156.22 54.5695C156.32 54.8295 156.4 55.0995 156.48 55.3695C156.82 56.4395 157.13 57.5595 157.48 58.7395L157.94 60.5695C158.09 61.1995 158.25 61.8395 158.45 62.5095C158.491 62.6589 158.583 62.7895 158.71 62.8795C158.858 62.9794 159.041 63.0166 159.217 62.9829C159.393 62.9492 159.548 62.8473 159.65 62.6995C160.04 62.1153 160.375 61.496 160.65 60.8495C160.65 60.7595 160.72 60.6695 160.76 60.5695C162.754 62.3932 164.219 64.7219 165 67.3095C165.439 69.0116 165.439 70.7975 165 72.4995C164.45 72.2695 163.91 72.0595 163.39 71.8895C161.45 71.2621 159.428 70.9251 157.39 70.8895C156.591 70.854 155.791 70.8909 155 70.9995C154.864 71.028 154.739 71.0938 154.64 71.1895C154.502 71.3314 154.424 71.5216 154.424 71.7195C154.424 71.9175 154.502 72.1076 154.64 72.2495C154.64 72.2495 154.79 72.4095 155.08 72.6895C155.37 72.9695 155.8 73.3595 156.35 73.8195C157.819 75.0205 159.351 76.1421 160.94 77.1795C161.94 77.8095 162.94 78.4095 163.94 79.1795C164.976 79.8796 165.961 80.6515 166.89 81.4895C167.725 82.2324 168.437 83.1032 169 84.0695C169.177 84.405 169.302 84.7659 169.37 85.1395C169.355 85.2087 169.355 85.2803 169.37 85.3495C169.375 85.4128 169.375 85.4763 169.37 85.5395V85.7095V85.8595C169.365 85.8264 169.365 85.7927 169.37 85.7595C169.37 85.7595 169.37 85.7595 169.21 85.9195C168.957 86.1439 168.674 86.3323 168.37 86.4795C167.332 86.9803 166.232 87.3401 165.1 87.5495C163.853 87.8281 162.591 88.0285 161.32 88.1495C160.08 88.2995 158.86 88.3795 157.74 88.4395H156.91L156.11 88.5095C155.6 88.5695 155.11 88.6495 154.63 88.7495C153.785 88.9275 152.956 89.1716 152.15 89.4795C151.354 89.7828 150.596 90.1753 149.89 90.6495L149.81 90.7095C149.615 90.8858 149.498 91.1313 149.483 91.3932C149.468 91.655 149.557 91.9123 149.73 92.1095C149.894 92.2916 150.071 92.462 150.26 92.6195C150.74 93.0341 151.259 93.4024 151.81 93.7195C152.166 93.9262 152.533 94.1132 152.91 94.2795C152.6 95.8595 151.91 98.0795 150.44 99.1895L150.36 99.0795L150.23 98.9595C150.087 98.856 149.91 98.8127 149.736 98.8389C149.562 98.8651 149.405 98.9587 149.3 99.0995C149.231 99.1892 149.168 99.2827 149.11 99.3795C148.99 99.5595 148.86 99.8395 148.67 100.17C148.48 100.5 148.27 100.79 148.01 101.17C147.75 101.55 147.52 101.96 147.23 102.41C146.94 102.86 146.66 103.28 146.34 103.76L145.34 105.19C144.997 105.69 144.626 106.171 144.23 106.63C143.827 107.114 143.4 107.578 142.95 108.02C142.48 108.58 142 109 141.53 109.41Z" fill="black"/>
<path d="M79 60.61L68 52.61C67.7161 52.4016 67.3883 52.2608 67.0417 52.1985C66.6951 52.1362 66.3388 52.154 66.0002 52.2505C65.6615 52.347 65.3493 52.5197 65.0876 52.7553C64.8259 52.9909 64.6214 53.2832 64.49 53.61C62.4856 59.2256 61.5166 65.1584 61.63 71.12C61.63 84.62 65.87 95.57 71.1 95.57C76.33 95.57 80.56 84.57 80.56 71.12C80.5648 68.1073 80.3408 65.0987 79.89 62.12C79.8497 61.8217 79.7502 61.5345 79.5974 61.2752C79.4445 61.0159 79.2414 60.7897 79 60.61Z" fill="black"/>
<path d="M124 52.6199L113 60.6199C112.507 60.9781 112.176 61.5177 112.08 62.1199C111.629 65.0986 111.405 68.1072 111.41 71.1199C111.41 84.6199 115.65 95.5699 120.87 95.5699C126.09 95.5699 130.34 84.5699 130.34 71.1199C130.454 65.1583 129.485 59.2256 127.48 53.6099C127.347 53.2887 127.142 53.0018 126.882 52.7706C126.623 52.5394 126.314 52.3699 125.979 52.2747C125.645 52.1795 125.293 52.1611 124.95 52.2209C124.608 52.2806 124.283 52.417 124 52.6199Z" fill="black"/>
<path d="M54.4104 98.08C57.7076 98.08 60.3804 96.7099 60.3804 95.02C60.3804 93.33 57.7076 91.96 54.4104 91.96C51.1133 91.96 48.4404 93.33 48.4404 95.02C48.4404 96.7099 51.1133 98.08 54.4104 98.08Z" fill="#E29DC5"/>
<path d="M137.59 98.08C140.887 98.08 143.56 96.7099 143.56 95.02C143.56 93.33 140.887 91.96 137.59 91.96C134.293 91.96 131.62 93.33 131.62 95.02C131.62 96.7099 134.293 98.08 137.59 98.08Z" fill="#E29DC5"/>
</svg>
