<svg width="146" height="146" viewBox="0 0 146 146" fill="none" xmlns="http://www.w3.org/2000/svg">
<g id="saro_camera_light">
<path id="Vector" d="M19.5959 37.1836V30.7124C19.5979 29.8593 19.9372 29.0415 20.5398 28.4375C21.1424 27.8335 21.9593 27.4923 22.8125 27.4883H44.7505C45.1739 27.4883 45.5932 27.5717 45.9844 27.7337C46.3755 27.8957 46.731 28.1332 47.0304 28.4326C47.3298 28.732 47.5672 29.0874 47.7293 29.4786C47.8913 29.8698 47.9747 30.289 47.9747 30.7124V37.1836" fill="#D1CECC"/>
<path id="Vector_2" d="M51.1304 37.185H44.8645V30.7139C44.8628 30.6943 44.8543 30.6759 44.8403 30.662C44.8264 30.6481 44.8081 30.6396 44.7885 30.6378H22.8124C22.7929 30.6396 22.7745 30.6481 22.7606 30.662C22.7467 30.6759 22.7381 30.6943 22.7364 30.7139V37.185H16.4478V30.7139C16.4498 29.0251 17.1205 27.4058 18.3132 26.2102C19.506 25.0146 21.1236 24.34 22.8124 24.334H44.7505C46.4419 24.336 48.0635 25.0088 49.2595 26.2048C50.4555 27.4009 51.1283 29.0224 51.1304 30.7139V37.185Z" fill="black"/>
<path id="Vector_3" d="M121.484 118.51H24.3942C20.4091 118.51 16.5873 116.927 13.7694 114.109C10.9515 111.291 9.36841 107.469 9.36841 103.484V52.217C9.36841 48.2312 10.9512 44.4086 13.7689 41.5895C16.5866 38.7704 20.4084 37.1856 24.3942 37.1836H121.484C123.458 37.1836 125.413 37.5725 127.236 38.3281C129.06 39.0837 130.716 40.1912 132.112 41.5872C133.507 42.9833 134.614 44.6407 135.368 46.4646C136.123 48.2885 136.511 50.2432 136.51 52.217V103.484C136.51 107.469 134.927 111.291 132.109 114.109C129.291 116.927 125.469 118.51 121.484 118.51Z" fill="#E93A8A"/>
<path id="Vector_4" d="M121.484 121.668H24.3942C19.574 121.661 14.953 119.744 11.5446 116.336C8.13617 112.927 6.21868 108.306 6.21265 103.486V52.2187C6.21868 47.3985 8.13617 42.7774 11.5446 39.369C14.953 35.9606 19.574 34.0431 24.3942 34.0371H121.484C126.304 34.0431 130.925 35.9606 134.334 39.369C137.742 42.7774 139.66 47.3985 139.666 52.2187V103.486C139.66 108.306 137.742 112.927 134.334 116.336C130.925 119.744 126.304 121.661 121.484 121.668ZM24.3942 40.341C21.246 40.345 18.228 41.5979 16.0025 43.8248C13.7771 46.0516 12.5261 49.0704 12.5241 52.2187V103.486C12.5261 106.634 13.7771 109.653 16.0025 111.88C18.228 114.107 21.246 115.36 24.3942 115.364H121.484C124.633 115.36 127.652 114.107 129.879 111.88C132.105 109.654 133.358 106.635 133.362 103.486V52.2187C133.358 49.0697 132.105 46.0509 129.879 43.8243C127.652 41.5977 124.633 40.345 121.484 40.341H24.3942Z" fill="black"/>
<path id="Vector_5" d="M95.2346 107.356C111.529 107.356 124.739 94.1465 124.739 77.8518C124.739 61.5571 111.529 48.3477 95.2346 48.3477C78.9399 48.3477 65.7305 61.5571 65.7305 77.8518C65.7305 94.1465 78.9399 107.356 95.2346 107.356Z" fill="#D1CECC"/>
<path id="Vector_6" d="M95.2346 110.511C88.7675 110.511 82.4457 108.593 77.0686 105C71.6914 101.408 67.5004 96.3009 65.0256 90.3261C62.5508 84.3514 61.9033 77.7769 63.1649 71.4341C64.4266 65.0913 67.5408 59.2651 72.1136 54.6922C76.6865 50.1194 82.5127 47.0052 88.8555 45.7435C95.1983 44.4819 101.773 45.1294 107.748 47.6042C113.722 50.0791 118.829 54.27 122.422 59.6472C126.015 65.0243 127.932 71.3461 127.932 77.8132C127.932 82.1071 127.087 86.359 125.443 90.3261C123.8 94.2932 121.392 97.8978 118.355 100.934C115.319 103.97 111.715 106.379 107.748 108.022C103.78 109.665 99.5285 110.511 95.2346 110.511ZM95.2346 51.4951C90.0218 51.4951 84.9261 53.0409 80.5919 55.9369C76.2577 58.833 72.8796 62.9492 70.8847 67.7652C68.8899 72.5811 68.368 77.8804 69.3849 82.993C70.4019 88.1056 72.9121 92.8018 76.598 96.4877C80.284 100.174 84.9802 102.684 90.0927 103.701C95.2053 104.718 100.505 104.196 105.321 102.201C110.137 100.206 114.253 96.828 117.149 92.4938C120.045 88.1596 121.591 83.0639 121.591 77.8512C121.583 70.8636 118.803 64.1645 113.862 59.2235C108.921 54.2826 102.222 51.5032 95.2346 51.4951Z" fill="black"/>
<path id="Vector_7" d="M95.2345 93.8425C104.066 93.8425 111.226 86.6828 111.226 77.8509C111.226 69.019 104.066 61.8594 95.2345 61.8594C86.4026 61.8594 79.2429 69.019 79.2429 77.8509C79.2429 86.6828 86.4026 93.8425 95.2345 93.8425Z" fill="black"/>
<path id="Vector_8" d="M95.2347 96.9997C91.4477 96.9997 87.7458 95.8767 84.597 93.7728C81.4483 91.6688 78.9941 88.6784 77.5449 85.1797C76.0957 81.681 75.7165 77.8311 76.4553 74.1169C77.1941 70.4027 79.0177 66.991 81.6955 64.3132C84.3733 61.6354 87.785 59.8118 91.4993 59.073C95.2135 58.3342 99.0633 58.7134 102.562 60.1626C106.061 61.6118 109.051 64.066 111.155 67.2147C113.259 70.3635 114.382 74.0654 114.382 77.8524C114.376 82.9287 112.357 87.7954 108.767 91.3849C105.178 94.9744 100.311 96.9936 95.2347 96.9997ZM95.2347 65.0165C92.696 65.0165 90.2143 65.7694 88.1035 67.1798C85.9927 68.5902 84.3475 70.5949 83.3759 72.9403C82.4044 75.2858 82.1502 77.8666 82.6455 80.3565C83.1408 82.8464 84.3633 85.1336 86.1584 86.9287C87.9535 88.7238 90.2407 89.9463 92.7306 90.4416C95.2205 90.9368 97.8013 90.6827 100.147 89.7111C102.492 88.7396 104.497 87.0944 105.907 84.9836C107.318 82.8727 108.071 80.3911 108.071 77.8524C108.067 74.4493 106.713 71.1868 104.307 68.7805C101.9 66.3742 98.6377 65.0206 95.2347 65.0165Z" fill="black"/>
<path id="Vector_9" d="M51.9593 51.6406H36.8802C36.1537 51.6406 35.5647 52.2296 35.5647 52.9561V61.2143C35.5647 61.9408 36.1537 62.5298 36.8802 62.5298H51.9593C52.6858 62.5298 53.2748 61.9408 53.2748 61.2143V52.9561C53.2748 52.2296 52.6858 51.6406 51.9593 51.6406Z" fill="#D1CECC"/>
<path id="Vector_10" d="M52.1722 65.685H36.6673C35.5379 65.685 34.4548 65.2364 33.6562 64.4378C32.8576 63.6392 32.4089 62.556 32.4089 61.4267V52.7427C32.4089 51.6133 32.8576 50.5302 33.6562 49.7316C34.4548 48.933 35.5379 48.4844 36.6673 48.4844H52.1722C53.3002 48.4864 54.3814 48.9359 55.1783 49.7343C55.9753 50.5327 56.4229 51.6146 56.4229 52.7427V61.4267C56.4229 62.5547 55.9753 63.6367 55.1783 64.4351C54.3814 65.2335 53.3002 65.683 52.1722 65.685ZM38.7204 59.3735H50.1266V54.811H38.7204V59.3735Z" fill="black"/>
</g>
</svg>
