<svg id="Layer_1" data-name="Layer 1" xmlns="http://www.w3.org/2000/svg" viewBox="0 0 192 192"><path d="M124.34,101.49l8.32-17.37A11.42,11.42,0,0,0,132,73c-3.64-5.74-3.88-9.93-.76-13.21a9.72,9.72,0,0,1,7.23-3.21,11.1,11.1,0,0,1,2.45.28c4.12.9,7.41,3.85,8.21,6.18a3,3,0,0,0,2.82,2,2.89,2.89,0,0,0,1.25-.28,29.3,29.3,0,0,1,10.66-2.39,13.3,13.3,0,0,1,4.67.76,9.42,9.42,0,0,1,5.4,5.26,10,10,0,0,1-.76,9.64,13,13,0,0,1-10.34,6.21c-2,.09-7.72,1.79-17.62,15.83l-1.09,1.53Z" fill="#fff"/><path d="M138.44,60.19a7.8,7.8,0,0,1,1.68.19c3.07.68,5.24,2.83,5.58,3.84a6.58,6.58,0,0,0,9,3.82A25.4,25.4,0,0,1,163.83,66a9.92,9.92,0,0,1,3.41.53,5.8,5.8,0,0,1,3.38,3.38,6.45,6.45,0,0,1-.54,6.28,9.51,9.51,0,0,1-7.43,4.51c-6.65.27-14.23,8.59-20.41,17.34L130,97.93l5.88-12.26a15,15,0,0,0-.9-14.58c-3.83-6-2.11-7.84-1.19-8.8a6.16,6.16,0,0,1,4.63-2.1m0-7.18a13.35,13.35,0,0,0-9.83,4.32c-4.31,4.53-4.21,10.45.32,17.6a7.84,7.84,0,0,1,.49,7.64l-5.87,12.26L118.65,105l11.33.07,12.22.08,3.75,0,2.16-3.06c9.84-14,14.64-14.3,14.84-14.31a16.62,16.62,0,0,0,13.25-7.92,13.69,13.69,0,0,0,1-13,13,13,0,0,0-7.37-7.1,17,17,0,0,0-6-1,32.59,32.59,0,0,0-11.58,2.47c-1.56-3.59-5.89-6.86-10.6-7.89a14.83,14.83,0,0,0-3.21-.36Z"/><circle cx="97.51" cy="94.39" r="16.5" fill="#89f179"/><path d="M83.53,105.7l-1-2.91a15,15,0,0,0,6.55-23.15l2.37-2a18,18,0,0,1-7.93,28Z" fill="#fff"/><path d="M103.72,111.27a18,18,0,0,1,7.56-28.12l1,2.9a15,15,0,0,0-6.25,23.23Z" fill="#fff"/><path d="M97.51,114.48a20.1,20.1,0,1,1,19.37-14.75A20.07,20.07,0,0,1,97.51,114.48Zm0-33a12.93,12.93,0,1,0,3.46.47A13.17,13.17,0,0,0,97.49,81.47Z"/><polygon points="130 168.37 41.65 168.37 20.8 98.96 150.86 98.96 130 168.37" fill="#f4c2ea"/><path d="M130,172H41.65a3.59,3.59,0,0,1-3.44-2.55L17.36,100a3.58,3.58,0,0,1,3.44-4.62H150.86A3.59,3.59,0,0,1,154.3,100l-20.86,69.42A3.59,3.59,0,0,1,130,172Zm-85.68-7.18h83L146,102.55H25.62Z" fill="#ff8dea"/><path d="M122.17,115.78a3.59,3.59,0,0,1-3.59-3.59c0-46.06-15.56-85-34-85s-34,38.91-34,85a3.59,3.59,0,1,1-7.18,0C43.47,60.51,61.54,20,84.61,20s41.15,40.47,41.15,92.15A3.59,3.59,0,0,1,122.17,115.78Z" fill="#ff8dea"/></svg>