<svg width="50" height="50" viewBox="0 0 50 50" fill="none" xmlns="http://www.w3.org/2000/svg">
<g id="stickers_saro_bone">
<path id="Vector" d="M42.5339 24.9358C42.8498 24.6159 43.1884 24.3191 43.5469 24.0478C44.3281 23.428 45.0026 22.8915 45.2865 21.704C45.4201 21.1444 45.4335 20.5628 45.3257 19.9977C45.218 19.4325 44.9916 18.8966 44.6615 18.4254C43.7848 17.1712 42.4483 16.3139 40.9427 16.04C38.2839 15.652 36.4974 17.1598 34.6094 18.7587C33.0208 20.1025 31.3776 21.4931 29.2526 21.4514C29.2084 21.454 29.164 21.454 29.1198 21.4514C29.0833 21.4514 28.9375 21.4384 28.8203 21.4332C27.2367 21.3782 25.6642 21.145 24.1328 20.7379C22.0495 20.191 20.763 18.4358 19.3906 16.5712C17.7865 14.3967 16.1276 12.1441 13.0261 11.6233C11.2578 11.3212 9.21616 11.8681 7.94533 12.9801C7.49313 13.3603 7.13578 13.8407 6.90162 14.3832C6.66747 14.9256 6.56295 15.5152 6.59637 16.1051C6.64324 17.5087 7.33074 18.3134 8.12241 19.2457C8.46337 19.6296 8.7783 20.0359 9.06512 20.4618C9.34185 20.8681 9.53106 21.3274 9.62073 21.8107C9.71039 22.294 9.69855 22.7907 9.58595 23.2691C9.3021 24.4202 8.41929 25.4436 7.03387 26.2327C5.94272 26.8551 4.7396 28.316 4.61981 29.7066C4.50702 31.1464 4.96614 32.5726 5.89767 33.6763C6.8292 34.7799 8.15809 35.4719 9.59637 35.6025C13.5547 35.9775 15.0651 34.5322 16.8125 32.8577C18.375 31.3525 20.1406 29.6676 23.5833 29.6676C24.0262 29.6682 24.4688 29.6934 24.9089 29.7431L26.7552 29.9514C30.9531 30.4254 32.4167 32.6754 33.7083 34.6598C34.9583 36.5842 35.9479 38.1051 39.4011 38.4332C41.8307 38.665 44.0729 36.7249 44.3958 34.1103C44.5495 32.8759 43.875 31.3525 43.1198 30.5921C41.2656 28.7275 41.0417 26.5061 42.5339 24.9358Z" fill="white"/>
<path id="Vector_2" d="M45.1014 26.0054C46.0024 25.2919 47.2342 24.3153 47.7186 22.2945C47.9385 21.3975 47.9642 20.464 47.794 19.5563C47.6238 18.6486 47.2616 17.7878 46.7316 17.0315C46.1061 16.1194 45.3031 15.3428 44.3706 14.7482C43.4381 14.1535 42.3953 13.753 41.3045 13.5705C37.5259 13.021 35.0129 15.133 32.992 16.857C31.6639 17.982 30.5129 18.9559 29.3462 18.9585C29.2394 18.9585 29.1118 18.9429 28.9399 18.9351C27.5323 18.8901 26.1344 18.6848 24.7733 18.3231C23.5337 17.995 22.5415 16.6512 21.3879 15.0914C19.6691 12.7476 17.5259 9.85437 13.4295 9.15906C10.9217 8.73458 8.11702 9.495 6.28108 11.0992C5.55003 11.7247 4.97238 12.5097 4.59267 13.3938C4.21295 14.2778 4.04131 15.2373 4.09098 16.1981C4.1691 18.4716 5.3514 19.8596 6.21337 20.8856C6.48073 21.1845 6.72864 21.5003 6.95556 21.8309C7.04902 21.9507 7.11517 22.0894 7.14936 22.2374C7.18355 22.3854 7.18495 22.5391 7.15348 22.6877C7.0389 23.1486 6.55712 23.6408 5.7941 24.0757C4.12223 25.0289 2.32796 27.2007 2.12483 29.5054C1.95975 31.6006 2.62581 33.6767 3.97905 35.2848C5.33228 36.8929 7.26398 37.9038 9.3566 38.0992C14.4582 38.5835 16.7212 36.4143 18.5389 34.6695C20.1665 33.107 21.4504 31.8804 24.6196 32.2372L26.4634 32.4455C29.4894 32.7867 30.4217 34.219 31.6014 36.0315C32.9035 38.0184 34.4998 40.4898 39.1535 40.9299C39.3644 40.9507 39.5701 40.9611 39.7785 40.9611C43.2941 40.9611 46.4061 38.1512 46.867 34.4247C47.0988 32.5575 46.2863 30.258 44.8905 28.844C44.2811 28.2268 43.6951 27.3466 44.3462 26.6617C44.5842 26.4276 44.8364 26.2085 45.1014 26.0054ZM44.3853 34.1148C44.0623 36.719 41.8201 38.6695 39.3905 38.4377C35.9373 38.1096 34.9478 36.5887 33.6978 34.6643C32.3957 32.6799 30.9425 30.4299 26.7446 29.9559L24.8983 29.7476C24.4582 29.6979 24.0156 29.6727 23.5728 29.6721C20.1379 29.6721 18.38 31.357 16.8019 32.8622C15.0545 34.5367 13.5441 35.9872 9.58577 35.607C8.14749 35.4764 6.8186 34.7844 5.88707 33.6808C4.95554 32.5772 4.49642 31.1509 4.60921 29.7111C4.729 28.3283 5.93212 26.8466 7.02327 26.2372C8.40869 25.4559 9.2915 24.4143 9.57535 23.2736C9.68795 22.7952 9.69979 22.2985 9.61013 21.8152C9.52046 21.3319 9.33125 20.8726 9.05452 20.4664C8.76771 20.0404 8.45277 19.6342 8.11181 19.2502C7.33056 18.3179 6.63265 17.5132 6.58577 16.1096C6.55235 15.5197 6.65687 14.9301 6.89103 14.3877C7.12518 13.8453 7.48253 13.3648 7.93473 12.9846C9.20556 11.8726 11.2472 11.3257 13.0155 11.6278C16.117 12.1486 17.7759 14.4039 19.38 16.5757C20.7524 18.4351 22.0467 20.1903 24.1222 20.7424C25.6537 21.1495 27.2261 21.3827 28.8097 21.4377C28.9269 21.4377 29.0701 21.4377 29.1092 21.4559C29.1534 21.4585 29.1978 21.4585 29.242 21.4559C31.367 21.4976 33.0103 20.107 34.5988 18.7632C36.4868 17.1643 38.2733 15.6565 40.9321 16.0445C42.4377 16.3184 43.7742 17.1757 44.6509 18.4299C44.981 18.9011 45.2074 19.437 45.3151 20.0022C45.4229 20.5673 45.4095 21.1489 45.2759 21.7085C44.992 22.8882 44.3175 23.4247 43.5363 24.0523C43.1778 24.3236 42.8392 24.6204 42.5233 24.9403C41.0311 26.5028 41.255 28.732 43.0988 30.6018C43.8566 31.357 44.5311 32.8804 44.3853 34.1148Z" fill="black"/>
</g>
</svg>
