<svg id="Layer_1" data-name="Layer 1" xmlns="http://www.w3.org/2000/svg" viewBox="0 0 192 192"><path d="M60.56,179.13h68.93c13.34,0,24.19-11.27,24.19-25.13v-.78a42.92,42.92,0,0,1-13.11,7c-11.52,4.12-27.18,6.3-45.28,6.3s-33.75-2.18-45.28-6.3c-6.22-2.23-10.6-4.81-13.65-7.48V154C36.36,167.86,47.22,179.13,60.56,179.13Z" fill="#fdd0a6"/><path d="M153.68,153.22V154c0,13.86-10.85,25.13-24.19,25.13H60.56c-13.34,0-24.2-11.27-24.2-25.13v-1.23a19.61,19.61,0,0,1-5.19-6.86h-.06V154c0,16.76,13.21,30.39,29.45,30.39h68.93c16.24,0,29.45-13.63,29.45-30.39v-7.09A20.57,20.57,0,0,1,153.68,153.22Z" fill="#c3996b"/><path d="M137.84,152.56h-.31a7.42,7.42,0,0,1-5.61-2.2,8.24,8.24,0,0,1-1.95-3.61c-.76,0-1.52-.08-2.28-.14C124,149.05,108,159.14,97.9,159.14h-.49c-10.23-.35-36.36-11.57-40.13-13.21-8.82-.74-16.53-3.21-22.11-6.79,0,.2,0,.39,0,.59,0,7.94,9,12.85,16.64,15.57,10.81,3.87,26.26,6,43.51,6s32.7-2.13,43.51-6c7.28-2.61,15.88-7.22,16.6-14.58a29.46,29.46,0,0,1-9.16,4.27,10.63,10.63,0,0,1-2.13,4.69A8.19,8.19,0,0,1,137.84,152.56Z" fill="#714a2b"/><path d="M155.4,140.72c-.72,7.36-9.32,12-16.6,14.58-10.81,3.87-26.26,6-43.51,6s-32.7-2.13-43.51-6c-7.59-2.72-16.64-7.63-16.64-15.57,0-.2,0-.39,0-.59a26.25,26.25,0,0,1-4.7-3.8,17.11,17.11,0,0,0-.59,4.39,15.44,15.44,0,0,0,1.29,6.18,19.61,19.61,0,0,0,5.19,6.86c3,2.67,7.43,5.25,13.65,7.48,11.53,4.12,27.18,6.3,45.28,6.3s33.76-2.18,45.28-6.3a42.92,42.92,0,0,0,13.11-7,20.57,20.57,0,0,0,5.26-6.31,15.49,15.49,0,0,0,1.77-7.18,16.82,16.82,0,0,0-.53-4.12A17.17,17.17,0,0,1,155.4,140.72Z" fill="#543728"/><path d="M119.54,145.46a74.77,74.77,0,0,1-17-6,16,16,0,0,1-4.33.6,9.64,9.64,0,0,1-5.89-2c-5.37,3.94-13,6.64-21.72,7.64,9.66,3.79,21.54,8,27,8.14C103.32,154.08,112.83,149.37,119.54,145.46Z" fill="#faaf40"/><path d="M97.9,159.14c10.07,0,26.06-10.09,29.79-12.53-2-.16-4-.39-6-.74-.7-.12-1.4-.26-2.11-.41-6.71,3.91-16.22,8.62-22,8.42-5.45-.18-17.33-4.35-27-8.14a67.55,67.55,0,0,1-7.61.43c-2,0-3.85-.08-5.71-.24,3.77,1.64,29.9,12.86,40.13,13.21Z" fill="#f6921e"/><path d="M144.92,124.16a33.64,33.64,0,0,0,.61,5.39,79.8,79.8,0,0,1,1.12,9.8c5.76-2,9.36-5.28,10-9.11.61-3.56-2.2-6.47-5.76-8.68a12.6,12.6,0,0,1-3.69-.8A6.56,6.56,0,0,0,144.92,124.16Z" fill="#ee4351"/><path d="M129.38,141.46c0-1.93.16-4,.32-6.08.06-.8.13-1.61.18-2.43a20.09,20.09,0,0,0-11-1.75c-2.13.32-4.51,1.87-7,3.52-1,.62-1.94,1.27-3,1.88a65.31,65.31,0,0,0,13.63,4.09A60.08,60.08,0,0,0,129.38,141.46Z" fill="#ee4351"/><path d="M72.37,133.43c-3,1.43-6.46,3.06-11.18,2.56-7.1-.76-9.23-5.08-10.94-8.55a17.58,17.58,0,0,0-2.41-4c-1-1.15-4-1.27-7-1.38a28,28,0,0,1-8.63-1.27,8.33,8.33,0,0,0-1.14,4.1c0,8.68,14.61,16,31.9,16,10,0,19.32-2.44,25.33-6.43a11.7,11.7,0,0,0-6.42-3.11C78,130.77,75.4,132,72.37,133.43Z" fill="#ee4351"/><path d="M35.17,139.14c5.58,3.58,13.29,6.05,22.11,6.79,1.86.16,3.76.24,5.71.24a67.55,67.55,0,0,0,7.61-.43c8.68-1,16.35-3.7,21.72-7.64a25,25,0,0,1-2.64-2.32c-.45-.44-.9-.87-1.36-1.29-6,4-15.32,6.43-25.33,6.43-17.29,0-31.9-7.34-31.9-16a8.33,8.33,0,0,1,1.14-4.1,10.05,10.05,0,0,1-4.33-3,13.7,13.7,0,0,0-2.07,7.11,15,15,0,0,0,4.64,10.44A26.25,26.25,0,0,0,35.17,139.14Z" fill="#6c2639"/><path d="M121.65,145.87c2,.35,4,.58,6,.74.76.06,1.52.11,2.28.14a19.53,19.53,0,0,1-.59-5.29,60.08,60.08,0,0,1-6.85-.77,65.31,65.31,0,0,1-13.63-4.09,25.12,25.12,0,0,1-6.36,2.86,74.77,74.77,0,0,0,17,6C120.25,145.61,121,145.75,121.65,145.87Z" fill="#6c2639"/><path d="M152.17,121.62c-.42,0-.85,0-1.27-.06,3.56,2.21,6.37,5.12,5.76,8.68-.65,3.83-4.25,7.07-10,9.11a24,24,0,0,1-.41,5.64,29.46,29.46,0,0,0,9.16-4.27,17.17,17.17,0,0,0,4.78-5.11,13.11,13.11,0,0,0,1.66-4.49c.51-3,0-6.74-3.67-10.49A19.44,19.44,0,0,1,152.17,121.62Z" fill="#6c2639"/><path d="M47.75,55.34c-5,6.48-6.19,12.43-6.16,16.77A57.69,57.69,0,0,1,53.81,58c-1.55-.62-3-1.25-4.43-1.91C48.93,55.91,48.37,55.65,47.75,55.34Z" fill="#f17bb0"/><path d="M105.4,72.46c0,1.73-.21,3.49-.38,5.18-.14,1.42-.29,2.77-.3,3.87-.16,14,7.6,17.18,6.78,18.38s-5.61.13-8.73-5.1a24.67,24.67,0,0,1-3.31-13.4c0-1.3.18-2.74.33-4.27.35-3.48,1.24-9.8-2.41-10.8-3.29-.91-5.6,1-6.93,4.09-2.29,5.36-1.12,14.45,2,21.16a52.32,52.32,0,0,0,4.65,8c.81,1.16.14,1.92-1.43,1.32-2.34-.91-5.49-3.08-8-8.06-4.15-8.17-4.87-17.87-2.06-24.45.12-.28.24-.55.37-.82C76.14,65,67.19,62.71,59.6,60.15c-4.13,3.11-19.23,15.68-18.11,32.07a14.43,14.43,0,0,0,6.15,11c9.54,7.24,28.72,8.18,38.91,6.07,1.6-.33,3.12-.66,4.55-1,9.13-2,15.73-3.43,18.73,1.69,1.06,1.8.84,3.75.64,5.47-.29,2.56-.16,3.12.9,3.75s4.16,0,6.78-.53c5-1.11,11.14-2.48,15,2.51,2.65,3.41,2.23,8.85,1.79,14.61-.32,4.18-.71,9.38.79,11,.16.16.57.6,2,.56a2.85,2.85,0,0,0,2.38-1c2.33-2.8,1-11,.27-16-.49-3.13-.85-5.4-.63-6.94.5-3.52,3.19-5.9,5.36-7.82.92-.82,2.47-2.2,2.53-2.74a.64.64,0,0,0-.09-.17,13,13,0,0,0-3.75,1c-2.92,1.08-6.57,2.43-9.68.65a4.71,4.71,0,0,1-2.36-3.17,6.11,6.11,0,0,1,.07-2.56c-3.06-.14-6.07-.94-8.1-3.27s-3.33-8.3,1.6-14.43a14.5,14.5,0,0,1,9.2-5.45.75.75,0,0,1,.57,1.33c-5,4-10.53,12.74-6.05,15.72.94.63,4.13,1.55,10.62-.12a47.3,47.3,0,0,0,15.51-7.1c2.6-2,3.59-3.15,2.86-4.35-1.2-2-11.6.88-16.11,2.19a.86.86,0,0,1-.9-1.39,16.73,16.73,0,0,1,2.6-2.29,21.69,21.69,0,0,1,5.83-2.84,24.15,24.15,0,0,0,1-9.15A32.19,32.19,0,0,1,141,78.71C130.88,78.71,118.14,75.67,105.4,72.46ZM48,88.16c-.45-1.13.7-2.65,2.56-3.38s3.73-.4,4.17.73-.7,2.65-2.56,3.38S48.48,89.3,48,88.16Zm16.88,16.51c-1.77.71-2.32-2.5-6.5-3.6-3.35-.88-4.9,1.22-5.92-.56-1.13-1.94,3.85-6.16,8.84-4.4S66.68,104,64.92,104.67Zm12.52-8.91c-.92.79-2.73.21-4-1.3s-1.62-3.38-.7-4.18,2.73-.22,4,1.29S78.36,95,77.44,95.76ZM122.49,113c.22.93-1.58,2.15-4,2.74s-4.61.3-4.83-.62,1.58-2.15,4-2.73S122.27,112.05,122.49,113Zm16-21.21A25.86,25.86,0,0,0,135,95.68a2,2,0,0,1-2.12.71,2.09,2.09,0,0,1-.7-.35,2,2,0,0,1-.36-2.83A26.44,26.44,0,0,1,136,88.58a2,2,0,0,1,2.48,3.18Z" fill="#f17bb0"/><path d="M136.89,109.9c1.09.35,3.27-.45,5.05-1.11C145,107.66,149.63,106,152,110a5.39,5.39,0,0,1-.41,6.35,13.43,13.43,0,0,0,5.78-1c1.91-.82,3.18-2,3.4-3.1.85-4.37-3.51-8.46-6-10.39a55.64,55.64,0,0,1-17.12,6.37A5.5,5.5,0,0,0,136.89,109.9Z" fill="#47b666"/><path d="M119.29,123.79c-3.74.83-7.6,1.68-10.59-.07-4.18-2.47-3.72-6.48-3.45-8.88a6.68,6.68,0,0,0,0-2.21c-1.08-1.84-6.38-.68-13.08.78-1.45.32-3,.65-4.61,1-8.69,1.8-30.67,2.44-43.15-7a21.71,21.71,0,0,1-5.31-5.69c-3.18,2.4-7.18,6.08-7.94,9.43a3.63,3.63,0,0,0,.5,3c1.57,2.41,5.35,2.56,9.36,2.72s8.22.32,10.72,3.16A22.48,22.48,0,0,1,55,125.11c1.6,3.24,2.57,5.2,6.79,5.65,3.25.34,5.62-.78,8.38-2.08,3.33-1.57,7.1-3.36,12.59-2.5s8.35,3.62,10.63,5.83c1.94,1.89,3,2.8,4.86,2.8,3.92,0,7.41-2.29,10.79-4.49,2.88-1.89,5.86-3.84,9.13-4.32a23.76,23.76,0,0,1,11.77,1.32,5.9,5.9,0,0,0-.9-2.93C127.31,122.2,124.05,122.73,119.29,123.79Zm-24.68,4.62c-5,0-8.83-2.84-8.83-6.45s3.88-6.45,8.83-6.45,8.84,2.83,8.84,6.45S99.57,128.41,94.61,128.41Z" fill="#47b666"/><path d="M159.32,98.7c-.31.27-.64.54-1,.81a36.26,36.26,0,0,1-3.51,2.31c2.48,1.93,6.84,6,6,10.39-.22,1.12-1.49,2.28-3.4,3.1a13.43,13.43,0,0,1-5.78,1,20.68,20.68,0,0,1-3.06,3.18c-.46.4-.92.81-1.35,1.23a12.6,12.6,0,0,0,3.69.8c.42,0,.85.06,1.27.06a19.44,19.44,0,0,0,6-1c.46-.15.9-.31,1.31-.49,3.61-1.55,5.91-4,6.47-6.93C167.2,106.85,162.7,101.63,159.32,98.7Z" fill="#317339"/><path d="M32.23,120.8a28,28,0,0,0,8.63,1.27c2.94.11,6,.23,7,1.38a17.58,17.58,0,0,1,2.41,4c1.71,3.47,3.84,7.79,10.94,8.55,4.72.5,8.15-1.13,11.18-2.56s5.64-2.66,9.53-2.05a11.7,11.7,0,0,1,6.42,3.11c.46.42.91.85,1.36,1.29a25,25,0,0,0,2.64,2.32,9.64,9.64,0,0,0,5.89,2,16,16,0,0,0,4.33-.6,25.12,25.12,0,0,0,6.36-2.86c1-.61,2-1.26,3-1.88,2.52-1.65,4.9-3.2,7-3.52a20.09,20.09,0,0,1,11,1.75,35.34,35.34,0,0,0,0-5.63A23.76,23.76,0,0,0,118.13,126c-3.27.48-6.25,2.43-9.13,4.32-3.38,2.2-6.87,4.49-10.79,4.49-1.9,0-2.92-.91-4.86-2.8-2.28-2.21-5.11-5-10.63-5.83s-9.26.93-12.59,2.5c-2.76,1.3-5.13,2.42-8.38,2.08-4.22-.45-5.19-2.41-6.79-5.65A22.48,22.48,0,0,0,51.79,120c-2.5-2.84-6.68-3-10.72-3.16s-7.79-.31-9.36-2.72a3.63,3.63,0,0,1-.5-3c.76-3.35,4.76-7,7.94-9.43A18.61,18.61,0,0,1,37,96.75c-3.54,2.53-9.6,7.56-10.88,13.19a9,9,0,0,0,1.22,7c.19.29.39.56.6.82A10.05,10.05,0,0,0,32.23,120.8Z" fill="#317339"/><path d="M39.15,101.68a21.71,21.71,0,0,0,5.31,5.69c12.48,9.47,34.46,8.83,43.15,7,1.63-.34,3.16-.67,4.61-1,6.7-1.46,12-2.62,13.08-.78a6.68,6.68,0,0,1,0,2.21c-.27,2.4-.73,6.41,3.45,8.88,3,1.75,6.85.9,10.59.07,4.76-1.06,8-1.59,9.71.6a5.9,5.9,0,0,1,.9,2.93,35.34,35.34,0,0,1,0,5.63c0,.82-.12,1.63-.18,2.43-.16,2.1-.31,4.15-.32,6.08a19.53,19.53,0,0,0,.59,5.29,8.24,8.24,0,0,0,1.95,3.61,7.42,7.42,0,0,0,5.61,2.2h.31a8.19,8.19,0,0,0,6.27-2.88,10.63,10.63,0,0,0,2.13-4.69,24,24,0,0,0,.41-5.64,79.8,79.8,0,0,0-1.12-9.8,33.64,33.64,0,0,1-.61-5.39,6.56,6.56,0,0,1,2.29-3.4c.43-.42.89-.83,1.35-1.23a20.68,20.68,0,0,0,3.06-3.18A5.39,5.39,0,0,0,152,110c-2.4-4-7-2.34-10.09-1.21-1.78.66-4,1.46-5.05,1.11a5.5,5.5,0,0,1,.8-1.71,55.64,55.64,0,0,0,17.12-6.37,36.26,36.26,0,0,0,3.51-2.31c.36-.27.69-.54,1-.81,5.87-5,4.21-8.82,3.18-10.29-1.56-2.2-4.32-3-7.34-2.85A35.36,35.36,0,0,0,155.45,75a16.32,16.32,0,0,1-5,2.49,24.15,24.15,0,0,1-1,9.15,21.69,21.69,0,0,0-5.83,2.84,16.73,16.73,0,0,0-2.6,2.29.86.86,0,0,0,.9,1.39C146.4,91.85,156.8,89,158,91c.73,1.2-.26,2.37-2.86,4.35a47.3,47.3,0,0,1-15.51,7.1c-6.49,1.67-9.68.75-10.62.12-4.48-3,1.05-11.72,6.05-15.72a.75.75,0,0,0-.57-1.33,14.5,14.5,0,0,0-9.2,5.45c-4.93,6.13-3.66,12.08-1.6,14.43s5,3.13,8.1,3.27a6.11,6.11,0,0,0-.07,2.56,4.71,4.71,0,0,0,2.36,3.17c3.11,1.78,6.76.43,9.68-.65a13,13,0,0,1,3.75-1,.64.64,0,0,1,.09.17c-.06.54-1.61,1.92-2.53,2.74-2.17,1.92-4.86,4.3-5.36,7.82-.22,1.54.14,3.81.63,6.94.77,4.92,2.06,13.16-.27,16a2.85,2.85,0,0,1-2.38,1c-1.39,0-1.8-.4-2-.56-1.5-1.58-1.11-6.78-.79-11,.44-5.76.86-11.2-1.79-14.61-3.86-5-10-3.62-15-2.51-2.62.58-5.58,1.23-6.78.53s-1.19-1.19-.9-3.75c.2-1.72.42-3.67-.64-5.47-3-5.12-9.6-3.68-18.73-1.69-1.43.31-2.95.64-4.55,1-10.19,2.11-29.37,1.17-38.91-6.07a14.43,14.43,0,0,1-6.15-11c-1.12-16.39,14-29,18.11-32.07-2-.69-4-1.39-5.79-2.12A57.69,57.69,0,0,0,41.59,72.11c0-4.34,1.19-10.29,6.16-16.77a41,41,0,0,1-4.58-2.66c-9.67,13-6.62,24.46-5.4,27.78a32.29,32.29,0,0,0-1.53,12.12A20.2,20.2,0,0,0,37,96.75,18.61,18.61,0,0,0,39.15,101.68Z" fill="#74489d"/><path d="M94.61,120.76c-2.08,0-3.32.81-3.56,1.2a4.67,4.67,0,0,0,3.56,1.19c2.08,0,3.33-.81,3.56-1.19C97.94,121.57,96.69,120.76,94.61,120.76Z" fill="#f17bb0"/><path d="M94.61,115.51c-5,0-8.83,2.83-8.83,6.45s3.88,6.45,8.83,6.45,8.84-2.84,8.84-6.45S99.57,115.51,94.61,115.51Zm0,7.64A4.67,4.67,0,0,1,91.05,122c.24-.39,1.48-1.2,3.56-1.2s3.33.81,3.56,1.2C97.94,122.34,96.69,123.15,94.61,123.15Z" fill="#74489d"/><path d="M54.77,85.51c-.44-1.13-2.31-1.46-4.17-.73S47.59,87,48,88.16s2.31,1.46,4.17.73S55.22,86.65,54.77,85.51Z"/><ellipse cx="75.07" cy="93.02" rx="2.21" ry="3.62" transform="translate(-42.55 71.75) rotate(-40.85)"/><path d="M61.34,96.11c-5-1.76-10,2.46-8.84,4.4,1,1.78,2.57-.32,5.92.56,4.18,1.1,4.73,4.31,6.5,3.6S66.33,97.88,61.34,96.11Z"/><path d="M117.67,112.36c-2.45.58-4.25,1.8-4,2.73s2.38,1.2,4.83.62,4.24-1.81,4-2.74S120.11,111.77,117.67,112.36Z" fill="#fff"/><path d="M136,88.58a26.44,26.44,0,0,0-4.25,4.63,2,2,0,0,0,.36,2.83,2.09,2.09,0,0,0,.7.35,2,2,0,0,0,2.12-.71,25.86,25.86,0,0,1,3.55-3.92A2,2,0,0,0,136,88.58Z" fill="#fff"/><path d="M97.87,61.08a8.06,8.06,0,0,1,5.35,2.68,8.69,8.69,0,0,1,1.6,3.13c13.31,3.36,26,6.33,35.16,6.58,11.9.31,14.54-4,15.5-7.77,1.85-7.31-2.21-17.85-10.61-27.49A75.76,75.76,0,0,0,62.73,17.35c-12,4.47-20.58,11.79-22.43,19.1-1,4-.64,9.27,11.32,14.92C60.81,55.71,74.13,59.11,89.55,63A10.6,10.6,0,0,1,97.87,61.08ZM134,34a2,2,0,1,1-2.12,2A2.06,2.06,0,0,1,134,34Zm-6.15-5.17a2,2,0,1,1-2.12,2A2.06,2.06,0,0,1,127.82,28.82Zm-6.57-4.64a2,2,0,1,1-2.12,2A2.06,2.06,0,0,1,121.25,24.18Zm-2.78,8.08a2.12,2.12,0,1,1-2.12-2A2.06,2.06,0,0,1,118.47,32.26Zm-4.79-11.39a2,2,0,1,1-2.12,2A2.06,2.06,0,0,1,113.68,20.87Zm-4.22,8a2.12,2.12,0,1,1-2.11-2A2,2,0,0,1,109.46,28.82Zm-4.23-10.46a2,2,0,1,1-2.12,2A2.06,2.06,0,0,1,105.23,18.36Zm-2.43,15a2.12,2.12,0,1,1-2.12-2A2.06,2.06,0,0,1,102.8,33.32ZM75.85,22.2a2,2,0,1,1,2.12-2A2.06,2.06,0,0,1,75.85,22.2Zm7.92-3.84a2.12,2.12,0,1,1,2.12,2A2.06,2.06,0,0,1,83.77,18.36ZM88,27.5a2,2,0,1,1,2.12-2A2.06,2.06,0,0,1,88,27.5Zm5.69-9.14a2.12,2.12,0,1,1,2.11,2A2,2,0,0,1,93.7,18.36Zm3.77,5.82a2,2,0,1,1-2.12,2A2.06,2.06,0,0,1,97.47,24.18Z" fill="#fdd0a6"/><path d="M47.75,55.34c.62.31,1.18.57,1.63.78,1.39.66,2.88,1.29,4.43,1.91,1.83.73,3.76,1.43,5.79,2.12C67.19,62.71,76.14,65,86,67.53A12.68,12.68,0,0,1,89.55,63c-15.42-3.9-28.74-7.3-37.93-11.64-12-5.65-12.33-10.94-11.32-14.92,1.85-7.31,10.45-14.63,22.43-19.1a75.76,75.76,0,0,1,82.14,20.86c8.4,9.64,12.46,20.18,10.61,27.49-1,3.78-3.6,8.08-15.5,7.77-9.21-.25-21.85-3.22-35.16-6.58a18.31,18.31,0,0,1,.58,5.57c12.74,3.21,25.48,6.25,35.57,6.25a32.19,32.19,0,0,0,9.43-1.22,16.32,16.32,0,0,0,5-2.49,13.85,13.85,0,0,0,5.12-8c2.31-9.09-2.08-21.14-11.73-32.23A81,81,0,0,0,60.89,12.43C47.11,17.57,37.51,26.07,35.2,35.16c-2.17,8.55,3,14.15,8,17.52A41,41,0,0,0,47.75,55.34Z" fill="#c3996b"/><path d="M87.68,92.8c2.52,5,5.67,7.15,8,8.06,1.57.6,2.24-.16,1.43-1.32a52.32,52.32,0,0,1-4.65-8c-3.14-6.71-4.31-15.8-2-21.16,1.33-3.11,3.64-5,6.93-4.09,3.65,1,2.76,7.32,2.41,10.8-.15,1.53-.3,3-.33,4.27a24.67,24.67,0,0,0,3.31,13.4c3.12,5.23,7.91,6.3,8.73,5.1s-6.94-4.38-6.78-18.38c0-1.1.16-2.45.3-3.87.17-1.69.34-3.45.38-5.18a18.31,18.31,0,0,0-.58-5.57,8.69,8.69,0,0,0-1.6-3.13,8.06,8.06,0,0,0-5.35-2.68A10.6,10.6,0,0,0,89.55,63,12.68,12.68,0,0,0,86,67.53c-.13.27-.25.54-.37.82C82.81,74.93,83.53,84.63,87.68,92.8Z" fill="#74489d"/><ellipse cx="95.81" cy="18.36" rx="2.12" ry="1.99" fill="#c3996b"/><ellipse cx="100.68" cy="33.32" rx="2.12" ry="1.99" fill="#c3996b"/><path d="M105.23,22.33a2,2,0,1,0-2.12-2A2.06,2.06,0,0,0,105.23,22.33Z" fill="#c3996b"/><path d="M75.85,18.22a2,2,0,1,0,2.12,2A2.06,2.06,0,0,0,75.85,18.22Z" fill="#c3996b"/><ellipse cx="113.68" cy="22.86" rx="2.12" ry="1.99" fill="#c3996b"/><path d="M88,18.36a2.12,2.12,0,1,0-2.12,2A2.06,2.06,0,0,0,88,18.36Z" fill="#c3996b"/><ellipse cx="88.01" cy="25.51" rx="2.12" ry="1.99" fill="#c3996b"/><ellipse cx="97.47" cy="26.17" rx="2.12" ry="1.99" fill="#c3996b"/><path d="M105.23,28.82a2.12,2.12,0,1,0,2.12-2A2.06,2.06,0,0,0,105.23,28.82Z" fill="#c3996b"/><path d="M114.23,32.26a2.12,2.12,0,1,0,2.12-2A2.06,2.06,0,0,0,114.23,32.26Z" fill="#c3996b"/><path d="M121.25,28.16a2,2,0,1,0-2.12-2A2.06,2.06,0,0,0,121.25,28.16Z" fill="#c3996b"/><path d="M127.82,32.79a2,2,0,1,0-2.12-2A2.06,2.06,0,0,0,127.82,32.79Z" fill="#c3996b"/><path d="M134,38a2,2,0,1,0-2.12-2A2.06,2.06,0,0,0,134,38Z" fill="#c3996b"/></svg>