<svg width="50" height="50" viewBox="0 0 50 50" fill="none" xmlns="http://www.w3.org/2000/svg">
<g id="saro_paper_plain_dark">
<path id="Vector" d="M2.82031 17.5866L9.64063 22.6751L11.125 34.6882L20.263 31.7246L24.7995 36.2533L47.1797 13.748L2.82031 17.5866Z" fill="#6DCFF6"/>
<path id="Vector_2" d="M9.64062 22.6751L47.1797 13.748L15.3568 25.873L14.6615 26.1361L11.3021 34.2611L9.64062 22.6751Z" fill="#41767F"/>
<path id="Vector_3" d="M14.6615 26.8796C14.4881 26.8781 14.3206 26.8161 14.188 26.7043C14.0554 26.5926 13.9659 26.438 13.9351 26.2674C13.9042 26.0967 13.9339 25.9206 14.019 25.7695C14.104 25.6183 14.2392 25.5016 14.4011 25.4395L36.2761 17.1062L9.81257 23.3978C9.71585 23.4253 9.61457 23.4329 9.51483 23.4202C9.41509 23.4075 9.31896 23.3747 9.23224 23.3238C9.14551 23.273 9.06998 23.205 9.0102 23.1242C8.95042 23.0434 8.90762 22.9512 8.8844 22.8534C8.86117 22.7556 8.858 22.6541 8.87506 22.555C8.89212 22.4559 8.92907 22.3613 8.98368 22.2769C9.03829 22.1924 9.10942 22.12 9.1928 22.0638C9.27618 22.0076 9.37007 21.9688 9.46882 21.9499L47.0078 13.0202C47.1908 12.9789 47.3827 13.0082 47.5451 13.1022C47.7074 13.1962 47.8283 13.3481 47.8836 13.5273C47.9389 13.7066 47.9244 13.9002 47.8432 14.0693C47.7619 14.2384 47.6199 14.3706 47.4453 14.4395L14.9245 26.8223C14.8408 26.8565 14.7519 26.8759 14.6615 26.8796Z" fill="#231F20"/>
<path id="Vector_4" d="M24.7996 36.994C24.6043 36.9933 24.4172 36.9156 24.2788 36.7779L14.922 27.4498L11.8127 34.9706C11.7506 35.123 11.6396 35.2506 11.4972 35.333C11.3547 35.4155 11.1889 35.4483 11.0257 35.4263C10.8626 35.4042 10.7114 35.3285 10.596 35.2111C10.4806 35.0938 10.4075 34.9413 10.3882 34.7779L8.94026 23.08L2.37517 18.1815C2.25434 18.0913 2.16377 17.9664 2.11544 17.8236C2.06711 17.6807 2.0633 17.5265 2.10451 17.3814C2.14573 17.2363 2.23002 17.1072 2.34624 17.011C2.46246 16.9149 2.60513 16.8563 2.75538 16.843L47.1173 13.0201C47.2689 13.0076 47.4207 13.0418 47.5523 13.1182C47.6839 13.1945 47.7889 13.3093 47.8533 13.4472C47.9177 13.585 47.9383 13.7393 47.9124 13.8892C47.8865 14.0391 47.8153 14.1775 47.7084 14.2857L25.3283 36.7753C25.1903 36.914 25.0031 36.9926 24.8074 36.994H24.7996ZM14.6616 25.3925C14.857 25.3926 15.0443 25.4704 15.1824 25.6086L24.797 35.1971L45.2162 14.6633L4.83089 18.1581L10.0861 22.0644C10.1662 22.1249 10.2334 22.2007 10.2839 22.2874C10.3344 22.3742 10.3672 22.4701 10.3804 22.5696L11.5184 31.7779L13.9741 25.8378C14.0207 25.7247 14.0945 25.6248 14.189 25.5471C14.2835 25.4694 14.3958 25.4163 14.5158 25.3925C14.5643 25.3885 14.6131 25.3885 14.6616 25.3925Z" fill="#231F20"/>
<path id="Vector_5" d="M11.1251 35.4327C10.9479 35.4325 10.7765 35.369 10.6419 35.2538C10.5072 35.1385 10.4181 34.979 10.3904 34.8039C10.3628 34.6288 10.3986 34.4497 10.4912 34.2986C10.5839 34.1474 10.7274 34.0343 10.896 33.9796L20.034 31.0186C20.2215 30.9579 20.4255 30.9741 20.601 31.0637C20.7766 31.1533 20.9094 31.309 20.9702 31.4965C21.0309 31.684 21.0147 31.888 20.9251 32.0636C20.8355 32.2391 20.6798 32.3719 20.4923 32.4327L11.3543 35.3962C11.2802 35.4197 11.2029 35.432 11.1251 35.4327Z" fill="#231F20"/>
</g>
</svg>
