<svg width="192" height="192" viewBox="0 0 192 192" fill="none" xmlns="http://www.w3.org/2000/svg">
<path d="M183.2 92.4004C184.2 99.4004 184.78 109.4 181.56 116.9C179.62 121.42 176.5 124.44 172.56 125.63C171.13 126.063 169.659 126.348 168.17 126.48C167.276 130.407 165.811 134.18 163.82 137.68C161.633 141.495 158.878 144.955 155.65 147.94C154.81 148.72 153.95 149.47 153.04 150.21C149.652 152.93 145.981 155.277 142.09 157.21C138.487 159.007 134.757 160.538 130.93 161.79C123.23 164.269 115.3 165.964 107.26 166.85C104.03 167.22 101.32 167.41 99.3701 167.5C97.4201 167.59 96.2301 167.6 96.0401 167.6C84.1917 167.346 72.4415 165.389 61.1501 161.79C57.3257 160.536 53.599 159.002 50.0001 157.2C46.0908 155.272 42.4026 152.925 39.0001 150.2C38.0901 149.46 37.2201 148.71 36.3901 147.93C33.1617 144.945 30.4068 141.485 28.2201 137.67C26.2254 134.172 24.7596 130.398 23.8701 126.47C22.3814 126.339 20.9102 126.054 19.4801 125.62C15.4801 124.43 12.3801 121.41 10.4801 116.89C7.26009 109.38 7.81009 99.4204 8.85009 92.3904C10.2566 82.8869 13.1414 73.662 17.4001 65.0504C27.6601 44.7504 42.8601 35.9204 53.7901 32.1004C60.1292 29.8556 66.7956 28.673 73.5201 28.6004C78.5513 26.902 83.7357 25.6964 89.0001 25.0004C91.0001 24.7304 92.6601 24.5904 93.8501 24.5204C95.0401 24.4504 95.7901 24.4404 95.9601 24.4404C103.622 24.6972 111.2 26.1098 118.44 28.6304C125.165 28.703 131.831 29.8856 138.17 32.1304C149.1 35.9504 164.29 44.7804 174.56 65.0804C178.843 73.6824 181.758 82.8999 183.2 92.4004ZM174.57 113.91C178.68 104.35 175.64 83.9804 167.81 68.4904C161.86 56.7004 153.59 48.0004 143.18 42.4904C140.862 41.2914 138.463 40.2556 136 39.3904C129.965 37.1842 123.574 36.1128 117.15 36.2304H117.06C115.39 35.6404 113.8 35.1404 112.31 34.7204C107.005 33.1519 101.527 32.2385 96.0001 32.0004C90.4749 32.2226 84.9977 33.1192 79.6901 34.6704C78.2201 35.0904 76.6201 35.5904 74.9501 36.1804H74.8501C68.4226 36.0791 62.0318 37.1674 56.0001 39.3904C53.5399 40.269 51.1441 41.3182 48.8301 42.5304C38.4101 48.0004 30.1401 56.7004 24.1801 68.4904C16.3601 84.0004 13.3301 104.35 17.4201 113.91C18.4201 116.35 19.8601 117.8 21.6701 118.35C22.0501 118.47 22.4201 118.55 22.8001 118.63C25.3252 119.156 27.9459 118.983 30.3801 118.13C32.1558 117.509 33.8381 116.648 35.3801 115.57C31.6101 116.17 27.6501 115.85 24.7601 113.49C20.0301 109.65 19.9801 97.8304 25.7601 79.8704C36.4801 46.6804 67.7601 38.6104 72.5701 42.2904C74.2101 43.5404 72.4001 46.4604 71.1201 49.4404C70.8801 50.0004 70.6201 50.5804 70.3401 51.1704C68.0001 57.3604 66.8901 63.3204 65.6901 70.0004C64.4001 77.1304 63.0601 84.5104 59.8401 93.1304C55.6701 104.32 49.8401 113.35 43.1201 119.26C39.7983 122.29 35.8319 124.527 31.5201 125.8C33.117 131.991 36.427 137.606 41.0701 142L44.3201 144.82C50.101 149.165 56.59 152.478 63.5001 154.61C70.7487 156.933 78.2132 158.517 85.7801 159.34C91.8501 160.02 95.9201 160.04 96.0001 160.04C107.035 159.765 117.975 157.937 128.5 154.61C135.409 152.476 141.898 149.164 147.68 144.82L150.92 142C155.567 137.607 158.88 131.992 160.48 125.8C156.166 124.525 152.197 122.289 148.87 119.26C146.949 117.565 145.173 115.712 143.56 113.72C141.052 117.435 138.059 120.799 134.66 123.72C132.156 125.782 129.479 127.626 126.66 129.23C126.422 129.369 126.149 129.434 125.874 129.42C125.599 129.406 125.334 129.312 125.111 129.15C124.889 128.988 124.718 128.764 124.62 128.507C124.523 128.25 124.502 127.969 124.56 127.7L126.31 119.41C128.286 118.084 129.868 116.25 130.89 114.1C133.98 113.91 135.39 112.42 136.04 111.1C136.376 110.453 136.574 109.743 136.622 109.015C136.671 108.287 136.568 107.557 136.32 106.87C136.041 106.124 135.614 105.443 135.064 104.867C134.514 104.291 133.853 103.833 133.12 103.52L122.73 99.0404C123.9 94.9004 124.43 92.9704 124.67 92.0404C124.748 91.7358 124.923 91.4652 125.17 91.2704C126.782 90.0063 128.558 88.9668 130.45 88.1804C128.682 82.2153 127.299 76.1428 126.31 70.0004C125.11 63.3704 124.03 57.4104 121.6 51.2204C121.32 50.6304 121.06 50.0504 120.82 49.4904C119.54 46.4904 117.73 43.5904 119.37 42.3404C124.17 38.6604 155.46 46.7304 166.18 79.9204C171.98 97.9204 171.93 109.7 167.18 113.54C164.28 115.9 160.33 116.22 156.56 115.62C158.104 116.695 159.786 117.556 161.56 118.18C163.998 119.033 166.622 119.206 169.15 118.68C169.53 118.6 169.9 118.52 170.28 118.4C172.14 117.8 173.52 116.35 174.57 113.91Z" fill="black"/>
<path d="M167.81 68.49C175.64 83.98 178.68 104.35 174.57 113.91C173.57 116.35 172.14 117.8 170.33 118.35C169.95 118.47 169.58 118.55 169.2 118.63C166.671 119.156 164.047 118.983 161.61 118.13C159.835 117.506 158.154 116.645 156.61 115.57C160.38 116.17 164.33 115.85 167.23 113.49C171.96 109.65 172.01 97.83 166.23 79.87C155.51 46.68 124.23 38.61 119.42 42.29C117.78 43.54 119.59 46.46 120.87 49.44C121.11 50 121.37 50.58 121.65 51.17C124.08 57.36 125.16 63.32 126.36 69.95C127.355 76.1029 128.744 82.1855 130.52 88.16C128.628 88.9464 126.852 89.9859 125.24 91.25C124.993 91.4447 124.817 91.7154 124.74 92.02C124.5 93.02 123.97 94.91 122.8 99.02L133.19 103.5C133.922 103.813 134.584 104.271 135.134 104.847C135.684 105.422 136.111 106.104 136.39 106.85C136.637 107.536 136.74 108.266 136.692 108.994C136.644 109.722 136.446 110.432 136.11 111.08C135.46 112.35 134.05 113.84 130.96 114.08C129.938 116.229 128.356 118.063 126.38 119.39L124.63 127.68C124.571 127.949 124.592 128.229 124.69 128.487C124.788 128.744 124.959 128.967 125.181 129.129C125.404 129.291 125.669 129.385 125.944 129.4C126.218 129.414 126.492 129.348 126.73 129.21C129.549 127.605 132.226 125.762 134.73 123.7C138.129 120.778 141.122 117.415 143.63 113.7C145.242 115.691 147.019 117.544 148.94 119.24C152.267 122.268 156.236 124.504 160.55 125.78C158.95 131.972 155.637 137.587 150.99 141.98L147.75 144.8C141.968 149.143 135.479 152.455 128.57 154.59C118.022 157.917 107.057 159.738 95.9998 160C95.9198 160 91.8498 160 85.7798 159.3C78.2129 158.477 70.7484 156.892 63.4998 154.57C56.5897 152.437 50.1007 149.125 44.3198 144.78L41.0698 142C36.4267 137.605 33.1168 131.99 31.5198 125.8C35.8316 124.526 39.798 122.29 43.1198 119.26C49.8898 113.35 55.6698 104.32 59.8398 93.13C63.0598 84.51 64.3998 77.13 65.6898 70C66.8898 63.37 67.9698 57.41 70.3998 51.22C70.6798 50.63 70.9398 50.05 71.1798 49.49C72.4598 46.49 74.2698 43.59 72.6298 42.34C67.8298 38.66 36.5398 46.73 25.8198 79.92C20.0198 97.92 20.0698 109.7 24.8198 113.54C27.7098 115.9 31.6698 116.22 35.4398 115.62C33.8978 116.698 32.2155 117.559 30.4398 118.18C28.0056 119.033 25.3849 119.206 22.8598 118.68C22.4798 118.6 22.1098 118.52 21.7298 118.4C19.9198 117.85 18.5298 116.4 17.4798 113.96C13.3898 104.4 16.4198 84.03 24.2398 68.54C30.2398 56.75 38.4698 48.05 48.8798 42.54C51.1774 41.3265 53.5564 40.274 55.9998 39.39C62.0315 37.1852 68.4188 36.1139 74.8398 36.23H74.9398C76.6098 35.64 78.2098 35.14 79.6798 34.72C84.9885 33.1511 90.4692 32.2376 95.9998 32C101.522 32.2226 106.996 33.1192 112.3 34.67C113.79 35.09 115.38 35.59 117.05 36.18H117.14C123.571 36.0772 129.965 37.1655 136 39.39C138.46 40.2686 140.856 41.3178 143.17 42.53C153.59 48 161.86 56.7 167.81 68.49ZM132.7 109.38C132.804 109.162 132.861 108.924 132.867 108.683C132.872 108.441 132.826 108.201 132.731 107.979C132.637 107.756 132.496 107.557 132.318 107.393C132.14 107.23 131.929 107.106 131.7 107.03L121.78 102.74L116.78 100.6L115.52 100.05H115.36C114.041 100.219 112.819 100.829 111.89 101.78C110.623 103.086 109.764 104.733 109.42 106.52C109.185 107.752 109.195 109.019 109.45 110.248C109.705 111.476 110.2 112.642 110.905 113.68C111.611 114.717 112.514 115.605 113.564 116.293C114.613 116.981 115.787 117.456 117.02 117.69C118.431 117.965 119.886 117.924 121.28 117.57C123.027 117.131 124.613 116.204 125.852 114.897C127.092 113.59 127.934 111.958 128.28 110.19H128.39C128.65 110.19 129.39 110.3 130.26 110.3C131.24 110.29 132.32 110.12 132.7 109.38ZM118.85 129L120.43 121.54C119.913 121.612 119.392 121.649 118.87 121.65C116.677 121.642 114.518 121.101 112.58 120.075C110.641 119.049 108.98 117.569 107.74 115.76C106.02 113.247 105.221 110.218 105.478 107.184C105.735 104.15 107.032 101.298 109.15 99.11L109.24 99.02L109.33 98.94C110.065 98.2551 110.885 97.667 111.77 97.19C112.863 96.5682 114.093 96.2248 115.35 96.19H115.77H116.42L117.02 96.45L117.82 96.79C118.14 95.64 118.44 94.59 118.69 93.7C118.764 93.4409 118.763 93.1661 118.687 92.9075C118.611 92.649 118.463 92.4175 118.26 92.24C115.43 89.79 111.07 86.91 106.21 86.92L106 87H105.65C102.949 87.1536 100.364 88.1503 98.2598 89.85C96.7423 90.9927 95.5101 92.4713 94.6598 94.17C94.6598 94.26 94.5698 94.34 94.5298 94.44C94.4529 94.599 94.3861 94.7626 94.3298 94.93C94.2198 95.17 94.1298 95.42 94.0398 95.68C94.0378 95.7878 94.0244 95.895 93.9998 96C93.9198 96.29 93.8498 96.58 93.7798 96.88L93.6998 97.21C93.6998 97.46 93.6298 97.73 93.5898 98L93.5298 98.45C93.5298 98.77 93.5298 99.11 93.5298 99.45V99.64C93.5298 107.78 100.21 117.44 107.53 123.71C110.442 126.091 113.568 128.197 116.87 130C117.063 130.091 117.275 130.136 117.489 130.133C117.702 130.129 117.912 130.078 118.103 129.981C118.294 129.885 118.46 129.747 118.589 129.577C118.719 129.407 118.808 129.209 118.85 129ZM100.31 144.9C102.91 142.68 105.31 139.25 105.31 136.36V136.3C105.31 136.17 105.31 136.06 105.31 135.95C105.306 135.897 105.306 135.843 105.31 135.79C105.31 135.69 105.31 135.6 105.31 135.5V135.39C105.294 135.284 105.267 135.18 105.23 135.08C105.237 135.047 105.237 135.013 105.23 134.98L105.14 134.72L105.07 134.54C105.046 134.515 105.028 134.484 105.02 134.45C104.717 133.845 104.275 133.321 103.73 132.92C102.987 132.319 102.074 131.969 101.12 131.92H100.92C99.4868 131.955 98.1068 132.469 96.9998 133.38C96.8931 133.457 96.8184 133.571 96.7898 133.7C96.6598 134.24 96.2598 135.64 95.1598 139.5L96.7998 138.7C97.0045 138.608 97.2341 138.588 97.4518 138.642C97.6694 138.697 97.8624 138.823 97.9998 139C98.0823 139.118 98.1384 139.252 98.1643 139.394C98.1902 139.535 98.1853 139.681 98.1498 139.82L96.8098 146.17C96.7859 146.279 96.7941 146.393 96.8333 146.498C96.8726 146.602 96.9412 146.693 97.031 146.76C97.1208 146.826 97.228 146.866 97.3395 146.873C97.451 146.88 97.5623 146.855 97.6598 146.8C98.595 146.242 99.4815 145.607 100.31 144.9ZM94.7098 146.71L95.8698 141.27L94.0698 142.14C93.9523 142.202 93.8229 142.239 93.6902 142.248C93.5574 142.256 93.4244 142.237 93.2998 142.19C93.0811 142.097 92.9025 141.929 92.7963 141.717C92.69 141.504 92.6629 141.261 92.7198 141.03C93.3098 139.03 94.1498 136.03 94.6298 134.35C94.6592 134.243 94.6578 134.13 94.626 134.024C94.5942 133.918 94.5331 133.823 94.4498 133.75C93.2919 132.663 91.7941 132.01 90.2098 131.9H89.9998C89.043 131.949 88.1261 132.299 87.3798 132.9C86.8378 133.301 86.399 133.826 86.0998 134.43V134.52C86.0998 134.58 86.0998 134.63 86.0298 134.7C85.9598 134.77 85.9598 134.87 85.9298 134.96V135.06C85.9298 135.16 85.9298 135.26 85.8498 135.37C85.7698 135.48 85.8498 135.44 85.8498 135.48C85.8498 135.52 85.8498 135.67 85.7998 135.77C85.7945 135.823 85.7945 135.877 85.7998 135.93C85.7998 136.04 85.7998 136.15 85.7998 136.28V136.34C85.7998 139.23 88.1798 142.66 90.7998 144.88C91.805 145.71 92.8865 146.443 94.0298 147.07C94.1676 147.106 94.3139 147.089 94.4397 147.022C94.5656 146.955 94.6619 146.844 94.7098 146.71ZM73.9398 117.71C76.4298 117.237 78.6302 115.795 80.0572 113.7C81.4843 111.606 82.0211 109.03 81.5498 106.54C81.2019 104.752 80.34 103.105 79.0698 101.8C78.1101 100.802 76.8198 100.187 75.4398 100.07L59.2998 107C59.0713 107.077 58.8616 107.202 58.6846 107.366C58.5076 107.529 58.3673 107.729 58.2728 107.951C58.1784 108.173 58.132 108.412 58.1366 108.653C58.1413 108.894 58.1969 109.132 58.2998 109.35C59.0598 110.84 62.7198 110.01 62.7498 110.16C63.2407 112.639 64.6935 114.824 66.7905 116.235C68.8875 117.646 71.458 118.169 73.9398 117.69V117.71Z" fill="white"/>
<path d="M131.66 107C131.89 107.075 132.101 107.199 132.279 107.363C132.456 107.526 132.597 107.726 132.692 107.949C132.787 108.171 132.833 108.411 132.827 108.653C132.822 108.894 132.765 109.132 132.66 109.35C132.28 110.09 131.2 110.26 130.19 110.26C129.35 110.26 128.58 110.15 128.32 110.15H128.21C127.864 111.917 127.022 113.55 125.783 114.857C124.543 116.164 122.957 117.091 121.21 117.53C119.817 117.884 118.362 117.925 116.95 117.65C115.718 117.416 114.543 116.941 113.494 116.253C112.445 115.565 111.542 114.677 110.836 113.64C110.13 112.602 109.636 111.436 109.381 110.207C109.126 108.979 109.116 107.712 109.35 106.48C109.695 104.693 110.553 103.046 111.82 101.74C112.749 100.789 113.972 100.179 115.29 100.01H115.45L116.71 100.56L121.71 102.7L131.66 107Z" fill="black"/>
<path d="M120.43 121.57L118.85 129C118.805 129.218 118.709 129.422 118.57 129.596C118.431 129.77 118.252 129.909 118.049 130C117.846 130.092 117.625 130.134 117.402 130.124C117.18 130.113 116.963 130.05 116.77 129.94C113.468 128.137 110.341 126.031 107.43 123.65C100.12 117.38 93.4297 107.72 93.4297 99.58V99.39C93.4297 99.06 93.4297 98.72 93.4297 98.39L93.4897 97.94C93.4897 97.67 93.5597 97.4 93.5997 97.15L93.6797 96.82C93.7497 96.52 93.8197 96.23 93.8997 95.94C93.934 95.8559 93.9608 95.7689 93.9797 95.68C94.0697 95.42 94.1597 95.17 94.2697 94.93C94.326 94.7626 94.3928 94.599 94.4697 94.44C94.4697 94.34 94.5597 94.26 94.5997 94.17C95.45 92.4713 96.6822 90.9927 98.1997 89.85C100.321 88.1386 102.928 87.1411 105.65 87H106H106.21C111.07 87 115.43 89.87 118.26 92.32C118.463 92.4975 118.611 92.729 118.687 92.9875C118.763 93.2461 118.764 93.5209 118.69 93.78C118.44 94.67 118.14 95.72 117.82 96.87L117.02 96.53L116.42 96.27H115.77H115.35C114.092 96.3048 112.863 96.6482 111.77 97.27C110.886 97.7407 110.066 98.3221 109.33 99L109.24 99.08L109.15 99.17C107.364 101.071 106.173 103.452 105.723 106.021C105.273 108.589 105.584 111.234 106.616 113.628C107.649 116.023 109.359 118.064 111.536 119.499C113.713 120.935 116.262 121.704 118.87 121.71C119.392 121.699 119.913 121.652 120.43 121.57Z" fill="black"/>
<path d="M105.28 136.36C105.28 139.25 102.91 142.68 100.28 144.9C99.4379 145.602 98.538 146.231 97.5897 146.78C97.4922 146.835 97.3809 146.86 97.2694 146.853C97.1578 146.846 97.0507 146.806 96.9609 146.74C96.8711 146.673 96.8025 146.582 96.7632 146.478C96.724 146.373 96.7158 146.259 96.7397 146.15L98.0797 139.8C98.1224 139.668 98.1374 139.529 98.1236 139.392C98.1099 139.254 98.0677 139.12 97.9997 139C97.8608 138.83 97.6702 138.711 97.457 138.661C97.2438 138.61 97.0199 138.631 96.8197 138.72L95.1797 139.52C96.2797 135.66 96.6797 134.26 96.8097 133.72C96.8383 133.591 96.913 133.477 97.0197 133.4C98.0837 132.513 99.4063 131.994 100.79 131.92H100.99C101.943 131.969 102.857 132.319 103.6 132.92C104.145 133.321 104.587 133.845 104.89 134.45C104.898 134.484 104.915 134.515 104.94 134.54L105.01 134.72L105.1 134.98C105.107 135.013 105.107 135.047 105.1 135.08C105.137 135.18 105.164 135.284 105.18 135.39V135.5C105.18 135.6 105.18 135.69 105.18 135.79C105.175 135.843 105.175 135.897 105.18 135.95C105.18 136.06 105.18 136.17 105.18 136.3V136.36H105.28Z" fill="black"/>
<path d="M95.8697 141.27L94.7097 146.71C94.6915 146.798 94.6527 146.88 94.5965 146.951C94.5404 147.021 94.4684 147.077 94.3865 147.114C94.3045 147.151 94.215 147.168 94.1252 147.164C94.0354 147.16 93.9479 147.134 93.8697 147.09C92.7264 146.463 91.6449 145.73 90.6397 144.9C88.0497 142.68 85.6397 139.25 85.6397 136.36V136.3C85.6397 136.17 85.6397 136.06 85.6397 135.95C85.6344 135.897 85.6344 135.843 85.6397 135.79C85.6397 135.69 85.6397 135.6 85.6897 135.5C85.7397 135.4 85.6897 135.43 85.6897 135.39C85.6897 135.35 85.6897 135.18 85.7697 135.08V134.98C85.7697 134.89 85.8397 134.8 85.8697 134.72C85.8997 134.64 85.9197 134.6 85.9397 134.54V134.45C86.2389 133.846 86.6777 133.321 87.2197 132.92C87.966 132.319 88.8829 131.969 89.8397 131.92H90.0397C91.624 132.03 93.1218 132.683 94.2797 133.77C94.363 133.843 94.4241 133.938 94.4559 134.044C94.4877 134.15 94.4891 134.263 94.4597 134.37C94.1497 136 93.3097 139 92.7197 141C92.6628 141.231 92.6899 141.474 92.7962 141.687C92.9024 141.899 93.081 142.067 93.2997 142.16C93.4243 142.207 93.5573 142.226 93.6901 142.218C93.8228 142.209 93.9522 142.172 94.0697 142.11L95.8697 141.27Z" fill="black"/>
<path d="M81.5504 106.52C82.0371 109.02 81.5108 111.611 80.0874 113.722C78.664 115.834 76.4601 117.294 73.9604 117.78C71.4607 118.267 68.8701 117.741 66.7585 116.317C64.6468 114.894 63.1871 112.69 62.7004 110.19C62.7004 110.04 59.0104 110.87 58.2504 109.38C58.1475 109.162 58.0919 108.925 58.0872 108.684C58.0826 108.442 58.129 108.203 58.2235 107.981C58.3179 107.759 58.4582 107.56 58.6352 107.396C58.8122 107.232 59.0219 107.107 59.2504 107.03L75.3904 100.03C76.7704 100.147 78.0608 100.762 79.0204 101.76C80.3123 103.065 81.1921 104.72 81.5504 106.52Z" fill="black"/>
</svg>
