<svg id="Layer_1" data-name="Layer 1" xmlns="http://www.w3.org/2000/svg" viewBox="0 0 192 192"><path d="M55.29,68.64a34.15,34.15,0,0,1,5.83-.5,40.46,40.46,0,0,1,4.81.29c.27-21.93,13.9-39.67,30.63-39.67s30.3,17.68,30.62,39.55c1.22-.11,2.46-.17,3.7-.17a34.15,34.15,0,0,1,5.83.5c-.19-29.87-18.38-54.1-40.71-54.1S55.48,38.77,55.29,68.64Z" fill="#6dcff6"/><path d="M156.1,79.08a34.88,34.88,0,0,0-13-8.71c0-.42,0-.85,0-1.27,0-33.62-21.14-61-47.13-61s-47.13,27.35-47.13,61c0,.42,0,.85,0,1.27a34.91,34.91,0,0,0-13,8.71c-7.76,8.2-11.83,19.81-11.17,31.85,1,18.09,9.2,34.26,24.36,48.07,12.54,11.42,27.28,18.8,37.42,23l.08,0a24.7,24.7,0,0,0,18.61.08l.76-.31c10.13-4.21,24.82-11.64,37.26-23.06,15-13.75,23.05-29.82,24.05-47.79C167.94,98.89,163.86,87.28,156.1,79.08Zm4.76,31.49c-2,36.89-36.81,56.74-57.36,65.29l-.66.27A18.42,18.42,0,0,1,89,176.06c-20.72-8.54-55.79-28.4-57.84-65.49a36.47,36.47,0,0,1,9.42-27.09,27.73,27.73,0,0,1,20.56-8.93A34,34,0,0,1,93,96.83a3.2,3.2,0,0,0,6,0,34,34,0,0,1,31.87-22.28,27.73,27.73,0,0,1,20.56,8.93A36.47,36.47,0,0,1,160.86,110.57ZM136.71,68.64a34.15,34.15,0,0,0-5.83-.5c-1.24,0-2.48.06-3.7.17-.32-21.87-13.93-39.55-30.62-39.55S66.2,46.5,65.93,68.43a40.46,40.46,0,0,0-4.81-.29,34.15,34.15,0,0,0-5.83.5c.19-29.87,18.38-54.1,40.71-54.1S136.52,38.77,136.71,68.64Zm-64.38.46c0-18.7,10.87-33.92,24.23-33.92S120.78,50.4,120.78,69.1v.34A40.56,40.56,0,0,0,96,88.22,40.56,40.56,0,0,0,72.34,69.75C72.34,69.53,72.33,69.32,72.33,69.1Z" fill="#74489d"/><path d="M73,121a10.19,10.19,0,1,0-10.18-10.18A10.18,10.18,0,0,0,73,121Zm2.54-10.61a1.84,1.84,0,1,1-1.83,1.84A1.84,1.84,0,0,1,75.56,110.42Zm-8.34-3.25a3.26,3.26,0,1,1,3.25,3.25A3.25,3.25,0,0,1,67.22,107.17Z"/><circle cx="70.47" cy="107.17" r="3.25" fill="#fff"/><circle cx="75.56" cy="112.26" r="1.84" fill="#fff"/><path d="M124.36,101l-13.71,6.69a3.21,3.21,0,0,0,0,5.77l13.71,6.69a3.25,3.25,0,0,0,1.41.32,3.21,3.21,0,0,0,1.41-6.09l-7.81-3.8,7.81-3.81a3.21,3.21,0,0,0-2.82-5.77Z"/><path d="M96,141.18a7,7,0,0,0,7-7v-6.91a11.32,11.32,0,0,0,3.37-4.35,1.61,1.61,0,0,0-2.93-1.32,8.19,8.19,0,0,1-14.9,0,1.61,1.61,0,0,0-2.93,1.32A11.42,11.42,0,0,0,89,127.26v6.91A7,7,0,0,0,96,141.18Zm-1.47-11.69v1.91a1.61,1.61,0,0,0,3.21,0v-1.94a11.57,11.57,0,0,0,2.07-.49v5.2a3.81,3.81,0,0,1-7.61,0V129A11.11,11.11,0,0,0,94.53,129.49Z"/><path d="M97.55,158.85h0l-.42-1.39a1.62,1.62,0,0,1,.73-1.85,3.7,3.7,0,1,0-3.72,0,1.62,1.62,0,0,1,.73,1.85L92,167h8Z" fill="#6dcff6"/><path d="M100.62,157.92h0l-.09-.3a6.91,6.91,0,1,0-9.06,0L88.29,168.1a1.61,1.61,0,0,0,1.54,2.07h12.34a1.6,1.6,0,0,0,1.29-.65,1.57,1.57,0,0,0,.25-1.42Zm-5.75-.46a1.62,1.62,0,0,0-.73-1.85,3.7,3.7,0,1,1,3.72,0,1.62,1.62,0,0,0-.73,1.85l.42,1.39h0L100,167H92Z" fill="#74489d"/><path d="M105.57,120.79a1.62,1.62,0,0,0-2.12.8,8.19,8.19,0,0,1-14.9,0,1.61,1.61,0,0,0-2.93,1.32A11.42,11.42,0,0,0,89,127.26v6.91a7,7,0,1,0,14,0v-6.91a11.32,11.32,0,0,0,3.37-4.35A1.6,1.6,0,0,0,105.57,120.79Zm-5.76,13.38a3.81,3.81,0,0,1-7.61,0V129a11.11,11.11,0,0,0,2.33.52v1.91a1.61,1.61,0,0,0,3.21,0v-1.94a11.57,11.57,0,0,0,2.07-.49Z" fill="none"/><path d="M100.62,157.92h0l-.09-.3a6.91,6.91,0,1,0-9.06,0L88.29,168.1a1.61,1.61,0,0,0,1.54,2.07h12.34a1.6,1.6,0,0,0,1.29-.65,1.57,1.57,0,0,0,.25-1.42Z" fill="none"/><circle cx="73.02" cy="110.85" r="10.18" fill="none"/><path d="M125.77,120.5a3.21,3.21,0,0,0,1.41-6.09l-7.81-3.8,7.81-3.81a3.21,3.21,0,0,0-2.82-5.77l-13.71,6.69a3.21,3.21,0,0,0,0,5.77l13.71,6.69A3.25,3.25,0,0,0,125.77,120.5Z" fill="none"/><path d="M151.44,83.48a27.73,27.73,0,0,0-20.56-8.93A34,34,0,0,0,99,96.83a3.2,3.2,0,0,1-6,0A34,34,0,0,0,61.12,74.55a27.73,27.73,0,0,0-20.56,8.93,36.47,36.47,0,0,0-9.42,27.09c2,37.09,37.12,57,57.84,65.49a18.42,18.42,0,0,0,13.86.07l.66-.27c20.55-8.55,55.32-28.4,57.36-65.29A36.47,36.47,0,0,0,151.44,83.48ZM73,121A10.19,10.19,0,1,1,83.2,110.85,10.18,10.18,0,0,1,73,121Zm30.44,48.49a1.6,1.6,0,0,1-1.29.65H89.83a1.61,1.61,0,0,1-1.54-2.07l3.18-10.48a6.91,6.91,0,1,1,9.06,0l.09.3h0l3.09,10.18A1.57,1.57,0,0,1,103.46,169.52Zm2.92-46.61a11.32,11.32,0,0,1-3.37,4.35v6.91a7,7,0,1,1-14,0v-6.91a11.42,11.42,0,0,1-3.37-4.35,1.61,1.61,0,0,1,2.93-1.32,8.19,8.19,0,0,0,14.9,0,1.61,1.61,0,0,1,2.93,1.32Zm2.47-12.3a3.22,3.22,0,0,1,1.8-2.89L124.36,101a3.21,3.21,0,0,1,2.82,5.77l-7.81,3.81,7.81,3.8a3.21,3.21,0,0,1-1.41,6.09,3.25,3.25,0,0,1-1.41-.32l-13.71-6.69A3.22,3.22,0,0,1,108.85,110.61Z" fill="#f17bb0"/><path d="M97.74,131.4a1.61,1.61,0,0,1-3.21,0v-1.91A11.11,11.11,0,0,1,92.2,129v5.2a3.81,3.81,0,0,0,7.61,0V129a11.57,11.57,0,0,1-2.07.49Z" fill="#f17bb0"/><path d="M92.2,134.17a3.81,3.81,0,0,0,7.61,0V129a11.57,11.57,0,0,1-2.07.49v1.94a1.61,1.61,0,0,1-3.21,0v-1.91A11.11,11.11,0,0,1,92.2,129Z" fill="#fff" opacity="0.4"/><ellipse cx="63.12" cy="126.73" rx="7.35" ry="2.97" fill="#fff" opacity="0.4"/><ellipse cx="128.05" cy="126.73" rx="7.35" ry="2.97" fill="#fff" opacity="0.4"/></svg>