<svg width="192" height="192" viewBox="0 0 192 192" fill="none" xmlns="http://www.w3.org/2000/svg">
<path d="M137.33 12.5498H54.67C46.4299 12.5498 39.75 19.2297 39.75 27.4698V164.52C39.75 172.76 46.4299 179.44 54.67 179.44H137.33C145.57 179.44 152.25 172.76 152.25 164.52V27.4698C152.25 19.2297 145.57 12.5498 137.33 12.5498Z" fill="#E2DFE2"/>
<path d="M137.329 183.59H54.6694C49.6168 183.582 44.7734 181.571 41.2007 177.998C37.628 174.426 35.6173 169.582 35.6094 164.53V27.4697C35.6305 22.4267 37.6473 17.5972 41.2189 14.0369C44.7905 10.4765 49.6263 8.47497 54.6694 8.46973H137.329C142.372 8.47497 147.208 10.4765 150.78 14.0369C154.351 17.5972 156.368 22.4267 156.389 27.4697V164.53C156.381 169.582 154.371 174.426 150.798 177.998C147.225 181.571 142.382 183.582 137.329 183.59ZM54.6694 16.6897C51.812 16.695 49.0731 17.8325 47.0526 19.853C45.0321 21.8735 43.8947 24.6123 43.8894 27.4697V164.53C43.8947 167.387 45.0321 170.126 47.0526 172.146C49.0731 174.167 51.812 175.304 54.6694 175.31H137.329C140.188 175.307 142.928 174.17 144.949 172.149C146.97 170.128 148.107 167.388 148.109 164.53V27.4697C148.107 24.6115 146.97 21.8711 144.949 19.85C142.928 17.829 140.188 16.6924 137.329 16.6897H54.6694Z" fill="black"/>
<path d="M131.379 33.8398H60.6191V73.0498H131.379V33.8398Z" fill="white"/>
<path d="M131.38 77.1902H60.6205C59.5225 77.1902 58.4694 76.754 57.693 75.9776C56.9166 75.2012 56.4805 74.1482 56.4805 73.0502V33.8402C56.4805 32.7422 56.9166 31.6892 57.693 30.9128C58.4694 30.1364 59.5225 29.7002 60.6205 29.7002H131.38C132.478 29.7002 133.531 30.1364 134.308 30.9128C135.084 31.6892 135.52 32.7422 135.52 33.8402V73.0502C135.52 74.1482 135.084 75.2012 134.308 75.9776C133.531 76.754 132.478 77.1902 131.38 77.1902ZM64.7605 68.9102H127.24V38.0002H64.7605V68.9102Z" fill="black"/>
<path d="M95.9991 162.86C115.539 162.86 131.379 147.019 131.379 127.48C131.379 107.94 115.539 92.0996 95.9991 92.0996C76.4593 92.0996 60.6191 107.94 60.6191 127.48C60.6191 147.019 76.4593 162.86 95.9991 162.86Z" fill="white"/>
<path d="M96 167C85.7903 166.602 76.1313 162.266 69.0486 154.902C61.966 147.538 58.0098 137.717 58.0098 127.5C58.0098 117.283 61.966 107.462 69.0486 100.098C76.1313 92.7337 85.7903 88.398 96 88C106.21 88.398 115.869 92.7337 122.951 100.098C130.034 107.462 133.99 117.283 133.99 127.5C133.99 137.717 130.034 147.538 122.951 154.902C115.869 162.266 106.21 166.602 96 167ZM96 96.23C87.8101 96.3765 80.0052 99.7328 74.2651 105.576C68.5251 111.42 65.309 119.284 65.309 127.475C65.309 135.666 68.5251 143.53 74.2651 149.374C80.0052 155.217 87.8101 158.573 96 158.72C104.281 158.712 112.221 155.42 118.078 149.565C123.934 143.71 127.229 135.771 127.24 127.49C127.241 123.387 126.434 119.323 124.865 115.532C123.295 111.741 120.995 108.295 118.094 105.394C115.193 102.492 111.748 100.19 107.957 98.619C104.166 97.0484 100.103 96.24 96 96.24V96.23Z" fill="black"/>
<path d="M84.5703 127.48V116.38C84.5705 115.651 84.7627 114.935 85.1275 114.304C85.4922 113.673 86.0168 113.15 86.6483 112.786C87.2798 112.422 87.9961 112.231 88.7249 112.231C89.4538 112.232 90.1696 112.425 90.8003 112.79L100.42 118.34L110.03 123.89C110.662 124.254 111.186 124.778 111.551 125.409C111.915 126.041 112.107 126.757 112.107 127.485C112.107 128.214 111.915 128.93 111.551 129.561C111.186 130.192 110.662 130.716 110.03 131.08L100.42 136.63L90.8003 142.18C90.1689 142.546 89.4522 142.739 88.7224 142.739C87.9927 142.74 87.2758 142.548 86.644 142.182C86.0121 141.817 85.4878 141.292 85.1237 140.66C84.7596 140.027 84.5688 139.31 84.5703 138.58V127.48Z" fill="black"/>
</svg>
