<svg width="60" height="60" viewBox="0 0 60 60" fill="none" xmlns="http://www.w3.org/2000/svg">
<g id="saro_rainbow_poop_dark">
<g id="Clip path group">
<mask id="mask0_1212_6329" style="mask-type:luminance" maskUnits="userSpaceOnUse" x="6" y="7" width="48" height="46">
<g id="clip-path">
<path id="Vector" d="M48.6624 33.8027C49.2631 32.8818 49.5883 31.8085 49.5999 30.709C49.5999 27.5152 46.7093 24.6684 42.1999 22.8215C42.1999 22.7152 42.2187 22.609 42.2187 22.509C42.2187 19.9621 40.2062 17.5465 34.5155 16.5715C34.8042 15.738 34.9181 14.854 34.8499 13.9746C34.4468 8.00586 25.9374 7.34961 25.9374 7.34961C28.4624 13.8652 21.003 12.534 17.7374 16.9496C17.0637 17.833 16.6292 18.8751 16.476 19.9755C16.3227 21.0758 16.4558 22.197 16.8624 23.2309C12.8937 25.0746 10.3999 27.7402 10.3999 30.709C10.4115 31.8085 10.7368 32.8818 11.3374 33.8027C8.55615 35.7621 6.91553 38.1777 6.91553 40.7871C6.91553 47.3496 17.2499 52.6621 29.9999 52.6621C42.7499 52.6621 53.0843 47.3496 53.0843 40.7871C53.0843 38.1746 51.4437 35.7621 48.6624 33.8027Z" fill="white"/>
</g>
</mask>
<g mask="url(#mask0_1212_6329)">
<g id="Group">
<path id="Vector_2" d="M48.6624 33.8027C49.2631 32.8818 49.5883 31.8085 49.5999 30.709C49.5999 27.5152 46.7093 24.6684 42.1999 22.8215C42.1999 22.7152 42.2187 22.609 42.2187 22.509C42.2187 19.9621 40.2062 17.5465 34.5155 16.5715C34.8042 15.738 34.9181 14.854 34.8499 13.9746C34.4468 8.00586 25.9374 7.34961 25.9374 7.34961C28.4624 13.8652 21.003 12.534 17.7374 16.9496C17.0637 17.833 16.6292 18.8751 16.476 19.9755C16.3227 21.0758 16.4558 22.197 16.8624 23.2309C12.8937 25.0746 10.3999 27.7402 10.3999 30.709C10.4115 31.8085 10.7368 32.8818 11.3374 33.8027C8.55615 35.7621 6.91553 38.1777 6.91553 40.7871C6.91553 47.3496 17.2499 52.6621 29.9999 52.6621C42.7499 52.6621 53.0843 47.3496 53.0843 40.7871C53.0843 38.1746 51.4437 35.7621 48.6624 33.8027Z" fill="#6DCFF6"/>
<path id="Vector_3" d="M30 46.4336C42.1675 46.4336 52.0312 41.6906 52.0312 35.8398C52.0312 29.9891 42.1675 25.2461 30 25.2461C17.8325 25.2461 7.96875 29.9891 7.96875 35.8398C7.96875 41.6906 17.8325 46.4336 30 46.4336Z" fill="#54BD8D"/>
<path id="Vector_4" d="M30 40.6898C40.597 40.6898 49.1875 36.2743 49.1875 30.8273C49.1875 25.3804 40.597 20.9648 30 20.9648C19.403 20.9648 10.8125 25.3804 10.8125 30.8273C10.8125 36.2743 19.403 40.6898 30 40.6898Z" fill="#F3EA2E"/>
<path id="Vector_5" d="M29.9997 35.0145C38.9157 35.0145 46.1435 31.6398 46.1435 27.477C46.1435 23.3141 38.9157 19.9395 29.9997 19.9395C21.0838 19.9395 13.856 23.3141 13.856 27.477C13.856 31.6398 21.0838 35.0145 29.9997 35.0145Z" fill="#F59422"/>
<path id="Vector_6" d="M34.5841 16.384C34.8254 15.604 34.9176 14.7856 34.856 13.9715C34.4466 8.00586 25.9372 7.34961 25.9372 7.34961C28.4622 13.8652 21.0028 12.534 17.7372 16.9496C16.9198 18.0186 16.4574 19.3165 16.4149 20.6615C16.3723 22.0065 16.7516 23.3311 17.4997 24.4496C18.3278 25.6996 19.8747 26.7684 21.9747 27.5246C22.0685 27.559 22.1716 27.5902 22.2685 27.6215C24.7391 28.5495 27.3607 29.0105 29.9997 28.9809C37.0028 28.9809 42.6841 26.0621 42.6841 22.4621C42.6841 19.6871 39.3216 17.3277 34.5841 16.384Z" fill="#F17BB0"/>
<path id="Vector_7" d="M22.8126 27.4027C21.6845 26.6809 18.5657 23.0777 21.0688 19.0371C23.0595 15.8277 28.4782 15.0902 28.9001 12.0496C29.0626 10.9371 28.4782 9.17148 25.9376 7.34961C25.9376 7.34961 27.1313 11.6277 21.5626 14.0996C15.9938 16.5715 15.0782 21.7902 18.5376 25.6246C20.5501 27.8496 22.8126 27.4027 22.8126 27.4027Z" fill="#74489D"/>
</g>
</g>
</g>
<path id="Vector_8" d="M30.0002 53.7492C23.6627 53.7492 17.6846 52.4742 13.1721 50.1523C8.4252 47.7117 5.80957 44.3836 5.80957 40.7773C5.80957 37.7648 7.61582 34.9555 11.0346 32.6523L12.2658 34.4867C10.3283 35.7898 8.02207 37.9242 8.02207 40.7711C8.02207 46.618 18.0846 51.5617 30.0002 51.5617C41.9158 51.5617 51.9814 46.6336 51.9814 40.8023C51.9814 37.9742 49.6814 35.8305 47.7533 34.5305L49.0033 32.6992C52.4033 34.993 54.2033 37.7961 54.2033 40.8023C54.2033 44.4055 51.5877 47.7336 46.8408 50.1773C42.3158 52.4805 36.3377 53.7492 30.0002 53.7492Z" fill="black"/>
<path id="Vector_9" d="M42.6282 37.846C45.3032 36.2835 48.5876 33.9023 48.4813 30.6398C48.2501 27.4367 44.9407 25.396 42.2313 24.0242C41.9878 23.891 41.8032 23.6712 41.7142 23.4084C41.6252 23.1455 41.6382 22.8588 41.7507 22.6051C41.8632 22.3514 42.067 22.1492 42.3215 22.0387C42.5761 21.9282 42.8629 21.9175 43.1251 22.0085C44.949 22.6943 46.6257 23.7209 48.0657 25.0335C48.8222 25.7371 49.4559 26.5619 49.9407 27.4742C51.5626 30.5398 50.5188 33.871 48.0001 36.0398C46.5484 37.2757 44.8674 38.2133 43.0532 38.7992C42.9351 38.8264 42.8111 38.812 42.7024 38.7583C42.5937 38.7045 42.507 38.6148 42.4569 38.5044C42.4069 38.394 42.3966 38.2696 42.4278 38.1524C42.459 38.0353 42.5298 37.9325 42.6282 37.8617V37.846Z" fill="black"/>
<path id="Vector_10" d="M16.947 38.7995C14.297 37.8901 11.7157 36.3995 10.2095 33.9214C8.48137 31.0339 9.272 27.6714 11.5876 25.3839C12.9397 24.0391 14.5459 22.9768 16.3126 22.2589C16.5748 22.154 16.8671 22.1533 17.1298 22.2569C17.3924 22.3606 17.6055 22.5607 17.7253 22.8164C17.8452 23.0721 17.8627 23.3639 17.7744 23.6321C17.686 23.9003 17.4985 24.1245 17.2501 24.2589C15.803 24.9834 14.4735 25.9221 13.3064 27.0433C10.8564 29.5026 11.0001 32.3558 13.3657 34.8245C14.5489 36.0161 15.897 37.0317 17.3689 37.8401C17.4672 37.911 17.5381 38.0138 17.5693 38.1309C17.6005 38.2481 17.5902 38.3724 17.5401 38.4829C17.4901 38.5933 17.4033 38.683 17.2946 38.7367C17.1859 38.7905 17.062 38.8049 16.9439 38.7776L16.947 38.7995Z" fill="black"/>
<path id="Vector_11" d="M36.6721 27.4688C38.6158 26.1844 41.7502 24.3438 41.0158 21.7563C40.2815 19.1688 37.1283 18.3657 34.7877 17.7376C34.5197 17.6585 34.2916 17.4808 34.1491 17.2404C34.0067 17 33.9605 16.7146 34.0199 16.4416C34.0792 16.1685 34.2397 15.928 34.4691 15.7685C34.6985 15.6089 34.9798 15.542 35.2565 15.5813C38.844 16.0782 43.2908 18.1001 43.3189 22.3157C43.3408 25.6657 39.8815 27.8126 36.9002 28.1188C36.8218 28.125 36.7436 28.1052 36.6777 28.0623C36.6117 28.0194 36.5619 27.9559 36.5358 27.8817C36.5098 27.8075 36.509 27.7267 36.5337 27.652C36.5583 27.5774 36.607 27.5129 36.6721 27.4688Z" fill="black"/>
<path id="Vector_12" d="M26.5625 21.272C30.4656 20.2876 34.7781 17.672 33.5406 13.0533C32.5781 10.0001 28.7187 8.86264 25.8468 8.45326L26.9593 6.95014C28.3687 10.272 27.4437 12.6876 24.1468 14.2095C22.1187 15.2126 20 15.9126 18.6656 17.6689C18.2074 18.2581 17.8766 18.9361 17.6939 19.6598C17.5113 20.3835 17.4808 21.1372 17.6045 21.8733C17.7281 22.6094 18.0032 23.3118 18.4123 23.9361C18.8214 24.5604 19.3557 25.093 19.9812 25.5001C20.8375 26.1533 21.8187 26.722 22.8218 27.4033C22.8939 27.4529 22.948 27.5245 22.9761 27.6074C23.0042 27.6903 23.0047 27.7801 22.9777 27.8633C22.9506 27.9465 22.8974 28.0188 22.826 28.0694C22.7546 28.1199 22.6687 28.1461 22.5812 28.1439C21.5704 28.1212 20.5748 27.8931 19.6549 27.4736C18.7351 27.0541 17.9101 26.4519 17.2302 25.7036C16.5503 24.9553 16.0297 24.0766 15.7 23.1208C15.3703 22.1651 15.2385 21.1522 15.3125 20.1439C15.5312 17.3314 17.4312 14.922 19.825 13.6376C21.3875 12.7001 23.0406 12.2595 24.4125 11.272C25.6437 10.4533 25.325 8.94076 24.8812 7.69076C24.8236 7.51829 24.8097 7.3342 24.8408 7.15503C24.872 6.97587 24.9472 6.80726 25.0597 6.66439C25.1722 6.52151 25.3185 6.40885 25.4853 6.33654C25.6522 6.26423 25.8344 6.23454 26.0156 6.25014C27.1274 6.34163 28.2263 6.55114 29.2937 6.87514C31.4812 7.51889 33.7187 8.70951 34.9718 10.7189C35.6049 11.7722 35.9586 12.9696 35.9996 14.1979C36.0406 15.4261 35.7675 16.6444 35.2062 17.7376C33.5937 20.8314 30.0531 22.6095 26.65 22.4001C26.5131 22.3907 26.3842 22.3323 26.2867 22.2357C26.1893 22.1391 26.1299 22.0107 26.1192 21.8738C26.1086 21.737 26.1476 21.601 26.2289 21.4905C26.3103 21.38 26.4287 21.3025 26.5625 21.272Z" fill="black"/>
<path id="Vector_13" d="M28.0127 39.7031C28.2558 39.9939 28.5598 40.2279 28.9033 40.3884C29.2467 40.5489 29.6211 40.6321 30.0002 40.6321C30.3793 40.6321 30.7537 40.5489 31.0971 40.3884C31.4405 40.2279 31.7446 39.9939 31.9877 39.7031" stroke="#231F20" stroke-width="7.07" stroke-linecap="round" stroke-linejoin="round"/>
<path id="Vector_14" d="M21.7721 36.7602C23.2184 36.7602 24.3908 35.2057 24.3908 33.2883C24.3908 31.3708 23.2184 29.8164 21.7721 29.8164C20.3258 29.8164 19.1533 31.3708 19.1533 33.2883C19.1533 35.2057 20.3258 36.7602 21.7721 36.7602Z" fill="black"/>
<path id="Vector_15" d="M38.2281 36.7602C39.6744 36.7602 40.8469 35.2057 40.8469 33.2883C40.8469 31.3708 39.6744 29.8164 38.2281 29.8164C36.7818 29.8164 35.6094 31.3708 35.6094 33.2883C35.6094 35.2057 36.7818 36.7602 38.2281 36.7602Z" fill="black"/>
</g>
</svg>
