<svg width="192" height="192" viewBox="0 0 192 192" fill="none" xmlns="http://www.w3.org/2000/svg">
<path d="M137.459 12.3496H54.5294C46.2893 12.3496 39.6094 19.0295 39.6094 27.2696V164.72C39.6094 172.96 46.2893 179.64 54.5294 179.64H137.459C145.699 179.64 152.379 172.96 152.379 164.72V27.2696C152.379 19.0295 145.699 12.3496 137.459 12.3496Z" fill="#E2DFE2"/>
<path d="M137.471 183.8H54.5409C49.484 183.795 44.6355 181.784 41.0587 178.209C37.482 174.635 35.4689 169.787 35.4609 164.73V27.2702C35.4689 22.2132 37.482 17.3658 41.0587 13.7909C44.6355 10.216 49.484 8.20548 54.5409 8.2002H137.471C142.526 8.20813 147.372 10.2198 150.947 13.7944C154.521 17.369 156.533 22.215 156.541 27.2702V164.73C156.533 169.785 154.521 174.631 150.947 178.206C147.372 181.781 142.526 183.792 137.471 183.8ZM54.5409 16.5002C51.6853 16.5055 48.9479 17.6415 46.9277 19.6599C44.9075 21.6782 43.7689 24.4145 43.7609 27.2702V164.73C43.7662 167.587 44.904 170.325 46.9248 172.343C48.9456 174.362 51.6844 175.498 54.5409 175.5H137.471C140.327 175.498 143.064 174.362 145.084 172.343C147.103 170.324 148.238 167.586 148.241 164.73V27.2702C148.236 24.4154 147.099 21.6791 145.081 19.6605C143.062 17.6419 140.326 16.5055 137.471 16.5002H54.5409Z" fill="black"/>
<path d="M131.459 33.6904H60.5293V72.9904H131.459V33.6904Z" fill="white"/>
<path d="M131.471 77.15H60.5309C59.4302 77.15 58.3746 76.7128 57.5964 75.9345C56.8181 75.1563 56.3809 74.1007 56.3809 73V33.69C56.3809 32.5894 56.8181 31.5338 57.5964 30.7555C58.3746 29.9773 59.4302 29.54 60.5309 29.54H131.471C132.016 29.54 132.555 29.6474 133.059 29.8559C133.562 30.0645 134.02 30.3702 134.405 30.7555C134.791 31.1409 135.096 31.5984 135.305 32.1019C135.514 32.6054 135.621 33.1451 135.621 33.69V73C135.621 73.545 135.514 74.0847 135.305 74.5882C135.096 75.0917 134.791 75.5492 134.405 75.9345C134.02 76.3199 133.562 76.6256 133.059 76.8341C132.555 77.0427 132.016 77.15 131.471 77.15ZM64.6809 68.85H127.321V37.85H64.6809V68.85Z" fill="black"/>
<path d="M95.9993 163.03C115.589 163.03 131.469 147.149 131.469 127.56C131.469 107.97 115.589 92.0898 95.9993 92.0898C76.4098 92.0898 60.5293 107.97 60.5293 127.56C60.5293 147.149 76.4098 163.03 95.9993 163.03Z" fill="white"/>
<path d="M96.0009 167.18C85.493 167.18 75.4155 163.006 67.9853 155.576C60.5551 148.146 56.3809 138.068 56.3809 127.56C56.3809 117.053 60.5551 106.975 67.9853 99.5449C75.4155 92.1147 85.493 87.9404 96.0009 87.9404C106.509 87.9404 116.586 92.1147 124.016 99.5449C131.447 106.975 135.621 117.053 135.621 127.56C135.621 138.068 131.447 148.146 124.016 155.576C116.586 163.006 106.509 167.18 96.0009 167.18ZM96.0009 96.2404C87.6943 96.2404 79.7279 99.5402 73.8543 105.414C67.9806 111.287 64.6809 119.254 64.6809 127.56C64.6809 135.867 67.9806 143.833 73.8543 149.707C79.7279 155.581 87.6943 158.88 96.0009 158.88C104.302 158.87 112.261 155.568 118.132 149.699C124.003 143.83 127.308 135.872 127.321 127.57C127.321 119.263 124.021 111.296 118.148 105.42C112.275 99.5451 104.308 96.2431 96.0009 96.2404Z" fill="black"/>
<path d="M86.5504 140C85.4497 140 84.3942 139.563 83.6159 138.785C82.8376 138.006 82.4004 136.951 82.4004 135.85V119.23C82.4004 118.129 82.8376 117.074 83.6159 116.296C84.3942 115.517 85.4497 115.08 86.5504 115.08C87.651 115.08 88.7066 115.517 89.4849 116.296C90.2632 117.074 90.7004 118.129 90.7004 119.23V135.89C90.6898 136.984 90.248 138.029 89.4708 138.799C88.6937 139.568 87.6441 140 86.5504 140Z" fill="black"/>
<path d="M105.451 140C104.35 140 103.295 139.563 102.516 138.785C101.738 138.006 101.301 136.951 101.301 135.85V119.23C101.301 118.685 101.408 118.145 101.617 117.642C101.825 117.138 102.131 116.681 102.516 116.296C102.902 115.91 103.359 115.605 103.863 115.396C104.366 115.187 104.906 115.08 105.451 115.08C105.996 115.08 106.535 115.187 107.039 115.396C107.542 115.605 108 115.91 108.385 116.296C108.771 116.681 109.076 117.138 109.285 117.642C109.493 118.145 109.601 118.685 109.601 119.23V135.89C109.59 136.984 109.148 138.029 108.371 138.799C107.594 139.568 106.545 140 105.451 140Z" fill="black"/>
</svg>
