<svg width="46" height="46" viewBox="0 0 46 46" fill="none" xmlns="http://www.w3.org/2000/svg">
<g id="saro_mail_dark">
<path id="Vector" d="M36.1292 7.80859H9.8685C6.07891 7.80859 3.00684 10.8807 3.00684 14.6703V31.3261C3.00684 35.1157 6.07891 38.1878 9.8685 38.1878H36.1292C39.9188 38.1878 42.9909 35.1157 42.9909 31.3261V14.6703C42.9909 10.8807 39.9188 7.80859 36.1292 7.80859Z" fill="white"/>
<path id="Vector_2" d="M36.1292 39.1916H9.87085C7.78514 39.1897 5.78538 38.3604 4.31034 36.8858C2.8353 35.4113 2.00547 33.4117 2.00293 31.326V14.6702C2.00547 12.5845 2.8353 10.585 4.31034 9.1104C5.78538 7.63581 7.78514 6.80659 9.87085 6.80469H36.1292C38.2149 6.80659 40.2146 7.63581 41.6897 9.1104C43.1647 10.585 43.9946 12.5845 43.9971 14.6702V31.326C43.9946 33.4117 43.1647 35.4113 41.6897 36.8858C40.2146 38.3604 38.2149 39.1897 36.1292 39.1916ZM9.87085 8.8124C8.31784 8.8143 6.82899 9.43207 5.73085 10.5302C4.63271 11.6283 4.01494 13.1172 4.01303 14.6702V31.326C4.01494 32.879 4.63271 34.3679 5.73085 35.466C6.82899 36.5642 8.31784 37.1819 9.87085 37.1838H36.1292C37.6824 37.1826 39.1716 36.565 40.2699 35.4667C41.3682 34.3685 41.9857 32.8792 41.987 31.326V14.6702C41.9857 13.117 41.3682 11.6278 40.2699 10.5295C39.1716 9.43123 37.6824 8.81366 36.1292 8.8124H9.87085Z" fill="black"/>
<path id="Vector_3" d="M18.1077 22.0411C17.933 22.0406 17.7615 21.9952 17.6094 21.9094L2.91332 13.4976C2.68203 13.3654 2.51271 13.1468 2.44262 12.8898C2.37253 12.6328 2.4074 12.3585 2.53957 12.1272C2.67173 11.8959 2.89037 11.7266 3.14737 11.6565C3.40437 11.5864 3.67869 11.6213 3.90999 11.7534L18.6084 20.1532C18.8074 20.2601 18.9645 20.4309 19.0544 20.6381C19.1443 20.8452 19.1617 21.0767 19.1038 21.295C19.0459 21.5133 18.9161 21.7057 18.7353 21.8411C18.5546 21.9764 18.3335 22.0469 18.1077 22.0411Z" fill="black"/>
<path id="Vector_4" d="M28.4503 21.7105C28.2288 21.7108 28.0134 21.6377 27.8377 21.5028C27.662 21.3678 27.5358 21.1785 27.479 20.9644C27.4221 20.7503 27.4376 20.5233 27.5232 20.319C27.6088 20.1146 27.7595 19.9443 27.952 19.8346L42.0874 11.7534C42.2019 11.688 42.3282 11.6457 42.4591 11.6291C42.5899 11.6125 42.7228 11.6218 42.85 11.6565C42.9773 11.6912 43.0964 11.7506 43.2007 11.8314C43.305 11.9121 43.3924 12.0127 43.4578 12.1272C43.5233 12.2417 43.5655 12.368 43.5821 12.4988C43.5988 12.6297 43.5895 12.7625 43.5548 12.8898C43.5201 13.0171 43.4606 13.1362 43.3799 13.2405C43.2991 13.3448 43.1986 13.4322 43.0841 13.4976L28.9486 21.5787C28.7967 21.6649 28.625 21.7103 28.4503 21.7105Z" fill="black"/>
<path id="Vector_5" d="M31.3686 20.2989C31.3902 22.7642 29.3489 25.6943 27.1328 27.587C26.4131 28.1854 25.6445 28.7223 24.8352 29.1922C24.7523 29.2361 24.6588 29.2556 24.5653 29.2485C24.4718 29.2414 24.3823 29.208 24.3071 29.152C24.2319 29.0961 24.174 29.02 24.1403 28.9326C24.1065 28.8451 24.0983 28.7499 24.1164 28.658L25.252 23.241C25.2818 23.1228 25.2852 22.9995 25.262 22.8799C25.2388 22.7602 25.1896 22.6471 25.1179 22.5486C25.0028 22.4003 24.8406 22.2958 24.6581 22.2522C24.4755 22.2087 24.2836 22.2287 24.114 22.309L22.7148 22.9966C23.6564 19.6976 23.9942 18.5044 24.1068 18.0396C24.1345 17.9323 24.1968 17.8372 24.2841 17.7689C25.1179 17.1292 26.2559 16.5039 27.5041 16.5039C27.5233 16.5039 27.5424 16.5039 27.5712 16.5039C27.5999 16.5039 27.5976 16.5039 27.6119 16.5039H27.6718C28.49 16.5507 29.2725 16.8551 29.9071 17.3736C30.369 17.7187 30.7453 18.1655 31.0068 18.6793C31.0135 18.7089 31.0266 18.7367 31.0452 18.7608C31.0667 18.8063 31.0859 18.8542 31.1074 18.9093C31.129 18.9644 31.1602 19.0555 31.1865 19.1489C31.1993 19.1748 31.2089 19.2022 31.2153 19.2304C31.2416 19.319 31.2608 19.4053 31.2823 19.4939C31.2823 19.5322 31.2943 19.561 31.3015 19.5945C31.3159 19.676 31.3279 19.7551 31.3351 19.8341C31.3351 19.8748 31.3494 19.9228 31.3566 19.9683C31.3566 20.0641 31.3686 20.1647 31.3686 20.2726V20.3253V20.2989Z" fill="black"/>
<path id="Vector_6" d="M23.3331 24.4882L22.3508 29.129C22.3348 29.2041 22.3015 29.2745 22.2535 29.3345C22.2055 29.3945 22.1442 29.4424 22.0744 29.4745C22.0046 29.5066 21.9282 29.522 21.8515 29.5194C21.7747 29.5168 21.6995 29.4963 21.6321 29.4596C20.6574 28.9221 19.735 28.2949 18.8769 27.586C16.6583 25.6933 14.6147 22.7608 14.6315 20.2979V20.2452C14.6327 20.1435 14.6391 20.042 14.6506 19.9409C14.6516 19.8959 14.6564 19.851 14.665 19.8068C14.674 19.7262 14.6876 19.6462 14.7057 19.5672C14.7091 19.5331 14.7155 19.4995 14.7249 19.4666C14.7441 19.3779 14.7656 19.2917 14.792 19.203C14.7986 19.1752 14.8074 19.148 14.8183 19.1216C14.8399 19.0401 14.8734 18.9682 14.8998 18.882L14.9597 18.7334L15.0004 18.652C15.2591 18.1384 15.633 17.6915 16.0929 17.3463C16.73 16.8271 17.5149 16.5227 18.3354 16.4766H18.3953C18.4097 16.4766 18.4241 16.4766 18.436 16.4766C18.448 16.4766 18.484 16.4766 18.5031 16.4766C19.9598 16.4766 21.2583 17.3247 22.1208 18.0602C22.1958 18.1214 22.2511 18.2034 22.2797 18.2959C22.3082 18.3884 22.3088 18.4873 22.2813 18.5801C21.8765 20.0032 21.1553 22.5404 20.6498 24.287C20.5945 24.4843 20.6149 24.6953 20.7071 24.8783C20.7993 25.0614 20.9566 25.2034 21.1481 25.2765C21.2558 25.314 21.37 25.3291 21.4837 25.3208C21.5974 25.3126 21.7082 25.2812 21.8094 25.2285L23.3331 24.4882Z" fill="black"/>
</g>
</svg>
