<svg width="40" height="40" viewBox="0 0 40 40" fill="none" xmlns="http://www.w3.org/2000/svg">
<path d="M36.6407 17.8716L29.5938 24.0216L31.7047 33.1778C31.8164 33.6565 31.7846 34.1574 31.6131 34.6181C31.4416 35.0787 31.1382 35.4786 30.7407 35.7677C30.3432 36.0569 29.8693 36.2224 29.3782 36.2436C28.8871 36.2649 28.4007 36.1409 27.9797 35.8872L19.9938 31.0434L12.025 35.8872C11.6041 36.1409 11.1176 36.2649 10.6266 36.2436C10.1355 36.2224 9.66159 36.0569 9.26409 35.7677C8.86659 35.4786 8.56314 35.0787 8.39167 34.6181C8.2202 34.1574 8.18833 33.6565 8.30003 33.1778L10.4078 24.0309L3.35941 17.8716C2.98661 17.55 2.71704 17.1256 2.5845 16.6515C2.45196 16.1774 2.46235 15.6747 2.61437 15.2064C2.76639 14.7382 3.05327 14.3252 3.43903 14.0194C3.8248 13.7136 4.29228 13.5284 4.78285 13.4872L14.0735 12.6825L17.7 4.0325C17.8894 3.57862 18.2089 3.19092 18.6181 2.91822C19.0274 2.64551 19.5082 2.5 20 2.5C20.4918 2.5 20.9727 2.64551 21.3819 2.91822C21.7912 3.19092 22.1107 3.57862 22.3 4.0325L25.9375 12.6825L35.225 13.4872C35.7156 13.5284 36.1831 13.7136 36.5689 14.0194C36.9546 14.3252 37.2415 14.7382 37.3935 15.2064C37.5455 15.6747 37.5559 16.1774 37.4234 16.6515C37.2908 17.1256 37.0213 17.55 36.6485 17.8716H36.6407Z" fill="white"/>
</svg>
