<svg id="Layer_1" data-name="Layer 1" xmlns="http://www.w3.org/2000/svg" viewBox="0 0 192 192"><path d="M63.48,52.23c-.18-13.16-8.25-23.75-18-23.61S27.82,39.52,28,52.69,36.24,76.44,46,76.3,63.64,65.4,63.48,52.23Z" fill="#231f20"/><path d="M96.16,55.43c9.8-.11,17.59-10.88,17.43-24S105.34,7.63,95.53,7.74,78,18.65,78.12,31.82,86.37,55.57,96.16,55.43Z" fill="#231f20"/><path d="M146,26.77c-9.81.11-17.62,10.91-17.44,24.06s8.23,23.77,18,23.65,17.6-10.93,17.44-24.1S155.76,26.63,146,26.77Z" fill="#231f20"/><path d="M83.8,153.86a6.14,6.14,0,0,1-1.94-1.19A5.92,5.92,0,0,1,80,148.93a6.13,6.13,0,0,1,.2-2.13c1.8-6.29,4-14,6.06-21.36,1.06-3.68,2.08-7.31,3-10.64s1.8-6.41,2.5-9a3.56,3.56,0,0,0-1.12-3.61C84.5,97,75.15,90.89,64.73,90.91a1.48,1.48,0,0,0-.47,0c-.09,0-.23,0-.32,0l-.4,0a26.38,26.38,0,0,0-12,3.54,34.87,34.87,0,0,0-4.09,2.68c-.88.72-1.72,1.44-2.47,2.18a26.47,26.47,0,0,0-5.33,7.24c-.08.17-.19.36-.28.58s-.27.69-.41,1.06a10.19,10.19,0,0,0-.62,1.63,5.08,5.08,0,0,0-.18.59c-.19.64-.36,1.26-.51,1.91a6.13,6.13,0,0,1-.13.67c-.11.59-.18,1.18-.27,1.74,0,.3-.07.64-.09,1a20,20,0,0,0-.12,2.2c0,.11,0,.2,0,.32v0C37,136,51.65,156.9,67.55,170.48A127.6,127.6,0,0,0,87.34,183.8a3.5,3.5,0,0,0,5.13-2.34l7-33.3-10.91,5.35A5.89,5.89,0,0,1,83.8,153.86Z" fill="#231f20"/><path d="M157,117.64c0-.75,0-1.46-.11-2.19,0-.31-.09-.65-.13-.94-.05-.59-.15-1.14-.24-1.74-.08-.23-.1-.44-.17-.71-.14-.61-.29-1.25-.5-1.89a3.18,3.18,0,0,0-.19-.57,10.4,10.4,0,0,0-.59-1.63c-.14-.38-.3-.74-.42-1.09a3.2,3.2,0,0,1-.31-.57,26.86,26.86,0,0,0-7.86-9.37,28.25,28.25,0,0,0-16-6.14,2.23,2.23,0,0,0-.44,0h-.32a2.12,2.12,0,0,0-.45,0c-9,0-17,4.49-23.06,9.11a3.39,3.39,0,0,0-1.25,1.9c-.15.65-.37,1.46-.64,2.51-.1.37-.22.72-.32,1.15-.23.81-.48,1.77-.78,2.83-1.49,5.42-4,14.3-8.2,29.1L105,132.47a5.8,5.8,0,0,1,7.18,1.66,6,6,0,0,1,1,5l-8.14,38.95a3.53,3.53,0,0,0,5.24,3.76c1.36-.81,2.77-1.68,4.2-2.57a107.37,107.37,0,0,0,12.25-8.91C142.56,156.72,157.13,135.7,157,118l0,0A1.36,1.36,0,0,0,157,117.64Z" fill="#231f20"/></svg>