<svg width="192" height="192" viewBox="0 0 192 192" fill="none" xmlns="http://www.w3.org/2000/svg">
<path d="M49.1409 116.719C50.7277 117.691 52.3668 118.576 54.0509 119.369C50.4904 123.168 47.5146 127.475 45.2209 132.149C43.2102 132.118 41.2011 132.279 39.2209 132.629C38.3309 132.789 37.4709 132.989 36.6309 133.219C39.1109 124.999 45.7109 119.249 49.1409 116.719Z" fill="white"/>
<path d="M99.4594 128.83C103.168 129.598 106.793 130.73 110.279 132.21C111.539 132.74 112.609 133.21 113.469 133.69C113.604 133.764 113.759 133.788 113.909 133.758C114.059 133.728 114.194 133.646 114.29 133.526C114.385 133.407 114.436 133.257 114.432 133.104C114.428 132.951 114.371 132.805 114.269 132.69C111.819 129.653 108.751 127.172 105.269 125.41C109.348 124.687 113.379 123.715 117.339 122.5L117.659 136.56C110.784 139.959 105.141 145.419 101.519 152.18C98.5994 157.94 97.9294 163.84 99.5194 169.12C93.2119 167.893 86.7269 167.893 80.4194 169.12C82.0194 163.84 81.3594 157.94 78.4194 152.18C74.7154 145.252 68.8914 139.69 61.7994 136.31C58.7262 134.774 55.47 133.635 52.1094 132.92C54.3258 128.831 57.2087 125.14 60.6394 122C61.9094 122.44 63.2094 122.86 64.5594 123.25C68.2438 124.274 71.9875 125.073 75.7694 125.64C72.498 127.375 69.613 129.757 67.2894 132.64C67.1881 132.755 67.1306 132.901 67.1269 133.054C67.1232 133.207 67.1735 133.357 67.2691 133.476C67.3647 133.596 67.4994 133.678 67.6494 133.708C67.7994 133.738 67.9552 133.714 68.0894 133.64C68.9394 133.21 70.0194 132.69 71.2794 132.16C74.7656 130.679 78.39 129.547 82.0994 128.78C87.8013 127.38 93.7574 127.38 99.4594 128.78V128.83Z" fill="white"/>
<path d="M155.4 103.91C155.83 104.138 156.304 104.268 156.79 104.291C157.276 104.313 157.761 104.228 158.21 104.04C158.21 104.04 160.91 102.93 162.34 104.34C162.68 104.99 162.52 106.99 162.03 109.11C160.55 108.556 159.009 108.18 157.44 107.99C156.521 107.881 155.593 107.858 154.67 107.92L155.4 103.91Z" fill="white"/>
<path d="M159.001 97.1883C157.854 94.868 155.832 93.0982 153.381 92.2683C153.381 92.1183 153.381 91.9683 153.381 91.8183C155.312 91.5313 157.082 90.5758 158.381 89.1183C158.798 88.6309 159.135 88.0808 159.381 87.4883C159.862 87.6416 160.291 87.9255 160.621 88.3083C161.421 89.3083 161.231 91.0783 160.931 92.3783C160.799 92.9448 160.884 93.5401 161.169 94.0471C161.454 94.5541 161.919 94.9362 162.471 95.1183C163.101 95.3283 164.991 96.2283 165.381 97.5783C165.454 97.9077 165.454 98.2489 165.381 98.5783C163.477 97.3962 161.224 96.9054 159.001 97.1883Z" fill="#FFDE78"/>
<path d="M149.749 42.0016C156.609 54.2416 159.869 70.4616 157.229 78.7716C156.954 78.5578 156.663 78.364 156.359 78.1916C155.118 77.5738 153.746 77.2618 152.359 77.2816C154.359 72.7716 153.359 63.8716 148.809 51.5116C138.709 24.3516 112.439 18.7816 108.599 22.0016C107.279 23.1016 108.879 25.4516 110.049 27.8716C110.269 28.3316 110.509 28.8016 110.759 29.2816C112.999 34.3316 114.109 39.2816 115.349 44.6916C116.169 48.3216 117.019 52.0316 118.239 55.9916L94.2393 56.4716L63.4093 57.0916C64.1293 53.5316 64.5894 50.1716 65.0494 46.8916C65.7994 41.3516 66.4793 36.3616 68.2793 31.1416C68.4793 30.6316 68.6793 30.1416 68.8593 29.6716C69.8593 27.1516 71.2094 24.6716 69.7994 23.6716C65.6894 20.8216 39.9993 28.6516 32.3093 56.5816C28.1593 71.6716 28.6093 81.4616 32.6493 84.5016L32.7393 89.0016C32.2263 88.991 31.7147 88.9408 31.2093 88.8516C30.8893 88.8516 30.5793 88.7416 30.2593 88.6616C28.7393 88.2716 27.5393 87.1116 26.5693 85.1316C22.8293 77.3416 24.5693 60.3316 30.5693 47.1916C35.0893 37.1916 41.6394 29.6716 50.0793 24.7516C51.9523 23.6611 53.9006 22.7054 55.9093 21.8916C60.8395 19.8461 66.1036 18.7242 71.4394 18.5816H71.5193C72.8793 18.0216 74.1894 17.5816 75.3993 17.1516C79.7486 15.6743 84.262 14.734 88.8393 14.3516C93.4297 14.3438 98.0037 14.898 102.459 16.0016C103.699 16.2916 105.039 16.6616 106.459 17.0816H106.539C111.866 16.7465 117.209 17.3974 122.299 19.0016C124.371 19.6458 126.395 20.4309 128.359 21.3516C137.199 25.5116 144.369 32.4416 149.749 42.0016Z" fill="white"/>
<path d="M146.54 99.8392C146.54 99.8392 148.64 97.7092 151.09 98.3392C151.771 98.5614 152.376 98.9709 152.836 99.5209C153.296 100.071 153.592 100.739 153.69 101.449C153.755 101.947 153.935 102.424 154.214 102.842C154.493 103.26 154.865 103.608 155.3 103.859H155.4L154.67 107.859C153.906 107.899 153.148 108.02 152.41 108.219C151.173 108.533 150.02 109.114 149.032 109.92C148.044 110.727 147.244 111.74 146.69 112.889C145.662 114.891 145.311 117.171 145.69 119.389C144.475 119.905 143.348 120.607 142.35 121.469L143.91 100.819C144.394 100.866 144.882 100.802 145.337 100.632C145.793 100.462 146.204 100.191 146.54 99.8392Z" fill="#F17BB0"/>
<path d="M148.781 125C151.671 127.3 154.211 126.9 155.781 126.22C155.935 126.133 156.063 126.006 156.152 125.853C156.241 125.7 156.288 125.527 156.288 125.35C156.288 125.173 156.241 124.999 156.152 124.846C156.063 124.693 155.935 124.567 155.781 124.48C154.379 123.822 153.157 122.833 152.221 121.6C151.645 120.777 151.33 119.8 151.318 118.796C151.306 117.791 151.596 116.807 152.151 115.97C154.421 112.4 160.391 114.97 161.781 115.97C162.284 116.301 162.762 116.669 163.211 117.07C163.928 117.709 164.56 118.439 165.091 119.24C168.871 124.86 166.861 132.56 166.321 134.31C165.781 136.06 163.431 142.86 157.941 145.68C157.73 145.108 157.49 144.547 157.221 144C154.859 139.35 150.815 135.775 145.911 134C145.407 133.172 145.071 132.253 144.924 131.296C144.776 130.338 144.819 129.361 145.051 128.42C145.344 127.588 145.838 126.84 146.489 126.244C147.139 125.647 147.926 125.22 148.781 125Z" fill="white"/>
<path d="M147.629 89.2119C148.309 89.9156 148.708 90.8442 148.749 91.8219C147.38 92.0188 146.057 92.4555 144.839 93.1119C144.434 92.706 143.996 92.3347 143.529 92.0019C143.685 90.7366 143.685 89.4571 143.529 88.1919C144.975 88.0063 146.439 88.3703 147.629 89.2119Z" fill="#FFDE78"/>
<path d="M145.161 164.819C142.931 166.289 140.241 166.129 139.161 164.469C138.081 162.809 138.991 160.279 141.231 158.819C143.471 157.359 146.141 157.499 147.231 159.159C148.321 160.819 147.391 163.349 145.161 164.819Z" fill="black"/>
<path d="M146.499 81.7404C146.8 82.1084 147.208 82.3748 147.666 82.5036C148.124 82.6324 148.61 82.6173 149.059 82.4604C150.129 82.0804 152.789 81.5504 154.159 82.2904C154.387 82.41 154.584 82.5805 154.734 82.7886C154.885 82.9967 154.986 83.2369 155.029 83.4904C155.206 83.9219 155.281 84.3888 155.246 84.8541C155.211 85.3193 155.068 85.77 154.829 86.1704C154.064 86.8664 153.082 87.2762 152.049 87.3304C151.683 86.7492 151.242 86.218 150.739 85.7504C148.009 83.3004 144.159 83.3604 141.889 83.6604C141.503 83.1302 141.049 82.6528 140.539 82.2404C140.952 81.4642 141.609 80.8456 142.409 80.4804C143.249 80.1104 144.889 79.7804 146.499 81.7404Z" fill="#FFDE78"/>
<path d="M143.001 153.999C140.761 155.469 138.081 155.309 137.001 153.649C135.921 151.989 136.841 149.469 139.071 147.999C141.301 146.529 143.991 146.689 145.071 148.349C146.151 150.009 145.211 152.569 143.001 153.999Z" fill="black"/>
<path d="M137.249 96.3984C138.077 96.4393 138.879 96.7023 139.57 97.1597C140.262 97.6172 140.818 98.2523 141.179 98.9984C141.401 99.4894 141.741 99.9179 142.168 100.246C142.596 100.574 143.097 100.791 143.629 100.878H143.899L142.339 121.528C140.717 122.901 139.552 124.736 138.999 126.788C138.593 128.179 138.381 129.62 138.369 131.068C138.371 131.479 138.395 131.89 138.439 132.298C136.11 132.081 133.764 132.102 131.439 132.358L131.289 100.618C132.118 100.417 132.835 99.9002 133.289 99.1784C133.289 99.1784 135.059 96.3984 137.249 96.3984Z" fill="white"/>
<path d="M136.67 85.3603C138.67 86.0303 139.06 88.1703 139.02 90.0503C138.435 89.9532 137.843 89.903 137.25 89.9003C134.435 89.9753 131.763 91.1533 129.81 93.1803C128.728 92.7677 127.586 92.5379 126.43 92.5003C126.333 92.0082 126.361 91.4995 126.511 91.021C126.662 90.5425 126.93 90.1093 127.291 89.7611C127.652 89.4129 128.095 89.1608 128.578 89.0279C129.062 88.895 129.571 88.8855 130.06 89.0003H130.15C130.573 88.9994 130.988 88.8835 131.351 88.6652C131.714 88.4468 132.011 88.1341 132.21 87.7603C132.21 87.7603 134 84.4403 136.67 85.3603Z" fill="#FFDE78"/>
<path d="M134.059 147.741C131.829 149.211 129.139 149.051 128.059 147.401C126.979 145.751 127.889 143.201 130.119 141.741C132.349 140.281 135.039 140.421 136.119 142.081C137.199 143.741 136.289 146.281 134.059 147.741Z" fill="black"/>
<path d="M132.95 73.8516L133.03 78.2216L115.17 78.5716L110.84 74.2916L132.95 73.8516Z" fill="#6DCFF6"/>
<path d="M122.271 167.13C122.555 167.191 122.851 167.152 123.111 167.02C123.235 166.941 123.349 166.847 123.451 166.74L126.341 163.3L127.791 161.58L129.001 160.15C129.088 160.047 129.203 159.971 129.333 159.932C129.463 159.893 129.601 159.892 129.731 159.93C131.657 160.353 133.374 161.44 134.581 163L134.641 163.07V163.13V163.2C135.081 163.933 135.345 164.758 135.411 165.61C135.436 165.943 135.436 166.277 135.411 166.61C135.395 166.831 135.368 167.052 135.331 167.27C135.229 167.872 135.023 168.45 134.721 168.98C134.701 169.022 134.678 169.062 134.651 169.1C134.612 169.167 134.568 169.23 134.521 169.29C134.461 169.38 134.391 169.48 134.311 169.58L134.241 169.67C134.158 169.777 134.068 169.877 133.971 169.97C133.943 170.011 133.909 170.049 133.871 170.08L133.611 170.31C133.565 170.358 133.515 170.402 133.461 170.44C133.351 170.54 133.231 170.62 133.111 170.71H133.061C130.061 172.71 124.921 172.65 120.841 171.52C119.294 171.057 117.795 170.451 116.361 169.71C116.258 169.663 116.169 169.591 116.103 169.5C116.036 169.409 115.994 169.302 115.981 169.19C115.96 169.081 115.966 168.968 116 168.862C116.033 168.755 116.091 168.659 116.171 168.58L120.961 163.64L121.301 166.07C121.319 166.237 121.372 166.397 121.457 166.542C121.541 166.687 121.655 166.812 121.791 166.91C121.935 167.014 122.098 167.088 122.271 167.13Z" fill="black"/>
<path d="M44.48 83.39C44.4957 84.2406 44.8454 85.0509 45.4535 85.6458C46.0616 86.2408 46.8793 86.5728 47.73 86.57H47.8L70.29 86.13C70.722 86.1242 71.1486 86.0328 71.5451 85.8612C71.9416 85.6895 72.3001 85.441 72.6 85.13L82.93 74C83.3662 73.5337 83.6549 72.949 83.7599 72.3192C83.8649 71.6893 83.7814 71.0425 83.52 70.46C83.2676 69.8779 82.8473 69.3843 82.3129 69.0423C81.7785 68.7003 81.1543 68.5254 80.52 68.54L47.52 69.19C47.0932 69.1991 46.6723 69.2922 46.2815 69.464C45.8907 69.6358 45.5375 69.8829 45.2422 70.1912C44.9469 70.4995 44.7152 70.863 44.5604 71.2608C44.4056 71.6587 44.3307 72.0832 44.34 72.51L44.48 83.39ZM111.56 84.16C112.174 84.7619 113 85.0993 113.86 85.1H113.92L126.92 84.84C125.59 85.2396 124.405 86.018 123.51 87.08C122.666 88.1437 122.124 89.4147 121.94 90.76L109.68 91L94.25 75.49C93.9436 75.1772 93.5757 74.9314 93.1695 74.7679C92.7633 74.6044 92.3277 74.5268 91.89 74.54C91.4531 74.543 91.0212 74.6329 90.6194 74.8046C90.2176 74.9763 89.8541 75.2263 89.55 75.54L74.76 91.7L39.31 92.41L38.75 64.1L94.38 63L144.56 62L144.83 75.65C143.37 75.421 141.875 75.6261 140.53 76.24C140.186 76.4025 139.852 76.5862 139.53 76.79L139.41 70.48C139.397 69.6277 139.048 68.8148 138.44 68.2177C137.832 67.6206 137.012 67.2873 136.16 67.29H136.09L103.09 67.95C102.453 67.9655 101.834 68.1676 101.31 68.5311C100.787 68.8947 100.381 69.4038 100.144 69.9955C99.9063 70.5872 99.8477 71.2355 99.975 71.8601C100.102 72.4848 100.41 73.0584 100.86 73.51L111.56 84.16Z" fill="white"/>
<path d="M131.25 100.619L131.4 132.359C128.938 132.638 126.51 133.157 124.15 133.909L123.43 102.799C123.43 99.9588 124.59 99.3988 125.01 99.1788C125.503 98.9931 126.035 98.9315 126.558 98.9995C127.081 99.0675 127.58 99.263 128.01 99.5688C128.339 99.9617 128.758 100.27 129.231 100.468C129.705 100.667 130.218 100.749 130.73 100.709C130.906 100.698 131.08 100.667 131.25 100.619Z" fill="#F17BB0"/>
<path d="M128.05 147.401C129.14 149.051 131.83 149.211 134.05 147.741C136.27 146.271 137.2 143.741 136.11 142.081C135.02 140.421 132.33 140.271 130.11 141.741C127.89 143.211 127 145.741 128.05 147.401ZM121.94 159.941C122.21 159.955 122.468 160.062 122.669 160.244C122.87 160.427 123.001 160.673 123.04 160.941L123.35 163.181C125.35 160.801 126.56 159.371 127.35 158.511L127.73 158.051C127.788 157.996 127.842 157.936 127.89 157.871L128.24 157.481C128.353 157.367 128.418 157.213 128.42 157.051C128.591 155.343 128.209 153.625 127.33 152.151V152.071C127.33 152.071 127.33 152.071 127.33 152.021C127.332 151.998 127.332 151.975 127.33 151.951C126.608 151.003 125.608 150.304 124.47 149.951C123.68 149.681 122.838 149.595 122.01 149.701H121.87H121.65C121.531 149.722 121.414 149.752 121.3 149.791H121.19L120.81 149.931L120.68 149.981L120.36 150.131L120.18 150.221L119.8 150.451H119.74C116.74 152.451 114.88 157.261 114.39 161.451C114.286 162.471 114.252 163.497 114.29 164.521C114.29 164.861 114.29 165.191 114.29 165.521C114.3 165.659 114.35 165.79 114.434 165.9C114.517 166.01 114.63 166.094 114.76 166.141C114.89 166.189 115.03 166.198 115.165 166.168C115.299 166.138 115.423 166.069 115.52 165.971L121.13 160.181C121.363 160.008 121.65 159.923 121.94 159.941ZM123.11 167.021C122.85 167.153 122.554 167.192 122.27 167.131C122.123 167.091 121.985 167.027 121.86 166.941C121.724 166.843 121.61 166.718 121.526 166.573C121.441 166.428 121.388 166.268 121.37 166.101L121.03 163.671L116.24 168.611C116.16 168.69 116.102 168.786 116.069 168.893C116.035 168.999 116.029 169.112 116.05 169.221C116.063 169.333 116.105 169.44 116.172 169.531C116.238 169.622 116.327 169.694 116.43 169.741C117.864 170.482 119.363 171.088 120.91 171.551C124.99 172.681 130.17 172.761 133.13 170.741H133.18C133.3 170.651 133.42 170.571 133.53 170.471C133.584 170.433 133.634 170.389 133.68 170.341L133.94 170.111C133.978 170.08 134.012 170.043 134.04 170.001C134.137 169.908 134.228 169.808 134.31 169.701L134.38 169.611C134.46 169.511 134.53 169.411 134.59 169.321C134.637 169.261 134.681 169.198 134.72 169.131C134.747 169.094 134.77 169.053 134.79 169.011C135.092 168.482 135.298 167.903 135.4 167.301C135.437 167.083 135.464 166.862 135.48 166.641C135.505 166.308 135.505 165.974 135.48 165.641C135.414 164.789 135.15 163.964 134.71 163.231V163.161V163.101L134.65 163.031C133.443 161.471 131.726 160.384 129.8 159.961C129.67 159.923 129.532 159.924 129.402 159.963C129.273 160.002 129.157 160.078 129.07 160.181L127.86 161.611L126.41 163.331L123.52 166.771C123.394 166.865 123.256 166.943 123.11 167.001V167.021ZM145.11 164.821C147.34 163.351 148.26 160.821 147.17 159.161C146.08 157.501 143.39 157.351 141.17 158.821C138.95 160.291 138.01 162.821 139.1 164.471C140.19 166.121 142.93 166.291 145.16 164.821H145.11ZM139.72 139.001C145.25 140.001 149.41 142.791 151.44 146.881C153.47 150.971 153.2 155.981 150.66 160.981C147.48 166.581 142.703 171.104 136.938 173.972C131.173 176.84 124.683 177.923 118.3 177.081C112.78 176.081 108.62 173.291 106.58 169.201C104.54 165.111 104.83 160.101 107.36 155.111C110.435 149.43 115.241 144.877 121.08 142.111C125.473 139.877 130.321 138.683 135.25 138.621C136.748 138.616 138.244 138.743 139.72 139.001ZM137 153.691C138.1 155.351 140.78 155.511 143 154.041C145.22 152.571 146.15 150.041 145.06 148.391C143.97 146.741 141.27 146.571 139.06 148.041C136.85 149.511 135.87 152.001 137 153.691Z" fill="white"/>
<path d="M121.83 149.708C122.658 149.602 123.5 149.688 124.29 149.958C125.428 150.311 126.428 151.01 127.15 151.958C127.152 151.982 127.152 152.005 127.15 152.028C127.15 152.028 127.15 152.028 127.15 152.078V152.158C128.029 153.632 128.411 155.35 128.24 157.058C128.238 157.22 128.173 157.374 128.06 157.488L127.71 157.878C127.662 157.943 127.609 158.003 127.55 158.058L127.17 158.518C126.43 159.378 125.17 160.808 123.17 163.188L123 160.998C122.961 160.73 122.83 160.484 122.629 160.301C122.428 160.119 122.171 160.012 121.9 159.998C121.714 159.984 121.528 160.011 121.355 160.079C121.182 160.146 121.026 160.252 120.9 160.388L115.29 166.178C115.193 166.276 115.07 166.345 114.935 166.375C114.8 166.405 114.66 166.396 114.53 166.348C114.401 166.301 114.287 166.217 114.204 166.107C114.12 165.998 114.07 165.866 114.06 165.728C114.06 165.398 114.06 165.068 114.06 164.728C114.022 163.704 114.056 162.678 114.16 161.658C114.65 157.458 116.53 152.658 119.51 150.658H119.57L119.95 150.428L120.13 150.338L120.45 150.188L120.58 150.138L120.96 149.998H121.07C121.184 149.959 121.301 149.929 121.42 149.908H121.64L121.83 149.708Z" fill="black"/>
<path d="M93.6 109.001L94.47 103.671C94.5048 103.524 94.496 103.37 94.4446 103.227C94.3932 103.085 94.3015 102.96 94.1806 102.869C94.0598 102.778 93.915 102.724 93.7639 102.714C93.6129 102.703 93.4621 102.737 93.33 102.811L92 103.541C92.78 100.291 93 99.1213 93.14 98.6613C93.1608 98.5556 93.2173 98.4603 93.3 98.3913C94.1524 97.6226 95.228 97.1461 96.37 97.0312H96.44H96.54C97.3376 97.0405 98.1115 97.3032 98.75 97.7812C99.2161 98.0919 99.6003 98.5104 99.87 99.0013C99.8646 99.0276 99.8646 99.0549 99.87 99.0813C99.8993 99.1247 99.9228 99.1718 99.94 99.2213L100.03 99.4413V99.5113C100.063 99.5951 100.086 99.6823 100.1 99.7712V99.8713C100.1 99.9513 100.1 100.031 100.1 100.101V100.231C100.105 100.328 100.105 100.425 100.1 100.521C100.23 102.911 98.37 105.841 96.3 107.781C95.6265 108.394 94.9003 108.946 94.13 109.431C94.0667 109.44 94.0023 109.435 93.9408 109.418C93.8794 109.4 93.8221 109.371 93.7725 109.33C93.7229 109.29 93.682 109.24 93.6524 109.184C93.6227 109.127 93.6049 109.065 93.6 109.001Z" fill="black"/>
<path d="M88.4605 108.208C89.3252 108.86 90.2492 109.429 91.2205 109.908C91.2877 109.942 91.362 109.96 91.4373 109.96C91.5126 109.96 91.5869 109.942 91.6541 109.908C91.7212 109.874 91.7794 109.824 91.824 109.764C91.8685 109.703 91.8982 109.633 91.9105 109.558L92.6705 105.008L91.2105 105.788C91.0779 105.872 90.9232 105.914 90.7666 105.908C90.61 105.903 90.4586 105.85 90.3324 105.757C90.2061 105.664 90.1107 105.536 90.0586 105.388C90.0065 105.24 90.0002 105.08 90.0405 104.928C90.4605 103.208 91.0405 100.708 91.3905 99.3083C91.4097 99.2179 91.403 99.124 91.3712 99.0373C91.3393 98.9506 91.2836 98.8747 91.2105 98.8183C90.2133 97.957 88.9477 97.4691 87.6305 97.4383H87.4705C86.6766 97.521 85.9284 97.8496 85.3305 98.3783C84.8975 98.733 84.5548 99.1854 84.3305 99.6983C84.3305 99.6983 84.3305 99.6983 84.3305 99.7783V99.9283C84.3305 99.9983 84.3305 100.068 84.2605 100.148C84.1905 100.228 84.2605 100.148 84.2605 100.228C84.2605 100.308 84.2605 100.408 84.2005 100.488C84.1405 100.568 84.2005 100.558 84.2005 100.588V100.828C84.1954 100.871 84.1954 100.915 84.2005 100.958C84.1952 101.055 84.1952 101.152 84.2005 101.248C84.1205 103.698 86.2205 106.458 88.4605 108.208ZM94.4605 103.698L93.6005 108.998C93.5833 109.089 93.5933 109.183 93.629 109.268C93.6648 109.353 93.7248 109.425 93.8016 109.477C93.8784 109.528 93.9685 109.555 94.0608 109.556C94.153 109.556 94.2434 109.529 94.3205 109.478C95.0908 108.993 95.8169 108.441 96.4905 107.828C98.5605 105.888 100.42 102.958 100.29 100.568C100.296 100.472 100.296 100.375 100.29 100.278V100.148C100.29 100.078 100.29 99.9983 100.29 99.9183V99.8183C100.277 99.7293 100.253 99.6422 100.22 99.5583V99.4883L100.13 99.2683C100.113 99.2188 100.09 99.1717 100.06 99.1283C100.055 99.1019 100.055 99.0747 100.06 99.0483C99.7907 98.5574 99.4065 98.1389 98.9405 97.8283C98.302 97.3502 97.528 97.0875 96.7305 97.0783H96.6305H96.5605C95.4184 97.1932 94.3429 97.6696 93.4905 98.4383C93.4078 98.5073 93.3513 98.6026 93.3305 98.7083C93.2405 99.1683 92.9705 100.338 92.1905 103.588L93.5205 102.858C93.6526 102.784 93.8034 102.75 93.9544 102.761C94.1055 102.771 94.2502 102.825 94.3711 102.916C94.492 103.007 94.5837 103.132 94.6351 103.274C94.6864 103.417 94.6953 103.571 94.6605 103.718L94.4605 103.698ZM106.04 96.5683C106.345 96.8894 106.713 97.144 107.121 97.3161C107.529 97.4882 107.968 97.574 108.41 97.5683L118.11 97.3683C117.302 99.0666 116.895 100.928 116.92 102.808V102.918L117.22 115.918C109.514 118.43 101.527 119.982 93.4405 120.538C93.3805 120.538 90.0005 120.668 84.9305 120.328C78.6214 119.918 72.3697 118.873 66.2705 117.208C60.4592 115.684 54.9549 113.167 50.0005 109.768L47.2105 107.558C44.4357 105.123 42.1515 102.18 40.4805 98.8883L76.2705 98.1683C76.7051 98.1695 77.1353 98.0814 77.5344 97.9094C77.9335 97.7374 78.293 97.4851 78.5905 97.1683L92.0005 82.4883L106.04 96.5683Z" fill="white"/>
<path d="M92.6694 105L91.9094 109.55C91.8971 109.625 91.8674 109.695 91.8229 109.756C91.7784 109.817 91.7201 109.866 91.653 109.9C91.5858 109.934 91.5115 109.952 91.4362 109.952C91.3609 109.952 91.2866 109.934 91.2194 109.9C90.2481 109.422 89.3241 108.852 88.4594 108.2C86.2194 106.45 84.1194 103.69 84.0294 101.29C84.0241 101.194 84.0241 101.097 84.0294 101C84.0243 100.957 84.0243 100.914 84.0294 100.87V100.63C84.0294 100.63 84.0294 100.57 84.0294 100.53C84.0294 100.49 84.0294 100.36 84.0894 100.27C84.1494 100.18 84.0894 100.27 84.0894 100.19C84.0894 100.11 84.0894 100.04 84.1594 99.9705V99.8205C84.1594 99.8205 84.1594 99.7605 84.1594 99.7405C84.3837 99.2276 84.7264 98.7752 85.1594 98.4205C85.7573 97.8918 86.5055 97.5632 87.2994 97.4805H87.4594C88.7767 97.5113 90.0422 97.9991 91.0394 98.8605C91.1125 98.9169 91.1682 98.9928 91.2001 99.0795C91.2319 99.1662 91.2386 99.2601 91.2194 99.3505C90.8794 100.75 90.2894 103.25 89.8694 104.97C89.8291 105.122 89.8355 105.282 89.8875 105.43C89.9396 105.578 90.035 105.706 90.1613 105.799C90.2875 105.892 90.4389 105.945 90.5955 105.95C90.7521 105.956 90.9068 105.914 91.0394 105.83L92.6694 105Z" fill="black"/>
<path d="M83.5203 70.4703C83.7796 71.0516 83.8619 71.6964 83.7569 72.3241C83.652 72.9519 83.3645 73.5349 82.9303 74.0003L72.6003 85.0903C72.3004 85.4013 71.9419 85.6498 71.5454 85.8215C71.1489 85.9931 70.7223 86.0845 70.2903 86.0903L47.8003 86.5303H47.7303C46.8796 86.5331 46.0619 86.2011 45.4538 85.6061C44.8457 85.0112 44.4961 84.2009 44.4803 83.3503L44.2703 72.4803C44.261 72.0535 44.3359 71.629 44.4907 71.2311C44.6455 70.8333 44.8772 70.4698 45.1725 70.1615C45.4678 69.8532 45.821 69.6061 46.2118 69.4343C46.6026 69.2625 47.0235 69.1694 47.4503 69.1603L80.4503 68.5103C81.1009 68.4846 81.7438 68.6587 82.2925 69.0091C82.8413 69.3594 83.2698 69.8693 83.5203 70.4703ZM68.7903 79.6503L72.9403 75.2003L50.8303 75.6403L50.9203 80.0003L68.7903 79.6503Z" fill="black"/>
<path d="M72.9401 75.1992L68.7901 79.6492L50.9201 80.0092L50.8301 75.6392L72.9401 75.1992Z" fill="#F17BB0"/>
<path d="M45.2205 132.149C47.5143 127.475 50.4901 123.168 54.0505 119.369C52.3665 118.576 50.7274 117.692 49.1405 116.719C45.7105 119.249 39.1405 124.989 36.6005 133.219C37.4405 132.989 38.3005 132.789 39.1905 132.629C41.1806 132.277 43.1998 132.116 45.2205 132.149ZM106.581 169.229C108.581 173.319 112.781 176.119 118.301 177.109C124.685 177.95 131.176 176.866 136.941 173.996C142.706 171.126 147.483 166.6 150.661 160.999C153.201 155.999 153.481 150.999 151.441 146.899C149.401 142.799 145.251 139.999 139.721 138.999C138.245 138.737 136.749 138.607 135.251 138.609C130.322 138.671 125.474 139.865 121.081 142.099C115.242 144.865 110.436 149.418 107.361 155.099C104.831 160.129 104.551 165.139 106.581 169.229ZM66.2805 117.229C72.3798 118.894 78.6314 119.939 84.9405 120.349C90.0105 120.689 93.3905 120.559 93.4505 120.559C101.537 120.003 109.524 118.451 117.231 115.939L116.931 102.939V102.829C116.905 100.949 117.313 99.0874 118.121 97.3891L108.421 97.5891C107.978 97.5948 107.539 97.509 107.131 97.3369C106.723 97.1648 106.355 96.9102 106.051 96.5891L92.0005 82.4891L78.6005 97.1191C78.303 97.4359 77.9436 97.6882 77.5445 97.8602C77.1454 98.0322 76.7151 98.1203 76.2805 98.1191L40.4905 98.8391C42.1616 102.131 44.4458 105.074 47.2205 107.509L50.0005 109.769C54.9581 113.168 60.4658 115.686 66.2805 117.209V117.229ZM78.4905 152.229C81.4205 157.989 82.0805 163.889 80.4905 169.169C86.798 167.942 93.283 167.942 99.5905 169.169C97.9805 163.889 98.6505 157.989 101.591 152.229C105.212 145.469 110.855 140.008 117.731 136.609L117.411 122.549C113.45 123.764 109.419 124.736 105.341 125.459C108.822 127.221 111.89 129.702 114.341 132.739C114.442 132.854 114.499 133.001 114.503 133.154C114.507 133.306 114.456 133.456 114.361 133.575C114.265 133.695 114.131 133.777 113.981 133.807C113.83 133.837 113.675 133.813 113.541 133.739C112.681 133.309 111.611 132.789 110.351 132.259C106.864 130.779 103.24 129.647 99.5305 128.879C93.8286 127.479 87.8725 127.479 82.1705 128.879C78.4611 129.646 74.8368 130.778 71.3505 132.259C70.0905 132.789 69.0105 133.259 68.1605 133.739C68.0264 133.813 67.8706 133.837 67.7206 133.807C67.5705 133.777 67.4359 133.695 67.3403 133.575C67.2447 133.456 67.1943 133.306 67.198 133.154C67.2017 133.001 67.2593 132.854 67.3605 132.739C69.6842 129.856 72.5691 127.474 75.8405 125.739C72.0586 125.172 68.315 124.374 64.6305 123.349C63.2805 122.959 61.9805 122.539 60.7105 122.099C57.3075 125.236 54.4487 128.916 52.2505 132.989C55.6112 133.704 58.8673 134.843 61.9405 136.379C68.9975 139.756 74.7946 145.294 78.4905 152.189V152.229ZM139.001 90.0491C139.001 88.1691 138.621 86.0491 136.651 85.3591C133.971 84.4391 132.201 87.7491 132.191 87.7891C131.989 88.1543 131.694 88.459 131.335 88.6717C130.977 88.8844 130.568 88.9975 130.151 88.9991H130.061C129.575 88.886 129.069 88.8957 128.588 89.0272C128.108 89.1587 127.667 89.4079 127.307 89.7523C126.947 90.0967 126.678 90.5254 126.525 90.9998C126.372 91.4741 126.339 91.9791 126.431 92.4691C127.587 92.5067 128.729 92.7365 129.811 93.1491C131.764 91.1221 134.436 89.9441 137.251 89.8691C137.838 89.8827 138.423 89.9429 139.001 90.0491ZM139.361 70.4691L139.481 76.7791C139.802 76.5753 140.136 76.3916 140.481 76.2291C141.825 75.6152 143.32 75.41 144.781 75.6391L144.561 61.9991L94.3805 62.9991L38.7505 64.0991L39.3105 92.4091L74.7605 91.6991L89.5505 75.5891C89.8546 75.2754 90.2182 75.0254 90.6199 74.8537C91.0217 74.682 91.4536 74.592 91.8905 74.5891C92.3282 74.5759 92.7638 74.6535 93.17 74.817C93.5762 74.9805 93.9441 75.2263 94.2505 75.5391L109.681 90.9991L121.891 90.7591C122.074 89.4138 122.617 88.1428 123.461 87.0791C124.356 86.0171 125.54 85.2387 126.871 84.8391L113.871 85.0991H113.811C112.95 85.0984 112.125 84.761 111.511 84.1591L100.801 73.4991C100.352 73.0493 100.045 72.4784 99.9164 71.8564C99.788 71.2344 99.8441 70.5884 100.078 69.9978C100.311 69.4073 100.713 68.8978 101.232 68.5321C101.751 68.1663 102.366 67.9602 103.001 67.9391L136.001 67.2791H136.071C136.498 67.2698 136.922 67.3451 137.32 67.5007C137.718 67.6562 138.082 67.8889 138.389 68.1854C138.697 68.4819 138.943 68.8363 139.113 69.2282C139.283 69.6202 139.374 70.0419 139.381 70.4691H139.361ZM154.651 107.919C155.574 107.857 156.501 107.88 157.421 107.989C158.99 108.179 160.53 108.555 162.011 109.109C162.501 106.989 162.661 104.989 162.321 104.339C160.891 102.929 158.221 104.029 158.191 104.039C157.742 104.226 157.257 104.312 156.771 104.29C156.285 104.267 155.81 104.137 155.381 103.909H155.281C154.845 103.658 154.474 103.309 154.195 102.892C153.916 102.474 153.736 101.997 153.671 101.499C153.573 100.789 153.277 100.121 152.817 99.5708C152.357 99.0208 151.752 98.6113 151.071 98.3891C148.621 97.7591 146.541 99.8691 146.521 99.8891C146.186 100.246 145.774 100.522 145.316 100.695C144.859 100.868 144.368 100.935 143.881 100.889H143.611C143.081 100.798 142.583 100.578 142.159 100.248C141.735 99.9183 141.399 99.4894 141.181 98.9991C140.816 98.2567 140.26 97.6256 139.568 97.1718C138.877 96.718 138.077 96.4581 137.251 96.4191C135.061 96.4191 133.251 99.1691 133.251 99.1991C132.796 99.9208 132.079 100.437 131.251 100.639C131.074 100.689 130.893 100.719 130.711 100.729C130.199 100.765 129.686 100.679 129.215 100.477C128.744 100.276 128.327 99.9642 128.001 99.5691C127.571 99.2633 127.072 99.0678 126.549 98.9998C126.026 98.9318 125.494 98.9934 125.001 99.1791C124.581 99.3991 123.471 99.9591 123.421 102.799L124.141 133.909C126.501 133.157 128.929 132.638 131.391 132.359C133.716 132.102 136.061 132.082 138.391 132.299C138.346 131.891 138.323 131.48 138.321 131.069C138.333 129.62 138.545 128.18 138.951 126.789C139.503 124.737 140.668 122.902 142.291 121.529C143.289 120.667 144.416 119.965 145.631 119.449C145.252 117.231 145.603 114.951 146.631 112.949C147.185 111.8 147.985 110.787 148.973 109.98C149.961 109.174 151.114 108.593 152.351 108.279C153.109 108.076 153.886 107.955 154.671 107.919H154.651ZM153.401 92.2691C155.845 93.1036 157.858 94.8728 159.001 97.1891C161.215 96.8937 163.463 97.3666 165.371 98.5291C165.443 98.1997 165.443 97.8585 165.371 97.5291C164.981 96.1791 163.091 95.2791 162.461 95.0691C161.908 94.887 161.444 94.5049 161.159 93.9979C160.874 93.4909 160.789 92.8956 160.921 92.3291C161.221 91.0291 161.411 89.3291 160.611 88.2591C160.281 87.8763 159.852 87.5925 159.371 87.4391C159.125 88.0316 158.787 88.5817 158.371 89.0691C157.071 90.5266 155.302 91.4821 153.371 91.7691C153.401 91.9991 153.421 92.1191 153.421 92.2691H153.401ZM29.4005 160.999C32.4713 166.684 37.2785 171.239 43.1205 173.999C48.8441 176.994 55.3746 178.084 61.7605 177.109C67.2805 176.109 71.4405 173.319 73.4805 169.229C75.5205 165.139 75.2405 160.129 72.7005 155.139C69.6247 149.458 64.819 144.905 58.9805 142.139C54.5875 139.904 49.7391 138.71 44.8105 138.649C43.3086 138.647 41.8095 138.778 40.3305 139.039C34.8205 140.039 30.6605 142.829 28.6205 146.919C26.5805 151.009 26.8605 155.999 29.4005 160.999ZM149.061 82.4591C148.611 82.616 148.125 82.6311 147.667 82.5023C147.209 82.3735 146.802 82.1071 146.501 81.7391C144.891 79.7391 143.251 80.1091 142.411 80.4791C141.611 80.8443 140.953 81.4628 140.541 82.2391C141.051 82.6514 141.504 83.1288 141.891 83.6591C144.161 83.3591 148.011 83.2991 150.741 85.7491C151.244 86.2167 151.684 86.7478 152.051 87.3291C153.083 87.2749 154.066 86.865 154.831 86.1691C155.07 85.7687 155.213 85.318 155.247 84.8527C155.282 84.3875 155.208 83.9206 155.031 83.4891C154.988 83.2356 154.887 82.9954 154.736 82.7873C154.585 82.5791 154.388 82.4086 154.161 82.2891C152.791 81.5491 150.131 82.0791 149.061 82.4591ZM148.751 91.8191C148.709 90.8414 148.311 89.9128 147.631 89.2091C146.442 88.3794 144.988 88.0229 143.551 88.2091C143.706 89.4743 143.706 90.7538 143.551 92.0191C144.018 92.3551 144.456 92.7297 144.861 93.1391C146.07 92.4745 147.387 92.0277 148.751 91.8191ZM148.801 51.5091C153.391 63.8691 154.391 72.7691 152.351 77.2791C153.737 77.2592 155.109 77.5713 156.351 78.1891C156.654 78.3614 156.945 78.5552 157.221 78.7691C159.861 70.4591 156.601 54.2391 149.741 41.9991C144.361 32.4391 137.191 25.5091 128.351 21.3491C126.39 20.4288 124.368 19.6437 122.301 18.9991C117.211 17.3914 111.868 16.7371 106.541 17.0691H106.461C105.051 16.6491 103.711 16.2791 102.461 15.9891C98.0004 14.8947 93.423 14.3507 88.8305 14.3691C84.2532 14.7515 79.7398 15.6918 75.3905 17.1691C74.1805 17.5691 72.8705 18.0391 71.5105 18.5991H71.4305C66.0887 18.736 60.8176 19.8546 55.8805 21.8991C53.8718 22.7128 51.9235 23.6686 50.0505 24.7591C41.6105 29.6791 35.0505 37.1991 30.5405 47.1991C24.6105 60.3391 22.8305 77.3491 26.5405 85.1391C27.5405 87.1391 28.7105 88.2791 30.2305 88.6691C30.5505 88.7491 30.8605 88.8091 31.1805 88.8591C31.6859 88.9483 32.1974 88.9984 32.7105 89.0091L32.6205 84.4991C28.6205 81.4991 28.1305 71.6691 32.2805 56.5791C40.0005 28.6491 65.6905 20.8191 69.8005 23.7091C71.2105 24.7091 69.8005 27.1691 68.8605 29.7091C68.6805 30.1891 68.4805 30.7091 68.2805 31.1791C66.4805 36.3991 65.8005 41.3891 65.0505 46.9291C64.5905 50.2091 64.1305 53.5691 63.4105 57.1291L94.2405 56.5091L118.241 56.0291C117.021 52.0291 116.171 48.3591 115.351 44.7291C114.111 39.2791 113.001 34.3691 110.761 29.3191C110.511 28.8391 110.271 28.3691 110.051 27.9091C108.881 25.4891 107.281 23.1391 108.601 22.0391C112.441 18.7791 138.711 24.3491 148.801 51.5091ZM155.801 126.259C154.231 126.939 151.691 127.339 148.801 125.039C147.952 125.266 147.172 125.698 146.529 126.295C145.886 126.893 145.399 127.64 145.111 128.469C144.879 129.41 144.836 130.387 144.983 131.345C145.131 132.303 145.466 133.222 145.971 134.049C150.874 135.824 154.918 139.4 157.281 144.049C157.549 144.596 157.79 145.157 158.001 145.729C163.491 142.909 165.881 136.019 166.381 134.359C166.881 132.699 168.931 124.909 165.151 119.289C164.62 118.488 163.988 117.759 163.271 117.119C162.821 116.718 162.344 116.35 161.841 116.019C160.451 115.099 154.481 112.479 152.211 116.019C151.655 116.856 151.365 117.841 151.378 118.845C151.39 119.849 151.705 120.826 152.281 121.649C153.217 122.883 154.439 123.871 155.841 124.529C155.989 124.622 156.111 124.753 156.193 124.907C156.275 125.062 156.315 125.236 156.309 125.411C156.303 125.587 156.251 125.757 156.158 125.906C156.066 126.055 155.935 126.177 155.781 126.259H155.801ZM173.671 126.039C174.063 133.618 171.52 141.056 166.571 146.809C164.59 149.097 162.095 150.883 159.291 152.019C159.392 156.189 158.418 160.315 156.461 163.999C152.747 170.923 146.926 176.485 139.841 179.879C134.537 182.541 128.694 183.95 122.761 183.999C120.88 184.004 119.002 183.84 117.151 183.509C112.639 182.797 108.424 180.813 105.001 177.789C101.611 175.789 96.0005 174.669 90.0005 174.669C84.0005 174.669 78.5505 175.809 75.1305 177.669V177.609C71.6999 180.681 67.4579 182.702 62.9105 183.429C61.0589 183.76 59.1814 183.924 57.3005 183.919C51.3631 183.855 45.5197 182.428 40.2205 179.749C33.1543 176.393 27.3377 170.877 23.6105 163.999C20.1105 157.119 19.8205 149.999 22.8005 144.059C24.297 141.074 26.5266 138.518 29.2805 136.629C30.5905 125.029 38.4905 116.919 43.6105 112.799L43.5505 112.739C40.7583 110.384 38.3435 107.616 36.3905 104.529C34.6133 101.693 33.2654 98.6096 32.3905 95.3791C31.1485 95.3266 29.9153 95.1457 28.7105 94.8391C25.3705 93.9991 22.7105 91.5991 20.9005 87.9291C17.9405 81.7491 18.0005 73.4691 18.6505 67.5991C19.479 59.658 21.5509 51.8965 24.7905 44.5991C32.5705 27.3691 44.8605 19.4991 53.7905 15.9291C58.974 13.833 64.4678 12.6066 70.0505 12.2991C74.1763 10.7031 78.4459 9.50763 82.8005 8.72909C84.4505 8.43909 85.8005 8.25909 86.8005 8.15909C87.8005 8.05909 88.4105 7.99909 88.5505 7.99909C94.9185 7.93724 101.259 8.83394 107.361 10.6591C112.944 10.4751 118.519 11.2151 123.861 12.8491C133.071 15.6291 146.001 22.4091 155.251 38.8491C159.11 45.8435 161.853 53.3979 163.381 61.2391C164.481 67.0291 165.301 75.2391 162.901 81.6291C162.655 82.2819 162.364 82.9167 162.031 83.5291C162.893 83.9782 163.649 84.6054 164.251 85.3691C164.897 86.2356 165.364 87.2221 165.625 88.2712C165.886 89.3202 165.936 90.4107 165.771 91.4791C167.686 92.4692 169.142 94.1653 169.831 96.2091C170.111 97.322 170.151 98.4819 169.947 99.6114C169.744 100.741 169.302 101.814 168.651 102.759C169.531 106.069 168.551 110.229 167.801 112.639C168.523 113.563 169.294 114.447 170.111 115.289C171.715 117.608 172.803 120.244 173.301 123.019C173.481 124.004 173.598 124.999 173.651 125.999L173.671 126.039ZM133.001 78.2191V73.8491L110.891 74.2891L115.221 78.5691L133.001 78.2191Z" fill="black"/>
<path d="M60.4995 150.589C63.4995 152.589 65.3495 157.399 65.8395 161.589C65.9518 162.608 65.9885 163.634 65.9495 164.659C65.9495 164.999 65.9495 165.329 65.9495 165.659C65.9388 165.796 65.8887 165.928 65.8053 166.038C65.7219 166.148 65.6087 166.232 65.4791 166.279C65.3495 166.326 65.209 166.336 65.0743 166.305C64.9397 166.275 64.8165 166.207 64.7195 166.109L59.1195 160.319C58.9923 160.184 58.8365 160.078 58.6635 160.011C58.4905 159.944 58.3047 159.915 58.1195 159.929C57.8487 159.942 57.5909 160.049 57.3903 160.232C57.1897 160.414 57.0586 160.66 57.0195 160.929L56.7095 163.169L52.7695 158.499C52.6095 158.329 52.4795 158.179 52.3695 158.039L52.2195 157.859L51.8695 157.469C51.76 157.352 51.6961 157.199 51.6895 157.039C51.5105 155.33 51.8931 153.61 52.7795 152.139C52.776 152.112 52.776 152.085 52.7795 152.059V152.009L52.8395 151.939C53.5595 150.993 54.5554 150.294 55.6895 149.939C56.4795 149.668 57.3212 149.583 58.1495 149.689H58.2795H58.5095C58.6251 149.709 58.7389 149.74 58.8495 149.779H58.9695L59.3495 149.919L59.4795 149.969L59.7995 150.119L59.9795 150.209L60.3595 150.439H60.4095L60.4995 150.589Z" fill="black"/>
<path d="M34.8998 164.819C37.1298 166.289 39.8198 166.129 40.8998 164.469C41.9798 162.809 41.0698 160.279 38.8398 158.819C36.6098 157.359 33.9198 157.499 32.8398 159.159C31.7598 160.819 32.6698 163.349 34.8998 164.819ZM45.9998 147.739C48.2298 149.209 50.9198 149.049 51.9998 147.399C53.0798 145.749 52.1698 143.199 49.9398 141.739C47.7098 140.279 45.0198 140.419 43.9398 142.079C42.8598 143.739 43.7798 146.279 45.9998 147.739ZM58.6798 166.099C58.6631 166.265 58.6117 166.426 58.529 166.57C58.4463 166.715 58.3342 166.841 58.1998 166.939C58.0719 167.027 57.9298 167.091 57.7798 167.129C57.5126 167.172 57.2389 167.126 56.9998 166.999C56.8736 166.923 56.7591 166.829 56.6598 166.719L53.7698 163.279L52.3198 161.559L51.1098 160.129C51.0208 160.025 50.9036 159.949 50.7723 159.91C50.641 159.871 50.5012 159.871 50.3698 159.909C48.426 160.33 46.6937 161.424 45.4798 162.999V163.069V163.129C45.4798 163.129 45.4798 163.179 45.4798 163.199C45.039 163.932 44.7753 164.757 44.7098 165.609C44.6841 165.942 44.6841 166.277 44.7098 166.609C44.7254 166.831 44.7521 167.051 44.7898 167.269C44.8911 167.871 45.0976 168.45 45.3998 168.979C45.4194 169.021 45.4428 169.062 45.4698 169.099L45.5998 169.289L45.7998 169.579L45.8798 169.669C45.9698 169.779 46.0498 169.879 46.1398 169.969L46.2498 170.079L46.4998 170.309L46.6498 170.439L47.0098 170.709H47.0598C50.0598 172.709 55.1998 172.649 59.2798 171.519C60.8266 171.058 62.3266 170.452 63.7598 169.709C63.8625 169.661 63.9518 169.589 64.0199 169.498C64.0879 169.407 64.1325 169.301 64.1498 169.189C64.1659 169.079 64.1562 168.967 64.1215 168.861C64.0868 168.755 64.028 168.659 63.9498 168.579L58.9998 163.669L58.6798 166.099ZM59.0798 160.329L64.6798 166.119C64.7768 166.218 64.8999 166.286 65.0346 166.316C65.1693 166.346 65.3098 166.337 65.4394 166.29C65.569 166.242 65.6822 166.158 65.7656 166.049C65.849 165.939 65.8991 165.807 65.9098 165.669C65.9098 165.339 65.9098 165.009 65.9098 164.669C65.9488 163.645 65.9121 162.619 65.7998 161.599C65.3098 157.399 63.4498 152.599 60.4598 150.599H60.4098L60.0298 150.369L59.8498 150.279L59.5298 150.129L59.3998 150.079L59.0198 149.939H58.8998C58.7891 149.9 58.6754 149.87 58.5598 149.849H58.3298H58.1998C57.3715 149.743 56.5298 149.829 55.7398 150.099C54.6056 150.455 53.6098 151.154 52.8898 152.099L52.8298 152.169V152.219C52.8262 152.246 52.8262 152.273 52.8298 152.299C51.9434 153.771 51.5607 155.491 51.7398 157.199C51.7464 157.36 51.8103 157.512 51.9198 157.629L52.2698 158.019L52.4198 158.199C52.5298 158.339 52.6598 158.489 52.8198 158.659L56.7598 163.329L56.9998 160.999C57.0389 160.731 57.1699 160.485 57.3706 160.302C57.5712 160.12 57.829 160.013 58.0998 159.999C58.2772 159.981 58.4565 160.001 58.6255 160.058C58.7946 160.115 58.9494 160.208 59.0798 160.329ZM72.6998 155.139C75.2398 160.139 75.5098 165.139 73.4798 169.229C71.4498 173.319 67.2798 176.119 61.7598 177.109C55.3738 178.084 48.8434 176.995 43.1198 173.999C37.2777 171.239 32.4706 166.684 29.3998 160.999C26.8598 155.999 26.5898 150.999 28.6198 146.899C30.6498 142.799 34.8198 139.999 40.3298 138.999C41.8088 138.738 43.3079 138.608 44.8098 138.609C49.7475 138.676 54.6033 139.881 58.9998 142.129C64.8323 144.901 69.6308 149.458 72.6998 155.139ZM37.0798 153.999C39.3098 155.469 42.0098 155.309 43.0798 153.649C44.1498 151.989 43.2498 149.469 41.0298 147.999C38.8098 146.529 36.0998 146.689 35.0298 148.349C33.9598 150.009 34.8598 152.569 37.0798 153.999Z" fill="white"/>
<path d="M59 163.668L63.8 168.608C63.8783 168.688 63.9371 168.784 63.9718 168.89C64.0065 168.996 64.0162 169.108 64 169.218C63.9828 169.331 63.9381 169.437 63.8701 169.527C63.8021 169.618 63.7128 169.691 63.61 169.738C62.1768 170.481 60.6769 171.087 59.13 171.548C55.05 172.678 49.87 172.758 46.91 170.738H46.86L46.5 170.468L46.35 170.338L46.1 170.108L46 169.998C45.91 169.908 45.83 169.808 45.74 169.698L45.66 169.608L45.46 169.318L45.33 169.128C45.303 169.091 45.2796 169.051 45.26 169.008C44.9578 168.479 44.7513 167.9 44.65 167.298C44.6123 167.08 44.5856 166.86 44.57 166.638C44.5444 166.306 44.5444 165.971 44.57 165.638C44.6356 164.786 44.8992 163.961 45.34 163.228C45.34 163.228 45.34 163.228 45.34 163.158V163.098V163.028C46.5447 161.471 48.2573 160.384 50.18 159.958C50.3115 159.92 50.4513 159.92 50.5826 159.959C50.7139 159.998 50.8311 160.074 50.92 160.178L52.13 161.608L53.58 163.328L56.47 166.768C56.6306 166.878 56.8104 166.956 57 166.998C57.2558 167.129 57.549 167.168 57.83 167.108C57.98 167.07 58.1222 167.006 58.25 166.918C58.3844 166.82 58.4966 166.694 58.5793 166.549C58.6619 166.405 58.7133 166.244 58.73 166.078L59 163.668Z" fill="black"/>
<path d="M49.9996 141.741C52.2296 143.201 53.1496 145.741 52.0596 147.401C50.9696 149.061 48.2796 149.211 46.0596 147.741C43.8396 146.271 42.9096 143.741 43.9996 142.081C45.0896 140.421 47.7196 140.271 49.9996 141.741Z" fill="black"/>
<path d="M40.9998 147.999C43.2198 149.469 44.1498 151.999 43.0498 153.649C41.9498 155.299 39.2698 155.469 37.0498 153.999C34.8298 152.529 33.8998 149.999 34.9898 148.349C36.0798 146.699 38.8098 146.569 40.9998 147.999Z" fill="black"/>
<path d="M38.8497 158.82C41.0797 160.28 41.9997 162.82 40.9097 164.47C39.8197 166.12 37.1297 166.29 34.9097 164.82C32.6897 163.35 31.7497 160.82 32.8497 159.16C33.9497 157.5 36.6197 157.35 38.8497 158.82Z" fill="black"/>
</svg>
