<svg width="50" height="50" viewBox="0 0 50 50" fill="none" xmlns="http://www.w3.org/2000/svg">
<g id="stickers_saro_sticker">
<path id="Vector" d="M21.737 35.7083C21.737 36.474 22.3646 37.3854 23.0547 37.974C23.3219 38.1934 23.6087 38.3878 23.9115 38.5547C23.9324 38.5662 23.9557 38.5726 23.9795 38.5735C24.0034 38.5744 24.0271 38.5698 24.0488 38.5599C24.0706 38.5501 24.0897 38.5353 24.1047 38.5167C24.1198 38.4982 24.1303 38.4764 24.1354 38.4531L24.4401 37.0104L23.9583 37.2396C23.9273 37.2557 23.8933 37.2654 23.8584 37.2681C23.8235 37.2708 23.7884 37.2664 23.7552 37.2552C23.6962 37.2318 23.6477 37.1877 23.619 37.1311C23.5902 37.0745 23.5831 37.0094 23.599 36.9479C23.7552 36.4062 23.9792 35.6172 24.1198 35.1745C24.1277 35.146 24.1272 35.1159 24.1184 35.0878C24.1096 35.0596 24.0929 35.0346 24.0703 35.0156C23.7642 34.7269 23.3676 34.553 22.9479 34.5234H22.8958C22.6417 34.5351 22.3976 34.6262 22.1979 34.7839C22.0549 34.891 21.939 35.0301 21.8594 35.1901V35.2135L21.8411 35.2604C21.8411 35.2839 21.8203 35.3073 21.8151 35.3307C21.8143 35.3394 21.8143 35.3481 21.8151 35.3568C21.8151 35.3854 21.7995 35.4115 21.7943 35.4375C21.7933 35.4488 21.7933 35.4601 21.7943 35.4714C21.793 35.4956 21.793 35.52 21.7943 35.5443C21.7928 35.559 21.7928 35.5738 21.7943 35.5885C21.7915 35.6197 21.7915 35.6511 21.7943 35.6823V35.6953L21.737 35.7083ZM25 36.4036C25.0223 36.4344 25.0376 36.4698 25.0448 36.5071C25.052 36.5444 25.0509 36.5829 25.0417 36.6198L24.6849 38.3047C24.6784 38.3338 24.6805 38.3641 24.691 38.3921C24.7014 38.42 24.7198 38.4443 24.7438 38.4619C24.7678 38.4796 24.7965 38.4899 24.8262 38.4916C24.856 38.4932 24.8856 38.4862 24.9115 38.4714C25.1623 38.3251 25.401 38.1587 25.625 37.974C26.3125 37.3854 26.9479 36.474 26.9427 35.7083V35.6953C26.9427 35.6615 26.9427 35.6302 26.9427 35.6016C26.9416 35.5868 26.9416 35.572 26.9427 35.5573C26.9427 35.5339 26.9427 35.5078 26.9427 35.4844V35.4505C26.9427 35.4245 26.9427 35.3984 26.9219 35.3698V35.3438L26.8958 35.2734L26.8776 35.2266C26.8767 35.2188 26.8767 35.2109 26.8776 35.2031C26.7961 35.0436 26.6795 34.9047 26.5365 34.7969C26.3377 34.6394 26.0945 34.5483 25.8411 34.5365H25.7891C25.4066 34.5427 25.0373 34.6765 24.7396 34.9167C24.713 34.938 24.6939 34.9671 24.6849 35C24.651 35.1458 24.5443 35.5208 24.2526 36.5417L24.6875 36.3281C24.7405 36.3039 24.8001 36.2982 24.8568 36.3119C24.9135 36.3256 24.9639 36.3579 25 36.4036ZM30.2682 25.2396L30.5026 24.4193C30.5219 24.3509 30.5211 24.2785 30.5003 24.2106C30.4795 24.1428 30.4396 24.0823 30.3854 24.0365C29.6354 23.3854 28.4792 22.6198 27.1875 22.6224H27.0417C26.3247 22.663 25.6387 22.9281 25.0807 23.3802C24.6775 23.6827 24.3502 24.075 24.125 24.526C24.125 24.5469 24.1016 24.5703 24.0911 24.5964C24.0807 24.6224 24.0547 24.6823 24.0365 24.7266C24.0182 24.7708 23.9844 24.8568 23.9609 24.9245C23.9552 24.9483 23.9482 24.9717 23.9401 24.9948C23.9167 25.0703 23.8984 25.1484 23.8802 25.2292L23.862 25.3151C23.862 25.3828 23.8411 25.4531 23.8307 25.526C23.8203 25.599 23.8307 25.6016 23.8151 25.6458C23.7995 25.6901 23.8021 25.8203 23.8021 25.9062C23.8007 25.921 23.8007 25.9358 23.8021 25.9505C23.8021 28.112 25.5755 30.6745 27.5156 32.3385C28.2874 32.97 29.1165 33.528 29.9922 34.0052C30.0435 34.0349 30.1011 34.052 30.1603 34.0551C30.2195 34.0582 30.2785 34.0472 30.3327 34.0231C30.3868 33.9989 30.4344 33.9623 30.4717 33.9162C30.5089 33.8701 30.5347 33.8158 30.5469 33.7578L30.9635 31.7786C30.8272 31.7974 30.6897 31.807 30.5521 31.8073C30.3213 31.8068 30.0911 31.7841 29.8646 31.7396C28.9404 31.5613 28.1247 31.0237 27.5964 30.2448C27.1387 29.5768 26.926 28.7712 26.9944 27.9644C27.0627 27.1576 27.4079 26.3992 27.9714 25.8177L27.9948 25.7943L28.0208 25.7708C28.2167 25.5916 28.4335 25.4368 28.6667 25.3099C28.957 25.1457 29.2837 25.0562 29.6172 25.0495H29.7292H29.901L30.0599 25.1198L30.2682 25.2396ZM30.0547 30.7552C30.2178 30.7862 30.3835 30.8018 30.5495 30.8021C30.7638 30.8019 30.9773 30.7748 31.1849 30.7214C31.6469 30.6038 32.066 30.3576 32.3937 30.0115C32.7215 29.6653 32.9443 29.2333 33.0365 28.7656H33.0521C33.1198 28.7656 33.3125 28.7943 33.5469 28.7943C33.8073 28.7943 34.1042 28.75 34.2057 28.5547C34.2328 28.496 34.247 28.4322 34.2475 28.3676C34.248 28.303 34.2348 28.239 34.2087 28.1799C34.1826 28.1208 34.1442 28.0679 34.0961 28.0248C34.048 27.9817 33.9913 27.9492 33.9297 27.9297L31.2969 26.7943L29.9766 26.2266L29.6458 26.0807H29.6016C29.251 26.1257 28.926 26.2882 28.6797 26.5417C28.3452 26.8882 28.1182 27.3242 28.026 27.7969C27.9026 28.4574 28.0464 29.14 28.4258 29.6946C28.8052 30.2493 29.3891 30.6307 30.0495 30.7552H30.0547ZM37.099 29.6875C37.5256 30.2166 37.9969 30.708 38.5078 31.1562C39.3898 31.9598 40.4421 32.5536 41.5859 32.8932C41.1619 34.5352 40.2837 36.0244 39.0521 37.1901L38.1927 37.9375C36.6584 39.0924 34.936 39.9734 33.1016 40.5417C30.3091 41.4226 27.4064 41.9057 24.4792 41.9766C24.4557 41.9766 23.3776 41.9766 21.7656 41.7891C19.7586 41.5731 17.7788 41.1534 15.8568 40.5365C14.0224 39.9682 12.3 39.0872 10.7656 37.9323L9.89583 37.1901C8.80547 36.1569 7.99006 34.868 7.52344 33.4401C9.47656 33.2917 12.4714 32.375 15.3932 28.7786C15.4723 28.7645 15.5527 28.7602 15.6328 28.7656C15.7623 29.4287 16.1499 30.0131 16.7103 30.3904C17.2707 30.7676 17.9581 30.9068 18.6211 30.7773C19.2841 30.6478 19.8686 30.2603 20.2458 29.6998C20.6231 29.1394 20.7623 28.4521 20.6328 27.7891C20.5408 27.3157 20.3127 26.8795 19.9766 26.5339C19.7224 26.2681 19.3795 26.105 19.013 26.0755L16.612 27.1172C17.0469 26.4583 17.4766 25.7344 17.901 24.9323C20.7839 19.4635 20.3099 12.5078 17.9922 9.15365C18.4557 9.13021 18.7734 9.15365 18.8516 9.15365H18.8776C19.3203 8.9974 19.7448 8.86198 20.1354 8.7526C21.548 8.33255 23.0069 8.08765 24.4792 8.02344C25.9445 8.08241 27.3971 8.32029 28.8047 8.73177C29.1979 8.84115 29.6198 8.97656 30.0625 9.13281H30.0885C31.7916 9.10129 33.4858 9.38469 35.0859 9.96875C35.739 10.2023 36.375 10.4807 36.9896 10.8021C39.7526 12.2552 41.9375 14.5625 43.526 17.6901C45.6094 21.7995 46.4063 27.2057 45.3177 29.7396C45.0391 30.388 44.6719 30.7812 44.1927 30.9193C44.0911 30.9505 43.9948 30.974 43.8932 30.9948C43.2223 31.1327 42.5266 31.0859 41.8802 30.8594C41.4066 30.6945 40.9573 30.4668 40.5443 30.1823C41.5443 30.3411 42.5938 30.2552 43.362 29.6302C44.6172 28.6094 44.6302 25.4635 43.1016 20.7109C40.2578 11.9036 31.9557 9.77344 30.6849 10.7396C30.2474 11.0729 30.7292 11.8464 31.0677 12.6354C31.1328 12.7865 31.2005 12.9401 31.2734 13.0964C31.9193 14.7396 32.2057 16.3203 32.5234 18.0781C32.7843 19.7129 33.1506 21.3291 33.6198 22.9167C33.1184 23.1251 32.6479 23.4011 32.2214 23.737C32.1545 23.7885 32.1068 23.8609 32.0859 23.9427C32.0234 24.2031 31.8828 24.7083 31.5651 25.8073L34.3203 26.9948C34.5145 27.0778 34.6898 27.1992 34.8357 27.3519C34.9816 27.5045 35.0951 27.6851 35.1693 27.8828C35.2351 28.0654 35.2624 28.2596 35.2494 28.4532C35.2364 28.6469 35.1834 28.8357 35.0938 29.0078C34.9219 29.3411 34.5495 29.737 33.7292 29.7891C33.4566 30.3587 33.0368 30.8451 32.513 31.1979L32.0495 33.3984C32.0345 33.4699 32.0406 33.5443 32.067 33.6124C32.0934 33.6805 32.139 33.7395 32.1982 33.7823C32.2575 33.825 32.3279 33.8496 32.4009 33.8531C32.4738 33.8566 32.5463 33.8389 32.6094 33.8021C33.354 33.3753 34.0613 32.8866 34.724 32.3411C35.6286 31.5661 36.4256 30.6737 37.0938 29.6875H37.099Z" fill="white"/>
<path id="Vector_2" d="M43.0936 20.722C44.6326 25.485 44.6196 28.6204 43.354 29.6413C42.5727 30.2663 41.5311 30.3522 40.5363 30.1934C40.9493 30.4778 41.3986 30.7056 41.8722 30.8704C42.5186 31.0969 43.2143 31.1437 43.8852 31.0059C43.9868 30.985 44.0832 30.9616 44.1847 30.9303C44.6639 30.7845 45.0311 30.4095 45.3097 29.7507C46.3983 27.2168 45.5936 21.8105 43.518 17.7012C41.9373 14.5762 39.7446 12.2663 36.9816 10.8132C36.367 10.4918 35.731 10.2133 35.0779 9.97982C33.4778 9.39576 31.7836 9.11236 30.0805 9.14388H30.0545C29.6118 8.98763 29.1899 8.85221 28.7967 8.74284C27.3921 8.32845 25.9421 8.08708 24.479 8.02409C23.0128 8.0828 21.5593 8.32068 20.1509 8.73242C19.7602 8.8418 19.3358 8.97721 18.893 9.13346H18.867C18.7785 9.13346 18.4712 9.11784 18.0076 9.13346C20.3123 12.5007 20.7915 19.4642 17.9087 24.9303C17.4842 25.7324 17.0545 26.4564 16.6196 27.1152L19.0206 26.0736C19.3871 26.1031 19.73 26.2662 19.9842 26.5319C20.3204 26.8776 20.5484 27.3138 20.6404 27.7871C20.7699 28.4501 20.6307 29.1375 20.2535 29.6979C19.8762 30.2583 19.2918 30.6459 18.6287 30.7754C17.9657 30.9049 17.2784 30.7657 16.7179 30.3884C16.1575 30.0112 15.7699 29.4267 15.6404 28.7637C15.5603 28.7582 15.4799 28.7626 15.4009 28.7767C12.4738 32.373 9.48419 33.2897 7.53107 33.4381C7.99506 34.8661 8.80777 36.1559 9.89565 37.1908L10.755 37.9381C12.2894 39.093 14.0118 39.9741 15.8462 40.5423C17.7682 41.1593 19.748 41.579 21.755 41.7949C23.367 41.9772 24.4451 41.9824 24.4686 41.9824C27.3952 41.9096 30.297 41.4248 33.0884 40.5423C34.9228 39.9741 36.6452 39.093 38.1795 37.9381L39.0389 37.1908C40.2705 36.025 41.1487 34.5358 41.5727 32.8939C40.4289 32.5542 39.3766 31.9605 38.4946 31.1569C37.9837 30.7086 37.5124 30.2172 37.0858 29.6882C36.4202 30.6747 35.6258 31.5681 34.7238 32.3444C34.0611 32.8898 33.3538 33.3785 32.6092 33.8053C32.5461 33.8422 32.4737 33.8599 32.4007 33.8564C32.3277 33.8529 32.2573 33.8282 32.198 33.7855C32.1388 33.7428 32.0932 33.6838 32.0668 33.6157C32.0404 33.5475 32.0343 33.4732 32.0493 33.4017L32.5128 31.2012C33.0366 30.8484 33.4565 30.362 33.729 29.7923C34.5493 29.7402 34.9217 29.3444 35.0936 29.0111C35.1832 28.839 35.2363 28.6501 35.2493 28.4565C35.2623 28.2628 35.235 28.0686 35.1691 27.8861C35.0949 27.6884 34.9815 27.5077 34.8355 27.3551C34.6896 27.2025 34.5143 27.081 34.3201 26.998L31.5649 25.8105C31.8748 24.7116 32.0154 24.1986 32.0858 23.946C32.1066 23.8642 32.1543 23.7917 32.2212 23.7402C32.6476 23.4034 33.1181 23.1265 33.6196 22.9173C33.1481 21.3325 32.7792 19.7189 32.5154 18.0866C32.1977 16.3288 31.9113 14.748 31.2654 13.1048C31.1925 12.9486 31.1248 12.7949 31.0597 12.6439C30.7212 11.8626 30.2394 11.0814 30.6769 10.748C31.9477 9.77409 40.2498 11.9147 43.0936 20.722ZM47.6092 24.0475C47.8826 25.9121 48.0285 28.5527 47.1743 30.5579C46.6535 31.7533 45.8306 32.5553 44.7759 32.8704C44.3968 32.9862 44.0066 33.0621 43.6118 33.097C43.3722 34.1361 42.9799 35.1339 42.4477 36.0579C41.8674 37.0702 41.1359 37.9879 40.2785 38.7793C40.0571 38.9876 39.8279 39.1855 39.5858 39.3809C38.6884 40.1029 37.7147 40.7247 36.6821 41.235C35.7302 41.7125 34.744 42.1182 33.7316 42.4486C31.6889 43.1082 29.5843 43.5576 27.4503 43.7897C26.5962 43.8887 25.8878 43.9408 25.367 43.9642C24.8462 43.9876 24.5337 43.9928 24.4842 43.9928C21.3376 43.9245 18.2172 43.4045 15.2186 42.4486C14.2026 42.1178 13.2128 41.7113 12.2576 41.2324C11.225 40.7221 10.2514 40.1003 9.35398 39.3783C9.11179 39.1829 8.88263 38.985 8.66127 38.7767C7.80459 37.9846 7.07316 37.067 6.492 36.0553C6.00472 35.1948 5.63594 34.2724 5.39565 33.3132C3.83315 33.0059 2.69252 32.2715 2.3019 31.5423C2.21756 31.3887 2.17334 31.2163 2.17334 31.041C2.17334 30.8658 2.21756 30.6933 2.3019 30.5397L14.5415 8.79492C14.786 8.36174 15.1296 7.99265 15.5442 7.71789C15.9589 7.44312 16.4327 7.27051 16.9269 7.21419C17.4559 7.15179 17.988 7.11962 18.5207 7.11784C19.8597 6.6648 21.2394 6.34212 22.6404 6.1543C23.1613 6.08398 23.6118 6.04753 23.9269 6.02669C24.242 6.00586 24.4477 6.00586 24.4868 6.00586C26.5192 6.07541 28.5295 6.45026 30.4503 7.11784C32.2317 7.13976 33.9973 7.45382 35.6769 8.04753C38.5753 9.06315 42.6066 11.4043 45.3306 16.7897C46.4616 19.0763 47.2303 21.5248 47.6092 24.0475ZM16.0701 23.959C18.7212 18.9408 18.0389 12.4486 16.1456 10.0944L4.52586 30.8392C5.40331 31.279 6.38795 31.4597 7.3644 31.36C9.22638 31.2507 12.8331 30.0996 16.0701 23.959Z" fill="black"/>
<path id="Vector_3" d="M30.5445 30.8014C30.3785 30.8012 30.2128 30.7855 30.0497 30.7546C29.3892 30.6284 28.8058 30.245 28.4278 29.6888C28.0498 29.1326 27.9082 28.449 28.0341 27.7884C28.1262 27.3157 28.3533 26.8797 28.6877 26.5332C28.9341 26.2797 29.259 26.1172 29.6096 26.0723H29.6539L29.9846 26.2181L31.3049 26.7858L33.9377 27.9212C33.9993 27.9408 34.056 27.9732 34.1041 28.0163C34.1522 28.0595 34.1906 28.1124 34.2167 28.1715C34.2428 28.2306 34.2561 28.2946 34.2556 28.3592C34.255 28.4238 34.2408 28.4875 34.2138 28.5462C34.1122 28.7415 33.8232 28.7858 33.5549 28.7858C33.3336 28.7858 33.1278 28.7572 33.0601 28.7572H33.0445C32.9524 29.2249 32.7295 29.6569 32.4018 30.003C32.0741 30.3492 31.6549 30.5953 31.1929 30.7129C30.9815 30.77 30.7636 30.7998 30.5445 30.8014Z" fill="black"/>
<path id="Vector_4" d="M30.4976 24.4193L30.2632 25.2396L30.0523 25.151L29.8935 25.0807H29.7216H29.6096C29.2761 25.0874 28.9494 25.1769 28.6591 25.3411C28.427 25.4616 28.2102 25.6093 28.0132 25.7812L27.9872 25.8047L27.9638 25.8281C27.4003 26.4096 27.0551 27.168 26.9868 27.9748C26.9184 28.7816 27.1311 29.5872 27.5888 30.2552C28.1171 31.0341 28.9328 31.5717 29.857 31.75C30.0835 31.7946 30.3137 31.8172 30.5445 31.8177C30.6821 31.8174 30.8196 31.8079 30.956 31.7891L30.5393 33.7682C30.5271 33.8262 30.5013 33.8805 30.4641 33.9266C30.4268 33.9727 30.3792 34.0093 30.3251 34.0335C30.2709 34.0576 30.2119 34.0686 30.1527 34.0655C30.0935 34.0624 30.0359 34.0453 29.9846 34.0156C29.1089 33.5384 28.2798 32.9805 27.508 32.349C25.5679 30.6849 23.7841 28.1224 23.7945 25.9609C23.7931 25.9462 23.7931 25.9314 23.7945 25.9167C23.7945 25.8281 23.7945 25.737 23.8075 25.6562C23.8205 25.5755 23.8075 25.5755 23.8231 25.5365C23.8388 25.4974 23.8414 25.3932 23.8544 25.3255L23.8726 25.2396C23.8908 25.1589 23.9091 25.0807 23.9325 25.0052C23.9406 24.9821 23.9476 24.9587 23.9533 24.9349C23.9768 24.8672 24.0028 24.8021 24.0289 24.737C24.0549 24.6719 24.0627 24.6484 24.0836 24.6068C24.1044 24.5651 24.107 24.5573 24.1174 24.5365C24.3427 24.0855 24.6699 23.6931 25.0731 23.3906C25.6311 22.9385 26.3171 22.6734 27.0341 22.6328H27.1799C28.482 22.6328 29.6278 23.3958 30.3778 24.0469C30.4306 24.0915 30.4698 24.1501 30.491 24.2159C30.5122 24.2818 30.5145 24.3522 30.4976 24.4193Z" fill="black"/>
<path id="Vector_5" d="M24.7397 34.9167C25.0224 34.6819 25.3729 34.5441 25.7397 34.5234H25.7814C26.0347 34.5353 26.2779 34.6264 26.4767 34.7839C26.6197 34.8917 26.7364 35.0306 26.8179 35.1901C26.817 35.1979 26.817 35.2058 26.8179 35.2135L26.8361 35.2604L26.8621 35.3307V35.3568C26.8621 35.3854 26.8778 35.4115 26.883 35.4375V35.4714C26.883 35.4948 26.883 35.5208 26.883 35.5443C26.8818 35.559 26.8818 35.5738 26.883 35.5885C26.883 35.6172 26.883 35.6484 26.883 35.6823V35.6953C26.883 36.4609 26.2528 37.3724 25.5653 37.9609C25.3412 38.1457 25.1026 38.3121 24.8517 38.4583C24.8259 38.4732 24.7963 38.4802 24.7665 38.4786C24.7367 38.4769 24.7081 38.4666 24.6841 38.4489C24.6601 38.4312 24.6417 38.407 24.6312 38.379C24.6208 38.3511 24.6187 38.3208 24.6252 38.2917L24.9819 36.6068C24.9912 36.5699 24.9923 36.5314 24.9851 36.4941C24.9779 36.4567 24.9626 36.4214 24.9403 36.3906C24.9041 36.3449 24.8537 36.3126 24.7971 36.2989C24.7404 36.2852 24.6808 36.2909 24.6278 36.3151L24.1929 36.5286C24.4845 35.5026 24.5913 35.1328 24.6252 34.987C24.6381 34.9677 24.655 34.9515 24.6748 34.9393C24.6946 34.9272 24.7167 34.9195 24.7397 34.9167Z" fill="black"/>
<path id="Vector_6" d="M22.9399 34.5234C23.3596 34.553 23.7562 34.7269 24.0623 35.0156C24.0849 35.0346 24.1016 35.0596 24.1104 35.0878C24.1192 35.1159 24.1196 35.146 24.1118 35.1745C23.9841 35.6172 23.7602 36.4062 23.5909 36.9479C23.575 37.0094 23.5821 37.0745 23.6109 37.1311C23.6397 37.1877 23.6881 37.2318 23.7472 37.2552C23.7815 37.2675 23.818 37.2725 23.8543 37.2698C23.8906 37.2671 23.926 37.2568 23.9581 37.2396L24.4347 37.0104L24.13 38.4531C24.1248 38.4764 24.1143 38.4982 24.0993 38.5167C24.0843 38.5353 24.0651 38.5501 24.0434 38.5599C24.0217 38.5698 23.9979 38.5744 23.9741 38.5735C23.9503 38.5726 23.9269 38.5662 23.906 38.5547C23.6033 38.3878 23.3165 38.1934 23.0493 37.974C22.3591 37.3854 21.7263 36.474 21.7315 35.7083V35.6953C21.7288 35.6641 21.7288 35.6328 21.7315 35.6016C21.7301 35.5868 21.7301 35.572 21.7315 35.5573C21.7303 35.533 21.7303 35.5087 21.7315 35.4844C21.7306 35.4731 21.7306 35.4618 21.7315 35.4505C21.7315 35.4245 21.7315 35.3984 21.7524 35.3698C21.7516 35.3611 21.7516 35.3524 21.7524 35.3437C21.7524 35.3203 21.7706 35.2969 21.7784 35.2734L21.7966 35.2266V35.2031C21.8763 35.0432 21.9922 34.904 22.1352 34.7969C22.3349 34.6392 22.579 34.5481 22.8331 34.5365H22.8852L22.9399 34.5234Z" fill="black"/>
<path id="Vector_7" d="M16.1457 10.0957C18.0389 12.4395 18.7212 18.9499 16.0701 23.9603C12.8332 30.0983 9.2264 31.2493 7.36442 31.3691C6.38797 31.4688 5.40334 31.2881 4.52588 30.8483L16.1457 10.0957Z" fill="white"/>
</g>
</svg>
