<svg width="60" height="60" viewBox="0 0 60 60" fill="none" xmlns="http://www.w3.org/2000/svg">
<g id="saro_bright_cloud_dark">
<path id="Vector" d="M51.2843 30.2911C51.6718 30.2723 52.0906 30.2411 52.5343 30.1911C52.9712 30.147 53.4053 30.0782 53.8343 29.9848C54.2247 29.9112 54.6039 29.7873 54.9625 29.6161C55.0691 29.5662 55.1672 29.4997 55.2531 29.4192C55.2937 29.3723 55.2999 29.3661 55.3062 29.3661C55.3031 29.3773 55.3031 29.3892 55.3062 29.4005V29.3505V29.2911C55.3078 29.2693 55.3078 29.2473 55.3062 29.2255C55.3029 29.2016 55.3029 29.1774 55.3062 29.1536C55.2859 29.0254 55.2436 28.9017 55.1812 28.788C54.9866 28.4539 54.7409 28.1524 54.4531 27.8942C54.1326 27.6034 53.7933 27.3341 53.4375 27.088C53.0656 26.8411 52.725 26.6317 52.3937 26.413C51.8462 26.0563 51.3183 25.6703 50.8125 25.2567C50.6218 25.0973 50.475 24.9598 50.3718 24.8661C50.2687 24.7723 50.2218 24.7161 50.2218 24.7161C50.1735 24.6675 50.1465 24.6018 50.1465 24.5333C50.1465 24.4648 50.1735 24.3991 50.2218 24.3505C50.2567 24.3182 50.3001 24.2965 50.3468 24.288C50.6213 24.2405 50.8996 24.2195 51.1781 24.2255C51.8848 24.2416 52.5851 24.3627 53.2562 24.5848C53.4343 24.6411 53.6218 24.713 53.8125 24.7911C53.9625 24.2047 53.9625 23.59 53.8125 23.0036C53.5412 22.1064 53.0301 21.3003 52.3343 20.6723L52.2968 20.7692C52.1961 20.9886 52.0747 21.1979 51.9343 21.3942C51.8997 21.4422 51.848 21.4751 51.7899 21.4862C51.7318 21.4972 51.6716 21.4856 51.6218 21.4536C51.5778 21.4239 51.5457 21.3796 51.5312 21.3286C51.4625 21.0973 51.4062 20.8755 51.3562 20.6598L51.1937 20.0348C51.0906 19.6255 50.9843 19.238 50.8656 18.8692C50.8375 18.7786 50.8093 18.688 50.7781 18.5973L50.6843 18.3348C50.6156 18.1505 50.5343 17.9911 50.4656 17.8192L50.4125 17.6911L50.3437 17.5723L50.2124 17.3348C50.1233 17.179 50.0263 17.0278 49.9218 16.8817C49.8312 16.7255 49.6937 16.6005 49.5906 16.4567C49.4875 16.313 49.3406 16.1942 49.225 16.0598C49.1093 15.9255 48.9593 15.813 48.825 15.688C48.6906 15.563 48.5468 15.4505 48.3906 15.3473C48.2343 15.2442 48.0937 15.1286 47.9343 15.0348C47.775 14.9411 47.6218 14.838 47.4562 14.7411C47.2906 14.6442 47.1437 14.5536 46.9625 14.4661L46.7156 14.3442C46.6406 14.3067 46.5406 14.263 46.5062 14.238L46.0875 13.9473C45.9758 13.8693 45.8809 13.7696 45.8084 13.6542C45.736 13.5388 45.6874 13.41 45.6656 13.2755L45.5562 12.5567C45.5187 12.3192 45.4687 12.0848 45.4281 11.8473C45.3343 11.3786 45.2281 10.9098 45.1156 10.4536C45.0562 10.2255 44.9843 10.0005 44.9187 9.77547C44.8531 9.55047 44.775 9.33172 44.6968 9.11297C44.5403 8.68597 44.3588 8.26858 44.1531 7.86297C43.9489 7.46423 43.7094 7.08459 43.4375 6.72859C43.1915 6.39639 42.9084 6.09338 42.5937 5.82547C41.9954 5.30895 41.2566 4.98254 40.4718 4.88797C39.6242 4.80767 38.769 4.89691 37.9562 5.15047C37.073 5.42416 36.2222 5.79299 35.4187 6.25047C34.584 6.7176 33.7812 7.23958 33.0156 7.81297C32.6281 8.0963 32.2489 8.39214 31.8781 8.70047C31.5375 8.98484 31.1906 9.28797 30.8843 9.57547C30.8843 9.57547 30.8656 9.60359 30.8531 9.61609C30.6794 9.79589 30.4527 9.91527 30.2062 9.95672H30.1406C30.0476 9.97339 29.9523 9.97339 29.8593 9.95672H29.7937C29.5472 9.91527 29.3205 9.79589 29.1468 9.61609C29.1468 9.61609 29.1281 9.58797 29.1156 9.57547C28.8031 9.28797 28.4625 8.98484 28.1218 8.70047C27.7812 8.41609 27.3718 8.09734 26.9843 7.81297C26.2187 7.23958 25.4159 6.7176 24.5812 6.25047C23.7756 5.80141 22.9238 5.44097 22.0406 5.17547C21.2278 4.92191 20.3726 4.83267 19.525 4.91297C18.7402 5.00754 18.0014 5.33395 17.4031 5.85047C17.0909 6.11076 16.8089 6.40532 16.5625 6.72859C16.3023 7.08043 16.0723 7.45363 15.875 7.84422C15.6693 8.24983 15.4877 8.66722 15.3312 9.09422C15.2531 9.31297 15.1812 9.53484 15.1093 9.75672C15.0375 9.97859 14.9718 10.2067 14.9125 10.4348C14.7937 10.8942 14.6875 11.3723 14.6 11.8286C14.5593 12.0661 14.5093 12.3005 14.4718 12.538L14.3625 13.2567C14.341 13.391 14.2929 13.5196 14.221 13.635C14.1491 13.7504 14.0548 13.8502 13.9437 13.9286L13.5218 14.2192C13.4875 14.2442 13.3875 14.288 13.3125 14.3255L13.0656 14.4473C12.9 14.5348 12.7343 14.6286 12.5718 14.7223C12.4093 14.8161 12.2593 14.9098 12.0937 15.0161C11.9281 15.1223 11.7812 15.2255 11.6375 15.3286C11.4937 15.4317 11.35 15.5567 11.2031 15.6692C11.0562 15.7817 10.9375 15.938 10.7968 16.0536C10.6562 16.1692 10.5406 16.3098 10.4312 16.4505C10.3218 16.5911 10.1906 16.7192 10.1 16.8755C9.99548 17.0215 9.89848 17.1727 9.80933 17.3286L9.67808 17.5661L9.60933 17.6848L9.5562 17.813C9.48745 17.9848 9.4062 18.1442 9.33745 18.3286L9.2437 18.5911C9.21245 18.6817 9.18433 18.7723 9.1562 18.863C9.03745 19.2317 8.9312 19.6192 8.82808 20.0286L8.66558 20.6536C8.61558 20.8692 8.55933 21.0911 8.49058 21.3223C8.48235 21.3517 8.4683 21.3791 8.44929 21.403C8.43027 21.4269 8.40665 21.4467 8.37985 21.4612C8.35304 21.4758 8.32359 21.4848 8.29322 21.4878C8.26286 21.4908 8.23221 21.4877 8.20308 21.4786C8.15178 21.4646 8.10735 21.4324 8.07808 21.388C7.93767 21.1916 7.81629 20.9823 7.71558 20.763L7.67808 20.6661C6.98229 21.2941 6.4712 22.1002 6.19995 22.9973C6.04995 23.5837 6.04995 24.1985 6.19995 24.7848C6.39058 24.7067 6.57808 24.6348 6.7562 24.5786C7.42726 24.3564 8.12763 24.2353 8.83433 24.2192C9.11278 24.2133 9.39115 24.2342 9.66558 24.2817C9.69985 24.2879 9.73247 24.3011 9.7614 24.3205C9.79033 24.3399 9.81495 24.365 9.83373 24.3944C9.8525 24.4237 9.86502 24.4566 9.8705 24.491C9.87598 24.5254 9.8743 24.5605 9.86558 24.5942C9.85705 24.641 9.83537 24.6843 9.80308 24.7192C9.80308 24.7192 9.75308 24.7723 9.65308 24.8692C9.55308 24.9661 9.40308 25.1005 9.21245 25.2598C8.70656 25.6734 8.17871 26.0594 7.6312 26.4161C7.29995 26.6348 6.95933 26.8442 6.58745 27.0911C6.23077 27.3341 5.89045 27.6003 5.5687 27.888C5.2809 28.1461 5.03523 28.4477 4.84058 28.7817C4.77814 28.8955 4.73585 29.0192 4.71558 29.1473C4.71884 29.1712 4.71884 29.1954 4.71558 29.2192C4.71395 29.2411 4.71395 29.263 4.71558 29.2848V29.3442V29.3942C4.71863 29.383 4.71863 29.3711 4.71558 29.3598C4.71558 29.3598 4.71558 29.3598 4.7687 29.413C4.85462 29.4935 4.9527 29.5599 5.05933 29.6098C5.41382 29.7878 5.78986 29.9191 6.17808 30.0005C6.60716 30.0938 7.04119 30.1627 7.47808 30.2067C7.90933 30.2567 8.32808 30.288 8.72808 30.3067H9.01245L9.29058 30.3317C9.46558 30.3536 9.64058 30.3786 9.79995 30.413C10.0916 30.4746 10.3779 30.5592 10.6562 30.6661C10.9297 30.7714 11.1906 30.9066 11.4343 31.0692C11.5078 31.1225 11.5573 31.2026 11.5719 31.2922C11.5866 31.3818 11.5652 31.4735 11.5125 31.5473L11.4906 31.5755C11.4906 31.5755 11.4281 31.6442 11.3093 31.7505C11.1434 31.8938 10.9645 32.0214 10.775 32.1317C10.6593 32.1973 10.5343 32.2598 10.3968 32.3223C10.5 32.8661 10.7343 33.6348 11.2437 34.0161L11.275 33.9786C11.2959 33.9502 11.3232 33.9271 11.3546 33.9111C11.3861 33.8952 11.4209 33.8869 11.4562 33.8869C11.4915 33.8869 11.5263 33.8952 11.5578 33.9111C11.5892 33.9271 11.6165 33.9502 11.6375 33.9786C11.6605 34.0094 11.6814 34.0418 11.7 34.0755C11.7437 34.138 11.7875 34.2317 11.8562 34.3473C11.925 34.463 11.9937 34.5598 12.0781 34.6973L12.35 35.1255L12.6625 35.5911L12.9968 36.0817C13.1144 36.2544 13.2417 36.4203 13.3781 36.5786C13.5156 36.7442 13.6687 36.8911 13.8218 37.0598C13.975 37.2286 14.1343 37.3723 14.3062 37.5036C14.4781 37.6348 14.6375 37.7786 14.8031 37.9005C14.9187 37.9848 15.0281 38.063 15.1375 38.1348C15.1187 37.9848 15.1093 37.8598 15.1062 37.7567C15.0983 37.684 15.0983 37.6107 15.1062 37.538V37.5161C15.1107 37.4916 15.12 37.4682 15.1337 37.4473C15.1473 37.4264 15.165 37.4085 15.1856 37.3945C15.2063 37.3805 15.2295 37.3708 15.254 37.3659C15.2785 37.3611 15.3036 37.3611 15.3281 37.3661C15.3647 37.3724 15.3986 37.3899 15.425 37.4161C15.4756 37.4647 15.5288 37.5106 15.5843 37.5536C15.675 37.6348 15.8312 37.7598 16.0031 37.913C16.175 38.0661 16.3937 38.2473 16.6281 38.4473L16.8062 38.6067L17.0062 38.7661C17.1406 38.8723 17.2718 38.9942 17.4156 39.113C17.7281 39.3411 18 39.613 18.3531 39.863C18.7073 40.1376 19.0766 40.3922 19.4593 40.6255C19.6531 40.7505 19.8718 40.8473 20.0843 40.963C20.2927 41.0795 20.5076 41.1838 20.7281 41.2755C21.1769 41.4819 21.6358 41.6654 22.1031 41.8255L22.8125 42.0598C22.9282 42.1047 23.0473 42.1402 23.1687 42.1661L23.5312 42.2567C23.9975 42.3888 24.4713 42.4931 24.95 42.5692L25.6375 42.6942C25.856 42.7421 26.0772 42.7765 26.3 42.7973C26.7375 42.838 27.15 42.888 27.5281 42.9317C27.7218 42.9536 27.9 42.9848 28.0781 42.9911L28.5781 43.0161L29.3906 43.063L30.0156 43.1098L30.6406 43.063L31.4531 43.0161L31.9531 42.9911C32.1312 42.9911 32.3093 42.9536 32.5031 42.9317C32.8812 42.888 33.2937 42.838 33.7312 42.7973C33.9539 42.7765 34.1752 42.7421 34.3937 42.6942L35.0812 42.5692C35.5599 42.4931 36.0336 42.3888 36.5 42.2567L36.8625 42.1661C36.984 42.1406 37.1031 42.1051 37.2187 42.0598L37.9281 41.8255C38.3954 41.6654 38.8543 41.4819 39.3031 41.2755C39.5235 41.1838 39.7385 41.0795 39.9468 40.963C40.1531 40.8473 40.3718 40.7505 40.5718 40.6255C40.9509 40.3969 41.3171 40.1476 41.6687 39.8786C42.0125 39.6286 42.2937 39.3567 42.6062 39.1286C42.7531 39.0098 42.8812 38.888 43.0156 38.7817L43.2156 38.6223L43.3937 38.463C43.6375 38.263 43.8406 38.0786 44.0187 37.9286C44.1968 37.7786 44.3468 37.6505 44.4375 37.5692C44.493 37.5263 44.5462 37.4804 44.5968 37.4317C44.6325 37.3962 44.6809 37.3763 44.7312 37.3763C44.7816 37.3763 44.8299 37.3962 44.8656 37.4317C44.8923 37.4577 44.9099 37.4917 44.9156 37.5286V37.5505C44.9235 37.6232 44.9235 37.6965 44.9156 37.7692C44.9156 37.8723 44.9156 37.9973 44.8843 38.1473C44.9937 38.0755 45.1031 37.9973 45.2187 37.913C45.3843 37.7911 45.5499 37.6536 45.7156 37.5161C45.8812 37.3786 46.0468 37.2286 46.2 37.0723C46.3531 36.9161 46.5125 36.7598 46.6437 36.5911C46.7801 36.4328 46.9073 36.2669 47.025 36.0942L47.3593 35.6036L47.6718 35.138L47.9437 34.7098C48.0281 34.5723 48.1062 34.4567 48.1656 34.3598C48.225 34.263 48.2812 34.1505 48.3218 34.088C48.3404 34.0543 48.3613 34.0219 48.3843 33.9911C48.4207 33.9451 48.4733 33.9147 48.5313 33.906C48.5893 33.8973 48.6485 33.9109 48.6968 33.9442C48.7126 33.9553 48.7264 33.969 48.7375 33.9848L48.7656 34.0223C49.275 33.638 49.5125 32.8723 49.6156 32.3286C49.4781 32.2661 49.3531 32.2036 49.2374 32.138C49.0479 32.0277 48.869 31.9 48.7031 31.7567C48.5843 31.6505 48.5218 31.5817 48.5218 31.5817C48.4615 31.5137 48.4306 31.4245 48.4359 31.3337C48.4411 31.2429 48.4821 31.1579 48.55 31.0973L48.5781 31.0755C48.8218 30.9128 49.0828 30.7776 49.3562 30.6723C49.6345 30.5655 49.9208 30.4808 50.2124 30.4192C50.3718 30.3848 50.5468 30.3598 50.7218 30.338L51 30.313L51.2843 30.2911ZM15.5843 33.6067C14.4468 33.6067 13.525 33.1348 13.525 32.5536C13.525 31.9723 14.4468 31.4973 15.5843 31.4973C16.7218 31.4973 17.6468 31.9692 17.6468 32.5536C17.6468 33.138 16.7218 33.6067 15.5843 33.6067ZM21.3468 32.7442C19.5437 32.7442 18.0843 28.9692 18.0843 24.3067C18.0843 19.6442 19.5437 15.8692 21.3468 15.8692C23.15 15.8692 24.6125 19.6442 24.6125 24.3067C24.6125 28.9692 23.15 32.7442 21.3468 32.7442ZM38.5718 32.7442C36.7687 32.7442 35.3093 28.9692 35.3093 24.3067C35.3093 19.6442 36.7687 15.8692 38.5718 15.8692C40.375 15.8692 41.8375 19.6442 41.8375 24.3067C41.8375 28.9692 40.375 32.7442 38.5718 32.7442ZM44.3343 33.6067C43.1968 33.6067 42.275 33.1348 42.275 32.5536C42.275 31.9723 43.1968 31.4973 44.3343 31.4973C45.4718 31.4973 46.3937 31.9692 46.3937 32.5536C46.3937 33.138 45.4718 33.6067 44.3343 33.6067Z" fill="white"/>
<path id="Vector_2" d="M57.9939 29.3752V29.222C57.9859 28.9963 57.9534 28.7721 57.8971 28.5533C57.7895 28.1546 57.6186 27.7758 57.3908 27.4314C57.0109 26.8782 56.5358 26.3968 55.9877 26.0095L55.9064 25.9377C56.3447 24.7191 56.3765 23.3914 55.9971 22.1533C55.4093 20.4346 54.2443 18.9725 52.7002 18.0158C52.7002 17.947 52.6814 17.8845 52.6752 17.8345C52.6408 17.5877 52.5658 17.3345 52.5096 17.0845L52.4627 16.897L52.3971 16.7127L52.2596 16.347C52.1664 16.1029 52.0557 15.8658 51.9283 15.6377L51.8346 15.4627L51.7314 15.297L51.5158 14.9689C51.3689 14.7502 51.2033 14.5564 51.0346 14.3439C50.8658 14.1314 50.6814 13.9658 50.4939 13.7877C50.3064 13.6095 50.1096 13.4408 49.9002 13.2939L49.5877 13.0689L49.2752 12.8627C49.1689 12.7939 49.0596 12.7314 48.9627 12.672C48.8658 12.6127 48.7408 12.547 48.6252 12.497L48.2814 12.3377L47.9283 12.197L47.8721 12.1752V12.1502C47.8314 11.8908 47.7783 11.6314 47.7314 11.3752C47.6314 10.8564 47.5137 10.3356 47.3783 9.81267C47.3096 9.5533 47.2283 9.29705 47.1564 9.0408C47.0846 8.78455 46.9877 8.5283 46.8939 8.27205C46.7066 7.7538 46.4875 7.24763 46.2377 6.75642C45.972 6.24914 45.6625 5.76606 45.3127 5.31267C44.9575 4.83609 44.5497 4.40106 44.0971 4.0158C43.1503 3.21694 41.9898 2.71382 40.7596 2.56892C39.6029 2.44869 38.4339 2.5624 37.3221 2.9033C36.2759 3.21705 35.2668 3.64351 34.3127 4.17517C33.3829 4.68522 32.4891 5.25844 31.6377 5.8908C31.2158 6.2033 30.8033 6.5158 30.3877 6.85955L30.0002 7.18767L29.6158 6.87517C29.2096 6.5408 28.7971 6.2158 28.3658 5.90642C27.5144 5.27406 26.6207 4.70084 25.6908 4.1908C24.7367 3.65914 23.7277 3.23268 22.6814 2.91892C21.5696 2.57803 20.4006 2.46431 19.2439 2.58455C18.0137 2.72944 16.8532 3.23257 15.9064 4.03142C15.4536 4.41163 15.0448 4.84139 14.6877 5.31267C14.3482 5.77023 14.0492 6.25643 13.7939 6.7658C13.5394 7.26076 13.3161 7.77113 13.1252 8.29392C13.0314 8.55017 12.9502 8.80642 12.8627 9.06267C12.7752 9.31892 12.7096 9.57517 12.6408 9.83455C12.5054 10.3491 12.3877 10.87 12.2877 11.397C12.2408 11.6533 12.1877 11.9127 12.1471 12.172V12.1877L12.0877 12.2095L11.7346 12.3502L11.3908 12.5095C11.2752 12.5595 11.1658 12.6252 11.0533 12.6845C10.9408 12.7439 10.8314 12.8064 10.7408 12.8752L10.4283 13.0814L10.1158 13.3064C9.90645 13.4533 9.71895 13.6189 9.52207 13.8002C9.32519 13.9814 9.15645 14.1658 8.98145 14.3564C8.80645 14.547 8.64707 14.7564 8.5002 14.9814L8.26894 15.3127L8.16582 15.4783L8.07207 15.6533C7.94469 15.8815 7.83399 16.1185 7.74082 16.3627L7.60332 16.7283L7.5377 16.9127L7.49082 17.1002C7.43457 17.3502 7.35957 17.6033 7.3252 17.8502C7.3252 17.9002 7.30957 17.9627 7.3002 18.0314C5.75838 18.985 4.59364 20.4423 4.00332 22.1564C3.62462 23.3936 3.65641 24.7201 4.09395 25.9377L4.01895 25.9908C3.47084 26.3781 2.99578 26.8595 2.61582 27.4127C2.38805 27.7571 2.21712 28.1359 2.10957 28.5345C2.0532 28.7533 2.02072 28.9775 2.0127 29.2033V29.3752C2.0127 29.3127 2.0127 29.4689 2.0127 29.4533V29.5564V29.6095C2.0127 29.6095 2.0127 29.6314 2.0127 29.6533V29.7127C2.0127 29.7908 2.0377 29.8689 2.05332 29.947C2.1605 30.4612 2.41073 30.9346 2.7752 31.3127C3.07354 31.6154 3.41988 31.8667 3.8002 32.0564C4.39389 32.3364 5.02572 32.527 5.6752 32.622C6.4627 32.7334 7.25856 32.7741 8.05332 32.7439C8.3127 34.1345 9.08144 35.8689 10.8033 36.4252C10.8033 36.5064 10.8377 36.5877 10.8564 36.6689C10.9002 36.8064 10.9408 36.9502 10.9939 37.0877C11.1049 37.3714 11.2354 37.647 11.3846 37.9127C11.5363 38.1861 11.7076 38.4482 11.8971 38.697C12.5927 39.6246 13.5089 40.3636 14.5627 40.847C14.7777 40.9417 14.9991 41.021 15.2252 41.0845C15.4303 41.1387 15.6393 41.1773 15.8502 41.2002C16.0196 41.2159 16.1901 41.2159 16.3596 41.2002C16.5064 41.1845 16.5846 41.1689 16.5846 41.1689L16.6533 41.1502C16.7502 41.2564 16.8533 41.3627 16.9658 41.4627C17.3446 41.8335 17.7464 42.1801 18.1689 42.5002C18.3846 42.672 18.6252 42.8127 18.8564 42.9814C19.0895 43.1483 19.3327 43.3007 19.5846 43.4377C20.0883 43.7311 20.6102 43.992 21.1471 44.2189L21.9564 44.5564C22.0884 44.6136 22.2241 44.6617 22.3627 44.7002L22.7752 44.8252C23.2993 45.0062 23.8336 45.1564 24.3752 45.2752L25.1533 45.4283C25.3999 45.4846 25.6492 45.5284 25.9002 45.5595C26.3877 45.6189 26.8377 45.6627 27.2721 45.7033C27.4846 45.722 27.6908 45.7533 27.8814 45.7564H28.4314H29.3221H29.9939H30.6658H31.5564H32.1064C32.2971 45.7564 32.5033 45.722 32.7158 45.7033C33.1408 45.6627 33.6002 45.6189 34.0877 45.5595C34.3387 45.5287 34.588 45.4849 34.8346 45.4283L35.6127 45.2752C36.1573 45.1599 36.6947 45.0127 37.2221 44.8345L37.6346 44.7095C37.7731 44.671 37.9089 44.623 38.0408 44.5658L38.8502 44.2283C39.3871 44.0014 39.909 43.7404 40.4127 43.447C40.6646 43.3091 40.9078 43.1556 41.1408 42.9877C41.3721 42.822 41.6127 42.6752 41.8283 42.5064C42.2503 42.1812 42.6511 41.8294 43.0283 41.4533C43.1377 41.3533 43.2408 41.247 43.3408 41.1408L43.4096 41.1595C43.4096 41.1595 43.4877 41.1595 43.6346 41.1908C43.804 41.2065 43.9745 41.2065 44.1439 41.1908C44.3549 41.168 44.5638 41.1293 44.7689 41.0752C44.9951 41.0117 45.2165 40.9323 45.4314 40.8377C46.4852 40.3542 47.4015 39.6152 48.0971 38.6877C48.2865 38.4389 48.4578 38.1767 48.6096 37.9033C48.7587 37.6377 48.8892 37.362 49.0002 37.0783C49.0533 36.9408 49.0939 36.797 49.1377 36.6595C49.1564 36.5783 49.1752 36.497 49.1908 36.4158C50.9127 35.847 51.6908 34.1252 51.9408 32.7345C52.7356 32.7648 53.5314 32.724 54.3189 32.6127C54.9684 32.5176 55.6003 32.327 56.1939 32.047C56.5743 31.8573 56.9206 31.606 57.2189 31.3033C57.5834 30.9248 57.8346 30.4517 57.9439 29.9377L57.9814 29.7033V29.6439C57.9814 29.622 57.9814 29.6033 57.9814 29.6002V29.547V29.4439C57.9814 29.4439 57.9971 29.297 57.9939 29.3752ZM50.2127 30.4252C49.921 30.4868 49.6347 30.5714 49.3564 30.6783C49.083 30.7836 48.822 30.9188 48.5783 31.0814L48.5502 31.1033C48.4824 31.1639 48.4414 31.2489 48.4361 31.3397C48.4308 31.4305 48.4617 31.5196 48.5221 31.5877C48.5221 31.5877 48.5846 31.6564 48.7033 31.7627C48.8693 31.906 49.0482 32.0336 49.2377 32.1439C49.3533 32.2095 49.4783 32.272 49.6158 32.3345C49.5127 32.8783 49.2752 33.6439 48.7658 34.0283L48.7377 33.9908C48.7266 33.975 48.7129 33.9612 48.6971 33.9502C48.6488 33.9169 48.5896 33.9032 48.5316 33.9119C48.4735 33.9206 48.421 33.951 48.3846 33.997C48.3615 34.0278 48.3406 34.0602 48.3221 34.0939C48.2814 34.1564 48.2346 34.2502 48.1658 34.3658C48.0971 34.4814 48.0283 34.5783 47.9439 34.7158L47.6721 35.1439L47.3596 35.6095L47.0252 36.1002C46.9076 36.2729 46.7803 36.4388 46.6439 36.597C46.5064 36.7627 46.3533 36.9095 46.2002 37.0783C46.0471 37.247 45.8877 37.3908 45.7158 37.522C45.5439 37.6533 45.3846 37.797 45.2189 37.9189C45.1033 38.0033 44.9939 38.0814 44.8846 38.1533C44.9033 38.0033 44.9127 37.8783 44.9158 37.7752C44.9237 37.7025 44.9237 37.6291 44.9158 37.5564V37.5345C44.9101 37.4977 44.8926 37.4637 44.8658 37.4377C44.8301 37.4022 44.7818 37.3823 44.7314 37.3823C44.6811 37.3823 44.6328 37.4022 44.5971 37.4377C44.5464 37.4863 44.4932 37.5322 44.4377 37.5752C44.3471 37.6564 44.1908 37.7814 44.0189 37.9345C43.8471 38.0877 43.6283 38.2689 43.3939 38.4689L43.2158 38.6283L43.0158 38.7877C42.8814 38.8939 42.7533 39.0158 42.6064 39.1345C42.2939 39.3627 42.0221 39.6345 41.6689 39.8845C41.3174 40.1535 40.9512 40.4029 40.5721 40.6314C40.3783 40.7564 40.1596 40.8533 39.9471 40.9689C39.7387 41.0854 39.5238 41.1898 39.3033 41.2814C38.8545 41.4878 38.3956 41.6714 37.9283 41.8314L37.2189 42.0658C37.1034 42.111 36.9842 42.1466 36.8627 42.172L36.5002 42.2627C36.0339 42.3947 35.5601 42.4991 35.0814 42.5752L34.3939 42.7002C34.1754 42.748 33.9542 42.7825 33.7314 42.8033C33.2939 42.8439 32.8814 42.8939 32.5033 42.9377C32.3096 42.9595 32.1314 42.9908 31.9533 42.997L31.4533 43.022L30.6408 43.0689L30.0002 43.1252L29.3752 43.0783L28.5627 43.0314L28.0627 43.0064C27.8846 43.0064 27.7064 42.9689 27.5127 42.947C27.1346 42.9033 26.7221 42.8533 26.2846 42.8127C26.0618 42.7918 25.8406 42.7574 25.6221 42.7095L24.9346 42.5845C24.4559 42.5085 23.9822 42.4041 23.5158 42.272L23.1627 42.1877C23.0413 42.1618 22.9222 42.1263 22.8064 42.0814L22.0971 41.847C21.6298 41.687 21.1708 41.5034 20.7221 41.297C20.5016 41.2054 20.2867 41.1011 20.0783 40.9845C19.8721 40.8689 19.6533 40.772 19.4533 40.647C19.0742 40.4185 18.708 40.1692 18.3564 39.9002C18.0127 39.6502 17.7314 39.3783 17.4189 39.1502C17.2752 39.0314 17.1439 38.9095 17.0096 38.8033L16.8096 38.6439L16.6314 38.4845C16.3877 38.2845 16.1846 38.1002 16.0064 37.9502C15.8283 37.8002 15.6783 37.672 15.5877 37.5908C15.5322 37.5478 15.479 37.5019 15.4283 37.4533C15.4019 37.4271 15.3681 37.4096 15.3314 37.4033C15.307 37.3983 15.2818 37.3983 15.2574 37.4031C15.2329 37.408 15.2097 37.4177 15.189 37.4317C15.1683 37.4457 15.1507 37.4636 15.137 37.4845C15.1234 37.5054 15.1141 37.5288 15.1096 37.5533V37.5752C15.1017 37.6479 15.1017 37.7212 15.1096 37.7939C15.1096 37.897 15.1096 38.022 15.1408 38.172C15.0314 38.1002 14.9221 38.022 14.8064 37.9377C14.6408 37.8158 14.4752 37.6783 14.3096 37.5408C14.1439 37.4033 13.9783 37.2533 13.8252 37.097C13.6721 36.9408 13.5127 36.7845 13.3814 36.6158C13.2451 36.4575 13.1178 36.2916 13.0002 36.1189L12.6658 35.6283L12.3533 35.1627L12.0814 34.7345C11.9971 34.597 11.9189 34.4814 11.8596 34.3845C11.8002 34.2877 11.7471 34.1752 11.7033 34.1127C11.6848 34.079 11.6639 34.0466 11.6408 34.0158C11.6199 33.9874 11.5926 33.9643 11.5611 33.9483C11.5296 33.9324 11.4949 33.9241 11.4596 33.9241C11.4243 33.9241 11.3895 33.9324 11.358 33.9483C11.3265 33.9643 11.2992 33.9874 11.2783 34.0158L11.2471 34.0533C10.7377 33.672 10.5033 32.9033 10.4002 32.3595C10.5377 32.297 10.6627 32.2345 10.7783 32.1689C10.9678 32.0586 11.1467 31.931 11.3127 31.7877C11.4314 31.6814 11.4939 31.6127 11.4939 31.6127L11.5158 31.5845C11.5686 31.5107 11.5899 31.419 11.5753 31.3294C11.5607 31.2398 11.5112 31.1597 11.4377 31.1064C11.194 30.9438 10.933 30.8086 10.6596 30.7033C10.3813 30.5964 10.095 30.5118 9.80332 30.4502C9.64395 30.4158 9.46895 30.3908 9.29395 30.3689L9.0002 30.3127H8.71582C8.32832 30.2939 7.90957 30.2627 7.46582 30.2127C7.033 30.1661 6.60316 30.0951 6.17832 30.0002C5.78792 29.9266 5.40871 29.8026 5.0502 29.6314C4.94356 29.5815 4.84548 29.5151 4.75957 29.4345C4.72207 29.3877 4.7127 29.3814 4.70645 29.3814C4.7095 29.3927 4.7095 29.4045 4.70645 29.4158V29.3658V29.3064C4.70481 29.2846 4.70481 29.2626 4.70645 29.2408C4.7097 29.2169 4.7097 29.1928 4.70645 29.1689C4.72671 29.0407 4.769 28.917 4.83145 28.8033C5.02609 28.4693 5.27177 28.1677 5.55957 27.9095C5.87552 27.6138 6.21062 27.3393 6.5627 27.0877C6.93457 26.8408 7.2752 26.6314 7.60645 26.4127C8.15395 26.056 8.68181 25.67 9.1877 25.2564C9.37832 25.097 9.5252 24.9595 9.62832 24.8658C9.73144 24.772 9.77832 24.7158 9.77832 24.7158C9.81061 24.6809 9.83229 24.6376 9.84082 24.5908C9.84954 24.5571 9.85122 24.5219 9.84574 24.4875C9.84026 24.4532 9.82774 24.4203 9.80897 24.3909C9.7902 24.3616 9.76557 24.3365 9.73664 24.3171C9.70771 24.2977 9.67509 24.2845 9.64082 24.2783C9.36639 24.2308 9.08802 24.2099 8.80957 24.2158C8.10287 24.2319 7.4025 24.353 6.73145 24.5752C6.55332 24.6314 6.36582 24.7033 6.1752 24.7814C6.02519 24.195 6.02519 23.5803 6.1752 22.9939C6.44644 22.0967 6.95753 21.2907 7.65332 20.6627L7.69082 20.7595C7.79153 20.9789 7.91291 21.1882 8.05332 21.3845C8.08259 21.4289 8.12702 21.4612 8.17832 21.4752C8.20745 21.4842 8.2381 21.4874 8.26847 21.4844C8.29883 21.4814 8.32828 21.4724 8.35509 21.4578C8.3819 21.4432 8.40551 21.4234 8.42453 21.3996C8.44355 21.3757 8.45759 21.3483 8.46582 21.3189C8.53457 21.0877 8.59082 20.8658 8.64082 20.6502L8.80332 20.0252C8.90645 19.6158 9.01269 19.2283 9.13144 18.8595C9.15957 18.7689 9.1877 18.6783 9.21895 18.5877L9.3127 18.3252C9.38144 18.1408 9.4627 17.9814 9.53145 17.8095L9.58457 17.6814L9.65332 17.5627L9.78457 17.3252C9.88194 17.1698 9.98729 17.0196 10.1002 16.8752C10.1908 16.7189 10.3283 16.5939 10.4314 16.4502C10.5346 16.3064 10.6814 16.1877 10.7971 16.0533C10.9127 15.9189 11.0627 15.8064 11.1971 15.6814C11.3314 15.5564 11.4752 15.4439 11.6314 15.3408C11.7877 15.2377 11.9439 15.122 12.0877 15.0283C12.2314 14.9345 12.4002 14.8314 12.5658 14.7345C12.7314 14.6377 12.8783 14.547 13.0596 14.4595L13.3064 14.3377C13.3814 14.3002 13.4814 14.2564 13.5158 14.2314L13.9377 13.9408C14.0488 13.8624 14.1431 13.7626 14.215 13.6472C14.2869 13.5318 14.335 13.4032 14.3564 13.2689L14.4658 12.5502C14.5033 12.3127 14.5533 12.0783 14.5939 11.8408C14.6877 11.372 14.7939 10.9033 14.9064 10.447C14.9658 10.2189 15.0377 9.99392 15.1033 9.76892C15.1689 9.54392 15.2471 9.32517 15.3252 9.10642C15.4817 8.67942 15.6633 8.26203 15.8689 7.85642C16.0676 7.4613 16.2997 7.08389 16.5627 6.7283C16.8086 6.3961 17.0917 6.09309 17.4064 5.82517C18.0048 5.30865 18.7435 4.98225 19.5283 4.88767C20.376 4.80738 21.2311 4.89661 22.0439 5.15017C22.9271 5.42386 23.7779 5.79269 24.5814 6.25017C25.4161 6.71731 26.219 7.23929 26.9846 7.81267C27.3721 8.09601 27.7512 8.39184 28.1221 8.70017C28.4627 8.98455 28.8127 9.28767 29.1158 9.57517C29.1158 9.57517 29.1346 9.6033 29.1471 9.6158C29.3207 9.79559 29.5474 9.91498 29.7939 9.95642H29.8596C29.9526 9.9731 30.0478 9.9731 30.1408 9.95642H30.2064C30.4529 9.91498 30.6797 9.79559 30.8533 9.6158C30.8533 9.6158 30.8721 9.58767 30.8846 9.57517C31.1971 9.28767 31.5377 8.98455 31.8783 8.70017C32.2189 8.4158 32.6283 8.09705 33.0158 7.81267C33.7814 7.23929 34.5842 6.71731 35.4189 6.25017C36.2245 5.80112 37.0763 5.44068 37.9596 5.17517C38.7724 4.92161 39.6275 4.83238 40.4752 4.91267C41.26 5.00725 41.9987 5.33365 42.5971 5.85017C42.9118 6.11809 43.1949 6.4211 43.4408 6.7533C43.701 7.10452 43.93 7.47782 44.1252 7.86892C44.3309 8.27453 44.5124 8.69193 44.6689 9.11892C44.7471 9.33767 44.8189 9.55955 44.8908 9.78142C44.9627 10.0033 45.0283 10.2314 45.0877 10.4595C45.2064 10.9189 45.3127 11.397 45.4002 11.8533C45.4408 12.0908 45.4908 12.3252 45.5283 12.5627L45.6377 13.2814C45.6595 13.4159 45.7081 13.5447 45.7805 13.6601C45.853 13.7755 45.9479 13.8752 46.0596 13.9533L46.4783 14.2439C46.5127 14.2689 46.6127 14.3127 46.6877 14.3502L46.9346 14.472C47.1033 14.5595 47.2658 14.6533 47.4283 14.747C47.5908 14.8408 47.7408 14.9345 47.9064 15.0408C48.0721 15.147 48.2189 15.2502 48.3627 15.3533C48.5064 15.4564 48.6502 15.5814 48.7971 15.6939C48.9439 15.8064 49.0658 15.9377 49.1971 16.0658C49.3283 16.1939 49.4533 16.322 49.5627 16.4627C49.6721 16.6033 49.8033 16.7314 49.8939 16.8877C49.9984 17.0337 50.0954 17.1849 50.1846 17.3408L50.3158 17.5783L50.3846 17.697L50.4377 17.8252C50.5064 17.997 50.5877 18.1564 50.6564 18.3408L50.7502 18.6033C50.7814 18.6939 50.8096 18.7845 50.8377 18.8752C50.9564 19.2439 51.0627 19.6314 51.1658 20.0408L51.3283 20.6658C51.3783 20.8814 51.4346 21.1033 51.5033 21.3345C51.5178 21.3856 51.5499 21.4299 51.5939 21.4595C51.6437 21.4915 51.7039 21.5032 51.762 21.4921C51.8202 21.4811 51.8718 21.4482 51.9064 21.4002C52.0469 21.2038 52.1682 20.9945 52.2689 20.7752L52.3064 20.6783C53.0022 21.3063 53.5133 22.1124 53.7846 23.0095C53.9346 23.5959 53.9346 24.2107 53.7846 24.797C53.5939 24.7189 53.4064 24.647 53.2283 24.5908C52.5573 24.3686 51.8569 24.2475 51.1502 24.2314C50.8717 24.2255 50.5934 24.2464 50.3189 24.2939C50.2722 24.3024 50.2288 24.3241 50.1939 24.3564C50.1457 24.405 50.1186 24.4707 50.1186 24.5392C50.1186 24.6077 50.1457 24.6735 50.1939 24.722C50.1939 24.722 50.2439 24.7752 50.3439 24.872C50.4439 24.9689 50.5939 25.1033 50.7846 25.2627C51.2905 25.6763 51.8183 26.0622 52.3658 26.4189C52.6971 26.6377 53.0377 26.847 53.4096 27.0939C53.7663 27.3369 54.1066 27.6031 54.4283 27.8908C54.7161 28.1489 54.9618 28.4505 55.1564 28.7845C55.2189 28.8983 55.2612 29.022 55.2814 29.1502C55.2782 29.174 55.2782 29.1982 55.2814 29.222C55.2831 29.2439 55.2831 29.2658 55.2814 29.2877V29.347V29.397C55.2784 29.3858 55.2784 29.3739 55.2814 29.3627C55.2814 29.3627 55.2814 29.3627 55.2283 29.4158C55.1424 29.4963 55.0443 29.5627 54.9377 29.6127C54.584 29.7893 54.2091 29.9195 53.8221 30.0002C53.393 30.0935 52.959 30.1624 52.5221 30.2064C52.0908 30.2564 51.6721 30.2877 51.2721 30.3064H50.9877L50.7096 30.3314C50.5471 30.3502 50.3721 30.3752 50.2127 30.4095V30.4252Z" fill="black"/>
<path id="Vector_3" d="M38.5721 32.7434C40.3739 32.7434 41.8346 28.9686 41.8346 24.3121C41.8346 19.6557 40.3739 15.8809 38.5721 15.8809C36.7702 15.8809 35.3096 19.6557 35.3096 24.3121C35.3096 28.9686 36.7702 32.7434 38.5721 32.7434Z" fill="black"/>
<path id="Vector_4" d="M44.3343 33.6096C45.4716 33.6096 46.3937 33.1367 46.3937 32.5533C46.3937 31.97 45.4716 31.4971 44.3343 31.4971C43.1969 31.4971 42.2749 31.97 42.2749 32.5533C42.2749 33.1367 43.1969 33.6096 44.3343 33.6096Z" fill="#E29DC5"/>
<path id="Vector_5" d="M21.347 32.7434C23.1488 32.7434 24.6095 28.9686 24.6095 24.3121C24.6095 19.6557 23.1488 15.8809 21.347 15.8809C19.5451 15.8809 18.0845 19.6557 18.0845 24.3121C18.0845 28.9686 19.5451 32.7434 21.347 32.7434Z" fill="black"/>
<path id="Vector_6" d="M15.5843 33.6096C16.7216 33.6096 17.6437 33.1367 17.6437 32.5533C17.6437 31.97 16.7216 31.4971 15.5843 31.4971C14.4469 31.4971 13.5249 31.97 13.5249 32.5533C13.5249 33.1367 14.4469 33.6096 15.5843 33.6096Z" fill="#E29DC5"/>
<path id="Vector_7" d="M26.7936 40.7375V39.375C25.9951 39.036 25.282 38.5237 24.7061 37.875V57.4781H26.7936V40.7375Z" fill="#EA1F27"/>
<path id="Vector_8" d="M28.8846 40.9375V39.9406C28.1638 39.855 27.4595 39.6645 26.7939 39.375V57.4781H28.8846V40.9375Z" fill="#EF6623"/>
<path id="Vector_9" d="M30.9718 40.9373V39.9404C30.279 40.0321 29.5771 40.0321 28.8843 39.9404V57.4717H30.9718V40.9373Z" fill="#FDDC0D"/>
<path id="Vector_10" d="M33.0623 40.7375V39.375C32.3972 39.667 31.6928 39.8597 30.9717 39.9469V57.4781H33.0623V40.7375Z" fill="#7EC687"/>
<path id="Vector_11" d="M33.0625 39.3754V57.4785H35.1531V37.8691C34.576 38.5194 33.862 39.0338 33.0625 39.3754Z" fill="#3A74B7"/>
</g>
</svg>
