<svg width="46" height="46" viewBox="0 0 46 46" fill="none" xmlns="http://www.w3.org/2000/svg">
<g id="saro_mail_dark">
<path id="Vector" d="M17.4893 25.5598C17.7289 26.3001 18.1505 27.3591 19.0753 27.2369C19.5761 27.0979 19.8396 26.6906 20.3882 26.36C20.7677 26.1037 21.1848 25.9081 21.6245 25.7802C22.0561 25.6628 22.5022 25.608 22.9494 25.6173C23.2186 25.6188 23.4767 25.7246 23.6695 25.9124C23.8623 26.1003 23.9747 26.3556 23.983 26.6247C23.9914 26.8938 23.8951 27.1556 23.7144 27.3551C23.5337 27.5546 23.2827 27.6763 23.0141 27.6945C22.0557 27.7136 21.5766 28.1736 20.8075 28.7678C20.3876 29.1039 19.8841 29.3194 19.351 29.3911C18.818 29.4629 18.2754 29.3882 17.7816 29.1751C16.8232 28.7678 16.2459 27.7999 16.0686 26.8727C15.983 26.456 15.9596 26.0289 15.9991 25.6053C16.0054 25.5093 16.0309 25.4155 16.0741 25.3296C16.1173 25.2436 16.1773 25.1672 16.2506 25.1049C16.3239 25.0425 16.4089 24.9955 16.5007 24.9667C16.5925 24.9378 16.6891 24.9277 16.7849 24.9369C17.1587 24.9632 17.3479 25.2459 17.4893 25.5478V25.5598Z" fill="#74489D"/>
<path id="Vector_2" d="M29.9336 25.6198C30.1516 27.6563 28.8171 29.6927 26.565 29.41C25.3815 29.307 24.6819 28.1857 23.69 27.8431C23.4397 27.7654 23.1804 27.7204 22.9186 27.709C22.6443 27.6881 22.3894 27.5594 22.2098 27.3511C22.0301 27.1427 21.9404 26.8717 21.9602 26.5973C22.1016 25.3874 23.4169 25.5623 24.3081 25.7947C25.0796 25.9816 25.8798 26.5925 26.4165 27.0285C26.5055 27.1141 26.6127 27.1784 26.7302 27.2166C26.8476 27.2548 26.9722 27.2659 27.0945 27.249C27.8803 27.1747 28.2038 26.2283 28.4457 25.5719L28.5679 25.3323C28.6376 25.1878 28.7537 25.0707 28.8976 24.9998C29.0416 24.9289 29.2051 24.9082 29.3622 24.941C29.5193 24.9737 29.6609 25.0582 29.7644 25.1807C29.868 25.3033 29.9275 25.457 29.9336 25.6174V25.6198Z" fill="#74489D"/>
<path id="Vector_3" d="M7.48202 30.8028C10.5134 30.8028 12.9709 29.551 12.9709 28.0069C12.9709 26.4627 10.5134 25.2109 7.48202 25.2109C4.45061 25.2109 1.99316 26.4627 1.99316 28.0069C1.99316 29.551 4.45061 30.8028 7.48202 30.8028Z" fill="#F17BB0"/>
<path id="Vector_4" d="M14.2888 19.7071C13.8288 18.8159 12.674 17.6683 11.1191 16.7459L10.9969 16.674L10.8149 16.5662C8.4885 15.1862 6.14777 14.8388 5.69256 15.6078C5.23736 16.3769 6.67006 18.2624 8.99642 19.64C9.03715 19.6664 9.08027 19.6903 9.11861 19.7119L9.30069 19.8197C9.49475 19.9371 9.69121 20.0449 9.88527 20.1456C9.68163 20.2294 9.47798 20.3205 9.27194 20.4187L9.08267 20.5097L8.95329 20.5696C6.51194 21.7244 4.91631 23.4806 5.30204 24.2808C5.68777 25.081 8.04767 24.9492 10.489 23.7848L10.6807 23.6914L10.8077 23.6315C12.4392 22.8528 13.6827 21.8107 14.2289 20.9673C14.3476 20.7806 14.4156 20.5662 14.4261 20.3452C14.4366 20.1242 14.3893 19.9042 14.2888 19.7071Z" fill="#6DCFF6"/>
<path id="Vector_5" d="M38.5177 30.8028C41.5491 30.8028 44.0065 29.551 44.0065 28.0069C44.0065 26.4627 41.5491 25.2109 38.5177 25.2109C35.4863 25.2109 33.0288 26.4627 33.0288 28.0069C33.0288 29.551 35.4863 30.8028 38.5177 30.8028Z" fill="#F17BB0"/>
<path id="Vector_6" d="M31.7113 19.7071C32.1714 18.8159 33.3261 17.6683 34.881 16.7459L35.0032 16.674L35.1853 16.5662C37.5117 15.1862 39.8524 14.8388 40.3076 15.6078C40.7628 16.3769 39.3301 18.2624 37.0037 19.64C36.9622 19.6656 36.9215 19.6895 36.8816 19.7119L36.7019 19.8197C36.5054 19.9371 36.309 20.0449 36.1149 20.1456C36.3185 20.2294 36.5222 20.3205 36.7282 20.4187L36.9175 20.5097L37.0469 20.5696C39.4858 21.734 41.0815 23.4877 40.6957 24.2903C40.31 25.093 37.9501 24.9588 35.5087 23.7944L35.3171 23.701L35.1901 23.6411C33.5585 22.8624 32.3151 21.8202 31.7689 20.9769C31.6488 20.7889 31.5802 20.5726 31.5702 20.3497C31.5601 20.1268 31.6088 19.9052 31.7113 19.7071Z" fill="#6DCFF6"/>
</g>
</svg>
