<svg width="46" height="46" viewBox="0 0 46 46" fill="none" xmlns="http://www.w3.org/2000/svg">
<path d="M33.1872 40.2503C32.9287 40.3614 32.6493 40.4153 32.3681 40.4082C32.0869 40.4012 31.8105 40.3334 31.558 40.2095C31.0913 39.988 30.6778 39.6685 30.3457 39.2728C31.3312 38.1562 32.6747 37.4175 34.1455 37.1836C34.3146 37.8249 34.3229 38.4981 34.1695 39.1434C34.0973 39.3888 33.9719 39.6153 33.8021 39.8067C33.6323 39.998 33.4223 40.1495 33.1872 40.2503Z" fill="white"/>
<path d="M40.1041 14.1836C41.5416 15.2569 42.2268 17.5378 41.6446 19.8617C41.0624 22.1857 39.3973 23.8843 37.6148 24.1527C36.7163 23.3165 36.6085 21.5172 37.289 18.7764C37.8831 16.4045 38.9445 14.6867 40.1041 14.1836Z" fill="#E2E0E3"/>
<path d="M38.52 13.5579C37.3964 14.5401 36.474 16.246 35.9373 18.4478C35.3479 20.8148 35.3024 22.6189 35.8008 23.8983C35.2114 23.5916 34.8544 23.0645 34.6987 22.2691C34.5046 21.294 34.622 19.9332 35.0485 18.2273C36.0547 14.1856 37.4635 13.5603 38.3499 13.5603C38.4026 13.5483 38.4649 13.5531 38.52 13.5579Z" fill="#E2E0E3"/>
<path d="M33.731 35.8294C32.1273 36.1242 30.657 36.9163 29.5287 38.0935C29.1953 37.4656 28.9256 36.8058 28.7237 36.1241L28.6854 36.0043C28.3476 34.9142 27.3222 31.596 28.8866 30.8796C29.0274 30.8162 29.1803 30.7843 29.3347 30.7862C30.3241 30.7862 31.6203 32.0105 32.9811 34.2578C33.2727 34.7608 33.5235 35.2863 33.731 35.8294Z" fill="#F1ED7E"/>
<path d="M28.2566 22.0413C28.1113 22.0424 27.9665 22.0255 27.8253 21.991C27.7158 21.9635 27.6092 21.9258 27.5067 21.8784C27.0936 21.6872 26.7732 21.3399 26.616 20.9127C26.4587 20.4854 26.4775 20.0133 26.6682 19.5999C26.8068 19.3039 27.0281 19.0542 27.3055 18.8812C27.5084 18.7548 27.7485 18.7016 27.9859 18.7302H28.0122L28.2087 18.8812L28.9897 19.4729L30.535 20.6517C30.5724 20.6742 30.6045 20.7044 30.6291 20.7403C30.6537 20.7763 30.6704 20.8171 30.6779 20.8601C30.6854 20.903 30.6836 20.947 30.6726 20.9892C30.6616 21.0314 30.6416 21.0707 30.6141 21.1045C30.5159 21.2195 30.3194 21.2003 30.1349 21.1572C29.9505 21.1141 29.8618 21.0686 29.8139 21.0566H29.7947C29.658 21.3496 29.4409 21.5978 29.1685 21.7721C28.8962 21.9465 28.5799 22.0398 28.2566 22.0413Z" fill="black"/>
<path d="M27.3364 23.9294C27.3188 23.9653 27.293 23.9966 27.261 24.0207C27.2291 24.0449 27.192 24.0612 27.1527 24.0684C27.1133 24.0756 27.0728 24.0735 27.0344 24.0623C26.996 24.0511 26.9608 24.031 26.9315 24.0037C26.4345 23.5456 25.9806 23.0427 25.5755 22.5015C24.574 21.0904 23.8218 19.1138 24.1835 17.6955C24.1814 17.686 24.1814 17.6762 24.1835 17.6667C24.1979 17.6092 24.2147 17.5517 24.2338 17.4966L24.265 17.42C24.2841 17.3744 24.3009 17.3289 24.3177 17.2882L24.3464 17.2331C24.3704 17.1828 24.3968 17.1349 24.4231 17.0893C24.4328 17.0755 24.4416 17.0611 24.4495 17.0462C24.4758 17.0079 24.5022 16.9648 24.5309 16.9264C24.5597 16.8881 24.5669 16.8761 24.5884 16.8521L24.622 16.809C24.8454 16.5512 25.1248 16.348 25.4389 16.2149C25.8791 16.0091 26.3728 15.9471 26.8501 16.0376H26.8836H26.9124L26.9459 16.0519C27.794 16.2604 28.4289 16.9528 28.8171 17.4894C28.8446 17.5292 28.8604 17.5759 28.8625 17.6243C28.8646 17.6726 28.853 17.7205 28.829 17.7626C28.7452 17.9087 28.6494 18.0788 28.5415 18.2633L28.417 18.1699L28.3259 18.098L28.2157 18.062L28.1414 18.0405C27.9208 17.991 27.6913 17.9959 27.473 18.0549C27.2985 18.1001 27.1303 18.1669 26.9723 18.2537H26.9531L26.9339 18.2657C26.4724 18.5574 26.1252 18.999 25.9507 19.5164C25.7762 20.0338 25.785 20.5955 25.9756 21.1071C26.1128 21.4755 26.3369 21.8054 26.6289 22.0686C26.9209 22.3318 27.2721 22.5206 27.6527 22.6189C27.7434 22.6409 27.8354 22.6569 27.9282 22.6668L27.3364 23.9294Z" fill="black"/>
<path d="M27.3794 36.5341C27.4249 36.6874 27.4752 36.836 27.5232 36.9773C25.6251 35.6171 23.4324 34.7248 21.1239 34.3731C20.0009 33.1259 18.5125 32.2656 16.8713 31.9149C15.2301 31.6011 13.7423 31.9676 12.6786 32.9427C12.5316 33.0796 12.3947 33.227 12.2689 33.3836C11.9758 33.1096 11.6644 32.8559 11.3369 32.6241C11.6229 32.5091 11.8877 32.3471 12.1204 32.1449C12.4281 31.871 12.6384 31.5043 12.7193 31.1004L17.6308 29.9983C17.8122 29.9563 17.9702 29.8454 18.0716 29.6892C18.1207 29.6108 18.1538 29.5234 18.169 29.4321C18.1842 29.3408 18.1813 29.2475 18.1602 29.1573L17.9686 28.29C19.1597 28.8568 20.3993 29.3155 21.6725 29.6605C21.7061 29.6605 21.9121 29.7204 22.2571 29.7874C22.6021 29.8545 23.0837 29.9408 23.6611 30.027C24.9184 30.1974 26.1883 30.2576 27.4561 30.2067C25.9204 31.8383 26.9266 35.0942 27.3411 36.4359L27.3794 36.5341Z" fill="#E4A2C7"/>
<path d="M28.1678 39.4064C26.9363 41.8022 24.2362 42.1903 22.5951 42.1808C23.6396 40.542 23.5366 38.1845 22.3555 36.0762C23.908 36.4978 26.2822 37.4274 28.1678 39.4064Z" fill="#28AAE1"/>
<path d="M22.7412 25.9562L23.2515 24.9164C23.2627 24.8932 23.2686 24.8678 23.2686 24.8421C23.2686 24.8164 23.2627 24.791 23.2515 24.7678C23.2359 24.7317 23.2083 24.702 23.1734 24.6837C23.1386 24.6654 23.0985 24.6596 23.0598 24.6672L22.7388 24.7367C23.0982 24.1114 23.218 23.8838 23.2755 23.7975C23.2865 23.7764 23.3042 23.7596 23.3258 23.7496C23.5489 23.6415 23.8009 23.6079 24.0445 23.6538H24.0589H24.0781C24.2176 23.7 24.3432 23.7807 24.4432 23.8883C24.5433 23.9959 24.6147 24.127 24.6507 24.2695C24.6489 24.2749 24.6489 24.2808 24.6507 24.2863C24.6507 24.2863 24.6507 24.3078 24.6507 24.3198C24.6507 24.3318 24.6507 24.3534 24.6507 24.3701C24.6517 24.3765 24.6517 24.3829 24.6507 24.3893V24.466V24.5187C24.6517 24.5282 24.6517 24.5379 24.6507 24.5474C24.6507 24.5666 24.6507 24.5882 24.6507 24.6097C24.5285 25.1152 23.9631 25.6088 23.4144 25.8843C23.2373 25.9699 23.0529 26.0396 22.8634 26.0927C22.8451 26.0975 22.8258 26.0971 22.8076 26.0917C22.7895 26.0862 22.7732 26.0759 22.7606 26.0617C22.748 26.0476 22.7395 26.0303 22.7361 26.0117C22.7326 25.9931 22.7344 25.9739 22.7412 25.9562Z" fill="black"/>
<path d="M28.1677 39.4062C28.2683 39.5141 28.3713 39.6243 28.4695 39.7393C28.5358 39.815 28.6176 39.8756 28.7094 39.9169C28.8012 39.9583 28.9008 39.9794 29.0014 39.9789C29.0301 39.9813 29.059 39.9813 29.0877 39.9789C29.1643 40.0723 29.241 40.1633 29.3272 40.2472C28.412 41.8931 26.8284 42.9713 24.6793 43.3929C23.9947 43.524 23.2991 43.589 22.6021 43.587C22.1489 43.5878 21.696 43.5606 21.2461 43.5055C21.4882 43.3628 21.7147 43.1949 21.9217 43.0048C22.1841 42.7628 22.4144 42.4883 22.6069 42.1878C24.2361 42.1902 26.9362 41.8069 28.1677 39.4062Z" fill="black"/>
<path d="M20.0004 20.0025C20.4534 20.0241 20.8967 19.8662 21.234 19.563C21.5713 19.2597 21.7754 18.8357 21.802 18.383C21.8141 18.0557 21.7308 17.7319 21.5624 17.451C21.4404 17.2342 21.2424 17.0703 21.0066 16.991L17.892 17.5061C17.8483 17.5084 17.8055 17.52 17.7666 17.5402C17.7277 17.5605 17.6936 17.5888 17.6666 17.6233C17.6396 17.6578 17.6203 17.6977 17.61 17.7403C17.5997 17.7829 17.5986 17.8272 17.6069 17.8702C17.6764 18.1625 18.3496 18.1769 18.3496 18.2057C18.339 18.4323 18.3734 18.6587 18.4508 18.872C18.5282 19.0852 18.6471 19.281 18.8005 19.4481C18.954 19.6152 19.139 19.7502 19.345 19.8453C19.5509 19.9405 19.7737 19.9939 20.0004 20.0025ZM23.2515 24.9164L22.7412 25.9682C22.7324 25.9862 22.7291 26.0063 22.7316 26.0262C22.7341 26.046 22.7424 26.0647 22.7553 26.0799C22.7683 26.0952 22.7854 26.1063 22.8046 26.112C22.8238 26.1177 22.8442 26.1177 22.8634 26.1119C23.0528 26.0588 23.2372 25.9891 23.4144 25.9035C23.9631 25.628 24.5285 25.1344 24.6507 24.6289C24.6507 24.6289 24.6507 24.5858 24.6507 24.5666C24.6517 24.557 24.6517 24.5474 24.6507 24.5379V24.4851V24.4085C24.6517 24.4021 24.6517 24.3957 24.6507 24.3893C24.6507 24.3725 24.6507 24.3558 24.6507 24.339C24.6507 24.3222 24.6507 24.315 24.6507 24.3055C24.6488 24.3 24.6488 24.2941 24.6507 24.2887C24.6146 24.1462 24.5433 24.0151 24.4432 23.9075C24.3431 23.7999 24.2176 23.7192 24.0781 23.673H24.0589H24.0445C23.8009 23.6271 23.5489 23.6607 23.3258 23.7688C23.3042 23.7788 23.2865 23.7956 23.2755 23.8167C23.2299 23.903 23.0982 24.1306 22.7388 24.7559L23.0598 24.6864C23.0985 24.6788 23.1385 24.6846 23.1734 24.7029C23.2083 24.7212 23.2358 24.7509 23.2515 24.787C23.2685 24.8285 23.2685 24.875 23.2515 24.9164ZM22.1949 26.0041C22.2068 26.0156 22.2212 26.024 22.237 26.0287C22.2528 26.0335 22.2695 26.0344 22.2857 26.0313C22.3018 26.0283 22.3171 26.0214 22.3301 26.0112C22.343 26.0011 22.3534 25.9879 22.3602 25.973L22.7963 25.0769L22.4465 25.1488C22.4234 25.1549 22.3992 25.156 22.3756 25.1518C22.352 25.1477 22.3296 25.1385 22.3099 25.1248C22.2744 25.1009 22.2492 25.0643 22.2394 25.0226C22.2296 24.9808 22.236 24.9369 22.2572 24.8996C22.4513 24.5666 22.7364 24.0874 22.8801 23.8167C22.8914 23.8001 22.8974 23.7805 22.8974 23.7604C22.8974 23.7403 22.8914 23.7207 22.8801 23.7041C22.7256 23.4639 22.4929 23.2845 22.2213 23.1962H22.1877C22.0176 23.1642 21.8418 23.186 21.6846 23.2585C21.5731 23.3055 21.4745 23.3786 21.3971 23.4717H21.3827L21.3636 23.5005C21.354 23.5135 21.3452 23.5271 21.3372 23.5412V23.558C21.3262 23.5739 21.3166 23.5907 21.3085 23.6083C21.3085 23.6083 21.3085 23.6083 21.3085 23.6274C21.3007 23.6428 21.2942 23.6588 21.2893 23.6754C21.287 23.684 21.287 23.6931 21.2893 23.7017C21.2815 23.7212 21.2751 23.7412 21.2701 23.7616C21.1432 24.2647 21.4091 24.9595 21.7661 25.465C21.8924 25.6536 22.036 25.8301 22.1949 25.9921V26.0041ZM27.8251 21.9983C27.9663 22.0328 28.1111 22.0497 28.2564 22.0486C28.5791 22.0469 28.8946 21.9537 29.1665 21.7798C29.4383 21.6059 29.6553 21.3585 29.7921 21.0663H29.8113C29.8592 21.0663 29.9862 21.1286 30.1323 21.1669C30.2785 21.2052 30.5061 21.2292 30.6115 21.1142C30.639 21.0804 30.659 21.0411 30.67 20.9989C30.681 20.9567 30.6828 20.9127 30.6753 20.8698C30.6678 20.8268 30.6511 20.786 30.6265 20.7501C30.6019 20.7141 30.5698 20.6839 30.5324 20.6614L28.9895 19.4731L28.2181 18.8837L28.0216 18.7327H27.9952C27.7579 18.7041 27.5178 18.7573 27.3148 18.8837C27.0375 19.0568 26.8162 19.3064 26.6775 19.6024C26.4869 20.0158 26.4681 20.488 26.6253 20.9152C26.7826 21.3424 27.1029 21.6897 27.5161 21.8809C27.6157 21.9253 27.7192 21.9606 27.8251 21.9863V21.9983ZM24.6099 5.77848C25.6023 5.7374 26.596 5.81786 27.5688 6.01806C28.5217 6.2956 29.4373 6.68822 30.2952 7.18723C30.5348 7.32379 30.7912 7.48191 31.0571 7.66639H31.0715C32.1965 7.92574 33.2644 8.38943 34.222 9.03441C34.6114 9.29588 34.9828 9.58323 35.3337 9.89452C36.1075 10.5826 36.7646 11.3917 37.2791 12.2904C36.9473 12.3998 36.6351 12.5615 36.3543 12.7695C34.6461 9.78431 31.8981 8.49296 31.1937 8.79962C30.8535 8.94577 31.0428 9.53275 31.1362 10.1077C31.153 10.218 31.1745 10.3306 31.1961 10.4456C31.3123 11.6014 31.3123 12.766 31.1961 13.9219C31.1032 15.0375 31.0816 16.1578 31.1314 17.2761C30.7676 17.3306 30.4129 17.4346 30.0772 17.5851C30.024 17.6075 29.9806 17.6483 29.955 17.7001C29.8712 17.8559 29.6963 18.1793 29.3106 18.8406L30.9277 20.072C31.0417 20.1575 31.1371 20.2653 31.2079 20.3889C31.2788 20.5125 31.3237 20.6492 31.3398 20.7908C31.3517 20.9206 31.3365 21.0515 31.2953 21.1752C31.2541 21.2989 31.1877 21.4128 31.1002 21.5095C30.9729 21.648 30.8097 21.7486 30.6287 21.8002C30.4478 21.8518 30.2561 21.8524 30.0748 21.8018C29.8008 22.1281 29.4454 22.376 29.0446 22.5206L28.3786 23.891C28.3573 23.9355 28.3493 23.9853 28.3556 24.0343C28.3619 24.0832 28.3823 24.1293 28.4141 24.167C28.446 24.2047 28.4881 24.2324 28.5354 24.2468C28.5826 24.2611 28.633 24.2615 28.6805 24.248C29.2397 24.0894 29.7847 23.8842 30.3096 23.6346C31.0292 23.2723 31.6972 22.8154 32.2958 22.2762C32.491 22.6936 32.7202 23.0942 32.981 23.4741C33.4291 24.147 34.0238 24.7097 34.7204 25.12C34.171 26.1252 33.3499 26.9555 32.3509 27.5159L31.6633 27.8657C30.4672 28.3734 29.192 28.6693 27.8946 28.7401C25.9147 28.8627 23.9273 28.7054 21.9913 28.273C21.3983 28.1144 20.8137 27.9257 20.2399 27.7075C19.3225 27.3694 18.4292 26.9691 17.5662 26.5096L15.7214 18.2919C15.7115 18.2485 15.6978 18.206 15.6807 18.1649C16.8191 17.3087 17.8091 16.271 18.6108 15.0935C19.403 13.9006 20.0809 12.6356 20.6352 11.3152C21.0798 10.2412 21.6312 9.21465 22.2812 8.25098L22.492 7.98264C22.8442 7.52025 23.2874 7.089 23.055 6.7991C22.5759 6.19775 19.5427 6.04681 16.6342 7.88202C16.4882 7.56343 16.2916 7.27055 16.052 7.01473C16.9296 6.46104 17.8906 6.05249 18.8983 5.80483C19.3543 5.69164 19.8179 5.61157 20.2855 5.56525C21.429 5.44575 22.5848 5.53835 23.6947 5.83837H23.7187C24.0325 5.80723 24.3344 5.78806 24.6099 5.77848ZM26.9315 24.0036C26.9608 24.0309 26.996 24.0509 27.0344 24.0622C27.0728 24.0734 27.1133 24.0755 27.1526 24.0683C27.192 24.0611 27.2291 24.0447 27.261 24.0206C27.2929 23.9965 27.3187 23.9652 27.3364 23.9293L27.9354 22.6979C27.8426 22.6879 27.7505 22.6719 27.6598 22.6499C27.2792 22.5516 26.928 22.3628 26.636 22.0996C26.344 21.8364 26.1199 21.5066 25.9827 21.1382C25.7922 20.6265 25.7834 20.0648 25.9579 19.5474C26.1324 19.0301 26.4795 18.5884 26.9411 18.2967L26.9602 18.2847H26.9794C27.1374 18.1979 27.3056 18.1311 27.4801 18.0859C27.6985 18.0269 27.9279 18.022 28.1486 18.0715L28.2229 18.0931L28.3331 18.129L28.4241 18.2009L28.5487 18.2943C28.6565 18.1098 28.7523 17.9397 28.8362 17.7936C28.8602 17.7516 28.8718 17.7036 28.8696 17.6553C28.8675 17.607 28.8518 17.5602 28.8242 17.5205C28.4361 16.9718 27.8012 16.2794 26.9531 16.083L26.9195 16.0686H26.8908H26.8572C26.3799 15.9781 25.8862 16.0401 25.4461 16.2459C25.132 16.379 24.8525 16.5822 24.6291 16.84L24.5956 16.8832C24.574 16.9071 24.5572 16.9335 24.5381 16.9574C24.5189 16.9814 24.483 17.0389 24.4566 17.0772C24.4487 17.0921 24.4399 17.1065 24.4302 17.1204C24.4039 17.1659 24.3775 17.2138 24.3536 17.2641L24.3248 17.3192C24.3081 17.3599 24.2913 17.4055 24.2721 17.451L24.241 17.5276C24.2218 17.5827 24.205 17.6402 24.1907 17.6977C24.1885 17.7072 24.1885 17.717 24.1907 17.7265C23.8289 19.1448 24.5812 21.1214 25.5826 22.5325C25.9869 23.0626 26.4384 23.555 26.9315 24.0036Z" fill="white"/>
<path d="M22.1948 25.9923C22.0186 25.834 21.8581 25.6591 21.7156 25.47C21.3586 24.9716 21.0927 24.2721 21.2197 23.7665C21.2246 23.7461 21.231 23.7261 21.2389 23.7066C21.2365 23.698 21.2365 23.6889 21.2389 23.6803C21.2438 23.6638 21.2502 23.6477 21.258 23.6324C21.258 23.6324 21.258 23.6324 21.258 23.6132C21.2768 23.5897 21.2985 23.5688 21.3227 23.5509V23.5341C21.3306 23.52 21.3394 23.5064 21.3491 23.4934L21.3682 23.4647H21.3826C21.46 23.3716 21.5586 23.2984 21.6701 23.2514C21.8273 23.179 22.0031 23.1572 22.1732 23.1891H22.2068C22.4784 23.2774 22.7111 23.4569 22.8656 23.6971C22.8769 23.7137 22.8828 23.7333 22.8828 23.7534C22.8828 23.7734 22.8769 23.793 22.8656 23.8097C22.7123 24.0804 22.4368 24.5596 22.2427 24.8926C22.2215 24.9299 22.2151 24.9738 22.2249 25.0155C22.2347 25.0573 22.2599 25.0938 22.2954 25.1178C22.3151 25.1314 22.3375 25.1406 22.3611 25.1448C22.3846 25.1489 22.4088 25.1479 22.432 25.1417L22.7818 25.0699L22.3457 25.9659C22.3381 25.9782 22.3279 25.9887 22.3159 25.9967C22.3039 26.0048 22.2904 26.0102 22.2761 26.0127C22.2619 26.0152 22.2473 26.0147 22.2333 26.0112C22.2193 26.0076 22.2062 26.0012 22.1948 25.9923Z" fill="black"/>
<path d="M21.0282 16.9912C21.2639 17.0706 21.4619 17.2344 21.584 17.4512C21.7524 17.7321 21.8356 18.0559 21.8236 18.3832C21.8121 18.6102 21.756 18.8327 21.6585 19.038C21.5611 19.2434 21.4241 19.4275 21.2555 19.5799C20.9149 19.8877 20.466 20.0475 20.0075 20.0243C19.5491 20.0011 19.1186 19.7968 18.8109 19.4562C18.5031 19.1156 18.3432 18.6667 18.3664 18.2083C18.3664 18.1795 17.6932 18.1652 17.6237 17.8729C17.6154 17.8298 17.6164 17.7855 17.6267 17.7429C17.637 17.7003 17.6563 17.6604 17.6834 17.6259C17.7104 17.5914 17.7445 17.5631 17.7834 17.5429C17.8223 17.5227 17.865 17.511 17.9088 17.5087L21.0282 16.9912Z" fill="black"/>
<path d="M19.4755 40.7843L18.3542 39.802L18.8789 39.7014C18.9142 39.6954 18.9479 39.6824 18.978 39.663C19.008 39.6437 19.0338 39.6184 19.0538 39.5888C19.0716 39.5612 19.083 39.5302 19.0874 39.4977C19.0989 39.4352 19.0878 39.3707 19.0562 39.3156C19.0387 39.2897 19.0178 39.2663 18.9939 39.2462L18.2081 38.6616L17.8224 38.3669C17.7002 38.2758 17.5828 38.192 17.4989 38.1273C17.4752 38.1098 17.4571 38.0857 17.4468 38.058C17.4366 38.0304 17.4347 38.0003 17.4414 37.9716C17.5169 37.5523 17.7353 37.1722 18.0595 36.8958H18.0763H18.0907C18.2445 36.7932 18.42 36.7276 18.6034 36.7042C18.6741 36.6952 18.7454 36.6912 18.8166 36.6922C18.8645 36.6885 18.9125 36.6885 18.9604 36.6922C19.0915 36.7071 19.2188 36.7452 19.3365 36.8048L19.3629 36.8168L19.406 36.8431L19.4707 36.8839C19.4768 36.8907 19.4841 36.8964 19.4923 36.9006L19.5593 36.9533L19.5833 36.9749L19.6384 37.0276C19.6465 37.0386 19.6553 37.049 19.6648 37.0588L19.727 37.1306C20.2062 37.7488 20.2326 38.8676 20.0361 39.766C19.9579 40.0954 19.8521 40.4176 19.7199 40.7292C19.7099 40.7512 19.695 40.7707 19.6763 40.786C19.6576 40.8014 19.6356 40.8123 19.612 40.8178C19.5883 40.8237 19.5634 40.8238 19.5396 40.8179C19.5158 40.8121 19.4938 40.8005 19.4755 40.7843Z" fill="black"/>
<path d="M17.0847 35.499C17.4249 35.9638 17.9831 36.1339 18.3281 35.8824C18.6731 35.6308 18.6779 35.0438 18.3281 34.579C17.9783 34.1143 17.4297 33.9417 17.0823 34.1957C16.7349 34.4497 16.7421 35.0319 17.0847 35.499ZM17.8322 38.374L18.2083 38.6615L18.9846 39.2461C19.0084 39.2663 19.0294 39.2897 19.0469 39.3156C19.0785 39.3707 19.0895 39.4352 19.078 39.4977C19.0737 39.5301 19.0622 39.5612 19.0445 39.5887C19.0245 39.6184 18.9987 39.6437 18.9686 39.663C18.9385 39.6824 18.9049 39.6954 18.8696 39.7013L18.3449 39.802L19.4661 40.7842C19.4843 40.8009 19.5062 40.8129 19.53 40.8192C19.5538 40.8254 19.5787 40.8258 19.6027 40.8202C19.6263 40.8146 19.6482 40.8038 19.6669 40.7884C19.6856 40.773 19.7005 40.7536 19.7105 40.7315C19.8525 40.4114 19.9663 40.0795 20.0507 39.7397C20.2472 38.8484 20.2089 37.7296 19.7417 37.1042L19.6794 37.0324C19.6699 37.0226 19.6611 37.0122 19.653 37.0012L19.5979 36.9485L19.574 36.927L19.5069 36.8743C19.4987 36.87 19.4914 36.8644 19.4853 36.8575L19.4206 36.8168L19.3775 36.7904L19.3511 36.7784C19.2334 36.7189 19.1061 36.6807 18.975 36.6658C18.9272 36.6622 18.8791 36.6622 18.8313 36.6658C18.76 36.6648 18.6887 36.6688 18.618 36.6778C18.4346 36.7013 18.2591 36.7669 18.1053 36.8695H18.0909H18.0742C17.7526 37.1485 17.5375 37.5303 17.4656 37.95C17.4589 37.9787 17.4608 38.0088 17.471 38.0365C17.4813 38.0641 17.4994 38.0882 17.5231 38.1057C17.5998 38.192 17.71 38.2758 17.8322 38.3669V38.374ZM14.7823 36.0884C15.1225 36.5676 15.6783 36.7257 16.0233 36.4718C16.3683 36.2178 16.3755 35.6356 16.0353 35.1708C15.6951 34.706 15.1345 34.5311 14.7895 34.7875C14.4445 35.0438 14.4397 35.6236 14.7823 36.0884ZM13.6299 33.9801C14.2166 33.4631 14.9782 33.189 15.7598 33.2134C16.0445 33.2139 16.3286 33.2419 16.6079 33.2973C17.9708 33.5951 19.203 34.3203 20.125 35.3673C22.1471 37.5666 22.5208 40.5255 20.954 41.9606C19.3871 43.3957 16.4761 42.7752 14.4541 40.5734C12.432 38.3716 12.0678 35.4152 13.6299 33.9801ZM13.5173 38.0937C13.8599 38.5585 14.4181 38.731 14.7631 38.4771C15.1081 38.2231 15.1129 37.6385 14.7631 37.1737C14.4133 36.7089 13.8647 36.5388 13.5197 36.7928C13.1747 37.0468 13.1771 37.6146 13.5173 38.0937ZM15.3333 39.7948C15.3333 39.7948 15.3333 39.8139 15.3333 39.8235L15.3477 39.8714C15.3535 39.8958 15.3607 39.9198 15.3693 39.9433C15.3679 39.952 15.3679 39.9609 15.3693 39.9697C15.3786 39.9968 15.3898 40.0232 15.4028 40.0487C15.4028 40.0487 15.4028 40.0679 15.4028 40.0799C15.4134 40.1022 15.4254 40.1238 15.4388 40.1446C15.4441 40.1583 15.4513 40.1712 15.4603 40.1829C15.4771 40.2093 15.4939 40.2356 15.513 40.262V40.2739C15.9754 40.8945 17.0392 41.2466 17.952 41.3065C18.1729 41.322 18.3947 41.322 18.6156 41.3065C18.6875 41.3065 18.7594 41.2946 18.8289 41.285C18.8585 41.2812 18.8864 41.269 18.9093 41.2497C18.9322 41.2305 18.949 41.2051 18.9579 41.1766C18.9667 41.148 18.9671 41.1176 18.9591 41.0888C18.9511 41.06 18.935 41.0341 18.9127 41.0143L17.6022 39.869C17.5726 39.8444 17.5487 39.8137 17.5322 39.7789C17.5156 39.7442 17.5068 39.7063 17.5064 39.6678C17.509 39.6106 17.5307 39.5559 17.5681 39.5125C17.6054 39.4691 17.6562 39.4394 17.7124 39.4282L18.1916 39.3372C17.6525 38.9323 17.3315 38.6855 17.1374 38.537L17.0368 38.4579L16.9936 38.4244L16.9074 38.3549C16.8944 38.3432 16.8793 38.3343 16.8628 38.3285C16.8464 38.3227 16.829 38.3203 16.8116 38.3213C16.4607 38.3016 16.1122 38.3894 15.8125 38.5729L15.7957 38.5849H15.7814C15.584 38.7507 15.4439 38.9745 15.3813 39.2246C15.3186 39.4045 15.3021 39.5972 15.3333 39.7852V39.7948Z" fill="white"/>
<path d="M20.2067 4.20515C18.3945 4.37536 16.652 4.9883 15.1323 5.99005C17.6048 3.7739 22.6313 2.47057 28.1369 3.8338C33.724 5.22817 37.622 8.87703 38.6786 12.0323C37.8 10.3473 36.5062 8.91414 34.9195 7.86838C33.9117 7.20196 32.8012 6.7058 31.6324 6.39974C30.4789 5.64689 29.2191 5.07109 27.8949 4.69151C27.8638 4.69151 27.7344 4.65317 27.5236 4.61484C27.3127 4.57651 27.0181 4.52859 26.6587 4.48786C25.704 4.38118 24.7412 4.36674 23.7837 4.44474C22.6125 4.16984 21.4041 4.0889 20.2067 4.20515Z" fill="#E2E0E3"/>
<path d="M17.0917 34.1959C17.4391 33.9419 17.9949 34.112 18.3375 34.5792C18.6801 35.0464 18.6754 35.6286 18.3375 35.8825C17.9997 36.1365 17.4343 35.964 17.0941 35.4992C16.7539 35.0344 16.7467 34.4498 17.0917 34.1959Z" fill="black"/>
<path d="M16.9432 38.3334L17.0295 38.4029L17.0726 38.4364L17.1732 38.5155C17.3673 38.6641 17.6883 38.9108 18.2274 39.3157L17.7482 39.4068C17.6921 39.4179 17.6412 39.4476 17.6039 39.491C17.5666 39.5345 17.5448 39.5891 17.5422 39.6463C17.5426 39.6848 17.5515 39.7227 17.568 39.7575C17.5845 39.7922 17.6084 39.823 17.638 39.8476L18.9485 40.9928C18.9708 41.0127 18.987 41.0386 18.995 41.0673C19.003 41.0961 19.0025 41.1266 18.9937 41.1551C18.9848 41.1837 18.968 41.2091 18.9451 41.2283C18.9222 41.2475 18.8943 41.2597 18.8647 41.2635C18.7952 41.2635 18.7233 41.2779 18.6515 41.2851C18.4305 41.3006 18.2088 41.3006 17.9878 41.2851C17.075 41.2252 16.0112 40.873 15.5489 40.2525V40.2405C15.5297 40.2142 15.5129 40.1878 15.4961 40.1614C15.4872 40.1498 15.4799 40.1368 15.4746 40.1231C15.4612 40.1024 15.4492 40.0808 15.4386 40.0584C15.4386 40.0464 15.4386 40.0393 15.4386 40.0273C15.4256 40.0018 15.4144 39.9753 15.4051 39.9482C15.4038 39.9395 15.4038 39.9306 15.4051 39.9219C15.3965 39.8984 15.3893 39.8744 15.3835 39.85L15.3692 39.8021C15.3692 39.8021 15.3692 39.7829 15.3692 39.7733C15.3354 39.5957 15.3444 39.4125 15.3955 39.2391C15.4582 38.989 15.5982 38.7652 15.7956 38.5994H15.81L15.8124 38.573C16.1214 38.3671 16.4885 38.2663 16.8594 38.2855C16.8924 38.2903 16.9223 38.3074 16.9432 38.3334Z" fill="black"/>
<path d="M14.358 7.53516C15.1606 7.86818 16.3322 8.9463 15.2492 13.2852C14.8252 14.9886 14.2909 16.244 13.656 17.0107C13.1457 17.636 12.5851 17.9355 11.9238 17.9307C12.9636 17.0346 13.7662 15.4174 14.3556 13.0552C14.9066 10.8678 14.8923 8.92953 14.358 7.53516Z" fill="#E2E0E3"/>
<path d="M14.7893 34.7872C15.1343 34.5309 15.6925 34.7058 16.0351 35.1706C16.3777 35.6354 16.3705 36.2176 16.0231 36.4715C15.6757 36.7255 15.1223 36.5554 14.7821 36.0882C14.4419 35.621 14.4419 35.0412 14.7893 34.7872Z" fill="black"/>
<path d="M14.7701 37.1638C15.1127 37.6286 15.1079 38.2132 14.7701 38.4671C14.4323 38.7211 13.8669 38.5486 13.5243 38.0838C13.1817 37.619 13.1889 37.0368 13.5243 36.7828C13.8597 36.5289 14.4299 36.699 14.7701 37.1638Z" fill="black"/>
<path d="M12.982 21.6254L10.9673 22.0791L11.1952 23.0912L13.2099 22.6375L12.982 21.6254Z" fill="white"/>
<path d="M13.079 25.8242C13.3073 25.8257 13.5272 25.911 13.6968 26.0639C13.8664 26.2168 13.974 26.4267 13.9991 26.6537C14.0242 26.8806 13.9651 27.1089 13.8331 27.2952C13.701 27.4815 13.5051 27.6128 13.2826 27.6642C13.1585 27.6891 13.0306 27.6891 12.9065 27.6642C12.9035 27.52 12.8867 27.3764 12.8562 27.2354C12.795 26.9288 12.6918 26.6321 12.5495 26.3537C12.5067 26.2709 12.4587 26.1909 12.4058 26.1141C12.5322 25.9817 12.6946 25.8893 12.8729 25.8482C12.9406 25.8331 13.0097 25.8251 13.079 25.8242Z" fill="white"/>
<path d="M12.6714 7.34766C13.4573 8.33714 13.5867 10.3472 12.9973 12.7191C12.3145 15.4528 11.3705 16.9933 10.187 17.3119C9.63588 16.8891 9.20206 16.3324 8.92676 15.6947C8.38095 14.4066 8.28144 12.973 8.64405 11.6218C8.95642 10.2629 9.71568 9.04808 10.8003 8.17182C11.3431 7.74137 11.9874 7.45758 12.6714 7.34766Z" fill="#E2E0E3"/>
<path d="M13.5892 29.0372C14.1569 28.8679 14.6392 28.4895 14.9386 27.9784C15.238 27.4673 15.3324 26.8616 15.2025 26.2837C15.0726 25.7057 14.7282 25.1986 14.2389 24.8648C13.7495 24.5309 13.1517 24.3952 12.5662 24.4851C12.1782 24.5708 11.8191 24.7557 11.524 25.0218C11.4654 24.8482 11.3958 24.6786 11.3156 24.5139L14.205 23.8646C14.2952 23.8445 14.3806 23.8068 14.4562 23.7536C14.5318 23.7004 14.5962 23.6328 14.6456 23.5546C14.6951 23.4765 14.7286 23.3894 14.7442 23.2982C14.7599 23.2071 14.7574 23.1138 14.7368 23.0237L14.2026 20.6278C14.1606 20.4477 14.0507 20.2906 13.8959 20.1894C13.8176 20.14 13.7303 20.1065 13.639 20.0909C13.5478 20.0753 13.4543 20.0778 13.364 20.0983L9.97393 20.8602C9.88377 20.8795 9.79844 20.9168 9.72309 20.9699C9.64774 21.023 9.58393 21.0908 9.53549 21.1693C9.48565 21.247 9.45172 21.3338 9.43568 21.4247C9.41964 21.5155 9.42181 21.6087 9.44206 21.6988L9.77268 23.1698C9.56924 23.1178 9.3597 23.0936 9.14977 23.0979L8.60352 20.6686L14.5188 19.3389L16.6367 28.7665L12.5303 29.6913C12.4696 29.558 12.3932 29.4325 12.3027 29.3175C12.3795 29.2241 12.4499 29.1256 12.5135 29.0228C12.8658 29.1135 13.2347 29.1184 13.5892 29.0372Z" fill="#E2E0E3"/>
<path d="M11.1524 28.5531C10.8894 28.4794 10.6106 28.4836 10.3499 28.5652C10.0892 28.6469 9.85779 28.8025 9.68379 29.0131C9.65924 29.0441 9.64401 29.0814 9.63988 29.1208C9.63576 29.1601 9.6429 29.1998 9.66049 29.2352C9.67807 29.2706 9.70537 29.3003 9.73919 29.3208C9.77301 29.3413 9.81196 29.3517 9.8515 29.3509C10.1864 29.3393 10.5192 29.4083 10.8218 29.5521C11.0142 29.6526 11.1718 29.8088 11.274 30.0003C11.3761 30.1918 11.4181 30.4097 11.3944 30.6255C11.313 31.5383 9.9066 31.6269 9.54962 31.5838C9.41953 31.5701 9.29061 31.5468 9.1639 31.5143C8.96259 31.4632 8.76858 31.3867 8.5865 31.2867C7.30233 30.568 6.90942 28.8909 6.84952 28.5124C6.76567 28.0476 6.42306 25.6733 8.17681 24.7653C8.78056 24.4514 9.25733 24.3795 9.59275 24.5496C9.84887 24.7073 10.044 24.9472 10.1462 25.2301C9.39869 25.3738 9.06806 25.7476 8.92431 26.0375C8.9062 26.0721 8.8983 26.1112 8.90156 26.1501C8.90481 26.1891 8.91908 26.2263 8.94269 26.2574C8.9663 26.2886 8.99828 26.3124 9.03491 26.326C9.07153 26.3397 9.11128 26.3426 9.14952 26.3345C10.8386 26.0039 11.4184 27.0533 11.519 27.5325C11.5449 27.7195 11.525 27.9101 11.4612 28.0878C11.3974 28.2656 11.2914 28.4252 11.1524 28.5531Z" fill="white"/>
<path d="M41.6442 19.8618C42.2264 17.5283 41.5483 15.257 40.1037 14.1837C38.9441 14.6868 37.8827 16.4046 37.2909 18.7765C36.6105 21.5125 36.7183 23.3166 37.6168 24.1528C39.3969 23.8844 41.062 22.1954 41.6442 19.8618ZM8.92667 15.6955C9.20197 16.3332 9.63579 16.8899 10.1869 17.3126C11.3704 16.994 12.3144 15.4535 12.9972 12.7198C13.5866 10.348 13.4572 8.33786 12.6714 7.34838C11.9864 7.46111 11.342 7.74823 10.8002 8.18213C9.71559 9.05838 8.95633 10.2732 8.64397 11.6321C8.28355 12.9803 8.38304 14.4102 8.92667 15.6955ZM13.6297 33.9805C12.0676 35.418 12.4318 38.372 14.4587 40.5738C16.4855 42.7756 19.406 43.3985 20.9585 41.961C22.511 40.5235 22.1565 37.567 20.1296 35.3676C19.2056 34.3216 17.9717 33.5981 16.6077 33.3024C16.3284 33.2471 16.0443 33.219 15.7596 33.2186C14.9786 33.1928 14.2171 33.4652 13.6297 33.9805ZM9.68376 29.0139C9.85776 28.8033 10.0892 28.6477 10.3499 28.5661C10.6106 28.4844 10.8893 28.4802 11.1524 28.5539C11.2925 28.4253 11.3991 28.2645 11.4629 28.0854C11.5268 27.9063 11.5461 27.7143 11.519 27.5261C11.4183 27.0469 10.8385 26.0095 9.14949 26.3282C9.11125 26.3363 9.0715 26.3333 9.03487 26.3196C8.99825 26.306 8.96627 26.2822 8.94265 26.2511C8.91904 26.2199 8.90478 26.1827 8.90152 26.1437C8.89827 26.1048 8.90616 26.0657 8.92428 26.0311C9.06803 25.7412 9.40344 25.3674 10.1462 25.2237C10.0392 24.9438 9.84076 24.7083 9.58313 24.5553C9.24772 24.3851 8.77094 24.457 8.16719 24.7709C6.41344 25.6789 6.75605 28.0532 6.8399 28.518C6.91178 28.9085 7.29272 30.5856 8.57688 31.2923C8.75896 31.3923 8.95297 31.4688 9.15428 31.5199C9.28099 31.5524 9.40991 31.5757 9.54001 31.5894C9.89699 31.6278 11.3033 31.5391 11.3848 30.6311C11.4085 30.4153 11.3665 30.1974 11.2643 30.0059C11.1622 29.8144 11.0046 29.6582 10.8122 29.5578C10.5095 29.4139 10.1768 29.3449 9.84188 29.3565C9.8023 29.3562 9.76362 29.3447 9.73035 29.3233C9.69708 29.3018 9.6706 29.2714 9.65402 29.2354C9.63743 29.1995 9.63142 29.1596 9.63669 29.1203C9.64195 29.0811 9.65828 29.0442 9.68376 29.0139ZM11.9287 17.9356C12.5899 17.9356 13.1505 17.6409 13.6608 17.0156C14.2909 16.2441 14.8252 14.9887 15.2493 13.2805C16.3322 8.9464 15.1606 7.86827 14.358 7.53046C14.8923 8.92484 14.9067 10.8631 14.358 13.0553C13.771 15.4223 12.9684 17.0395 11.9287 17.9356ZM12.5492 26.3545C12.6917 26.6337 12.7949 26.9312 12.8558 27.2386C12.8863 27.3796 12.9032 27.5232 12.9062 27.6674C13.0303 27.6923 13.1581 27.6923 13.2823 27.6674C13.5048 27.616 13.7007 27.4847 13.8327 27.2984C13.9648 27.1121 14.0239 26.8838 13.9988 26.6569C13.9736 26.4299 13.8661 26.2201 13.6964 26.0672C13.5268 25.9143 13.307 25.829 13.0787 25.8274C13.0094 25.8275 12.9404 25.8347 12.8726 25.849C12.6942 25.8901 12.5318 25.9826 12.4054 26.1149C12.4583 26.1917 12.5063 26.2717 12.5492 26.3545ZM4.19011 36.3835C4.40503 37.7638 5.05464 39.0395 6.04449 40.0251C6.99417 41.0492 8.2454 41.744 9.61667 42.0089C10.8146 42.2078 11.864 41.937 12.5755 41.2518C12.6917 41.1393 12.7975 41.0166 12.8918 40.8853C12.365 40.1968 11.9502 39.4295 11.6627 38.6116C11.6427 38.7913 11.6123 38.9697 11.5717 39.1459C11.5207 39.3612 11.4543 39.5726 11.3728 39.7784C11.3465 39.8455 11.3177 39.9125 11.2914 39.9772C11.2797 40.0051 11.26 40.0288 11.2349 40.0455C11.2097 40.0622 11.1802 40.0712 11.15 40.0712C11.1198 40.0712 11.0903 40.0622 11.0652 40.0455C11.04 40.0288 11.0204 40.0051 11.0087 39.9772L10.2899 38.3912C10.2746 38.3561 10.2519 38.3246 10.2233 38.299C10.1948 38.2734 10.1612 38.2542 10.1246 38.2426C10.068 38.2265 10.0076 38.2303 9.95353 38.2534C9.89944 38.2766 9.85494 38.3176 9.82751 38.3696L9.59751 38.8129C9.35792 38.1828 9.21897 37.8042 9.11834 37.5742L9.07042 37.4544C9.07042 37.4376 9.07042 37.4233 9.05365 37.4065L9.01292 37.3011C9.00101 37.2686 9.00101 37.2329 9.01292 37.2005C9.0973 36.8377 9.29745 36.5122 9.58313 36.2733C9.58961 36.2707 9.59536 36.2666 9.5999 36.2613H9.61428C9.82813 36.1236 10.0788 36.0542 10.333 36.0624C10.5137 36.065 10.6914 36.1084 10.8529 36.1894L10.8769 36.2014L10.92 36.2278L10.9847 36.2709L11.0063 36.2853C11.0288 36.3024 11.0504 36.3208 11.0709 36.3404L11.0973 36.3595L11.15 36.4146L11.1788 36.4458L11.241 36.5176C11.2242 35.889 11.3208 35.2625 11.5262 34.6681C10.242 33.3504 8.63438 32.6388 7.23522 32.6388C6.41573 32.6115 5.61856 32.9086 5.01667 33.4654C4.34105 34.1386 4.03438 35.1808 4.19011 36.3835ZM34.6891 22.2481C34.8448 23.0435 35.2018 23.5706 35.7912 23.8772C35.2928 22.5979 35.3383 20.7938 35.9277 18.4267C36.474 16.2369 37.3964 14.5311 38.52 13.5488C38.4649 13.5488 38.4026 13.5488 38.3403 13.5488C37.4539 13.5488 36.0451 14.1741 35.0389 18.2159C34.6124 19.9217 34.4998 21.2825 34.6891 22.2577V22.2481ZM30.3454 39.2585C30.6775 39.6542 31.091 39.9738 31.5577 40.1953C31.8103 40.3191 32.0866 40.3869 32.3678 40.3939C32.6491 40.401 32.9285 40.3471 33.1869 40.236C33.422 40.1352 33.632 39.9837 33.8018 39.7924C33.9716 39.601 34.0971 39.3746 34.1692 39.1291C34.3226 38.4838 34.3144 37.8107 34.1452 37.1693C32.6721 37.4077 31.3283 38.1525 30.3454 39.2752V39.2585ZM28.7234 36.1032C28.9254 36.7849 29.195 37.4446 29.5284 38.0725C30.6574 36.8971 32.1276 36.1067 33.7307 35.8133C33.5234 35.2685 33.2726 34.7414 32.9808 34.2368C31.62 31.9895 30.3239 30.7653 29.3344 30.7653C29.18 30.7634 29.0271 30.7953 28.8864 30.8587C27.3219 31.5774 28.3473 34.8933 28.6851 35.9834L28.7234 36.1032ZM29.0014 39.9653C28.9007 39.9658 28.8011 39.9447 28.7094 39.9033C28.6176 39.862 28.5358 39.8014 28.4695 39.7257C28.3713 39.6107 28.2682 39.5005 28.1676 39.3926C26.2821 37.4137 23.9078 36.4841 22.3649 36.0624C23.5365 38.1708 23.6395 40.5283 22.6045 42.167C22.4119 42.4675 22.1816 42.7421 21.9193 42.984C21.7122 43.1741 21.4858 43.342 21.2437 43.4847C20.5163 43.906 19.6883 44.1221 18.8478 44.11C17.1707 44.11 15.3451 43.3554 13.8549 41.9346C13.7646 42.0449 13.6678 42.1497 13.565 42.2485C12.7064 43.0562 11.5643 43.4935 10.3857 43.4656C10.0549 43.4655 9.72473 43.4375 9.39865 43.3817C7.72879 43.067 6.20291 42.2277 5.04303 40.9859C3.84447 39.7816 3.0614 38.2264 2.80772 36.5464C2.59209 34.8909 3.0473 33.4318 4.08709 32.4256C4.77203 31.7776 5.64904 31.3698 6.58594 31.2636C6.48292 31.1222 6.3823 30.9761 6.28647 30.818C5.45966 29.4004 5.2084 27.7195 5.58449 26.1221C5.70784 25.5788 5.947 25.0685 6.28564 24.6261C6.62428 24.1837 7.05442 23.8195 7.54667 23.5586C7.62813 23.5155 7.70719 23.4795 7.78626 23.4412L7.06751 20.2907C7.03057 20.109 7.06528 19.92 7.1644 19.7633C7.26352 19.6066 7.41937 19.4942 7.59938 19.4497L9.99522 18.9131C9.9116 18.854 9.83159 18.79 9.75563 18.7214C8.81055 18.1466 8.06911 17.2904 7.63532 16.2729C6.95816 14.7015 6.82823 12.9483 7.26636 11.2943C7.65928 9.6266 8.60086 8.13914 9.94011 7.07046C10.8839 6.30312 12.066 5.88958 13.2823 5.90129C15.968 2.42494 22.3601 0.95869 28.4767 2.47525C34.5932 3.99181 39.5502 8.31869 40.2881 12.6504C42.6073 13.8483 43.8076 16.994 43.0098 20.202C42.2383 23.295 39.8545 25.4729 37.3437 25.5903C37.1795 25.6358 37.0107 25.6623 36.8405 25.6693C36.5723 25.6836 36.3033 25.67 36.0379 25.6286C35.7114 26.2743 35.2916 26.8684 34.7921 27.3919C34.2451 27.9624 33.6151 28.447 32.9233 28.8294C32.7413 28.93 32.5592 29.0235 32.3675 29.1121C31.8265 29.3622 31.2655 29.5666 30.6904 29.7231C31.6967 30.2262 32.873 31.3498 34.1907 33.53C34.2794 33.6714 36.2895 37.0399 35.5228 39.5604C35.3957 39.9919 35.1767 40.3907 34.8807 40.7295C34.577 41.0708 34.2047 41.3443 33.7882 41.5321C33.3716 41.7252 32.9178 41.825 32.4585 41.8244C31.9533 41.8207 31.4545 41.7105 30.9947 41.501C30.3531 41.2059 29.7815 40.778 29.3176 40.2456C29.2433 40.1617 29.1667 40.0707 29.078 39.9772C29.0526 39.9808 29.027 39.9824 29.0014 39.982V39.9653ZM28.6947 24.2821C28.6472 24.2957 28.5968 24.2953 28.5496 24.281C28.5023 24.2666 28.4603 24.2389 28.4284 24.2012C28.3965 24.1635 28.3762 24.1174 28.3699 24.0684C28.3636 24.0195 28.3715 23.9697 28.3928 23.9251L29.0589 22.5547C29.4597 22.4102 29.8151 22.1622 30.0891 21.836C30.2686 21.8888 30.4592 21.8913 30.6401 21.8432C30.8209 21.795 30.985 21.698 31.1145 21.5629C31.2019 21.4661 31.2683 21.3523 31.3096 21.2286C31.3508 21.1049 31.3659 20.974 31.3541 20.8441C31.3379 20.7026 31.293 20.5658 31.2221 20.4422C31.1513 20.3186 31.056 20.2108 30.942 20.1254L29.3248 18.8939C29.7081 18.2087 29.8782 17.89 29.9621 17.7295C29.9876 17.6777 30.031 17.6369 30.0843 17.6145C30.4199 17.464 30.7746 17.36 31.1384 17.3055C31.0887 16.1872 31.1103 15.0668 31.2031 13.9513C31.3194 12.7954 31.3194 11.6308 31.2031 10.4749C31.1816 10.3599 31.16 10.2473 31.1432 10.1371C31.0498 9.56213 30.8605 8.97515 31.2007 8.829C31.9051 8.52234 34.6531 9.81369 36.3614 12.7989C36.6421 12.5909 36.9543 12.4291 37.2862 12.3197C36.7716 11.4211 36.1146 10.612 35.3407 9.9239C34.9899 9.61261 34.6185 9.32526 34.2291 9.06379C33.2715 8.41881 32.2036 7.95512 31.0785 7.69577H31.0642C30.7982 7.52088 30.5419 7.36275 30.3023 7.21661C29.4446 6.71594 28.529 6.32171 27.5758 6.04265C26.603 5.84245 25.6094 5.76199 24.617 5.80306C24.3415 5.80306 24.0396 5.83181 23.7233 5.86056H23.6946C22.5805 5.56067 21.4205 5.46969 20.2733 5.59223C19.8058 5.63855 19.3422 5.71862 18.8862 5.83181C17.8843 6.07249 16.9274 6.47206 16.0519 7.01536C16.2889 7.27171 16.483 7.56455 16.6269 7.88265C19.5354 6.04744 22.5709 6.20556 23.0477 6.79973C23.2873 7.08963 22.8369 7.51848 22.4847 7.98327L22.281 8.25161C21.6333 9.2171 21.0843 10.2453 20.6423 11.3207C20.0854 12.6396 19.4051 13.9031 18.6106 15.0941C17.817 16.2859 16.8318 17.3383 15.6949 18.2087C15.7121 18.2498 15.7257 18.2923 15.7356 18.3357L17.5804 26.5534C18.4435 27.0129 19.3368 27.4131 20.2542 27.7513C20.828 27.9694 21.4125 28.1582 22.0055 28.3167C23.9416 28.7491 25.9289 28.9064 27.9089 28.7839C29.2063 28.713 30.4815 28.4171 31.6775 27.9094L32.3651 27.5596C33.3641 26.9992 34.1853 26.169 34.7346 25.1638C34.038 24.7534 33.4434 24.1907 32.9952 23.5179C32.7344 23.138 32.5053 22.7373 32.31 22.3199C31.7114 22.8592 31.0434 23.316 30.3239 23.6784C29.7991 23.9304 29.2542 24.138 28.6947 24.2989V24.2821ZM27.5231 36.9609C27.4752 36.8195 27.4249 36.671 27.3794 36.5176L27.3434 36.4002C26.929 35.0658 25.9227 31.8098 27.4584 30.1711C26.1906 30.2219 24.9208 30.1618 23.6634 29.9914C23.086 29.9171 22.6069 29.8309 22.2595 29.7518C21.9121 29.6728 21.7084 29.632 21.6749 29.6248C20.4021 29.2916 19.1617 28.845 17.9685 28.2904L18.1578 29.1457C18.1788 29.2358 18.1818 29.3292 18.1666 29.4205C18.1514 29.5117 18.1183 29.5991 18.0692 29.6775C17.9678 29.8338 17.8098 29.9446 17.6283 29.9866L12.7169 31.0887C12.6359 31.4927 12.4257 31.8593 12.1179 32.1333C11.8853 32.3355 11.6205 32.4974 11.3345 32.6124C11.662 32.8442 11.9734 33.098 12.2665 33.3719C12.3922 33.2153 12.5292 33.068 12.6762 32.9311C13.7399 31.956 15.2277 31.5894 16.8689 31.9033C18.51 32.254 19.9984 33.1143 21.1215 34.3614C23.4318 34.7164 25.6255 35.6129 27.5231 36.9776V36.9609ZM27.5231 4.60275C27.734 4.64109 27.8633 4.67223 27.8945 4.67942C29.2186 5.059 30.4784 5.6348 31.632 6.38765C32.8008 6.69371 33.9113 7.18988 34.9191 7.85629C36.5058 8.90206 37.7996 10.3352 38.6781 12.0203C37.6168 8.86494 33.7188 5.21609 28.1365 3.82171C22.626 2.4489 17.5948 3.75223 15.1319 5.97796C16.3968 5.14795 17.8173 4.58379 19.307 4.31979C20.7967 4.05579 22.3245 4.09744 23.7976 4.44223C24.7551 4.36423 25.7179 4.37867 26.6726 4.48536C27.0224 4.53327 27.3123 4.58119 27.5279 4.61952L27.5231 4.60275ZM13.3614 20.099C13.4516 20.0785 13.5451 20.076 13.6364 20.0916C13.7276 20.1072 13.8149 20.1407 13.8932 20.19C14.0495 20.2914 14.1603 20.4494 14.2023 20.6309L14.7366 23.0267C14.7571 23.1169 14.7596 23.2102 14.7439 23.3013C14.7283 23.3924 14.6948 23.4796 14.6454 23.5577C14.5959 23.6358 14.5316 23.7034 14.4559 23.7566C14.3803 23.8098 14.2949 23.8475 14.2047 23.8676L11.3153 24.5169C11.3955 24.6816 11.4651 24.8513 11.5238 25.0248C11.8188 24.7588 12.178 24.5738 12.5659 24.4882C12.9101 24.4114 13.2671 24.4135 13.6104 24.4942C13.9536 24.5749 14.2741 24.7322 14.548 24.9543C14.8219 25.1764 15.0419 25.4576 15.1918 25.7768C15.3416 26.096 15.4173 26.4449 15.4132 26.7975C15.4091 27.1501 15.3254 27.4972 15.1682 27.8128C15.011 28.1284 14.7845 28.4044 14.5056 28.6201C14.2266 28.8358 13.9025 28.9857 13.5575 29.0584C13.2125 29.1312 12.8555 29.125 12.5132 29.0403C12.4496 29.1431 12.3792 29.2415 12.3024 29.3349C12.3929 29.45 12.4694 29.5755 12.53 29.7087L16.6365 28.7839L14.5185 19.3395L8.60324 20.6692L9.14949 23.0986C9.35942 23.0943 9.56896 23.1185 9.7724 23.1705L9.44178 21.6994C9.42153 21.6094 9.41936 21.5162 9.4354 21.4253C9.45144 21.3344 9.48537 21.2476 9.53522 21.1699C9.58365 21.0915 9.64746 21.0237 9.72281 20.9706C9.79816 20.9174 9.88349 20.8801 9.97365 20.8609L13.3614 20.099ZM13.2128 22.6386L12.9732 21.6252L10.9583 22.078L11.1859 23.0914L13.2128 22.6386Z" fill="black"/>
<path d="M6.26045 35.5209C6.60784 35.9809 7.16847 36.1438 7.51107 35.8851C7.85368 35.6263 7.84889 35.0441 7.49909 34.5841C7.1493 34.1241 6.59347 33.9588 6.24847 34.2176C5.90347 34.4763 5.91305 35.0585 6.26045 35.5209ZM8.53409 34.8812C8.88149 35.3436 9.44211 35.5065 9.78472 35.2478C10.1273 34.989 10.1225 34.4068 9.78472 33.9444C9.44691 33.482 8.8743 33.3215 8.53409 33.5803C8.19389 33.839 8.1843 34.4212 8.53409 34.8812ZM7.05587 39.6369C7.51347 40.2622 8.57482 40.6216 9.48764 40.6863C9.83641 40.7049 10.1862 40.6905 10.5322 40.6432C10.5564 40.6403 10.5795 40.6319 10.5999 40.6186C10.6202 40.6053 10.6373 40.5875 10.6496 40.5665C10.6607 40.545 10.6666 40.5212 10.6666 40.497C10.6666 40.4729 10.6607 40.449 10.6496 40.4276L10.0315 39.0715L9.79191 39.5507C9.77573 39.5828 9.75314 39.6113 9.72553 39.6344C9.69792 39.6575 9.66588 39.6746 9.63139 39.6848C9.59899 39.6916 9.56555 39.6916 9.53316 39.6848C9.47069 39.6769 9.41302 39.6472 9.37024 39.601C9.34927 39.5771 9.33301 39.5495 9.32232 39.5195L8.98212 38.6091L8.81201 38.1563L8.66826 37.7754C8.65797 37.7477 8.63977 37.7236 8.61592 37.7061C8.59207 37.6887 8.56362 37.6786 8.53409 37.6771C8.11132 37.625 7.68358 37.7216 7.3242 37.9503L7.30743 37.9622H7.29305C7.14187 38.0838 7.02331 38.2411 6.94805 38.4198C6.91861 38.4851 6.89379 38.5524 6.87378 38.6211C6.8618 38.669 6.84982 38.7169 6.84264 38.7625C6.81868 38.8923 6.81868 39.0255 6.84264 39.1554C6.84148 39.1649 6.84148 39.1746 6.84264 39.1841C6.84553 39.2006 6.85036 39.2167 6.85701 39.232C6.8614 39.2573 6.86781 39.2821 6.87618 39.3063V39.3303C6.88547 39.3574 6.89668 39.3838 6.90972 39.4093L6.9217 39.4381L6.95764 39.5076L6.98159 39.5435C6.99597 39.5698 7.01514 39.5962 7.03191 39.6226C7.04868 39.6489 7.03191 39.6226 7.03191 39.6369H7.05587ZM5.03139 37.5573C5.37878 38.0197 5.93941 38.1827 6.28201 37.9215C6.62461 37.6604 6.61982 37.0806 6.27003 36.6206C5.92024 36.1606 5.36441 35.9953 5.0218 36.2564C4.6792 36.5176 4.68639 37.0973 5.03139 37.5573ZM11.6607 38.6115C11.9481 39.4294 12.3629 40.1967 12.8897 40.8852C12.7954 41.0165 12.6896 41.1392 12.5735 41.2517C11.8547 41.9369 10.8125 42.2101 9.61462 42.0088C8.24335 41.7439 6.99212 41.0491 6.04243 40.0251C5.05258 39.0394 4.40297 37.7637 4.18805 36.3834C4.03232 35.1855 4.33899 34.1385 5.05055 33.4533C5.65244 32.8965 6.44961 32.5995 7.26909 32.6267C8.66826 32.6267 10.2759 33.3455 11.56 34.656C11.3547 35.2504 11.2581 35.8769 11.2749 36.5056L11.2126 36.4337L11.1839 36.4026L11.1312 36.3475L11.1048 36.3283C11.0843 36.3087 11.0627 36.2903 11.0401 36.2732L11.0186 36.2588L10.9539 36.2157L10.9108 36.1893L10.8868 36.1773C10.7253 36.0964 10.5476 36.0529 10.3669 36.0504C10.1127 36.0422 9.86201 36.1115 9.64816 36.2492H9.63378C9.62924 36.2545 9.62349 36.2586 9.61701 36.2612C9.33086 36.4976 9.1291 36.8204 9.04201 37.1812C9.0301 37.2137 9.0301 37.2493 9.04201 37.2818L9.08274 37.3872C9.08274 37.404 9.08274 37.4184 9.09951 37.4352L9.14743 37.555C9.23607 37.7945 9.38701 38.1635 9.62659 38.7936L9.8518 38.36C9.87923 38.3079 9.92373 38.2669 9.97782 38.2438C10.0319 38.2207 10.0923 38.2168 10.1489 38.233C10.1855 38.2445 10.2191 38.2637 10.2476 38.2893C10.2762 38.3149 10.2989 38.3464 10.3142 38.3815L11.0329 39.9676C11.0446 39.9954 11.0643 40.0191 11.0894 40.0359C11.1146 40.0526 11.1441 40.0615 11.1743 40.0615C11.2045 40.0615 11.234 40.0526 11.2592 40.0359C11.2843 40.0191 11.304 39.9954 11.3157 39.9676C11.342 39.9029 11.3708 39.8358 11.3971 39.7687C11.4786 39.5629 11.545 39.3516 11.596 39.1362C11.6282 38.9627 11.6506 38.7875 11.6631 38.6115H11.6607Z" fill="white"/>
<path d="M9.78446 35.2475C9.44185 35.5062 8.88123 35.3433 8.53383 34.8809C8.18644 34.4185 8.18164 33.8387 8.53383 33.58C8.88602 33.3212 9.43466 33.4841 9.78446 33.9441C10.1342 34.4041 10.1247 34.9791 9.78446 35.2475Z" fill="black"/>
<path d="M10.6521 40.4272C10.6632 40.4487 10.669 40.4725 10.669 40.4967C10.669 40.5209 10.6632 40.5447 10.6521 40.5662C10.6397 40.5871 10.6227 40.6049 10.6023 40.6182C10.582 40.6315 10.5588 40.64 10.5347 40.6428C10.1886 40.6901 9.83886 40.7046 9.49009 40.686C8.57727 40.6213 7.51592 40.2619 7.05831 39.6366C7.05831 39.6366 7.05831 39.6366 7.05831 39.6222C7.05831 39.6078 7.02238 39.5695 7.008 39.5432L6.98404 39.5072L6.94811 39.4377L6.93613 39.409C6.92308 39.3835 6.91187 39.357 6.90259 39.3299V39.306C6.89422 39.2818 6.88781 39.2569 6.88342 39.2317C6.87676 39.2163 6.87194 39.2003 6.86904 39.1838C6.86789 39.1742 6.86789 39.1646 6.86904 39.155C6.84508 39.0252 6.84508 38.892 6.86904 38.7621C6.86904 38.7166 6.88821 38.6687 6.90019 38.6208C6.9202 38.552 6.94501 38.4848 6.97446 38.4195C7.04862 38.2501 7.16194 38.1006 7.30509 37.9835H7.31946L7.33623 37.9715C7.69561 37.7428 8.12335 37.6462 8.54613 37.6984C8.57565 37.6998 8.60411 37.7099 8.62796 37.7273C8.65181 37.7448 8.67001 37.7689 8.68029 37.7966L8.82404 38.1775L8.99415 38.6303L9.31998 39.5312C9.33066 39.5611 9.34692 39.5888 9.3679 39.6126C9.41068 39.6588 9.46835 39.6885 9.53081 39.6965C9.56321 39.7033 9.59665 39.7033 9.62904 39.6965C9.66354 39.6863 9.69558 39.6691 9.72319 39.646C9.75079 39.6229 9.77338 39.5945 9.78956 39.5623L10.0291 39.0832L10.6521 40.4272Z" fill="black"/>
<path d="M6.24848 34.2176C6.59348 33.9588 7.15171 34.1218 7.49911 34.5842C7.8465 35.0466 7.85129 35.6263 7.51109 35.8851C7.17088 36.1438 6.60786 35.9809 6.26046 35.5209C5.91307 35.0609 5.90827 34.4763 6.24848 34.2176Z" fill="black"/>
<path d="M6.28446 37.9209C5.94185 38.182 5.38123 38.0191 5.03383 37.5567C4.68644 37.0943 4.68164 36.5145 5.03383 36.2558C5.38602 35.997 5.93466 36.1599 6.28206 36.6199C6.62946 37.0799 6.62706 37.6645 6.28446 37.9209Z" fill="black"/>
</svg>
