<svg id="Layer_1" data-name="Layer 1" xmlns="http://www.w3.org/2000/svg" viewBox="0 0 192 192"><path d="M81.46,55h30a0,0,0,0,1,0,0v114.8a9.58,9.58,0,0,1-9.58,9.58H91a9.58,9.58,0,0,1-9.58-9.58V55a0,0,0,0,1,0,0Z" transform="translate(-6.94 6.07) rotate(-3.48)" fill="#f16e24"/><path d="M94.23,183.81a13.72,13.72,0,0,1-13.69-12.9L73.32,52.18l38.26-2.33,7.22,118.73a13.76,13.76,0,0,1-12.88,14.55h0l-10.84.66ZM82.12,60l6.72,110.44a5.4,5.4,0,0,0,5.73,5.08l10.85-.66a5.43,5.43,0,0,0,5.08-5.74L103.78,58.65Z"/><path d="M148.92,51.74c-1.39-22.87-19.83-40.35-41.2-39.05l-32.52,2,.62,10.27h0l0-.85a9.43,9.43,0,0,0-10-8.84L53.44,16a9.57,9.57,0,0,0-9,10.13l1.36,22.31A9.57,9.57,0,0,0,56,57.4l12.51-.76a9.29,9.29,0,0,0,8.67-10l0-.85h0l.63,10.26,30-1.82L107.05,44l13.26-.8c20.75-1.26,28.61,8.56,28.61,8.56Z" fill="#8b8a8a"/><path d="M55.36,61.57A13.72,13.72,0,0,1,41.68,48.68L40.32,26.37A13.72,13.72,0,0,1,53.19,11.84l12.34-.75a13.63,13.63,0,0,1,6.31,1.12l.25-.3A4.11,4.11,0,0,1,75,10.52l32.52-2a41.39,41.39,0,0,1,31.2,11.59,46.9,46.9,0,0,1,14.4,31.36,4.16,4.16,0,0,1-7.37,2.89c-.35-.42-7.2-8.14-25.14-7.05l-9.1.55.37,6.12a4.16,4.16,0,0,1-3.9,4.4L78,60.22a4.15,4.15,0,0,1-3-1l-.25-.25a13.24,13.24,0,0,1-6,1.85l-12.52.76Zm11-42.19H66l-12.35.75a5.41,5.41,0,0,0-5.07,5.73L50,48.17a5.4,5.4,0,0,0,5.73,5.08l12.51-.76A5.13,5.13,0,0,0,73,46.91l0-.85a4.16,4.16,0,0,1,8.3-.51h0l.37,6.11,21.67-1.32-.37-6.11a4.15,4.15,0,0,1,3.89-4.41l13.26-.8c10.37-.63,17.91,1.34,23.06,3.71A37.86,37.86,0,0,0,133,26.17a33.08,33.08,0,0,0-25-9.33L79.6,18.56,80,24.68a4.16,4.16,0,0,1-8.3.51h0l0-.85a5.27,5.27,0,0,0-5.26-4.95Z"/></svg>