<svg width="50" height="50" viewBox="0 0 50 50" fill="none" xmlns="http://www.w3.org/2000/svg">
<g id="love_love_white">
<path id="Vector" d="M47.867 17.1064C47.867 17.0622 47.867 17.0283 47.867 16.984C47.8684 16.7047 47.8527 16.4255 47.8201 16.1481C47.8201 16.0257 47.7992 15.8877 47.7862 15.7835C47.7524 15.5674 47.7263 15.3408 47.6847 15.1168C47.669 15.0335 47.6456 14.958 47.6352 14.8564C47.5779 14.596 47.5154 14.3721 47.4425 14.1299C47.4229 14.0532 47.3994 13.9776 47.3722 13.9033C47.311 13.6895 47.2318 13.4812 47.1352 13.2809C47.0831 13.1377 47.0388 13.0049 46.9789 12.8747C46.9451 12.7913 46.9034 12.721 46.8722 12.6559C46.3558 11.6256 45.6661 10.6919 44.8331 9.89549C44.533 9.60299 44.2183 9.32573 43.8904 9.06476C43.3938 8.68796 42.8717 8.34599 42.3279 8.04133C40.9343 7.23584 39.368 6.77595 37.7602 6.70018C37.7087 6.69833 37.6574 6.69311 37.6065 6.68455C37.5727 6.68455 37.518 6.68455 37.4841 6.68455C37.4255 6.67546 37.3657 6.67546 37.3071 6.68455C33.3331 6.68455 29.768 9.00226 27.4112 10.9997C26.5654 11.7621 25.7604 12.5688 24.9998 13.4163C24.2356 12.5703 23.4272 11.7654 22.5779 11.0049C20.2341 9.00747 16.6612 6.68455 12.6821 6.68976C12.6234 6.68067 12.5636 6.68067 12.505 6.68976C12.4711 6.68976 12.4164 6.68976 12.3826 6.68976C12.3318 6.69831 12.2804 6.70353 12.2289 6.70539C10.622 6.78157 9.05663 7.24144 7.66383 8.04653C7.11999 8.3512 6.59791 8.69317 6.10132 9.06997C5.77618 9.32945 5.46416 9.60496 5.16643 9.89549C4.3318 10.694 3.64113 11.6305 3.12476 12.6637C3.09351 12.7288 3.05185 12.7991 3.0206 12.8825C2.9581 13.0127 2.91382 13.1429 2.86174 13.2887C2.76647 13.4887 2.68723 13.696 2.62476 13.9085C2.59749 13.9828 2.57402 14.0584 2.55445 14.1351C2.48153 14.3773 2.41903 14.6142 2.36174 14.8616C2.36174 14.958 2.32789 15.0335 2.31226 15.1221C2.2706 15.346 2.24455 15.5726 2.2107 15.7887C2.2107 15.9007 2.18205 16.0309 2.17685 16.1533C2.14421 16.4307 2.12856 16.7099 2.12997 16.9892C2.12997 17.0335 2.12997 17.0674 2.12997 17.1116V17.1299C2.10914 23.8773 7.70028 31.859 13.7654 37.0361C15.893 38.859 22.2003 43.32 25.0024 43.32C27.8045 43.32 34.117 38.8668 36.2393 37.0361C42.3045 31.859 47.8956 23.8773 47.8748 17.1299L47.867 17.1064Z" fill="white"/>
</g>
</svg>
