<svg width="50" height="50" viewBox="0 0 50 50" fill="none" xmlns="http://www.w3.org/2000/svg">
<g id="saro_verified_badge_white">
<path id="Vector" d="M20.2864 30.8275C20.0316 30.7309 19.7974 30.5869 19.5963 30.403C19.2208 30.0537 18.9848 29.5799 18.9323 29.0697C18.9111 28.8149 18.9349 28.5584 19.0026 28.3118C19.6432 26.0671 20.4218 23.3275 21.164 20.6947C21.5416 19.3926 21.9062 18.0905 22.2447 16.9004C22.5833 15.7103 22.8854 14.6165 23.1354 13.7103C23.1993 13.4776 23.1956 13.2315 23.1245 13.0008C23.0535 12.7702 22.9181 12.5646 22.7343 12.4082C20.539 10.5488 17.2031 8.37694 13.4895 8.38476C13.4343 8.37696 13.3782 8.37696 13.3229 8.38476C13.289 8.38476 13.2395 8.38476 13.2083 8.38476C13.1597 8.38816 13.111 8.38816 13.0625 8.38476C11.5587 8.45842 10.0944 8.89057 8.79163 9.64517C8.28464 9.93029 7.79821 10.2505 7.3359 10.6035C7.02852 10.8477 6.73469 11.1085 6.45569 11.3848C5.67785 12.1289 5.03468 13.002 4.55465 13.9655C4.526 14.028 4.48694 14.0957 4.45569 14.1712C4.3984 14.2936 4.35934 14.4316 4.30726 14.5488C4.21891 14.7362 4.14576 14.9304 4.0885 15.1296C4.06091 15.199 4.03829 15.2704 4.0208 15.3431C3.95309 15.5697 3.89319 15.791 3.84111 16.0202C3.83024 16.1018 3.81459 16.1826 3.79423 16.2624C3.75517 16.4707 3.72913 16.6816 3.70048 16.8822C3.68746 16.9889 3.67184 17.1113 3.66663 17.2259C3.63567 17.4851 3.62175 17.7461 3.62496 18.0072C3.62496 18.0488 3.62496 18.0801 3.62496 18.1217V18.1374C3.60413 24.4447 8.83329 31.9082 14.5026 36.7493C16.6041 38.5723 19.3567 40.2598 21.5599 41.4994C21.7306 41.5929 21.9208 41.6453 22.1153 41.6524C22.3099 41.6595 22.5034 41.621 22.6804 41.5401C22.8575 41.4591 23.0132 41.338 23.1351 41.1862C23.257 41.0345 23.3418 40.8563 23.3828 40.666L25.8645 28.7936L21.9713 30.7025C21.7148 30.8398 21.4323 30.9219 21.1421 30.9434C20.8519 30.965 20.5604 30.9255 20.2864 30.8275Z" fill="white"/>
<path id="Vector_2" d="M46.3774 17.9138C46.3766 17.6529 46.3627 17.3921 46.3358 17.1326C46.3278 17.0207 46.313 16.9094 46.2915 16.7993C46.2759 16.5883 46.2394 16.3904 46.2056 16.1769C46.1795 16.0961 46.1691 16.0206 46.1457 15.9164C46.0962 15.7003 46.0415 15.4737 45.9686 15.242C45.9515 15.1725 45.9289 15.1046 45.9009 15.0388C45.8448 14.84 45.7734 14.6459 45.6873 14.4581C45.6405 14.3253 45.5806 14.1977 45.5389 14.0727C45.4969 14.0072 45.4604 13.9384 45.4295 13.867C44.7633 12.5536 43.8036 11.4113 42.6248 10.5284C40.9944 9.22127 38.9975 8.45401 36.9113 8.33311C36.8593 8.32933 36.8071 8.32933 36.755 8.33311C36.716 8.33033 36.6769 8.33033 36.6379 8.33311C36.585 8.32907 36.5319 8.32907 36.479 8.33311C33.2889 8.33311 30.4061 9.93728 28.2603 11.5831C28.0386 11.7511 27.8814 11.9901 27.8149 12.2602C27.7603 12.4894 27.6795 12.781 27.5832 13.1534C27.5493 13.2888 27.5076 13.4138 27.4712 13.5649C27.3905 13.8565 27.2993 14.1951 27.1925 14.5727C26.6717 16.5076 25.7681 19.6716 24.2681 24.9477L27.8644 23.2003C28.2944 22.9902 28.7836 22.9345 29.2498 23.0426C29.716 23.1508 30.1307 23.4161 30.4243 23.794C30.6096 24.0467 30.7374 24.3368 30.7985 24.6441C30.8597 24.9514 30.8529 25.2683 30.7785 25.5727L27.8644 39.4581C27.8161 39.6961 27.8376 39.943 27.9263 40.169C28.015 40.3951 28.1671 40.5907 28.3644 40.7324C28.5616 40.8741 28.7956 40.9557 29.0381 40.9676C29.2807 40.9795 29.5215 40.921 29.7316 40.7992C30.2186 40.5102 30.7186 40.2003 31.229 39.8826C32.7585 38.9324 34.2187 37.875 35.5988 36.7185C41.2368 31.8591 46.4295 24.3644 46.3853 18.0597C46.3898 18.0109 46.3872 17.9618 46.3774 17.9138Z" fill="white"/>
</g>
</svg>
