<svg width="64" height="64" viewBox="0 0 64 64" fill="none" xmlns="http://www.w3.org/2000/svg">
<g id="saro_middle_finger_dark">
<path id="Vector" d="M60.0301 29.1594C60.3635 31.4194 60.5401 34.6194 59.5035 37.0361C58.8801 38.4861 57.8768 39.4561 56.6001 39.8394C56.1396 39.9785 55.666 40.0701 55.1868 40.1127C54.9017 41.3751 54.431 42.5883 53.7901 43.7127C53.0864 44.9382 52.2008 46.0498 51.1635 47.0094C50.8935 47.2627 50.6135 47.5027 50.3235 47.7394C49.2361 48.6189 48.0557 49.3767 46.8035 49.9994C45.646 50.5786 44.4472 51.0711 43.2168 51.4727C40.7415 52.2703 38.1919 52.8153 35.6068 53.0994C34.5701 53.2194 33.7001 53.2794 33.0701 53.3094C32.4401 53.3394 32.0701 53.3427 32.0001 53.3427C28.1909 53.2604 24.4134 52.6306 20.7835 51.4727C19.5531 51.0711 18.3542 50.5786 17.1968 49.9994C15.9411 49.3774 14.7573 48.6195 13.6668 47.7394C13.3768 47.5027 13.0968 47.2627 12.8268 47.0094C11.7904 46.0489 10.9049 44.9375 10.2001 43.7127C9.55927 42.5883 9.0886 41.3751 8.80348 40.1127C8.32428 40.0701 7.85071 39.9785 7.39015 39.8394C6.11348 39.4561 5.11015 38.4861 4.48682 37.0361C3.45015 34.6194 3.62682 31.4194 3.96348 29.1594C4.42217 26.1027 5.35683 23.1368 6.73348 20.3694C10.0335 13.8427 14.9168 10.9994 18.4301 9.77273C20.4656 9.0542 22.6051 8.67471 24.7635 8.6494C26.3885 8.09969 28.063 7.70897 29.7635 7.48273C30.4068 7.39607 30.9401 7.3494 31.3235 7.32607C31.7068 7.30273 31.9435 7.30273 31.9901 7.30273C34.4523 7.38163 36.8886 7.83113 39.2168 8.63607C41.3752 8.66089 43.5149 9.04039 45.5501 9.7594C49.0668 10.9894 53.9501 13.8294 57.2501 20.3561C58.63 23.1277 59.568 26.098 60.0301 29.1594ZM57.2568 36.0727C58.5901 32.9994 57.5901 26.4527 55.0835 21.4727C53.1701 17.6827 50.5135 14.8861 47.1668 13.1394C46.4223 12.7524 45.6515 12.4182 44.8601 12.1394C42.9201 11.4357 40.8667 11.0966 38.8035 11.1394H38.7735C38.2368 10.9494 37.7235 10.7894 37.2468 10.6527C35.5414 10.138 33.7794 9.83354 32.0001 9.74607C30.2252 9.81782 28.4656 10.1055 26.7601 10.6027C26.2835 10.7394 25.7601 10.8994 25.2335 11.0894H25.2035C23.1402 11.0466 21.0868 11.3857 19.1468 12.0894C18.3554 12.3682 17.5846 12.7024 16.8401 13.0894C13.5068 14.8494 10.8401 17.6461 8.92348 21.4227C6.40015 26.4527 5.42682 32.9994 6.74348 36.0727C7.07682 36.8594 7.52682 37.3227 8.10682 37.4994C8.22618 37.536 8.34748 37.5661 8.47015 37.5894C9.28183 37.7584 10.1242 37.7031 10.9068 37.4294C11.4819 37.2302 12.0269 36.9532 12.5268 36.6061C11.3135 36.7994 10.0435 36.6961 9.11348 35.9394C7.59015 34.7061 7.57682 30.9061 9.44682 25.1327C12.8935 14.4661 22.9501 11.8694 24.4935 13.0527C25.0201 13.4561 24.4401 14.3861 24.0301 15.3494C23.9501 15.5327 23.8668 15.7194 23.7768 15.9094C22.9968 17.9094 22.6501 19.8127 22.2635 21.9427C21.8742 24.4757 21.2447 26.9658 20.3835 29.3794C19.0501 32.9761 17.1868 35.8794 15.0101 37.7794C13.9416 38.7532 12.6664 39.4724 11.2801 39.8827C11.7903 41.869 12.8483 43.672 14.3335 45.0861L15.3868 45.9994C17.2462 47.3951 19.3323 48.4596 21.5535 49.1461C23.8825 49.8941 26.2815 50.4033 28.7135 50.6661C30.6668 50.8861 31.9735 50.8927 32.0001 50.8927C35.5471 50.804 39.0639 50.216 42.4468 49.1461C44.668 48.4596 46.7541 47.3951 48.6135 45.9994L49.6568 45.0927C51.1487 43.6798 52.2126 41.8754 52.7268 39.8861C51.3411 39.4733 50.067 38.7519 49.0001 37.7761C48.3823 37.2306 47.8103 36.6353 47.2901 35.9961C46.4856 37.1918 45.5236 38.2738 44.4301 39.2127C43.6276 39.8745 42.77 40.4667 41.8668 40.9827C41.7906 41.0243 41.7041 41.0433 41.6174 41.0375C41.5307 41.0317 41.4475 41.0013 41.3776 40.9499C41.3076 40.8984 41.2537 40.8281 41.2223 40.7471C41.1909 40.6662 41.1832 40.5779 41.2001 40.4927L41.7635 37.8261C42.3966 37.3971 42.9049 36.8083 43.2368 36.1194C44.2368 36.0561 44.6801 35.5761 44.9035 35.1694C45.0117 34.9613 45.0756 34.7329 45.091 34.4988C45.1065 34.2647 45.0733 34.03 44.9935 33.8094C44.9039 33.5694 44.7663 33.3502 44.5893 33.1651C44.4122 32.98 44.1993 32.8329 43.9635 32.7327L40.6301 31.2927C41.0068 29.9594 41.1768 29.3427 41.2535 29.0361C41.276 28.9366 41.3326 28.8482 41.4135 28.7861C41.931 28.3772 42.5018 28.0408 43.1101 27.7861C42.5396 25.8647 42.0943 23.9084 41.7768 21.9294C41.3901 19.7994 41.0435 17.8861 40.2601 15.8961C40.1735 15.705 40.0901 15.5183 40.0101 15.3361C39.6001 14.3827 39.0101 13.4427 39.5468 13.0394C41.0868 11.8561 51.1468 14.4494 54.5935 25.1194C56.4568 30.8927 56.4401 34.6927 54.9268 35.9261C53.9968 36.6861 52.7268 36.7894 51.5135 36.5927C52.0126 36.9391 52.5565 37.2161 53.1301 37.4161C53.9139 37.6897 54.7574 37.745 55.5701 37.5761C55.6928 37.5528 55.8141 37.5227 55.9335 37.4861C56.4735 37.3327 56.9201 36.8594 57.2568 36.0727Z" fill="black"/>
<path id="Vector_2" d="M55.0834 21.4728C57.6001 26.4528 58.5767 32.9994 57.2567 36.0728C56.9234 36.8594 56.4734 37.3228 55.8934 37.4994C55.774 37.5361 55.6528 37.5661 55.5301 37.5894C54.7173 37.7584 53.8739 37.7031 53.0901 37.4294C52.5164 37.2294 51.9725 36.9525 51.4734 36.6061C52.6867 36.7994 53.9567 36.6961 54.8867 35.9394C56.4067 34.7061 56.4234 30.9061 54.5534 25.1328C51.1068 14.4661 41.0467 11.8694 39.5067 13.0528C38.9801 13.4561 39.5601 14.3861 39.9701 15.3494C40.0501 15.5339 40.1334 15.7205 40.2201 15.9094C41.0034 17.9094 41.3501 19.8128 41.7367 21.9428C42.0542 23.9217 42.4996 25.8781 43.0701 27.7994C42.4617 28.0542 41.8909 28.3906 41.3734 28.7994C41.2925 28.8615 41.2359 28.95 41.2134 29.0494C41.1367 29.3561 40.9667 29.9761 40.5901 31.3061L43.9234 32.7461C44.1592 32.8462 44.3721 32.9933 44.5492 33.1784C44.7263 33.3636 44.8638 33.5828 44.9534 33.8228C45.0332 34.0434 45.0665 34.2781 45.051 34.5122C45.0355 34.7463 44.9716 34.9746 44.8634 35.1828C44.6534 35.5894 44.1967 36.0694 43.1967 36.1328C42.8648 36.8217 42.3565 37.4105 41.7234 37.8394L41.1601 40.5061C41.1431 40.5913 41.1508 40.6795 41.1822 40.7605C41.2137 40.8415 41.2675 40.9118 41.3375 40.9632C41.4075 41.0147 41.4907 41.0451 41.5773 41.0509C41.664 41.0567 41.7505 41.0377 41.8267 40.9961C42.73 40.4801 43.5875 39.8879 44.3901 39.2261C45.4835 38.2872 46.4455 37.2052 47.2501 36.0094C47.7703 36.6487 48.3422 37.244 48.9601 37.7894C50.0286 38.7633 51.3038 39.4824 52.6901 39.8928C52.1867 41.8721 51.1394 43.671 49.6667 45.0861L48.6134 45.9994C46.7541 47.3951 44.6679 48.4596 42.4467 49.1461C39.0635 50.2138 35.5467 50.7995 32.0001 50.8861C31.9734 50.8861 30.6667 50.8861 28.7134 50.6594C26.2814 50.3967 23.8824 49.8874 21.5534 49.1394C19.3327 48.455 17.2466 47.3927 15.3868 45.9994L14.3334 45.0861C12.8416 43.6732 11.7777 41.8688 11.2634 39.8794C12.652 39.47 13.9297 38.7508 15.0001 37.7761C17.1768 35.8761 19.0334 32.9728 20.3734 29.3761C21.2346 26.9625 21.8642 24.4724 22.2534 21.9394C22.6401 19.8094 22.9868 17.8961 23.7668 15.9061C23.8568 15.7161 23.9401 15.5294 24.0201 15.3461C24.4301 14.3928 25.0201 13.4528 24.4834 13.0494C22.9401 11.8661 12.8834 14.4594 9.43676 25.1294C7.57342 30.9028 7.58676 34.7028 9.10342 35.9361C10.0334 36.6961 11.3034 36.7994 12.5168 36.6028C12.0169 36.9499 11.4718 37.2269 10.8968 37.4261C10.1141 37.6998 9.27176 37.7551 8.46009 37.5861C8.33742 37.5628 8.21612 37.5327 8.09676 37.4961C7.51676 37.3194 7.07009 36.8561 6.73342 36.0694C5.41676 32.9961 6.40009 26.4494 8.90676 21.4694C10.8201 17.6794 13.4768 14.8828 16.8234 13.1361C17.5679 12.7491 18.3387 12.4149 19.1301 12.1361C21.0701 11.4324 23.1235 11.0933 25.1868 11.1361H25.2168C25.7534 10.9461 26.2668 10.7861 26.7434 10.6494C28.4522 10.135 30.2176 9.83167 32.0001 9.74609C33.7751 9.81784 35.5347 10.1055 37.2401 10.6028C37.7167 10.7394 38.2401 10.8994 38.7668 11.0894H38.7967C40.86 11.0467 42.9134 11.3857 44.8534 12.0894C45.6448 12.3682 46.4156 12.7024 47.1601 13.0894C50.5134 14.8861 53.1701 17.6828 55.0834 21.4728ZM43.8001 34.6161C43.8326 34.5451 43.8496 34.468 43.8502 34.3899C43.8507 34.3118 43.8347 34.2344 43.8032 34.163C43.7717 34.0915 43.7255 34.0275 43.6675 33.9752C43.6095 33.9229 43.5411 33.8834 43.4667 33.8594L40.2767 32.4828L38.6667 31.7928L38.2634 31.6194H38.2101C37.7858 31.674 37.3924 31.8701 37.0934 32.1761C36.688 32.5971 36.4126 33.126 36.3001 33.6994C36.1478 34.4999 36.3196 35.3281 36.7778 36.002C37.236 36.6758 37.943 37.1401 38.7434 37.2928C38.9413 37.3295 39.1421 37.3484 39.3434 37.3494C39.6031 37.3496 39.8618 37.3171 40.1134 37.2528C40.6735 37.1098 41.1815 36.8109 41.5786 36.3908C41.9757 35.9707 42.2455 35.4467 42.3567 34.8794H42.3901C42.4734 34.8794 42.7234 34.9161 42.9934 34.9161C43.3334 34.9094 43.6667 34.8561 43.8001 34.6161ZM39.3334 40.9328L39.8401 38.5361C39.6742 38.5573 39.5073 38.5684 39.3401 38.5694C39.0604 38.5694 38.7813 38.5426 38.5067 38.4894C37.3889 38.2706 36.4022 37.6203 35.7601 36.6794C35.2098 35.871 34.9557 34.8972 35.0408 33.923C35.1258 32.9487 35.5447 32.0337 36.2267 31.3328L36.2534 31.3028L36.2867 31.2761C36.5232 31.0572 36.7864 30.869 37.0701 30.7161C37.4217 30.5181 37.8166 30.4093 38.2201 30.3994H38.3567H38.5634L38.7567 30.4828L39.0134 30.5894C39.1167 30.2228 39.2134 29.8861 39.2967 29.5894C39.3198 29.5064 39.319 29.4185 39.2942 29.3359C39.2694 29.2533 39.2218 29.1794 39.1567 29.1228C38.2467 28.3361 36.8467 27.4094 35.2801 27.4128H35.2167H35.1034C34.2347 27.4618 33.4034 27.7825 32.7267 28.3294C32.239 28.6959 31.8431 29.1706 31.5701 29.7161C31.5701 29.7461 31.5401 29.7728 31.5268 29.8028C31.5134 29.8328 31.4834 29.9061 31.4634 29.9594C31.4434 30.0128 31.4001 30.1194 31.3701 30.2028C31.3701 30.2294 31.3701 30.2561 31.3468 30.2861C31.3172 30.3792 31.2928 30.4737 31.2734 30.5694L31.2501 30.6761C31.2501 30.7561 31.2234 30.8428 31.2101 30.9294C31.1967 31.0161 31.2101 31.0228 31.2101 31.0728C31.2101 31.1761 31.2101 31.2861 31.2101 31.4061V31.4661C31.2101 34.0828 33.3568 37.1861 35.7067 39.2028C36.6418 39.9679 37.6461 40.6442 38.7067 41.2228C38.7664 41.2503 38.8313 41.2645 38.8969 41.2645C38.9626 41.2644 39.0275 41.2501 39.0871 41.2226C39.1467 41.195 39.1996 41.1548 39.2421 41.1047C39.2846 41.0547 39.3158 40.996 39.3334 40.9328ZM33.3734 46.0361C34.2067 45.3228 34.9767 44.2194 34.9701 43.2894V43.2694C34.9701 43.2294 34.9701 43.1928 34.9701 43.1561C34.9701 43.1194 34.9701 43.1194 34.9701 43.1061C34.9701 43.0928 34.9701 43.0461 34.9701 43.0161C34.9682 43.0028 34.9682 42.9894 34.9701 42.9761C34.9701 42.9428 34.9701 42.9094 34.9434 42.8761C34.9448 42.8662 34.9448 42.856 34.9434 42.8461L34.9134 42.7594C34.9134 42.7394 34.8967 42.7228 34.8901 42.7061C34.889 42.6961 34.889 42.6861 34.8901 42.6761C34.7938 42.481 34.652 42.3118 34.4767 42.1828C34.2387 41.9862 33.9448 41.8696 33.6368 41.8494H33.5734C33.1113 41.8658 32.6679 42.0359 32.3134 42.3328C32.281 42.3574 32.2585 42.3929 32.2501 42.4328C32.2067 42.6094 32.0801 43.0561 31.7234 44.2994L32.2501 44.0428C32.314 44.0113 32.3869 44.003 32.4563 44.0195C32.5256 44.0359 32.5871 44.0759 32.6301 44.1328C32.6557 44.1704 32.6734 44.2129 32.682 44.2576C32.6906 44.3023 32.69 44.3483 32.6801 44.3928L32.2501 46.4361C32.2423 46.4713 32.2448 46.5079 32.2574 46.5417C32.27 46.5754 32.292 46.6048 32.3209 46.6263C32.3498 46.6478 32.3843 46.6604 32.4202 46.6628C32.4561 46.6651 32.492 46.657 32.5234 46.6394C32.8267 46.4614 33.1153 46.2597 33.3868 46.0361H33.3734ZM31.5734 46.6161L31.9434 44.8694L31.3667 45.1461C31.3293 45.1666 31.2881 45.179 31.2455 45.1824C31.203 45.1858 31.1603 45.1803 31.1201 45.1661C31.0476 45.1389 30.9881 45.0853 30.9534 45.0161C30.9188 44.9468 30.9117 44.8671 30.9334 44.7928C31.1234 44.1261 31.3934 43.1794 31.5467 42.6428C31.5566 42.6087 31.5561 42.5725 31.5454 42.5387C31.5348 42.5049 31.5143 42.475 31.4867 42.4528C31.1161 42.1025 30.6355 41.8916 30.1267 41.8561H30.0634C29.7532 41.8755 29.457 41.9922 29.2168 42.1894C29.051 42.3172 28.9156 42.4799 28.8201 42.6661V42.6961L28.8001 42.7494C28.8001 42.7794 28.7768 42.8061 28.7668 42.8361V42.8661C28.7668 42.8994 28.7668 42.9328 28.7434 42.9661C28.7421 42.9794 28.7421 42.9928 28.7434 43.0061C28.7418 43.0361 28.7418 43.0661 28.7434 43.0961C28.7416 43.1127 28.7416 43.1295 28.7434 43.1461C28.7434 43.1828 28.7434 43.2194 28.7434 43.2594V43.2794C28.7434 44.2094 29.5067 45.3128 30.3401 46.0261C30.6496 46.2926 30.982 46.5313 31.3334 46.7394C31.358 46.7499 31.3845 46.7549 31.4112 46.7543C31.4379 46.7536 31.4642 46.7472 31.4882 46.7355C31.5122 46.7238 31.5334 46.7071 31.5504 46.6865C31.5674 46.6659 31.5798 46.6419 31.5868 46.6161H31.5734ZM24.9068 37.2828C25.7072 37.1301 26.4142 36.6658 26.8724 35.992C27.3306 35.3181 27.5024 34.4899 27.3501 33.6894C27.2379 33.1151 26.9611 32.5859 26.5534 32.1661C26.2474 31.8442 25.8329 31.6471 25.3901 31.6128L20.2001 33.8594C20.1258 33.8834 20.0573 33.9229 19.9994 33.9752C19.9414 34.0275 19.8951 34.0915 19.8636 34.163C19.8321 34.2344 19.8161 34.3118 19.8167 34.3899C19.8172 34.468 19.8343 34.5451 19.8668 34.6161C20.1134 35.0961 21.2901 34.8294 21.3001 34.8761C21.4595 35.6745 21.9291 36.377 22.6059 36.8295C23.2827 37.2819 24.1114 37.4473 24.9101 37.2894L24.9068 37.2828Z" fill="white"/>
<path id="Vector_3" d="M43.4633 33.8599C43.5376 33.8839 43.606 33.9234 43.664 33.9757C43.722 34.028 43.7683 34.092 43.7998 34.1635C43.8312 34.235 43.8472 34.3123 43.8467 34.3904C43.8462 34.4685 43.8291 34.5456 43.7966 34.6166C43.6733 34.8566 43.3233 34.9099 42.9999 34.9099C42.7299 34.9099 42.4799 34.8733 42.3966 34.8733H42.3633C42.252 35.4405 41.9822 35.9646 41.5851 36.3847C41.1881 36.8047 40.68 37.1036 40.1199 37.2466C39.8683 37.3109 39.6096 37.3434 39.3499 37.3433C39.1487 37.3423 38.9479 37.3233 38.7499 37.2866C37.9495 37.1339 37.2425 36.6696 36.7843 35.9958C36.3261 35.322 36.1543 34.4938 36.3066 33.6933C36.4191 33.1198 36.6946 32.5909 37.0999 32.1699C37.3989 31.864 37.7923 31.6678 38.2166 31.6133H38.2699L38.6733 31.7866L40.2699 32.4766L43.4633 33.8599Z" fill="black"/>
<path id="Vector_4" d="M39.8533 38.5372L39.3334 40.9338C39.3185 41.0035 39.2875 41.0686 39.2428 41.124C39.1981 41.1794 39.1409 41.2235 39.076 41.2527C39.0111 41.2819 38.9402 41.2954 38.8691 41.2922C38.798 41.2889 38.7286 41.2689 38.6667 41.2338C37.6061 40.6552 36.6017 39.979 35.6667 39.2138C33.3333 37.2138 31.1534 34.0938 31.17 31.4772V31.4172C31.17 31.3105 31.17 31.2005 31.17 31.0838C31.17 31.0338 31.17 30.9872 31.17 30.9405C31.17 30.8938 31.1933 30.7672 31.21 30.6872L31.2333 30.5805C31.2527 30.4848 31.2772 30.3902 31.3067 30.2972C31.3067 30.2672 31.3067 30.2405 31.33 30.2138C31.36 30.1305 31.39 30.0505 31.4233 29.9705C31.4567 29.8905 31.4633 29.8638 31.4867 29.8138C31.51 29.7638 31.5167 29.7572 31.53 29.7272C31.803 29.1816 32.199 28.7069 32.6867 28.3405C33.3633 27.7935 34.1947 27.4729 35.0634 27.4238H35.1767H35.24C36.8067 27.4238 38.2067 28.3472 39.1167 29.1338C39.1817 29.1905 39.2293 29.2643 39.2541 29.3469C39.2789 29.4295 39.2798 29.5174 39.2567 29.6005C39.1733 29.8905 39.0767 30.2272 38.9733 30.6005L38.7167 30.4938L38.5234 30.4105H38.3167H38.18C37.7765 30.4204 37.3817 30.5291 37.03 30.7272C36.7463 30.8801 36.4832 31.0682 36.2467 31.2872L36.2133 31.3138L36.1867 31.3438C35.5186 32.0496 35.113 32.9634 35.0378 33.9323C34.9626 34.9013 35.2222 35.8667 35.7733 36.6672C36.4154 37.608 37.4022 38.2583 38.52 38.4772C38.7946 38.5304 39.0737 38.5571 39.3533 38.5572C39.5203 38.5605 39.6872 38.5539 39.8533 38.5372Z" fill="black"/>
<path id="Vector_5" d="M35 43.2908C35 44.2208 34.2366 45.3241 33.4033 46.0374C33.1319 46.261 32.8432 46.4627 32.54 46.6408C32.5085 46.6583 32.4727 46.6664 32.4368 46.6641C32.4008 46.6618 32.3663 46.6491 32.3375 46.6276C32.3086 46.6061 32.2865 46.5767 32.2739 46.543C32.2614 46.5092 32.2588 46.4726 32.2666 46.4374L32.6666 44.3941C32.6765 44.3496 32.6772 44.3036 32.6686 44.2589C32.66 44.2142 32.6423 44.1717 32.6166 44.1341C32.5736 44.0773 32.5122 44.0372 32.4428 44.0208C32.3735 44.0044 32.3006 44.0126 32.2366 44.0441L31.71 44.3008C32.0666 43.0574 32.1933 42.6108 32.2366 42.4341C32.2451 42.3942 32.2676 42.3588 32.3 42.3341C32.6428 42.0491 33.0682 41.882 33.5133 41.8574H33.5766C33.8847 41.8776 34.1786 41.9942 34.4166 42.1908C34.5919 42.3198 34.7336 42.4889 34.83 42.6841C34.8289 42.6941 34.8289 42.7041 34.83 42.7141C34.83 42.7141 34.83 42.7474 34.8533 42.7674L34.8833 42.8541C34.8847 42.864 34.8847 42.8741 34.8833 42.8841C34.8833 42.9174 34.8833 42.9508 34.91 42.9841C34.9081 42.9974 34.9081 43.0108 34.91 43.0241C34.91 43.0541 34.91 43.0841 34.91 43.1141C34.91 43.1441 34.91 43.1474 34.91 43.1641C34.91 43.1808 34.91 43.2374 34.91 43.2774V43.2974L35 43.2908Z" fill="black"/>
<path id="Vector_6" d="M31.9568 44.8696L31.5868 46.6163C31.5804 46.6443 31.5677 46.6704 31.5495 46.6927C31.5314 46.715 31.5084 46.7328 31.4823 46.7448C31.4562 46.7567 31.4276 46.7624 31.3989 46.7615C31.3702 46.7606 31.3421 46.7531 31.3168 46.7396C30.9496 46.537 30.6015 46.3016 30.2768 46.0363C29.4434 45.3229 28.6768 44.2196 28.6801 43.2896V43.2696C28.6801 43.2296 28.6801 43.1929 28.6801 43.1563C28.6782 43.1397 28.6782 43.1229 28.6801 43.1063C28.6785 43.0763 28.6785 43.0463 28.6801 43.0163C28.6788 43.003 28.6788 42.9896 28.6801 42.9763C28.6801 42.9429 28.6801 42.9096 28.7034 42.8763V42.8463C28.7034 42.8163 28.7268 42.7896 28.7368 42.7596L28.7568 42.7063V42.6763C28.854 42.4827 28.9943 42.314 29.1668 42.1829C29.407 41.9857 29.7032 41.8691 30.0134 41.8496H30.0768C30.5855 41.8851 31.0661 42.096 31.4368 42.4463C31.4644 42.4685 31.4848 42.4984 31.4954 42.5322C31.5061 42.566 31.5066 42.6022 31.4968 42.6363C31.3434 43.1729 31.0734 44.1296 30.8834 44.7863C30.8617 44.8606 30.8688 44.9404 30.9034 45.0096C30.9381 45.0788 30.9976 45.1324 31.0701 45.1596C31.1103 45.1738 31.1531 45.1794 31.1956 45.1759C31.2381 45.1725 31.2794 45.1601 31.3168 45.1396L31.9568 44.8696Z" fill="black"/>
<path id="Vector_7" d="M27.3536 33.6958C27.4833 34.4878 27.2994 35.2992 26.841 35.958C26.3825 36.6167 25.6855 37.071 24.8978 37.2244C24.11 37.3779 23.2934 37.2185 22.6212 36.7801C21.949 36.3416 21.474 35.6586 21.2969 34.8758C21.2969 34.8291 20.1102 35.0958 19.8636 34.6158C19.8311 34.5448 19.814 34.4677 19.8135 34.3896C19.8129 34.3115 19.8289 34.2341 19.8604 34.1627C19.8919 34.0912 19.9382 34.0272 19.9962 33.9749C20.0542 33.9226 20.1226 33.8831 20.1969 33.8591L25.3902 31.6191C25.8331 31.6534 26.2475 31.8506 26.5536 32.1725C26.9625 32.5918 27.2404 33.1211 27.3536 33.6958Z" fill="black"/>
<path id="Vector_8" d="M60.0666 45.8942C61.0299 46.9342 61.4366 48.3875 61.2799 50.2275C61.0099 53.3342 58.2366 56.7075 52.5566 56.7075C46.8766 56.7075 44.0566 53.1709 43.8033 50.2275C43.6433 48.3975 44.0533 46.9442 45.0133 45.8942C45.7501 45.1177 46.7341 44.6216 47.7966 44.4909C47.8751 43.3501 48.2546 42.2505 48.8966 41.3042C49.2641 40.8098 49.7347 40.4011 50.2757 40.1064C50.8167 39.8118 51.4152 39.6381 52.0299 39.5975C54.0499 39.4142 55.1999 40.2642 55.8099 40.9875C56.5766 41.9175 56.9033 43.1809 56.9899 44.4609C58.159 44.5355 59.2573 45.0472 60.0666 45.8942ZM58.7499 50.0009C58.8433 48.9142 58.6599 48.1142 58.2033 47.6209C57.8554 47.2729 57.3991 47.0542 56.9099 47.0009C56.8168 47.5439 56.5759 48.0507 56.2137 48.4658C55.8515 48.8809 55.3819 49.1883 54.8566 49.3542C54.7844 49.3799 54.7067 49.3859 54.6314 49.3717C54.5561 49.3576 54.4859 49.3237 54.4279 49.2735C54.37 49.2234 54.3264 49.1588 54.3016 49.0863C54.2767 49.0138 54.2716 48.936 54.2866 48.8609C54.6766 46.8942 54.8499 43.8142 53.9366 42.7142C53.7266 42.4642 53.2699 42.0475 52.2699 42.1275C52.0126 42.145 51.7615 42.2149 51.5322 42.333C51.3029 42.451 51.1002 42.6148 50.9366 42.8142C49.9366 43.9375 50.2366 47.6709 50.3233 48.9909C50.3273 49.0493 50.318 49.1079 50.2958 49.1622C50.2737 49.2165 50.2394 49.2649 50.1957 49.3039C50.1519 49.3428 50.0998 49.3712 50.0433 49.3869C49.9868 49.4025 49.9275 49.405 49.8699 49.3942C49.2533 49.2742 48.2033 48.8142 47.7966 47.0809C47.4399 47.1745 47.1166 47.3662 46.8633 47.6342C46.4166 48.1309 46.2366 48.9275 46.3299 50.0009C46.4999 51.9809 48.2533 54.0942 52.6333 54.1675C56.8866 54.0575 58.5899 51.8609 58.7499 50.0009Z" fill="black"/>
<path id="Vector_9" d="M58.2034 47.6173C58.6601 48.1107 58.8434 48.9107 58.7501 49.9973C58.5901 51.8607 56.8867 54.0573 52.6334 54.164C48.2534 54.0907 46.5001 51.9773 46.3301 49.9973C46.2368 48.924 46.4168 48.1273 46.8634 47.6307C47.1167 47.3626 47.44 47.1709 47.7968 47.0773C48.2201 48.8107 49.2534 49.2707 49.8701 49.3907C49.9272 49.4029 49.9864 49.4019 50.0431 49.3878C50.0998 49.3737 50.1525 49.3467 50.1972 49.3091C50.2419 49.2715 50.2775 49.2241 50.3011 49.1707C50.3247 49.1172 50.3357 49.0591 50.3334 49.0007C50.2468 47.6673 49.9401 43.9473 50.9468 42.824C51.1104 42.6246 51.3131 42.4609 51.5424 42.3428C51.7717 42.2247 52.0227 42.1548 52.2801 42.1373C53.2801 42.0473 53.7501 42.4707 53.9468 42.724C54.8601 43.824 54.6868 46.904 54.2968 48.8707C54.2817 48.9458 54.2869 49.0236 54.3117 49.0961C54.3365 49.1686 54.3801 49.2332 54.4381 49.2833C54.496 49.3335 54.5662 49.3674 54.6415 49.3815C54.7168 49.3957 54.7945 49.3897 54.8668 49.364C55.3921 49.1981 55.8616 48.8907 56.2238 48.4756C56.586 48.0605 56.8269 47.5537 56.9201 47.0107C57.404 47.0625 57.8562 47.2763 58.2034 47.6173Z" fill="white"/>
<path id="Vector_10" d="M18.9999 45.8925C19.9632 46.9325 20.3699 48.3858 20.2132 50.2258C19.9432 53.3325 17.1699 56.7058 11.4899 56.7058C5.80986 56.7058 2.97653 53.1591 2.72319 50.2158C2.56319 48.3858 2.97319 46.9325 3.93319 45.8825C4.67005 45.1059 5.65403 44.6098 6.71653 44.4792C6.795 43.3384 7.17456 42.2388 7.81653 41.2925C8.18405 40.7981 8.65458 40.3894 9.19559 40.0947C9.73659 39.8 10.3351 39.6264 10.9499 39.5858C12.9699 39.4025 14.1199 40.2525 14.7299 40.9758C15.4965 41.9058 15.8232 43.1692 15.9099 44.4492C17.0851 44.5232 18.1888 45.0388 18.9999 45.8925ZM17.6665 49.9992C17.7599 48.9125 17.5765 48.1125 17.1199 47.6192C16.7728 47.2719 16.3178 47.0532 15.8299 46.9992C15.7367 47.5421 15.4958 48.049 15.1336 48.4641C14.7714 48.8792 14.3019 49.1866 13.7765 49.3525C13.7043 49.3781 13.6266 49.3842 13.5513 49.37C13.476 49.3559 13.4058 49.322 13.3479 49.2718C13.2899 49.2217 13.2463 49.1571 13.2215 49.0846C13.1967 49.0121 13.1915 48.9343 13.2065 48.8592C13.5965 46.8925 13.7699 43.8125 12.8732 42.7125C12.6632 42.4625 12.2065 42.0458 11.2065 42.1258C10.9492 42.1432 10.6981 42.2131 10.4688 42.3312C10.2395 42.4493 10.0368 42.6131 9.87319 42.8125C8.87319 43.9358 9.17319 47.6692 9.25986 48.9892C9.26393 49.0476 9.25454 49.1062 9.23242 49.1605C9.2103 49.2147 9.17603 49.2632 9.13226 49.3022C9.08848 49.3411 9.03635 49.3695 8.97989 49.3852C8.92342 49.4008 8.86411 49.4033 8.80653 49.3925C8.18986 49.2725 7.15653 48.8125 6.73319 47.0792C6.37649 47.1728 6.05316 47.3644 5.79986 47.6325C5.35319 48.1291 5.17319 48.9258 5.26653 49.9992C5.43653 51.9792 7.18986 54.0925 11.5699 54.1658C15.8065 54.0558 17.5099 51.8592 17.6665 49.9992Z" fill="black"/>
<path id="Vector_11" d="M17.1233 47.6173C17.58 48.1107 17.7633 48.9107 17.67 49.9973C17.51 51.8607 15.8067 54.0573 11.5533 54.164C7.17334 54.0907 5.42001 51.9773 5.25001 49.9973C5.15668 48.924 5.33668 48.1273 5.78334 47.6307C6.03664 47.3626 6.35997 47.1709 6.71668 47.0773C7.14001 48.8107 8.17334 49.2707 8.79001 49.3907C8.84644 49.4012 8.90451 49.3989 8.95993 49.384C9.01535 49.369 9.06672 49.3419 9.11023 49.3044C9.15375 49.267 9.1883 49.2203 9.21133 49.1677C9.23437 49.1151 9.24531 49.058 9.24334 49.0007C9.15668 47.6673 8.85001 43.9473 9.85668 42.824C10.0203 42.6246 10.223 42.4609 10.4523 42.3428C10.6816 42.2247 10.9327 42.1548 11.19 42.1373C12.19 42.0473 12.6567 42.4707 12.8567 42.724C13.77 43.824 13.5967 46.904 13.19 48.8707C13.175 48.9458 13.1801 49.0236 13.205 49.0961C13.2298 49.1686 13.2734 49.2332 13.3313 49.2833C13.3893 49.3335 13.4595 49.3674 13.5348 49.3815C13.6101 49.3957 13.6878 49.3897 13.76 49.364C14.2898 49.1999 14.7637 48.8922 15.1291 48.475C15.4945 48.0578 15.7371 47.5474 15.83 47.0007C16.3187 47.0531 16.7749 47.2706 17.1233 47.6173Z" fill="white"/>
</g>
</svg>
