<svg width="124" height="124" viewBox="0 0 124 124" fill="none" xmlns="http://www.w3.org/2000/svg">
<g id="saro_character">
<path id="Vector" d="M35.708 44.3302C36.9515 44.115 38.2112 44.007 39.4732 44.0073C40.5115 44.0079 41.5488 44.0705 42.5797 44.1946C42.754 30.0315 51.5568 18.5744 62.3615 18.5744C73.1663 18.5744 81.9303 29.9927 82.137 44.1171C82.9249 44.046 83.7257 44.0073 84.5266 44.0073C85.7886 44.007 87.0482 44.115 88.2918 44.3302C88.1691 25.0392 76.4213 9.39062 61.9999 9.39062C47.5784 9.39062 35.8307 25.0392 35.708 44.3302Z" fill="#6DCFF6"/>
<path id="Vector_2" d="M100.814 51.0717C98.478 48.585 95.6071 46.6615 92.4186 45.4465C92.4186 45.1753 92.4186 44.8976 92.4186 44.6263C92.4186 22.9134 78.7657 5.23047 61.9804 5.23047C45.1952 5.23047 31.5423 22.894 31.5423 44.6263C31.5423 44.8976 31.5423 45.1753 31.5423 45.4465C28.3541 46.6621 25.4834 48.5855 23.1465 51.0717C18.1348 56.3676 15.5063 63.8657 15.9325 71.6415C16.5784 83.3246 21.8742 93.7678 31.665 102.687C39.7638 110.062 49.2834 114.828 55.8321 117.541H55.8838C59.7301 119.124 64.0429 119.143 67.9027 117.593L68.3936 117.392C74.9359 114.673 84.4232 109.875 92.4573 102.499C102.145 93.6192 107.344 83.2407 107.99 71.6351C108.461 63.8657 105.826 56.3676 100.814 51.0717ZM103.889 71.409C102.597 95.2338 80.1154 108.054 66.8436 113.575L66.4173 113.75C63.5453 114.897 60.3393 114.881 57.479 113.705C44.0973 108.189 21.4479 95.363 20.124 71.409C19.903 68.233 20.3282 65.0451 21.3738 62.0381C22.4195 59.031 24.0639 56.2671 26.2077 53.9134C27.8978 52.0809 29.9517 50.6214 32.2382 49.6283C34.5247 48.6352 36.9933 48.1303 39.4861 48.1461C43.9755 48.1535 48.3547 49.5368 52.0337 52.1096C55.7128 54.6824 58.5148 58.321 60.0623 62.5353C60.2091 62.9308 60.4735 63.2719 60.8198 63.5128C61.1662 63.7536 61.5779 63.8828 61.9998 63.8828C62.4217 63.8828 62.8335 63.7536 63.1798 63.5128C63.5262 63.2719 63.7905 62.9308 63.9373 62.5353C65.4852 58.32 68.2882 54.6806 71.9686 52.1077C75.6489 49.5349 80.0295 48.1522 84.52 48.1461C87.0128 48.1303 89.4814 48.6352 91.7679 49.6283C94.0544 50.6214 96.1084 52.0809 97.7984 53.9134C99.9434 56.2666 101.589 59.0302 102.636 62.0373C103.683 65.0444 104.109 68.2325 103.889 71.409ZM88.2917 44.3292C87.0482 44.1141 85.7885 44.006 84.5265 44.0063C83.7257 44.0063 82.9248 44.0451 82.1369 44.1161C81.9302 29.9917 73.1404 18.5734 62.3615 18.5734C51.5825 18.5734 42.754 30.0305 42.5796 44.1936C41.5488 44.0695 40.5114 44.007 39.4732 44.0063C38.2112 44.006 36.9515 44.1141 35.708 44.3292C35.8307 25.0382 47.5784 9.38964 61.9998 9.38964C76.4213 9.38964 88.169 25.0382 88.2917 44.3292ZM46.7129 44.6263C46.7129 32.5492 53.7332 22.7196 62.3615 22.7196C70.9898 22.7196 78.0036 32.5492 78.0036 44.6263V44.8459C74.6694 45.7156 71.5396 47.2346 68.7934 49.3159C66.0472 51.3971 63.7386 53.9997 61.9998 56.9746C58.6191 51.1908 53.1509 46.922 46.7194 45.0461C46.7194 44.904 46.7129 44.7684 46.7129 44.6263Z" fill="#74489D"/>
<path id="Vector_3" d="M47.1459 78.1465C48.448 78.1477 49.7213 77.7627 50.8045 77.04C51.8878 76.3174 52.7323 75.2896 53.2312 74.0869C53.7301 72.8841 53.861 71.5603 53.6072 70.2831C53.3535 69.0059 52.7266 67.8327 51.8058 66.9119C50.8851 65.9912 49.7118 65.3642 48.4346 65.1105C47.1574 64.8568 45.8337 64.9877 44.6309 65.4866C43.4281 65.9855 42.4003 66.83 41.6777 67.9132C40.9551 68.9964 40.57 70.2697 40.5713 71.5719C40.5713 73.3156 41.264 74.9878 42.4969 76.2208C43.7299 77.4538 45.4022 78.1465 47.1459 78.1465ZM48.7863 71.2942C49.0216 71.2929 49.252 71.3615 49.4482 71.4913C49.6445 71.6211 49.7978 71.8062 49.8888 72.0233C49.9797 72.2403 50.0042 72.4794 49.959 72.7103C49.9139 72.9413 49.8012 73.1536 49.6353 73.3205C49.4694 73.4873 49.2577 73.6011 49.027 73.6475C48.7963 73.6939 48.557 73.6707 48.3395 73.581C48.122 73.4912 47.936 73.3389 47.8051 73.1434C47.6743 72.9478 47.6044 72.7178 47.6044 72.4825C47.6095 72.1696 47.7378 71.8713 47.9615 71.6524C48.1852 71.4336 48.4863 71.3118 48.7992 71.3135L48.7863 71.2942ZM43.4 69.1952C43.3988 68.7782 43.5213 68.3703 43.7522 68.0231C43.983 67.6759 44.3118 67.405 44.6968 67.2448C45.0817 67.0847 45.5056 67.0425 45.9146 67.1235C46.3236 67.2045 46.6994 67.4052 46.9942 67.7C47.289 67.9948 47.4897 68.3706 47.5707 68.7796C47.6518 69.1886 47.6095 69.6125 47.4494 69.9974C47.2892 70.3824 47.0184 70.7112 46.6711 70.942C46.3239 71.1729 45.916 71.2954 45.499 71.2942C44.9479 71.2908 44.4202 71.0708 44.0299 70.6817C43.6396 70.2926 43.418 69.7657 43.413 69.2146L43.4 69.1952Z" fill="black"/>
<path id="Vector_4" d="M45.512 71.3132C46.6713 71.3132 47.611 70.3734 47.611 69.2142C47.611 68.055 46.6713 67.1152 45.512 67.1152C44.3528 67.1152 43.4131 68.055 43.4131 69.2142C43.4131 70.3734 44.3528 71.3132 45.512 71.3132Z" fill="white"/>
<path id="Vector_5" d="M48.7992 73.6892C49.4555 73.6892 49.9875 73.1571 49.9875 72.5008C49.9875 71.8445 49.4555 71.3125 48.7992 71.3125C48.1429 71.3125 47.6108 71.8445 47.6108 72.5008C47.6108 73.1571 48.1429 73.6892 48.7992 73.6892Z" fill="white"/>
<path id="Vector_6" d="M80.3159 65.2282L71.4615 69.5488C71.1124 69.7191 70.8182 69.9841 70.6123 70.3135C70.4065 70.643 70.2974 71.0236 70.2974 71.4121C70.2974 71.8005 70.4065 72.1811 70.6123 72.5106C70.8182 72.84 71.1124 73.105 71.4615 73.2753L80.3159 77.5959C80.6001 77.7323 80.9113 77.8029 81.2265 77.8026C81.6942 77.8015 82.1478 77.6422 82.5136 77.3508C82.8793 77.0593 83.1358 76.6527 83.2413 76.1971C83.3468 75.7414 83.2951 75.2635 83.0947 74.8409C82.8942 74.4184 82.5568 74.076 82.1371 73.8694L77.0932 71.4153L82.1371 68.9547C82.3818 68.8351 82.6006 68.6685 82.7809 68.4643C82.9611 68.2602 83.0995 68.0226 83.1879 67.765C83.2764 67.5074 83.3132 67.235 83.2964 66.9631C83.2796 66.6913 83.2093 66.4255 83.0897 66.1808C82.9702 65.9361 82.8036 65.7174 82.5994 65.5371C82.3953 65.3568 82.1577 65.2185 81.9001 65.13C81.6425 65.0416 81.3701 65.0047 81.0982 65.0215C80.8264 65.0384 80.5606 65.1086 80.3159 65.2282Z" fill="black"/>
<path id="Vector_7" d="M62.0001 91.1778C63.1991 91.1778 64.349 90.7015 65.1968 89.8537C66.0446 89.0058 66.5209 87.8559 66.5209 86.6569V82.1942C67.4665 81.4511 68.214 80.4861 68.6974 79.3849C68.7906 79.1374 68.7861 78.8637 68.6846 78.6195C68.5832 78.3753 68.3926 78.1789 68.1515 78.0703C67.9104 77.9617 67.6369 77.949 67.3868 78.0348C67.1367 78.1207 66.9287 78.2986 66.8051 78.5324C66.3839 79.4548 65.7064 80.2367 64.8534 80.7849C64.0003 81.3331 63.0077 81.6246 61.9936 81.6246C60.9796 81.6246 59.987 81.3331 59.1339 80.7849C58.2809 80.2367 57.6034 79.4548 57.1822 78.5324C57.0586 78.2986 56.8506 78.1207 56.6005 78.0348C56.3504 77.949 56.0769 77.9617 55.8358 78.0703C55.5947 78.1789 55.4041 78.3753 55.3027 78.6195C55.2012 78.8637 55.1967 79.1374 55.2899 79.3849C55.7801 80.4838 56.5318 81.4461 57.4793 82.1878V86.6505C57.4784 87.2447 57.5947 87.8333 57.8215 88.3825C58.0484 88.9318 58.3812 89.4309 58.8011 89.8514C59.221 90.2719 59.7197 90.6054 60.2686 90.833C60.8175 91.0606 61.4059 91.1778 62.0001 91.1778ZM61.0507 83.628V84.8615C61.0713 85.1223 61.1895 85.3658 61.3816 85.5433C61.5737 85.7208 61.8257 85.8194 62.0873 85.8194C62.3489 85.8194 62.6009 85.7208 62.793 85.5433C62.9851 85.3658 63.1033 85.1223 63.1239 84.8615V83.6086C63.5783 83.5444 64.0258 83.4385 64.4607 83.2922V86.6505C64.4284 87.2804 64.1554 87.8739 63.6981 88.3084C63.2408 88.7429 62.6341 88.9851 62.0033 88.9851C61.3726 88.9851 60.7659 88.7429 60.3086 88.3084C59.8512 87.8739 59.5782 87.2804 59.5459 86.6505V83.3115C60.0348 83.4706 60.5392 83.5767 61.0507 83.628Z" fill="black"/>
<path id="Vector_8" d="M63.0009 102.591L62.7296 101.693C62.6642 101.47 62.6751 101.231 62.7604 101.015C62.8458 100.798 63.0009 100.617 63.2011 100.498C63.6553 100.234 64.0097 99.8277 64.2097 99.3418C64.4096 98.856 64.4438 98.3178 64.307 97.8105C64.1703 97.3032 63.8701 96.8551 63.453 96.5356C63.036 96.2161 62.5252 96.043 61.9998 96.043C61.4744 96.043 60.9637 96.2161 60.5466 96.5356C60.1296 96.8551 59.8294 97.3032 59.6926 97.8105C59.5559 98.3178 59.5901 98.856 59.79 99.3418C59.9899 99.8277 60.3444 100.234 60.7986 100.498C60.9988 100.617 61.1539 100.798 61.2392 101.015C61.3246 101.231 61.3355 101.47 61.27 101.693L59.4165 107.854H64.5832L63.0009 102.591Z" fill="#6DCFF6"/>
<path id="Vector_9" d="M64.9835 101.989L64.9254 101.796C65.6121 101.199 66.1003 100.408 66.3246 99.5262C66.5489 98.6448 66.4986 97.716 66.1804 96.8641C65.8622 96.0121 65.2912 95.2777 64.5441 94.7592C63.7969 94.2407 62.9092 93.9629 61.9998 93.9629C61.0903 93.9629 60.2026 94.2407 59.4555 94.7592C58.7083 95.2777 58.1374 96.0121 57.8192 96.8641C57.501 97.716 57.4506 98.6448 57.6749 99.5262C57.8992 100.408 58.3874 101.199 59.0741 101.796L57.0204 108.564C56.9742 108.719 56.9648 108.883 56.9929 109.042C57.0211 109.201 57.086 109.352 57.1826 109.482C57.2792 109.611 57.4047 109.717 57.5492 109.79C57.6937 109.862 57.8532 109.9 58.015 109.901H65.9846C66.1466 109.901 66.3065 109.863 66.4512 109.79C66.5959 109.717 66.7215 109.611 66.8177 109.481C66.9159 109.352 66.9818 109.202 67.0099 109.042C67.038 108.882 67.0275 108.719 66.9791 108.564L64.9835 101.989ZM61.27 101.692C61.3354 101.469 61.3246 101.23 61.2392 101.014C61.1538 100.798 60.9987 100.616 60.7985 100.497C60.3443 100.233 59.9899 99.8269 59.7899 99.341C59.59 98.8551 59.5558 98.3169 59.6926 97.8096C59.8294 97.3024 60.1295 96.8543 60.5466 96.5348C60.9636 96.2153 61.4744 96.0421 61.9998 96.0421C62.5252 96.0421 63.0359 96.2153 63.453 96.5348C63.87 96.8543 64.1702 97.3024 64.307 97.8096C64.4437 98.3169 64.4095 98.8551 64.2096 99.341C64.0097 99.8269 63.6552 100.233 63.201 100.497C63.0008 100.616 62.8457 100.798 62.7604 101.014C62.675 101.23 62.6641 101.469 62.7296 101.692L63.0008 102.59L64.5831 107.853H59.4164L61.27 101.692Z" fill="#74489D"/>
<path id="Vector_10" d="M97.8048 53.9141C96.1148 52.0816 94.0608 50.6221 91.7743 49.629C89.4878 48.6359 87.0192 48.1311 84.5264 48.1468C80.0349 48.1516 75.6528 49.5337 71.9712 52.1067C68.2896 54.6796 65.4855 58.3197 63.9373 62.536C63.7905 62.9315 63.5261 63.2726 63.1798 63.5135C62.8334 63.7544 62.4217 63.8835 61.9998 63.8835C61.5779 63.8835 61.1661 63.7544 60.8198 63.5135C60.4734 63.2726 60.2091 62.9315 60.0623 62.536C58.514 58.3197 55.71 54.6796 52.0284 52.1067C48.3468 49.5337 43.9647 48.1516 39.4731 48.1468C36.9803 48.1311 34.5117 48.6359 32.2252 49.629C29.9387 50.6221 27.8848 52.0816 26.1948 53.9141C24.0509 56.2678 22.4065 59.0317 21.3608 62.0388C20.3152 65.0459 19.89 68.2337 20.111 71.4098C21.4027 95.3637 44.0844 108.222 57.466 113.705C60.3301 114.885 63.5414 114.901 66.4173 113.751L66.8435 113.576C80.1154 108.054 102.571 95.2345 103.889 71.4098C104.11 68.2337 103.684 65.0459 102.639 62.0388C101.593 59.0317 99.9486 56.2678 97.8048 53.9141ZM47.1456 78.1458C45.8432 78.1445 44.5704 77.7568 43.4885 77.0317C42.4065 76.3067 41.564 75.2769 41.0677 74.0727C40.5714 72.8686 40.4435 71.5442 40.7002 70.2674C40.957 68.9905 41.5868 67.8185 42.5101 66.8998C43.4333 65.9812 44.6083 65.3571 45.8864 65.1066C47.1646 64.8561 48.4883 64.9905 49.69 65.4927C50.8917 65.995 51.9173 66.8425 52.637 67.928C53.3568 69.0135 53.7382 70.2882 53.7331 71.5906C53.728 73.3332 53.0313 75.0024 51.796 76.2316C50.5608 77.4607 48.8882 78.1492 47.1456 78.1458ZM66.8048 109.462C66.7086 109.593 66.583 109.699 66.4383 109.772C66.2936 109.844 66.1337 109.882 65.9716 109.882H58.015C57.8532 109.882 57.6937 109.844 57.5492 109.771C57.4047 109.698 57.2792 109.593 57.1826 109.463C57.086 109.333 57.0211 109.183 56.9929 109.023C56.9648 108.864 56.9742 108.7 57.0204 108.545L59.0742 101.777C58.3874 101.181 57.8992 100.389 57.6749 99.5075C57.4506 98.6262 57.501 97.6973 57.8192 96.8454C58.1374 95.9934 58.7083 95.259 59.4555 94.7405C60.2026 94.222 61.0903 93.9442 61.9998 93.9442C62.9092 93.9442 63.7969 94.222 64.5441 94.7405C65.2912 95.259 65.8622 95.9934 66.1804 96.8454C66.4986 97.6973 66.5489 98.6262 66.3246 99.5075C66.1003 100.389 65.6121 101.181 64.9254 101.777L64.9835 101.971L66.9791 108.545C67.0308 108.703 67.0431 108.87 67.0149 109.033C66.9868 109.197 66.9191 109.351 66.8177 109.482L66.8048 109.462ZM68.6906 79.36C68.2072 80.4612 67.4597 81.4262 66.5141 82.1693V86.632C66.5141 87.831 66.0378 88.9809 65.19 89.8288C64.3422 90.6766 63.1923 91.1529 61.9933 91.1529C60.7943 91.1529 59.6444 90.6766 58.7966 89.8288C57.9488 88.9809 57.4725 87.831 57.4725 86.632V82.1693C56.5289 81.4243 55.7817 80.4598 55.296 79.36C55.2028 79.1125 55.2074 78.8388 55.3088 78.5946C55.4102 78.3504 55.6009 78.154 55.842 78.0454C56.0831 77.9368 56.3565 77.9241 56.6066 78.0099C56.8567 78.0958 57.0647 78.2737 57.1883 78.5075C57.6095 79.4299 58.287 80.2118 59.14 80.76C59.9931 81.3082 60.9857 81.5997 61.9998 81.5997C63.0138 81.5997 64.0065 81.3082 64.8595 80.76C65.7125 80.2118 66.39 79.4299 66.8112 78.5075C66.9348 78.2737 67.1428 78.0958 67.3929 78.0099C67.6431 77.9241 67.9165 77.9368 68.1576 78.0454C68.3987 78.154 68.5893 78.3504 68.6908 78.5946C68.7922 78.8388 68.7967 79.1125 68.7035 79.36H68.6906ZM70.2858 71.4162C70.2858 71.0276 70.3947 70.6467 70.6002 70.3168C70.8057 69.9869 71.0995 69.7212 71.4483 69.5498L80.3156 65.2291C80.8098 64.9876 81.3796 64.9523 81.8998 65.131C82.42 65.3096 82.8479 65.6876 83.0895 66.1817C83.331 66.6759 83.3663 67.2458 83.1876 67.766C83.009 68.2862 82.631 68.7141 82.1369 68.9556L77.0929 71.4162L82.1369 73.8704C82.5565 74.0769 82.8939 74.4193 83.0944 74.8419C83.2948 75.2644 83.3465 75.7424 83.241 76.198C83.1355 76.6536 82.8791 77.0602 82.5133 77.3517C82.1475 77.6432 81.6939 77.8024 81.2262 77.8035C80.911 77.8039 80.5998 77.7332 80.3156 77.5968L71.4612 73.2762C71.1163 73.1068 70.8251 72.8451 70.6199 72.5202C70.4147 72.1953 70.3035 71.8198 70.2987 71.4356L70.2858 71.4162Z" fill="#F17BB0"/>
<path id="Vector_11" d="M63.1238 84.8625C63.1032 85.1233 62.9851 85.3667 62.793 85.5443C62.6008 85.7218 62.3489 85.8204 62.0873 85.8204C61.8257 85.8204 61.5737 85.7218 61.3816 85.5443C61.1894 85.3667 61.0713 85.1233 61.0507 84.8625V83.629C60.5392 83.5777 60.0347 83.4716 59.5459 83.3125V86.6708C59.5782 87.3008 59.8512 87.8943 60.3085 88.3287C60.7658 88.7632 61.3725 89.0054 62.0033 89.0054C62.6341 89.0054 63.2408 88.7632 63.6981 88.3287C64.1554 87.8943 64.4284 87.3008 64.4607 86.6708V83.3125C64.0257 83.4588 63.5782 83.5648 63.1238 83.629V84.8625Z" fill="#F17BB0"/>
<path id="Vector_12" opacity="0.4" d="M59.5459 86.6515C59.5782 87.2814 59.8512 87.8749 60.3085 88.3094C60.7658 88.7438 61.3725 88.9861 62.0033 88.9861C62.6341 88.9861 63.2408 88.7438 63.6981 88.3094C64.1554 87.8749 64.4284 87.2814 64.4607 86.6515V83.3125C64.0257 83.4588 63.5782 83.5648 63.1238 83.629V84.8819C63.1032 85.1427 62.9851 85.3861 62.793 85.5636C62.6008 85.7412 62.3489 85.8398 62.0873 85.8398C61.8257 85.8398 61.5737 85.7412 61.3816 85.5636C61.1894 85.3861 61.0713 85.1427 61.0507 84.8819V83.6483C60.5385 83.5908 60.034 83.4782 59.5459 83.3125V86.6515Z" fill="white"/>
<path id="Vector_13" opacity="0.4" d="M40.7649 83.764C43.3866 83.764 45.5118 82.9052 45.5118 81.8459C45.5118 80.7865 43.3866 79.9277 40.7649 79.9277C38.1433 79.9277 36.0181 80.7865 36.0181 81.8459C36.0181 82.9052 38.1433 83.764 40.7649 83.764Z" fill="white"/>
<path id="Vector_14" opacity="0.4" d="M82.699 83.764C85.3207 83.764 87.4459 82.9052 87.4459 81.8459C87.4459 80.7865 85.3207 79.9277 82.699 79.9277C80.0774 79.9277 77.9521 80.7865 77.9521 81.8459C77.9521 82.9052 80.0774 83.764 82.699 83.764Z" fill="white"/>
</g>
</svg>
