<svg width="110" height="110" viewBox="0 0 110 110" fill="none" xmlns="http://www.w3.org/2000/svg">
<g id="saro_blue_heart_dark">
<path id="Vector" d="M105.417 38.7232C105.537 53.5732 93.2422 71.2247 79.8932 82.6258C75.7969 86.2008 70.6406 89.5008 66.0573 92.2852C65.5582 92.5678 64.9882 92.7003 64.4156 92.6669C63.8431 92.6335 63.2923 92.4355 62.8295 92.0967C62.3668 91.7579 62.0116 91.2928 61.8067 90.7571C61.6018 90.2214 61.5559 89.638 61.6745 89.0768L68.5495 56.3747C68.7254 55.6603 68.7438 54.9162 68.6033 54.194C68.4628 53.4718 68.1669 52.7888 67.7359 52.1924C67.0464 51.2958 66.0705 50.6624 64.9708 50.3976C63.871 50.1328 62.7138 50.2527 61.6917 50.7372L53.2812 54.8737C58.9646 34.9935 60.9927 27.8091 61.6802 25.0076C61.8378 24.3633 62.2095 23.7916 62.7344 23.3862C67.7646 19.5305 74.6224 15.7549 82.1333 15.7549C82.2536 15.7549 82.374 15.7148 82.5344 15.7148C82.6948 15.7148 82.7005 15.7549 82.7807 15.7549H83.1474C87.4844 15.9612 92.0734 17.4737 96.6167 20.9914C99.3956 23.073 101.658 25.7665 103.228 28.8633C103.277 29.0402 103.361 29.2057 103.474 29.3503C103.595 29.6367 103.715 29.9232 103.841 30.244C104.002 30.6909 104.162 31.1378 104.328 31.6247C104.4 31.7803 104.454 31.9437 104.489 32.1117C104.649 32.6388 104.775 33.1659 104.895 33.693C104.935 33.9336 104.976 34.0997 105.016 34.3003C105.096 34.7872 105.176 35.2742 105.216 35.7612C105.262 36.0076 105.302 36.2883 105.342 36.5747C105.382 37.1477 105.422 37.7206 105.422 38.3966V38.7232H105.417Z" fill="#6DCDF4"/>
<path id="Vector_2" d="M57.011 63.9602L51.087 91.9185C50.9918 92.3733 50.7912 92.7994 50.5012 93.1625C50.2112 93.5255 49.8401 93.8154 49.4176 94.0089C48.9951 94.2023 48.5331 94.2937 48.0688 94.276C47.6045 94.2582 47.1508 94.1317 46.7443 93.9065C41.548 90.9445 35.0969 86.9284 30.1298 82.6258C16.798 71.2247 4.50319 53.5732 4.5834 38.7232V38.3852C4.6235 37.7378 4.6235 37.1305 4.70371 36.5633C4.70856 36.2904 4.73538 36.0183 4.78392 35.7497C4.86986 35.2628 4.90996 34.7758 5.03027 34.2888C5.05725 34.0873 5.09939 33.8881 5.15631 33.693C5.27663 33.1659 5.40267 32.6388 5.56309 32.1117C5.59928 31.9435 5.65504 31.78 5.72923 31.6247C5.85527 31.1378 6.05579 30.6909 6.21621 30.244C6.34225 29.9174 6.46256 29.6367 6.58288 29.3503L6.82923 28.8633C8.37882 25.7681 10.6241 23.0737 13.3891 20.9914C17.9725 17.4622 22.5214 15.9612 26.8985 15.7549H27.2652C27.3454 15.7549 27.4256 15.7148 27.5115 15.7148C27.5975 15.7148 27.7923 15.7549 27.9126 15.7549C36.6782 15.7549 44.5271 20.8711 49.6834 25.294C50.1198 25.6629 50.4402 26.1502 50.6059 26.6971C50.7716 27.244 50.7755 27.8272 50.6172 28.3763C48.1824 36.9357 43.8396 52.2383 40.7975 62.7513C40.4592 63.9408 40.58 65.2139 41.136 66.3185C41.692 67.4231 42.6426 68.2785 43.7995 68.7154C44.4466 68.9421 45.1334 69.0336 45.8173 68.9843C46.5012 68.9351 47.1677 68.746 47.7756 68.4289L57.011 63.9602Z" fill="#6DCDF4"/>
</g>
</svg>
