<svg width="200" height="106" viewBox="0 0 200 106" fill="none" xmlns="http://www.w3.org/2000/svg">
<path d="M187.14 65.5379V66.2007C187.14 72.2263 181.259 76.9966 174.181 76.7154C131.136 74.988 98.9778 79.7282 81.3633 83.3234C73.5878 84.9202 66.1113 79.8989 66.1113 73.09C66.1113 68.3599 69.8197 64.2023 75.1728 62.9469C90.8235 59.2814 126.013 52.9043 175.387 55.0333C181.986 55.3145 187.14 59.9442 187.14 65.5379Z" fill="#6ECBF0"/>
<path d="M187.14 43.806V44.4688C187.14 50.4944 181.259 55.2646 174.181 54.9834C131.136 53.2561 98.9778 57.9962 81.3733 61.5915C73.5878 63.1883 66.1113 58.167 66.1113 51.358C66.1113 46.628 69.8197 42.4703 75.1728 41.215C90.8235 37.5595 126.013 31.1724 175.387 33.3014C181.986 33.5826 187.14 38.2122 187.14 43.806Z" fill="#73489A"/>
<path d="M187.14 22.0936V22.7564C187.14 28.782 181.259 33.5522 174.181 33.271C131.136 31.5437 98.9778 36.2838 81.3733 39.8791C73.5878 41.4759 66.1113 36.4646 66.1113 29.6457C66.1113 24.9156 69.8197 20.7579 75.1728 19.5026C90.8235 15.837 126.013 9.45996 175.387 11.589C181.986 11.8401 187.14 16.4798 187.14 22.0936Z" fill="#ED7AAC"/>
<path d="M100.862 42.1793C98.4995 34.808 87.8232 32.0162 77.1966 31.1324C73.0796 20.4169 66.8592 9.55078 58.5753 9.55078C50.2914 9.55078 44.081 20.4169 39.9639 31.1324C29.3374 32.0262 18.6511 34.818 16.2885 42.1793C13.9259 49.5405 21.1233 58.2475 29.3474 65.2773C26.616 76.746 25.4397 89.8818 32.5074 94.7023C39.0368 99.1612 49.454 94.401 58.5753 88.2951C67.6567 94.401 78.1237 99.1612 84.6532 94.7023C91.7109 89.8818 90.5446 76.746 87.8132 65.2773C96.0273 58.2475 103.255 49.641 100.862 42.1793Z" fill="#F5F093"/>
<path d="M78.5422 99.4226C73.1093 99.4226 66.4304 96.8918 58.605 91.8404C46.4633 99.6435 37.1426 101.441 30.8724 97.163C24.1835 92.5936 22.5785 82.2396 26.0875 66.3722C15.431 56.902 11.2043 48.4562 13.5071 41.2657C15.8098 34.0751 23.9243 29.7769 37.8803 28.3207C43.7319 13.8894 50.69 6.56836 58.5751 6.56836C66.4603 6.56836 73.4184 13.8894 79.2799 28.3207C93.2359 29.7769 101.4 34.1354 103.683 41.2657C105.966 48.3959 101.749 56.9121 91.1027 66.3722C94.6016 82.2396 92.9967 92.5936 86.3177 97.163C84.0141 98.6949 81.3018 99.4831 78.5422 99.4226ZM58.5751 85.3629C59.1612 85.359 59.7346 85.5341 60.2199 85.865C70.667 92.8948 78.7516 95.1745 82.9882 92.2822C87.5339 89.1791 88.2317 79.8595 84.9819 66.0509C84.8531 65.505 84.8782 64.9337 85.0543 64.4014C85.2305 63.8691 85.5506 63.3969 85.9788 63.0381C95.3593 55.004 99.6757 47.9741 98.1305 43.1135C96.5954 38.3131 89.099 35.0794 77.027 34.0751C76.4748 34.0245 75.9474 33.8202 75.5038 33.485C75.0602 33.1498 74.7178 32.697 74.5149 32.1771C69.5605 19.5133 63.9283 12.5337 58.5751 12.5337C53.222 12.5337 47.6097 19.5635 42.7251 32.1972C42.5289 32.7279 42.1883 33.1922 41.7422 33.5367C41.2961 33.8813 40.7627 34.0923 40.203 34.1454C28.141 35.1497 20.6446 38.3533 19.1094 43.1838C17.5743 48.0143 21.8707 55.0944 31.2612 63.1084C31.6893 63.4672 32.0095 63.9394 32.1856 64.4717C32.3618 65.004 32.3868 65.5753 32.258 66.1212C28.9684 79.9298 29.6562 89.2192 34.2517 92.3525C38.4884 95.2448 46.5729 92.9651 57.02 85.9353C57.4727 85.5974 58.0128 85.3986 58.5751 85.3629Z" fill="black"/>
<path d="M40.0936 62.3244C45.4394 62.3244 49.7731 56.4658 49.7731 49.2389C49.7731 42.0119 45.4394 36.1533 40.0936 36.1533C34.7477 36.1533 30.4141 42.0119 30.4141 49.2389C30.4141 56.4658 34.7477 62.3244 40.0936 62.3244Z" fill="black"/>
<path d="M36.5746 58.7597C38.518 58.7597 40.0935 56.6285 40.0935 53.9995C40.0935 51.3705 38.518 49.2393 36.5746 49.2393C34.6311 49.2393 33.0557 51.3705 33.0557 53.9995C33.0557 56.6285 34.6311 58.7597 36.5746 58.7597Z" fill="white"/>
<path d="M44.4997 47.662C46.2394 47.662 47.6498 45.9984 47.6498 43.9462C47.6498 41.8941 46.2394 40.2305 44.4997 40.2305C42.7599 40.2305 41.3496 41.8941 41.3496 43.9462C41.3496 45.9984 42.7599 47.662 44.4997 47.662Z" fill="white"/>
<path d="M77.0672 62.3244C82.413 62.3244 86.7467 56.4658 86.7467 49.2389C86.7467 42.0119 82.413 36.1533 77.0672 36.1533C71.7214 36.1533 67.3877 42.0119 67.3877 49.2389C67.3877 56.4658 71.7214 62.3244 77.0672 62.3244Z" fill="black"/>
<path d="M73.5384 58.7597C75.4819 58.7597 77.0574 56.6285 77.0574 53.9995C77.0574 51.3705 75.4819 49.2393 73.5384 49.2393C71.595 49.2393 70.0195 51.3705 70.0195 53.9995C70.0195 56.6285 71.595 58.7597 73.5384 58.7597Z" fill="white"/>
<path d="M81.4733 47.662C83.2131 47.662 84.6234 45.9984 84.6234 43.9462C84.6234 41.8941 83.2131 40.2305 81.4733 40.2305C79.7336 40.2305 78.3232 41.8941 78.3232 43.9462C78.3232 45.9984 79.7336 47.662 81.4733 47.662Z" fill="white"/>
<path d="M41.9175 75.4907C46.9386 75.4907 51.0089 72.721 51.0089 69.3044C51.0089 65.8879 46.9386 63.1182 41.9175 63.1182C36.8965 63.1182 32.8262 65.8879 32.8262 69.3044C32.8262 72.721 36.8965 75.4907 41.9175 75.4907Z" fill="#F4C3DA"/>
<path d="M75.2427 75.4907C80.2638 75.4907 84.3341 72.721 84.3341 69.3044C84.3341 65.8879 80.2638 63.1182 75.2427 63.1182C70.2217 63.1182 66.1514 65.8879 66.1514 69.3044C66.1514 72.721 70.2217 75.4907 75.2427 75.4907Z" fill="#F4C3DA"/>
<path d="M61.9052 66.091C60.9083 64.6951 59.0541 65.7194 58.5756 66.0107C58.1071 65.7194 56.2729 64.6951 55.2461 66.091C54.2194 67.4869 55.5452 68.9431 56.3626 69.7666C56.7331 70.1316 57.2301 70.3369 57.7483 70.339C58.0238 70.3544 58.3001 70.3544 58.5756 70.339C58.8512 70.3544 59.1275 70.3544 59.403 70.339C59.9236 70.3343 60.4228 70.1296 60.7986 69.7666C61.6161 68.9431 62.8621 67.3765 61.9052 66.091Z" fill="#231F20"/>
<path d="M125.534 46.4374C125.598 47.0682 125.564 47.705 125.435 48.3254C125.331 48.8783 125.139 49.4107 124.867 49.9021C124.615 50.3393 124.275 50.7189 123.87 51.0168C123.507 51.3002 123.071 51.4712 122.614 51.5089C122.249 51.5373 121.883 51.4876 121.54 51.3629C121.196 51.2383 120.883 51.0416 120.62 50.7859C120.522 51.0595 120.349 51.2996 120.121 51.4788C119.887 51.6639 119.602 51.7725 119.304 51.7901H119.174C118.975 51.8074 118.775 51.7752 118.59 51.6964C118.406 51.6177 118.244 51.4947 118.118 51.3382C117.785 50.9131 117.541 50.4246 117.4 49.9021C117.197 49.1941 117.044 48.4726 116.941 47.7429C116.822 46.9094 116.722 46.0256 116.642 45.0716C116.563 44.1175 116.503 43.2338 116.483 42.3902C116.472 41.6475 116.522 40.9052 116.632 40.1708C116.684 39.6396 116.84 39.1241 117.091 38.6544C117.181 38.4984 117.303 38.3637 117.449 38.2596C117.596 38.1555 117.762 38.0843 117.938 38.0509C118.114 38.0176 118.295 38.0228 118.469 38.0663C118.643 38.1098 118.805 38.1905 118.945 38.3029C119.221 38.5599 119.441 38.8709 119.593 39.2167C119.795 39.6894 119.952 40.1804 120.062 40.683C120.181 41.2453 120.291 41.868 120.381 42.5408C120.783 42.156 121.303 41.919 121.856 41.868C122.311 41.8271 122.769 41.9213 123.172 42.1391C123.61 42.3741 123.996 42.6951 124.308 43.0832C124.663 43.524 124.946 44.0189 125.146 44.5494C125.368 45.1555 125.499 45.792 125.534 46.4374ZM122.394 46.7085C122.373 46.4023 122.25 46.1123 122.045 45.885C121.96 45.7836 121.853 45.7036 121.732 45.6513C121.611 45.599 121.479 45.5759 121.348 45.5838C121.202 45.5941 121.061 45.6458 120.943 45.7329C120.825 45.8199 120.734 45.9388 120.68 46.0759C120.557 46.3208 120.505 46.5959 120.53 46.8692C120.555 47.0988 120.627 47.3209 120.74 47.522C120.803 47.6575 120.903 47.7729 121.027 47.8557C121.151 47.9384 121.295 47.9855 121.444 47.9917C121.593 47.9979 121.741 47.963 121.871 47.8909C122.002 47.8187 122.11 47.712 122.185 47.5823C122.356 47.3255 122.43 47.0156 122.394 46.7085Z" fill="white"/>
<path d="M131.775 47.5815C131.917 47.5608 132.062 47.5608 132.204 47.5815C132.36 47.5907 132.513 47.6317 132.652 47.702C132.801 47.7798 132.93 47.8895 133.031 48.0234C133.15 48.1961 133.222 48.3968 133.241 48.6059C133.282 48.9177 133.223 49.2348 133.071 49.5097C132.919 49.787 132.712 50.0298 132.463 50.2227C132.194 50.4315 131.895 50.5975 131.576 50.7148C131.255 50.8353 130.92 50.9129 130.579 50.9458H130.39C129.734 51.0105 129.072 50.9387 128.446 50.7349C127.966 50.5679 127.525 50.3049 127.15 49.9616C126.813 49.652 126.547 49.2714 126.372 48.8469C126.202 48.4552 126.069 48.0484 125.973 47.6317C125.868 47.0538 125.795 46.4704 125.754 45.8843C125.723 45.2977 125.773 44.7095 125.904 44.1369C126.043 43.5837 126.298 43.0667 126.651 42.6205C127.068 42.1203 127.618 41.7508 128.236 41.5559C128.559 41.4474 128.894 41.3832 129.233 41.3651C129.637 41.3416 130.043 41.372 130.439 41.4555C130.856 41.5432 131.254 41.7029 131.616 41.9275C131.981 42.1583 132.288 42.4711 132.513 42.8414C132.77 43.2839 132.911 43.7851 132.922 44.2976C132.961 44.7597 132.92 45.2252 132.802 45.6734C132.694 46.0402 132.514 46.3816 132.274 46.6777C132.042 46.9555 131.753 47.1784 131.426 47.3305C131.091 47.4865 130.729 47.5752 130.36 47.5916C130.025 47.6358 129.684 47.6049 129.363 47.5012C129.248 47.4872 129.137 47.4532 129.034 47.4008C129.053 47.6537 129.146 47.8951 129.303 48.0937C129.412 48.203 129.548 48.2804 129.698 48.3175C129.847 48.3547 130.003 48.3502 130.15 48.3046C130.314 48.2662 130.475 48.2124 130.629 48.1439L130.998 47.923L131.337 47.692C131.472 47.6218 131.622 47.584 131.775 47.5815ZM128.844 44.4884C128.798 44.688 128.823 44.8978 128.914 45.0809C128.961 45.1635 129.028 45.2333 129.107 45.284C129.187 45.3348 129.278 45.3651 129.373 45.3721H129.592C129.754 45.3629 129.909 45.3071 130.041 45.2115C130.105 45.1652 130.16 45.1054 130.199 45.036C130.239 44.9666 130.263 44.8895 130.27 44.8098C130.291 44.7042 130.291 44.5953 130.269 44.4898C130.246 44.3844 130.203 44.2848 130.14 44.1972C130.084 44.1098 130.009 44.0358 129.921 43.9804C129.833 43.9249 129.735 43.8892 129.632 43.8758H129.433C129.276 43.8834 129.127 43.951 129.018 44.0648C128.909 44.1786 128.847 44.3301 128.844 44.4884Z" fill="white"/>
<path d="M138.055 44.7496C138.425 44.8736 138.765 45.0756 139.052 45.3421C139.277 45.5546 139.463 45.8064 139.6 46.0852C139.714 46.3125 139.791 46.5566 139.829 46.8083C139.829 47.0393 139.879 47.2301 139.889 47.3707C139.907 47.7839 139.832 48.1959 139.67 48.5758C139.511 48.9543 139.277 49.2961 138.982 49.5801C138.683 49.8848 138.327 50.1272 137.935 50.2931C137.514 50.472 137.065 50.574 136.609 50.5944C136.005 50.631 135.402 50.5135 134.855 50.2529C134.368 50.0293 133.945 49.6835 133.629 49.2487C133.522 49.1131 133.447 48.9553 133.409 48.7867C133.379 48.6139 133.379 48.4372 133.409 48.2645C133.428 48.0941 133.482 47.9297 133.569 47.7824C133.65 47.6352 133.767 47.5109 133.908 47.4209C134.14 47.2676 134.408 47.1808 134.685 47.1698C135.022 47.1399 135.357 47.2405 135.622 47.451C135.822 47.6044 136.036 47.7389 136.26 47.8527C136.39 47.92 136.533 47.9577 136.679 47.9632C136.712 47.9659 136.745 47.9621 136.776 47.952C136.807 47.9419 136.836 47.9256 136.861 47.9041C136.886 47.8827 136.907 47.8564 136.922 47.8269C136.937 47.7974 136.946 47.7652 136.948 47.7322C136.948 47.5414 136.948 47.4109 136.679 47.3506L135.852 47.0895C135.717 47.07 135.583 47.0398 135.453 46.9991C135.326 46.9593 135.203 46.909 135.084 46.8485L134.606 46.6175C134.385 46.4975 134.184 46.3452 134.007 46.1656C133.79 45.941 133.608 45.6834 133.469 45.4023C133.296 45.0349 133.204 44.634 133.2 44.2273C133.178 43.8149 133.25 43.4028 133.409 43.0222C133.576 42.6481 133.809 42.3078 134.097 42.018C134.402 41.7152 134.76 41.4733 135.154 41.3049C135.57 41.1225 136.016 41.0203 136.47 41.0037C137.041 40.9609 137.614 41.0626 138.136 41.2993C138.658 41.5361 139.113 41.9005 139.46 42.3594C139.667 42.6497 139.753 43.0103 139.7 43.3637C139.681 43.532 139.627 43.6944 139.541 43.8399C139.455 43.9854 139.339 44.1107 139.201 44.2073C138.964 44.3563 138.693 44.4426 138.414 44.4583C138.249 44.4675 138.083 44.4471 137.925 44.3981C137.761 44.3481 137.609 44.2662 137.477 44.157C137.286 44.0036 137.078 43.8722 136.859 43.7654C136.729 43.6986 136.585 43.6641 136.44 43.665C136.369 43.6585 136.299 43.6785 136.242 43.7211C136.185 43.7637 136.145 43.8259 136.131 43.8959C136.131 43.9964 136.131 44.0968 136.35 44.1972C136.536 44.3059 136.733 44.3935 136.938 44.4583C137.157 44.5377 137.38 44.6047 137.606 44.6592C137.758 44.6747 137.908 44.705 138.055 44.7496Z" fill="white"/>
<path d="M146.02 46.0659C146.245 46.0594 146.469 46.1005 146.678 46.1865C146.852 46.2725 147.005 46.3959 147.126 46.548C147.247 46.6967 147.338 46.8671 147.395 47.0501C147.461 47.2305 147.498 47.4204 147.505 47.6125C147.533 47.9527 147.489 48.295 147.375 48.6168C147.272 48.9266 147.109 49.2131 146.897 49.4604C146.66 49.7353 146.368 49.9556 146.039 50.1064C145.711 50.2572 145.354 50.3348 144.993 50.3341C144.54 50.3628 144.086 50.2873 143.667 50.1133C143.247 49.9393 142.872 49.6714 142.571 49.3298C142.291 48.992 142.06 48.6169 141.883 48.2151C141.697 47.792 141.553 47.3513 141.454 46.8995C141.345 46.4399 141.265 45.9736 141.215 45.5036C141.215 45.0215 141.135 44.5796 141.105 44.1578C140.801 44.0469 140.53 43.8604 140.318 43.6155C140.116 43.37 140.006 43.0606 140.009 42.7418C139.988 42.41 140.087 42.0818 140.288 41.8179C140.509 41.5635 140.781 41.3583 141.085 41.2153C141.085 40.7132 141.155 40.2613 141.195 39.8696C141.235 39.478 141.265 39.1867 141.285 38.9959C141.332 38.6982 141.396 38.4032 141.474 38.1122C141.546 37.8413 141.646 37.5787 141.773 37.3288C141.891 37.1148 142.05 36.927 142.242 36.7765C142.435 36.6323 142.669 36.5548 142.909 36.5556C143.115 36.538 143.322 36.5688 143.514 36.6455C143.706 36.7222 143.878 36.8426 144.016 36.9974C144.285 37.3119 144.483 37.6822 144.594 38.082C144.694 38.5009 144.757 38.9276 144.784 39.3575C144.814 39.8457 144.814 40.3354 144.784 40.8237C145.41 40.8929 146.02 41.0696 146.588 41.3459C146.81 41.4526 146.997 41.6207 147.128 41.8305C147.258 42.0403 147.327 42.2833 147.326 42.5309C147.34 42.7955 147.276 43.0583 147.141 43.2857C147.006 43.513 146.806 43.6944 146.568 43.8063C145.965 44.1266 145.31 44.3374 144.634 44.429C144.619 44.71 144.619 44.9916 144.634 45.2726C144.643 45.4948 144.666 45.7162 144.704 45.9354C144.731 46.0361 144.786 46.1267 144.863 46.1965C144.909 46.2342 144.961 46.2625 145.018 46.2797C145.074 46.2969 145.134 46.3028 145.192 46.2969C145.316 46.2965 145.436 46.2618 145.541 46.1965C145.686 46.11 145.851 46.0649 146.02 46.0659Z" fill="white"/>
<path d="M149.529 40.5718C149.896 40.5626 150.253 40.6956 150.526 40.9433C150.813 41.2181 151.023 41.5646 151.134 41.9476C151.286 42.4445 151.387 42.9562 151.433 43.4741C151.493 44.0566 151.523 44.6792 151.533 45.342C151.543 46.0048 151.533 46.6275 151.483 47.22C151.452 47.7401 151.365 48.2553 151.224 48.7565C151.118 49.1351 150.919 49.4805 150.646 49.7608C150.364 49.9925 150.012 50.119 149.649 50.119C149.285 50.119 148.933 49.9925 148.652 49.7608C148.367 49.4839 148.158 49.1382 148.044 48.7565C147.892 48.2596 147.791 47.748 147.745 47.23C147.685 46.6476 147.655 46.0249 147.645 45.3621C147.635 44.6993 147.645 44.0666 147.645 43.4841C147.675 42.9672 147.762 42.4553 147.904 41.9577C148.012 41.5801 148.211 41.2352 148.482 40.9534C148.622 40.8213 148.787 40.7194 148.967 40.6537C149.147 40.5881 149.338 40.5602 149.529 40.5718ZM151.323 38.2318C151.331 38.4761 151.287 38.7191 151.194 38.9449C151.111 39.1643 150.982 39.363 150.815 39.5273C150.654 39.6976 150.461 39.8341 150.247 39.929C150.018 40.0214 149.775 40.0724 149.529 40.0797C149.291 40.0902 149.054 40.05 148.832 39.9617C148.61 39.8735 148.41 39.7392 148.243 39.5675C148.069 39.4025 147.931 39.2032 147.837 38.9821C147.742 38.761 147.694 38.5227 147.695 38.282C147.691 38.0381 147.735 37.7957 147.824 37.569C147.914 37.3529 148.042 37.1554 148.203 36.9866C148.37 36.8213 148.566 36.6885 148.781 36.5949C149 36.4941 149.239 36.4427 149.479 36.4442C149.718 36.4366 149.957 36.4781 150.179 36.5661C150.402 36.6542 150.605 36.787 150.775 36.9564C150.957 37.1152 151.103 37.3109 151.205 37.5307C151.306 37.7505 151.36 37.9895 151.363 38.2318H151.323Z" fill="white"/>
<path d="M157.763 46.8988C157.906 46.8793 158.05 46.8793 158.192 46.8988C158.347 46.9184 158.496 46.9696 158.631 47.0494C158.775 47.1331 158.898 47.2501 158.989 47.3909C159.094 47.5711 159.152 47.7747 159.159 47.9834C159.178 48.2982 159.098 48.611 158.93 48.8772C158.761 49.1464 158.536 49.3759 158.272 49.55C157.992 49.7377 157.686 49.8832 157.365 49.9819C157.04 50.0769 156.705 50.1341 156.368 50.1526H156.178C155.52 50.1762 154.865 50.0599 154.254 49.8111C153.787 49.6128 153.363 49.3226 153.008 48.9575C152.698 48.6243 152.457 48.2315 152.301 47.8026C152.159 47.3982 152.056 46.9813 151.992 46.5573C151.919 45.9743 151.882 45.3874 151.882 44.7999C151.88 44.2141 151.968 43.6317 152.141 43.0725C152.315 42.525 152.604 42.0216 152.988 41.5963C153.439 41.127 154.013 40.7962 154.643 40.6422C154.969 40.5587 155.304 40.5182 155.64 40.5217C156.048 40.5213 156.454 40.5788 156.846 40.6924C157.254 40.8026 157.639 40.9863 157.983 41.2347C158.335 41.4994 158.622 41.8432 158.82 42.239C159.044 42.6976 159.153 43.2044 159.139 43.7153C159.149 44.1802 159.075 44.6431 158.92 45.0811C158.799 45.4549 158.598 45.7977 158.332 46.0853C158.088 46.3504 157.788 46.5564 157.454 46.6879C157.107 46.8188 156.739 46.8835 156.368 46.8787C156.029 46.8998 155.689 46.8484 155.371 46.728C155.257 46.7067 155.148 46.6623 155.052 46.5975C155.05 46.8524 155.126 47.1016 155.271 47.3105C155.372 47.4269 155.502 47.5129 155.648 47.559C155.794 47.6051 155.95 47.6095 156.099 47.5716C156.266 47.5492 156.43 47.5053 156.587 47.4411L156.966 47.2503L157.325 47.0394C157.46 46.9623 157.609 46.9144 157.763 46.8988ZM155.032 43.6349C154.973 43.8279 154.973 44.0344 155.032 44.2274C155.075 44.313 155.138 44.3864 155.217 44.4408C155.295 44.4952 155.386 44.5289 155.481 44.5387C155.566 44.5518 155.654 44.5518 155.74 44.5387C155.897 44.5347 156.05 44.4934 156.188 44.4182C156.257 44.3757 156.316 44.3187 156.361 44.251C156.405 44.1834 156.435 44.1068 156.447 44.0266C156.475 43.922 156.481 43.813 156.466 43.706C156.45 43.5991 156.414 43.4963 156.358 43.4039C156.307 43.3124 156.237 43.2334 156.153 43.1726C156.068 43.1118 155.972 43.0707 155.869 43.0524C155.803 43.0404 155.736 43.0404 155.67 43.0524C155.51 43.0494 155.355 43.108 155.236 43.2162C155.118 43.3245 155.045 43.4742 155.032 43.6349Z" fill="white"/>
<path d="M166.934 48.7872C166.947 48.9272 166.93 49.0683 166.886 49.2016C166.841 49.3348 166.769 49.457 166.675 49.5605C166.464 49.7788 166.199 49.9351 165.907 50.0124C165.517 50.1233 165.116 50.1907 164.711 50.2132C164.242 50.2132 163.714 50.2132 163.166 50.2132C162.617 50.2132 162.169 50.2132 161.76 50.153C161.354 50.1257 160.951 50.0686 160.554 49.9823C160.324 49.9283 160.109 49.8217 159.926 49.6709C159.751 49.5507 159.604 49.3929 159.497 49.209C159.399 49.0022 159.347 48.7756 159.348 48.5462C159.349 48.3073 159.4 48.0713 159.497 47.8532C159.773 47.2681 160.107 46.7129 160.494 46.1962C160.913 45.6238 161.381 45.0312 161.9 44.3986C162.009 44.2479 162.129 44.0973 162.239 43.9667C162.344 43.8295 162.457 43.6987 162.577 43.5751C161.813 43.5597 161.054 43.4346 160.325 43.2035C160.086 43.1288 159.877 42.9796 159.728 42.7773C159.58 42.5751 159.499 42.3304 159.497 42.0787C159.489 41.9382 159.508 41.7975 159.554 41.6647C159.6 41.5318 159.673 41.4097 159.766 41.3054C159.976 41.0871 160.242 40.9308 160.534 40.8535C160.921 40.7417 161.318 40.6743 161.72 40.6527C162.228 40.6262 162.737 40.6262 163.245 40.6527C163.744 40.6527 164.212 40.6727 164.651 40.7129C165.053 40.7395 165.453 40.7966 165.847 40.8836C166.065 40.9438 166.267 41.0514 166.44 41.1989C166.612 41.3464 166.75 41.5302 166.844 41.7373C166.948 41.9462 167.001 42.1766 167.001 42.4101C167.001 42.6437 166.948 42.874 166.844 43.083C166.56 43.641 166.226 44.1721 165.847 44.6697C165.438 45.2421 164.98 45.8447 164.462 46.4874L164.123 46.8992L163.784 47.3109C164.541 47.3176 165.293 47.436 166.017 47.6624C166.273 47.7188 166.503 47.8604 166.669 48.0645C166.835 48.2686 166.929 48.5232 166.934 48.7872Z" fill="white"/>
</svg>
