<svg width="192" height="192" viewBox="0 0 192 192" fill="none" xmlns="http://www.w3.org/2000/svg">
<path d="M135.88 117.74L175.72 157.58C178.153 160.018 179.52 163.321 179.52 166.765C179.52 170.209 178.153 173.513 175.72 175.95C173.282 178.384 169.979 179.75 166.535 179.75C163.091 179.75 159.787 178.384 157.35 175.95L117.51 136.11" fill="#CD9264"/>
<path d="M166.53 183.91C164.28 183.92 162.049 183.484 159.969 182.625C157.888 181.767 155.999 180.504 154.41 178.91L114.57 139.07L120.44 133.19L160.29 173C161.947 174.656 164.193 175.587 166.535 175.587C168.878 175.587 171.124 174.656 172.78 173C174.437 171.344 175.367 169.097 175.367 166.755C175.367 164.413 174.437 162.166 172.78 160.51L132.94 120.66L138.81 114.79L178.66 154.63C181.057 157.029 182.688 160.085 183.348 163.41C184.009 166.736 183.668 170.183 182.37 173.316C181.072 176.448 178.874 179.126 176.055 181.01C173.236 182.893 169.921 183.899 166.53 183.9V183.91Z" fill="black"/>
<path d="M79.5995 12.2402C66.3244 12.2402 53.3475 16.1768 42.3096 23.552C31.2718 30.9272 22.6689 41.4099 17.5887 53.6745C12.5086 65.9391 11.1794 79.4347 13.7692 92.4547C16.3591 105.475 22.7516 117.434 32.1385 126.821C41.5254 136.208 53.4851 142.601 66.5051 145.191C79.5251 147.78 93.0207 146.451 105.285 141.371C117.55 136.291 128.033 127.688 135.408 116.65C142.783 105.612 146.72 92.6353 146.72 79.3602C146.72 61.5589 139.648 44.4867 127.061 31.8992C114.473 19.3118 97.4008 12.2402 79.5995 12.2402ZM79.5995 125.18C70.5372 125.18 61.6784 122.493 54.1433 117.458C46.6082 112.423 40.7354 105.267 37.2674 96.8948C33.7994 88.5223 32.892 79.3094 34.6599 70.4212C36.4279 61.533 40.7918 53.3686 47.1999 46.9606C53.6079 40.5526 61.7723 36.1886 70.6605 34.4207C79.5487 32.6527 88.7616 33.5601 97.1341 37.0281C105.507 40.4961 112.663 46.3689 117.697 53.904C122.732 61.4391 125.42 70.2979 125.42 79.3602C125.42 85.3774 124.234 91.3357 121.932 96.8948C119.629 102.454 116.254 107.505 111.999 111.76C107.744 116.015 102.693 119.39 97.1341 121.692C91.5749 123.995 85.6167 125.18 79.5995 125.18Z" fill="#D1CECC"/>
<path d="M79.6003 150.64C65.5025 150.64 51.7212 146.46 39.9993 138.627C28.2774 130.795 19.1412 119.662 13.7462 106.638C8.3512 93.6131 6.93962 79.281 9.68997 65.4541C12.4403 51.6271 19.2291 38.9262 29.1978 28.9575C39.1665 18.9889 51.8673 12.2001 65.6943 9.44974C79.5213 6.69938 93.8533 8.11096 106.878 13.506C119.903 18.901 131.035 28.0371 138.868 39.7591C146.7 51.481 150.88 65.2623 150.88 79.3601C150.859 98.2582 143.343 116.376 129.98 129.739C116.617 143.102 98.4985 150.619 79.6003 150.64ZM79.6003 16.4001C67.1401 16.4001 54.9597 20.095 44.5994 27.0175C34.2391 33.9401 26.1643 43.7793 21.3959 55.2911C16.6276 66.8028 15.38 79.47 17.8109 91.6908C20.2417 103.912 26.2419 115.137 35.0526 123.948C43.8633 132.759 55.0889 138.759 67.3097 141.19C79.5305 143.62 92.1977 142.373 103.709 137.605C115.221 132.836 125.06 124.761 131.983 114.401C138.905 104.041 142.6 91.8603 142.6 79.4001C142.6 62.6915 135.963 46.6672 124.148 34.8524C112.333 23.0376 96.309 16.4001 79.6003 16.4001ZM79.6003 129.34C69.7113 129.34 60.0443 126.408 51.8218 120.914C43.5994 115.42 37.1908 107.611 33.4064 98.4743C29.622 89.338 28.6318 79.2846 30.5611 69.5856C32.4903 59.8865 37.2524 50.9774 44.245 43.9848C51.2376 36.9921 60.1468 32.2301 69.8458 30.3008C79.5449 28.3716 89.5982 29.3618 98.7345 33.1461C107.871 36.9305 115.68 43.3391 121.174 51.5616C126.668 59.7841 129.6 69.451 129.6 79.3401C129.6 85.9062 128.307 92.408 125.794 98.4743C123.282 104.541 119.599 110.053 114.956 114.695C110.313 119.338 104.801 123.021 98.7345 125.534C92.6682 128.047 86.1664 129.34 79.6003 129.34ZM79.6003 37.7001C71.3584 37.7001 63.3015 40.1443 56.4487 44.7235C49.5959 49.3027 44.2549 55.8112 41.1013 63.426C37.9477 71.0408 37.1231 79.4197 38.7318 87.5032C40.3404 95.5867 44.3101 103.012 50.1387 108.839C55.9674 114.666 63.3932 118.634 71.4771 120.241C79.5609 121.847 87.9397 121.021 95.5537 117.865C103.168 114.71 109.675 109.367 114.253 102.513C118.83 95.6595 121.272 87.6021 121.27 79.3601C121.257 68.3135 116.862 57.7233 109.05 49.9131C101.238 42.1029 90.6469 37.7107 79.6003 37.7001Z" fill="black"/>
<path d="M79.5996 129.34C69.7106 129.34 60.0436 126.407 51.8211 120.913C43.5987 115.419 37.19 107.61 33.4057 98.474C29.6213 89.3377 28.6311 79.2844 30.5604 69.5853C32.4896 59.8863 37.2517 50.9771 44.2443 43.9845C51.2369 36.9919 60.1461 32.2299 69.8451 30.3006C79.5441 28.3713 89.5975 29.3615 98.7338 33.1459C107.87 36.9303 115.679 43.3389 121.173 51.5614C126.667 59.7838 129.6 69.4508 129.6 79.3399C129.6 85.9059 128.306 92.4078 125.794 98.474C123.281 104.54 119.598 110.052 114.955 114.695C110.312 119.338 104.8 123.021 98.7338 125.534C92.6675 128.047 86.1657 129.34 79.5996 129.34ZM79.5996 37.6999C71.3576 37.6999 63.3008 40.144 56.448 44.7232C49.5952 49.3024 44.2542 55.811 41.1006 63.4258C37.947 71.0405 37.1224 79.4195 38.731 87.5029C40.3397 95.5864 44.3094 103.011 50.138 108.839C55.9667 114.666 63.3925 118.634 71.4763 120.24C79.5602 121.847 87.9389 121.02 95.553 117.865C103.167 114.71 109.674 109.367 114.252 102.513C118.829 95.6593 121.272 87.6018 121.27 79.3599C121.256 68.3133 116.862 57.7231 109.05 49.9129C101.237 42.1027 90.6462 37.7105 79.5996 37.6999Z" fill="#231F20"/>
<path d="M106.81 72.7701C105.976 72.7691 105.161 72.5179 104.471 72.0491C103.781 71.5803 103.248 70.9153 102.94 70.1402C101.73 67.0737 99.9288 64.2755 97.638 61.9054C95.3471 59.5352 92.6119 57.6395 89.5884 56.3265C86.5649 55.0134 83.3123 54.3088 80.0165 54.2528C76.7207 54.1968 73.4461 54.7906 70.3798 56.0002C69.3673 56.342 68.262 56.28 67.2941 55.8273C66.3261 55.3745 65.5701 54.5659 65.1835 53.5697C64.7969 52.5735 64.8094 51.4665 65.2185 50.4793C65.6276 49.4922 66.4018 48.7008 67.3798 48.2702C71.4599 46.6581 75.8176 45.8657 80.204 45.9381C84.5904 46.0106 88.9195 46.9464 92.9442 48.6922C96.9689 50.438 100.61 52.9596 103.66 56.113C106.71 59.2663 109.109 62.9896 110.72 67.0702C110.921 67.5776 111.02 68.1198 111.011 68.6655C111.002 69.2113 110.885 69.7499 110.668 70.2506C110.451 70.7513 110.137 71.2042 109.744 71.5833C109.351 71.9625 108.888 72.2604 108.38 72.4602C107.881 72.6615 107.348 72.7667 106.81 72.7701Z" fill="#231F20"/>
</svg>
