<svg width="60" height="60" viewBox="0 0 60 60" fill="none" xmlns="http://www.w3.org/2000/svg">
<g id="saro_dumpster_fire_dark">
<path id="Vector" d="M48.4186 24.8398H11.5811V49.5273H48.4186V24.8398ZM18.8092 44.418C16.0186 44.418 13.7592 40.8242 13.7592 36.3898C13.76 35.878 13.7913 35.3667 13.8529 34.8586L20.8092 29.018C22.6029 30.2492 23.8561 33.0805 23.8561 36.3898C23.8561 40.8242 21.5967 44.418 18.8092 44.418ZM32.7529 46.5148C32.6345 46.5908 32.4967 46.6309 32.3561 46.6305C32.2306 46.6288 32.1076 46.5956 31.9983 46.5339C31.8891 46.4722 31.7972 46.384 31.7311 46.2773C31.4967 45.9023 30.8717 45.5242 30.0029 45.5242C29.1342 45.5242 28.5092 45.9023 28.2748 46.2773C28.1683 46.4449 27.9998 46.5637 27.8062 46.6077C27.6125 46.6517 27.4093 46.6174 27.2408 46.5124C27.0723 46.4073 26.9521 46.2399 26.9064 46.0467C26.8606 45.8534 26.8931 45.6499 26.9967 45.4805C27.5592 44.5773 28.7123 44.018 30.0029 44.018C31.2936 44.018 32.4436 44.5773 33.0061 45.4805C33.0577 45.5649 33.0922 45.6587 33.1075 45.7565C33.1227 45.8544 33.1185 45.9542 33.0949 46.0504C33.0714 46.1465 33.0291 46.2371 32.9704 46.3168C32.9117 46.3965 32.8378 46.4638 32.7529 46.5148ZM41.1904 44.418C38.4029 44.418 36.1436 40.8242 36.1436 36.3898C36.1436 33.0867 37.3936 30.2492 39.1904 29.018L46.1467 34.8586C46.2083 35.3667 46.2396 35.878 46.2404 36.3898C46.2498 40.8242 43.9811 44.418 41.1904 44.418Z" fill="#1E8D45"/>
<path id="Vector_2" d="M24.1314 22.2055C24.1596 22.1773 24.1814 22.1461 24.2096 22.118L26.3596 17.543H21.7783L19.5908 22.2055H24.1314Z" fill="#595A5A"/>
<path id="Vector_3" d="M16.6781 22.2055L18.8688 17.543H14.4187L12.4219 22.2055H16.6781Z" fill="#595A5A"/>
<path id="Vector_4" d="M14.8657 53.5223C14.8657 53.7905 14.9453 54.0527 15.0943 54.2758C15.2433 54.4988 15.4551 54.6726 15.703 54.7753C15.9508 54.8779 16.2235 54.9048 16.4866 54.8525C16.7497 54.8001 16.9913 54.671 17.181 54.4813C17.3707 54.2916 17.4998 54.0499 17.5522 53.7869C17.6045 53.5238 17.5776 53.2511 17.475 53.0033C17.3723 52.7554 17.1985 52.5436 16.9755 52.3946C16.7524 52.2456 16.4902 52.166 16.222 52.166C15.8623 52.166 15.5173 52.3089 15.263 52.5633C15.0086 52.8176 14.8657 53.1626 14.8657 53.5223Z" fill="#595A5A"/>
<path id="Vector_5" d="M42.4219 53.5223C42.4219 53.7905 42.5014 54.0527 42.6504 54.2758C42.7995 54.4988 43.0113 54.6726 43.2591 54.7753C43.5069 54.8779 43.7796 54.9048 44.0427 54.8525C44.3058 54.8001 44.5475 54.671 44.7371 54.4813C44.9268 54.2916 45.056 54.0499 45.1083 53.7869C45.1606 53.5238 45.1338 53.2511 45.0311 53.0033C44.9285 52.7554 44.7547 52.5436 44.5316 52.3946C44.3086 52.2456 44.0464 52.166 43.7781 52.166C43.4184 52.166 43.0735 52.3089 42.8191 52.5633C42.5648 52.8176 42.4219 53.1626 42.4219 53.5223Z" fill="#595A5A"/>
<path id="Vector_6" d="M32.5532 13.6746C32.6679 13.9879 32.7618 14.3084 32.8345 14.634C32.8563 14.7184 32.8782 14.8121 32.9032 14.909H32.9938C33.0528 14.8214 33.105 14.7294 33.1501 14.634C33.6063 13.6965 33.8407 12.1777 33.7438 10.3809C33.5938 10.2027 33.4313 10.0309 33.3126 9.88086C33.2908 11.1809 33.0335 12.4663 32.5532 13.6746Z" fill="#DE2227"/>
<path id="Vector_7" d="M40.9907 9.375C41.1991 9.85 41.4074 10.3604 41.6157 10.9063C41.6527 11.0429 41.725 11.1674 41.8254 11.2673C41.9258 11.3671 42.0507 11.4388 42.1876 11.475C42.2679 11.4836 42.349 11.472 42.4237 11.4415C42.4985 11.411 42.5644 11.3623 42.6157 11.3C42.4824 10.0146 42.1971 8.74948 41.7657 7.53125C41.4748 8.13161 41.2161 8.74707 40.9907 9.375Z" fill="#DE2227"/>
<path id="Vector_8" d="M50.9373 22.9851L50.0592 21.0351C48.5936 12.0289 45.853 9.50386 45.5217 9.22886C45.3422 9.08041 45.1265 8.98228 44.8967 8.94449C44.5498 7.27574 43.9404 5.46636 42.8811 4.76949C42.6186 4.59232 42.3191 4.47767 42.0054 4.43433C41.6918 4.391 41.3723 4.42013 41.0717 4.51949C40.7904 4.61011 40.1842 4.81011 39.3748 6.39449C36.6404 2.35386 33.7748 2.46636 33.3779 2.50074C33.171 2.51956 32.9715 2.58725 32.7959 2.69823C32.6202 2.8092 32.4734 2.9603 32.3675 3.13909C32.2617 3.31788 32.1997 3.51925 32.1869 3.72663C32.174 3.93402 32.2106 4.14149 32.2936 4.33199C32.549 4.9272 32.7733 5.53531 32.9655 6.15386C32.6262 5.94338 32.2477 5.80409 31.853 5.74449C31.6458 5.72407 31.4367 5.75288 31.2428 5.82856C31.0489 5.90424 30.8755 6.02465 30.737 6.17999C30.5984 6.33532 30.4984 6.5212 30.4453 6.72247C30.3921 6.92374 30.3873 7.13473 30.4311 7.33824C30.7913 8.8429 30.7752 10.4131 30.3842 11.9101C30.2484 11.9069 30.1126 11.9142 29.978 11.932C28.2842 12.1445 27.9404 13.6601 27.6873 14.907H13.5498C13.2921 14.9076 13.0402 14.9837 12.8253 15.1258C12.6104 15.268 12.4418 15.4701 12.3405 15.707L9.06232 23.382C8.99126 23.5456 8.95508 23.7223 8.95607 23.9007V50.8507C8.95607 51.1997 9.09468 51.5343 9.34141 51.781C9.58814 52.0278 9.92277 52.1664 10.2717 52.1664H12.4842C12.323 52.6004 12.2405 53.0596 12.2404 53.5226C12.2404 54.5802 12.6606 55.5944 13.4084 56.3422C14.1562 57.09 15.1704 57.5101 16.228 57.5101C17.2855 57.5101 18.2997 57.09 19.0475 56.3422C19.7953 55.5944 20.2155 54.5802 20.2155 53.5226C20.2154 53.0596 20.1329 52.6004 19.9717 52.1664H40.0405C39.8793 52.6004 39.7967 53.0596 39.7967 53.5226C39.7967 54.5802 40.2168 55.5944 40.9646 56.3422C41.7124 57.09 42.7267 57.5101 43.7842 57.5101C44.8418 57.5101 45.856 57.09 46.6038 56.3422C47.3516 55.5944 47.7717 54.5802 47.7717 53.5226C47.7717 53.0596 47.6891 52.6004 47.528 52.1664H49.7404C50.0894 52.1664 50.424 52.0278 50.6707 51.781C50.9175 51.5343 51.0561 51.1997 51.0561 50.8507V23.5226C51.0559 23.337 51.0154 23.1536 50.9373 22.9851ZM45.1373 53.5226C45.1373 53.7909 45.0578 54.0531 44.9088 54.2761C44.7597 54.4991 44.5479 54.673 44.3001 54.7756C44.0523 54.8783 43.7796 54.9051 43.5165 54.8528C43.2534 54.8005 43.0117 54.6713 42.8221 54.4816C42.6324 54.292 42.5032 54.0503 42.4509 53.7872C42.3986 53.5241 42.4254 53.2514 42.5281 53.0036C42.6307 52.7558 42.8046 52.544 43.0276 52.3949C43.2506 52.2459 43.5128 52.1664 43.7811 52.1664C44.1402 52.1672 44.4844 52.3104 44.7381 52.5647C44.9917 52.819 45.1342 53.1635 45.1342 53.5226H45.1373ZM11.5811 49.532V24.8445H48.4186V49.532H11.5811ZM17.5779 53.5226C17.5779 53.7909 17.4984 54.0531 17.3494 54.2761C17.2004 54.4991 16.9885 54.673 16.7407 54.7756C16.4929 54.8783 16.2202 54.9051 15.9571 54.8528C15.694 54.8005 15.4524 54.6713 15.2627 54.4816C15.073 54.292 14.9438 54.0503 14.8915 53.7872C14.8392 53.5241 14.866 53.2514 14.9687 53.0036C15.0713 52.7558 15.2452 52.544 15.4682 52.3949C15.6912 52.2459 15.9535 52.1664 16.2217 52.1664C16.5814 52.1664 16.9264 52.3093 17.1807 52.5636C17.4351 52.8179 17.5779 53.1629 17.5779 53.5226ZM33.1498 14.6351C33.1047 14.7306 33.0525 14.8225 32.9936 14.9101H32.903C32.878 14.8132 32.8561 14.7195 32.8342 14.6351C32.7615 14.3095 32.6676 13.989 32.5529 13.6757C33.0332 12.4674 33.2905 11.1821 33.3123 9.88199C33.4467 10.032 33.5936 10.1945 33.7436 10.382C33.8405 12.1882 33.6061 13.6945 33.1498 14.6351ZM30.2905 15.3132C30.4967 16.1726 31.0436 18.2257 33.1529 17.8445C33.7967 17.7257 34.7154 17.3101 35.4186 15.9882C36.7561 13.4882 36.5998 9.58199 35.6936 6.16324C36.7311 7.05386 37.9998 8.71324 39.1311 11.8101C39.3276 12.3898 39.6774 12.9053 40.1435 13.3021C40.6095 13.6988 41.1744 13.9618 41.778 14.0632C42.3416 14.1465 42.9173 14.074 43.4428 13.8537C43.9682 13.6334 44.4234 13.2736 44.7592 12.8132C44.7842 12.7789 44.8092 12.7414 44.8373 12.707C45.6686 14.2382 46.8248 17.132 47.5779 22.1882H27.4686C28.8828 20.192 29.833 17.9051 30.2498 15.4945C30.2623 15.4476 30.278 15.3789 30.2905 15.3132ZM26.3592 17.5445L24.2092 22.1195C24.1811 22.1476 24.1592 22.1789 24.1311 22.207H19.5842L21.7717 17.5445H26.3592ZM42.1873 11.4757C42.0501 11.4392 41.9249 11.3671 41.8245 11.2667C41.7241 11.1663 41.652 11.0411 41.6154 10.9039C41.4071 10.358 41.1988 9.84761 40.9904 9.37261C41.2118 8.74599 41.4663 8.13158 41.7529 7.53199C42.1843 8.75021 42.4696 10.0153 42.603 11.3007C42.5529 11.3612 42.489 11.4087 42.4166 11.4392C42.3442 11.4697 42.2656 11.4822 42.1873 11.4757ZM18.8686 17.5445L16.6811 22.207H12.4217L14.4186 17.5445H18.8686Z" fill="black"/>
<path id="Vector_9" d="M27.4688 22.2066H29.6875C30.5082 21.2761 31.003 20.1032 31.0969 18.866C35.0156 21.641 39.4312 16.2504 37.4688 13.0254C37.4688 13.0254 38.9875 13.2785 39.9938 16.7473C40.9844 20.1629 43.9156 17.6598 43.9531 15.8098C45.3006 17.6992 46.1448 19.9007 46.4062 22.2066H47.5656C46.8125 17.1504 45.6562 14.2566 44.825 12.7254C44.7969 12.7598 44.7719 12.7973 44.7469 12.8316C44.4111 13.292 43.9559 13.6518 43.4304 13.8721C42.905 14.0924 42.3293 14.1649 41.7656 14.0816C41.1602 13.9789 40.5942 13.7135 40.1279 13.3139C39.6617 12.9143 39.3129 12.3954 39.1187 11.8129C37.9875 8.71602 36.7188 7.05664 35.6812 6.16602C36.5875 9.58477 36.7438 13.4848 35.4063 15.991C34.6969 17.3129 33.7844 17.7285 33.1406 17.8473C31.0313 18.2285 30.4844 16.1754 30.2781 15.316C30.2781 15.3848 30.25 15.4535 30.2375 15.5191C29.8235 17.9265 28.8776 20.2112 27.4688 22.2066Z" fill="#F05B24"/>
<path id="Vector_10" d="M43.9656 15.8098C43.9281 17.6598 40.9969 20.1629 40.0063 16.7473C39 13.2785 37.4813 13.0254 37.4813 13.0254C39.4438 16.2504 35.0281 21.641 31.1094 18.866C31.012 20.1047 30.5127 21.2777 29.6875 22.2066H46.4062C46.1486 19.9018 45.3087 17.7005 43.9656 15.8098Z" fill="#FFC10D"/>
<path id="Vector_11" d="M20.8093 29.0195L13.853 34.8602C13.7914 35.3683 13.7601 35.8796 13.7593 36.3914C13.7593 40.8258 16.0187 44.4195 18.8093 44.4195C21.5999 44.4195 23.8562 40.8258 23.8562 36.3914C23.8562 33.0883 22.603 30.2508 20.8093 29.0195Z" fill="black"/>
<path id="Vector_12" d="M39.1904 29.0195C37.3967 30.2508 36.1436 33.082 36.1436 36.3914C36.1436 40.8258 38.4029 44.4195 41.1904 44.4195C43.9779 44.4195 46.2498 40.8258 46.2498 36.3914C46.249 35.8796 46.2177 35.3683 46.1561 34.8602L39.1904 29.0195Z" fill="black"/>
<path id="Vector_13" d="M30.0001 44.0195C28.7095 44.0195 27.5564 44.5789 26.9939 45.482C26.8903 45.6515 26.8578 45.855 26.9035 46.0482C26.9493 46.2415 27.0695 46.4089 27.238 46.5139C27.4065 46.619 27.6097 46.6533 27.8034 46.6092C27.997 46.5652 28.1654 46.4465 28.272 46.2789C28.5064 45.9039 29.1314 45.5258 30.0001 45.5258C30.8689 45.5258 31.4939 45.9039 31.7282 46.2789C31.7944 46.3855 31.8863 46.4738 31.9955 46.5355C32.1048 46.5972 32.2278 46.6304 32.3532 46.632C32.4939 46.6325 32.6317 46.5923 32.7501 46.5164C32.8339 46.4644 32.9066 46.3963 32.9641 46.3161C33.0216 46.236 33.0627 46.1452 33.085 46.0491C33.1074 45.9531 33.1106 45.8535 33.0944 45.7562C33.0782 45.6589 33.043 45.5657 32.9907 45.482C32.4314 44.5789 31.2814 44.0195 30.0001 44.0195Z" fill="black"/>
</g>
</svg>
