<svg width="50" height="50" viewBox="0 0 50 50" fill="none" xmlns="http://www.w3.org/2000/svg">
<g id="saro_clingy">
<path id="Vector" d="M36.8387 20.2266H36.7684C36.2758 20.2276 35.8028 20.4199 35.4491 20.7629C35.0955 21.1059 34.8888 21.5727 34.8726 22.0651C34.3518 37.125 32.5288 40.1172 28.883 40.8385C27.7895 41.0469 26.6785 41.1498 25.5653 41.1458C22.6226 41.1458 19.5184 40.5026 18.0132 39.1615C17.232 38.4661 15.3752 35.776 15.1486 25.8984C15.0852 22.2181 15.213 18.5369 15.5314 14.8698L15.6877 13.5234C16.1825 9.32292 21.2242 8.89583 22.7554 8.85417H23.1434C26.3934 8.85417 30.0913 9.72396 30.2242 13.651C30.2242 14.237 30.1643 22.0078 29.8361 25.2083C29.5314 28.1953 28.7163 29.9479 25.521 29.9479C25.3804 29.9479 25.2346 29.9479 25.0835 29.9479C23.4976 29.875 22.8075 29.2656 22.4273 28.8125C20.4559 26.4687 20.9481 20.375 21.5939 15.3333C21.6261 15.0857 21.609 14.8341 21.5438 14.5931C21.4786 14.352 21.3664 14.1262 21.2138 13.9286C21.0611 13.7309 20.871 13.5654 20.6543 13.4413C20.4375 13.3173 20.1984 13.2372 19.9507 13.2057C19.8695 13.1953 19.7878 13.1901 19.7059 13.1901C19.2454 13.1912 18.8009 13.3595 18.4551 13.6636C18.1093 13.9678 17.8856 14.3871 17.8257 14.8437C16.8622 22.3359 16.784 27.9948 19.5184 31.25C20.8205 32.7969 22.6434 33.6354 24.9143 33.7396C25.1174 33.7396 25.3179 33.7526 25.5158 33.7526C28.2919 33.7526 30.4012 32.8281 31.7971 31C33.1122 29.2786 33.4663 27.0937 33.62 25.6042C33.9768 22.1146 34.0236 13.9922 34.0262 13.6458V13.5807C33.87 8.22396 29.8075 5.0625 23.1174 5.0625H22.6799C19.9715 5.11719 17.5601 5.78906 15.7033 7.0026C14.6539 7.66302 13.7677 8.55245 13.111 9.6042C12.4543 10.6559 12.0443 11.8427 11.9117 13.0755L11.7528 14.4453V14.4792C11.4135 18.2886 11.2788 22.1136 11.3492 25.9375C11.5314 34.4453 12.883 39.6979 15.4846 42C17.8075 44.0573 21.8309 44.9427 25.5679 44.9427C26.9318 44.9486 28.2932 44.823 29.633 44.5677C33.0783 43.8854 35.3075 41.8151 36.6486 38.0573C37.8023 34.8151 38.409 30.0729 38.6773 22.1979C38.6867 21.9476 38.6465 21.6979 38.5591 21.4631C38.4716 21.2284 38.3387 21.0132 38.1678 20.83C37.997 20.6468 37.7916 20.4992 37.5635 20.3956C37.3354 20.2921 37.0891 20.2346 36.8387 20.2266Z" fill="#6DCFF6"/>
<path id="Vector_2" d="M40.3855 18.75C39.5125 17.8093 38.3055 17.2483 37.0236 17.1875C37.06 15.276 37.0678 13.8229 37.0678 13.6589V13.4818C36.9637 9.92188 35.5209 6.95573 32.9012 4.90625C30.4689 3.01563 27.0834 2.01562 23.1173 2.01562H22.6173C19.3387 2.08333 16.3673 2.92448 14.0392 4.45052C12.6221 5.36269 11.4221 6.57426 10.5236 8C9.63438 9.42966 9.07647 11.0402 8.89074 12.7135L8.73449 14.0833V14.1693C8.38586 18.1001 8.24677 22.0466 8.31783 25.9922C8.50793 35.5365 10.1564 41.3411 13.4637 44.2708C17.2423 47.6224 23.1772 47.9844 25.5652 47.9844C27.1276 47.9897 28.6868 47.8449 30.2215 47.5521C32.378 47.1597 34.38 46.1668 35.9975 44.6875C37.5183 43.276 38.6668 41.4349 39.5105 39.0625C40.7762 35.5104 41.435 30.4948 41.7137 22.2891C41.7366 21.6407 41.631 20.9943 41.4031 20.3869C41.1752 19.7795 40.8293 19.2232 40.3855 18.75ZM36.6459 38.0495C35.3048 41.8151 33.0756 43.8854 29.6303 44.5599C28.2905 44.8152 26.9292 44.9407 25.5652 44.9349C21.8282 44.9349 17.8048 44.0495 15.4819 41.9922C12.8777 39.6901 11.5288 34.4401 11.3465 25.9297C11.2761 22.1058 11.4109 18.2808 11.7501 14.4714V14.4375L11.909 13.0677C12.043 11.8361 12.454 10.6507 13.1111 9.60035C13.7681 8.55001 14.6543 7.66193 15.7032 7.0026C17.56 5.78906 19.9715 5.11719 22.6798 5.0625H23.1173C29.8074 5.0625 33.8699 8.22396 34.0262 13.5807V13.6458C34.0262 13.9922 33.9767 22.1146 33.6199 25.6042C33.4663 27.0964 33.1121 29.2786 31.797 31C30.4012 32.8229 28.2918 33.7526 25.5157 33.7526C25.3178 33.7526 25.1173 33.7526 24.9142 33.7396C22.6329 33.6354 20.8178 32.7969 19.5183 31.25C16.7814 27.9922 16.8621 22.3333 17.8256 14.8438C17.8845 14.3857 18.108 13.9648 18.4545 13.6595C18.8009 13.3543 19.2467 13.1856 19.7084 13.1849C19.7903 13.1849 19.8721 13.1901 19.9532 13.2005C20.201 13.232 20.4401 13.3121 20.6568 13.4361C20.8735 13.5602 21.0637 13.7257 21.2163 13.9234C21.369 14.121 21.4811 14.3468 21.5463 14.5879C21.6116 14.8289 21.6286 15.0805 21.5965 15.3281C20.9506 20.3698 20.4584 26.4583 22.4298 28.8073C22.81 29.2604 23.5001 29.8698 25.0861 29.9427C25.2371 29.9427 25.3829 29.9427 25.5236 29.9427C28.7163 29.9427 29.5314 28.1927 29.8361 25.2109C30.1642 22.0104 30.2189 14.2396 30.2241 13.6536C30.0913 9.72917 26.3933 8.85417 23.1433 8.85417H22.7553C21.2241 8.88542 16.1824 9.3125 15.6876 13.5052L15.5314 14.8516C15.2129 18.5187 15.0851 22.1998 15.1486 25.8802C15.3647 35.7604 17.2163 38.4479 18.0131 39.1432C19.5314 40.4948 22.6225 41.1458 25.5652 41.1458C26.6863 41.1505 27.8052 41.0467 28.9064 40.8359C32.5522 40.1146 34.3751 37.1224 34.8959 22.0625C34.9121 21.5701 35.1188 21.1033 35.4725 20.7603C35.8262 20.4173 36.2991 20.225 36.7918 20.224H36.8621C37.3636 20.2443 37.8367 20.4622 38.1783 20.83C38.5198 21.1979 38.7019 21.6859 38.685 22.1875C38.4064 30.0651 37.7996 34.8073 36.6459 38.0495Z" fill="white"/>
<path id="Vector_3" d="M12.7524 18.8978C13.9174 18.8978 14.8618 18.5573 14.8618 18.1374C14.8618 17.7174 13.9174 17.377 12.7524 17.377C11.5875 17.377 10.6431 17.7174 10.6431 18.1374C10.6431 18.5573 11.5875 18.8978 12.7524 18.8978Z" fill="#F17BB0"/>
<path id="Vector_4" d="M14.0521 17.3776C15.9491 17.3776 17.487 15.8397 17.487 13.9427C17.487 12.0457 15.9491 10.5078 14.0521 10.5078C12.155 10.5078 10.6172 12.0457 10.6172 13.9427C10.6172 15.8397 12.155 17.3776 14.0521 17.3776Z" fill="#231F20"/>
<path id="Vector_5" d="M15.2137 13.9421C15.8422 13.9421 16.3517 13.4325 16.3517 12.804C16.3517 12.1755 15.8422 11.666 15.2137 11.666C14.5852 11.666 14.0757 12.1755 14.0757 12.804C14.0757 13.4325 14.5852 13.9421 15.2137 13.9421Z" fill="white"/>
<path id="Vector_6" d="M13.4009 15.7266C13.759 15.7266 14.0493 15.4362 14.0493 15.0781C14.0493 14.72 13.759 14.4297 13.4009 14.4297C13.0428 14.4297 12.7524 14.72 12.7524 15.0781C12.7524 15.4362 13.0428 15.7266 13.4009 15.7266Z" fill="white"/>
<path id="Vector_7" d="M32.896 18.8978C34.061 18.8978 35.0054 18.5573 35.0054 18.1374C35.0054 17.7174 34.061 17.377 32.896 17.377C31.731 17.377 30.7866 17.7174 30.7866 18.1374C30.7866 18.5573 31.731 18.8978 32.896 18.8978Z" fill="#F17BB0"/>
<path id="Vector_8" d="M31.7342 17.3776C33.6313 17.3776 35.1691 15.8397 35.1691 13.9427C35.1691 12.0457 33.6313 10.5078 31.7342 10.5078C29.8372 10.5078 28.2993 12.0457 28.2993 13.9427C28.2993 15.8397 29.8372 17.3776 31.7342 17.3776Z" fill="#231F20"/>
<path id="Vector_9" d="M32.8958 13.9421C33.5243 13.9421 34.0339 13.4325 34.0339 12.804C34.0339 12.1755 33.5243 11.666 32.8958 11.666C32.2673 11.666 31.7578 12.1755 31.7578 12.804C31.7578 13.4325 32.2673 13.9421 32.8958 13.9421Z" fill="white"/>
<path id="Vector_10" d="M31.0835 15.7266C31.4416 15.7266 31.7319 15.4362 31.7319 15.0781C31.7319 14.72 31.4416 14.4297 31.0835 14.4297C30.7254 14.4297 30.4351 14.72 30.4351 15.0781C30.4351 15.4362 30.7254 15.7266 31.0835 15.7266Z" fill="white"/>
<path id="Vector_11" d="M23.401 18.881H23.3255C21.3541 18.8393 19.9999 17.1258 19.94 17.058C19.8192 16.9051 19.764 16.7103 19.7867 16.5167C19.8095 16.3231 19.9082 16.1464 20.0611 16.0255C20.2141 15.9046 20.4089 15.8495 20.6025 15.8722C20.7961 15.8949 20.9728 15.9936 21.0937 16.1466C21.1119 16.17 22.0937 17.3914 23.3619 17.4122H23.3958C24.1458 17.4122 24.8932 16.9773 25.6197 16.1101C25.7483 15.9739 25.9243 15.8922 26.1113 15.8818C26.2984 15.8714 26.4823 15.9332 26.6252 16.0543C26.7681 16.1755 26.859 16.3469 26.8793 16.5331C26.8996 16.7194 26.8477 16.9063 26.7343 17.0554C25.7213 18.2742 24.5989 18.881 23.401 18.881Z" fill="#231F20"/>
</g>
</svg>
