<svg id="Layer_1" data-name="Layer 1" xmlns="http://www.w3.org/2000/svg" viewBox="0 0 192 192"><path d="M96.41,142.69a3.39,3.39,0,0,1-.5-3.26l2.35-6.33h-.32l-1.94,0-1.94,0-2.59,0-1.59,0-.5,0-7,18.6L89,150.45a3.39,3.39,0,0,1,3.83,4.4l-3.1,9.48,17.37-21.12-7.61.78A3.38,3.38,0,0,1,96.41,142.69Z" fill="#efe812"/><path d="M145.32,105l1-1.42c.32-.48.62-.93.89-1.35s.55-.87.78-1.24.47-.73.66-1,.32-.6.44-.78a1.87,1.87,0,0,1,.19-.28h0a.66.66,0,0,1,.93-.14.74.74,0,0,1,.13.12l.08.11c1.48-1.11,2.16-3.33,2.47-4.91a11.22,11.22,0,0,1-1.1-.56,10.1,10.1,0,0,1-1.55-1.1,5.31,5.31,0,0,1-.53-.51,1,1,0,0,1,.08-1.4l.08-.06,0,0a11.58,11.58,0,0,1,2.26-1.16,15.39,15.39,0,0,1,2.48-.73,13.07,13.07,0,0,1,1.48-.24l.8-.07.83,0c1.12-.06,2.34-.14,3.58-.29a30.63,30.63,0,0,0,3.78-.6,12.93,12.93,0,0,0,3.27-1.07,3.34,3.34,0,0,0,.84-.57c.11-.13.13-.16.16-.15a.31.31,0,0,0,0,.1v0h0l0-.15,0-.17v0a1.34,1.34,0,0,0,0-.2.47.47,0,0,1,0-.21,3.74,3.74,0,0,0-.37-1.06,10.56,10.56,0,0,0-2.11-2.58,28.08,28.08,0,0,0-2.95-2.32c-1.08-.72-2.07-1.32-3-2a53.22,53.22,0,0,1-4.59-3.36c-.55-.46-1-.86-1.27-1.13s-.44-.44-.44-.44h0a.76.76,0,0,1,0-1.06.74.74,0,0,1,.36-.19,12.2,12.2,0,0,1,2.41-.17,20.33,20.33,0,0,1,6,1c.52.17,1.06.38,1.61.61a10.37,10.37,0,0,0,0-5.19,15,15,0,0,0-4.28-6.76c0,.09-.07.19-.11.28a11.71,11.71,0,0,1-1,1.85.67.67,0,0,1-.94.17.66.66,0,0,1-.26-.36v0c-.2-.67-.36-1.31-.51-1.94l-.46-1.83c-.31-1.18-.62-2.31-1-3.38-.08-.26-.16-.53-.26-.79l-.27-.76c-.19-.53-.43-1-.63-1.49l-.15-.37-.2-.34-.38-.7a14,14,0,0,0-.85-1.31c-.26-.45-.66-.81-1-1.23s-.72-.76-1.06-1.16l-1.16-1.07c-.42-.32-.81-.69-1.25-1s-.87-.64-1.33-.93-.92-.58-1.38-.86-.95-.54-1.43-.79l-.72-.36c-.22-.11-.51-.23-.61-.3l-1.22-.85a2.91,2.91,0,0,1-1.21-1.94h0L141,36.76c-.11-.7-.24-1.38-.37-2.06-.27-1.37-.57-2.72-.92-4.05-.18-.66-.38-1.31-.57-2s-.42-1.28-.65-1.91A32.18,32.18,0,0,0,137,23.13a21.64,21.64,0,0,0-2-3.23,15.3,15.3,0,0,0-2.44-2.62,11.44,11.44,0,0,0-6.15-2.67,18.38,18.38,0,0,0-7.3.76,37,37,0,0,0-7.37,3.12,63.33,63.33,0,0,0-7,4.48c-1.12.82-2.22,1.69-3.29,2.58s-2,1.7-2.89,2.53a.48.48,0,0,1-.09.11,3.33,3.33,0,0,1-1.87,1l-.19,0c-.14,0-.27,0-.41,0s-.27,0-.4,0l-.2,0a3.33,3.33,0,0,1-1.87-1,.48.48,0,0,1-.09-.11c-.89-.83-1.9-1.71-2.89-2.53S88.38,23.79,87.26,23a63.33,63.33,0,0,0-7-4.48,37,37,0,0,0-7.37-3.12,18.38,18.38,0,0,0-7.3-.76,11.44,11.44,0,0,0-6.15,2.67A15.3,15.3,0,0,0,57,19.9a21.64,21.64,0,0,0-2,3.23,32.18,32.18,0,0,0-1.57,3.64c-.23.63-.44,1.27-.65,1.91s-.39,1.31-.57,2c-.35,1.33-.65,2.68-.92,4.05-.12.68-.26,1.36-.37,2.06l-.33,2.07h0a2.91,2.91,0,0,1-1.2,1.94l-1.23.85c-.1.07-.39.19-.61.3l-.72.36c-.48.25-.95.52-1.43.79s-.94.55-1.38.86-.9.61-1.33.93-.83.67-1.25,1l-1.16,1.07c-.34.4-.75.75-1.06,1.16s-.7.78-1,1.23-.63.84-.85,1.31l-.38.7-.2.34-.15.37c-.2.49-.44,1-.63,1.49l-.27.76c-.1.26-.18.53-.26.79-.34,1.07-.65,2.2-1,3.38l-.46,1.83c-.15.63-.31,1.27-.51,1.94v0a.68.68,0,0,1-1.2.19,10.92,10.92,0,0,1-1-1.85c-.05-.09-.08-.19-.12-.28A15,15,0,0,0,27,67.07a10.37,10.37,0,0,0,0,5.19c.55-.23,1.09-.44,1.61-.61a20.33,20.33,0,0,1,6-1,12.2,12.2,0,0,1,2.41.17.74.74,0,0,1,.58.89.69.69,0,0,1-.18.36h0s-.15.16-.44.44-.72.67-1.27,1.13A53.22,53.22,0,0,1,31.09,77c-1,.63-1.95,1.23-3,2a29.16,29.16,0,0,0-2.95,2.32A10.56,10.56,0,0,0,23,83.83a3.74,3.74,0,0,0-.37,1.06.47.47,0,0,1,0,.21,1.34,1.34,0,0,0,0,.2v.2l0,.15h0v0a.31.31,0,0,0,0-.1s.05,0,.16.15a3.34,3.34,0,0,0,.84.57,12.93,12.93,0,0,0,3.27,1.07,30.63,30.63,0,0,0,3.78.6c1.25.15,2.46.23,3.58.29l.83,0,.81.07a13.26,13.26,0,0,1,1.47.24,15.39,15.39,0,0,1,2.48.73,11.58,11.58,0,0,1,2.26,1.16l0,0a1,1,0,0,1,.23,1.38l-.07.08a5.31,5.31,0,0,1-.53.51,10.1,10.1,0,0,1-1.55,1.1,12.24,12.24,0,0,1-1.09.56c.3,1.58,1,3.8,2.46,4.91l.08-.11a.67.67,0,0,1,.94-.1.34.34,0,0,1,.12.12h0a1.87,1.87,0,0,1,.19.28c.12.18.25.46.44.78l.66,1,.78,1.24c.27.42.57.87.89,1.35l1,1.42a16.42,16.42,0,0,0,1.11,1.45,18.48,18.48,0,0,0,1.28,1.39c.45.45.93.88,1.4,1.29s1,.8,1.45,1.15c.33.24.65.47,1,.68a8.19,8.19,0,0,1-.09-1.09,3.3,3.3,0,0,1,0-.64v-.07a.55.55,0,0,1,.65-.43.49.49,0,0,1,.27.15s.17.16.46.39.72.6,1.22,1,1.13,1,1.84,1.55c.17.14.35.3.52.46l.57.46c.4.31.77.66,1.19,1,.86.66,1.7,1.45,2.7,2.17a34.61,34.61,0,0,0,3.18,2.17c.55.36,1.19.64,1.79,1s1.2.68,1.87.93a38.54,38.54,0,0,0,4,1.59l2,.69a7.17,7.17,0,0,0,1,.3l1,.26a34.21,34.21,0,0,0,4.12.91l2,.36a19.14,19.14,0,0,0,1.92.31c1.27.11,2.46.26,3.57.39.55,0,1.08.14,1.59.16l1.45.08c.91,0,1.7.08,2.35.13l1.79.14,1.79-.14c.65,0,1.44-.08,2.35-.13l1.45-.08c.51,0,1-.11,1.59-.16,1.11-.13,2.3-.28,3.57-.39a19.14,19.14,0,0,0,1.92-.31l2-.36a34.21,34.21,0,0,0,4.12-.91l1-.26a7.17,7.17,0,0,0,1-.3l2-.69a38.54,38.54,0,0,0,4-1.59c.67-.25,1.25-.63,1.87-.93s1.24-.62,1.79-1a34.61,34.61,0,0,0,3.18-2.17c1-.72,1.84-1.51,2.7-2.17.42-.35.79-.7,1.19-1l.57-.46c.17-.16.35-.32.52-.46.71-.58,1.3-1.12,1.84-1.55s.95-.81,1.22-1,.46-.39.46-.39a.53.53,0,0,1,.77,0,.49.49,0,0,1,.15.27v.07a3.3,3.3,0,0,1,0,.64,8.19,8.19,0,0,1-.09,1.09c.32-.21.64-.44,1-.68.49-.35,1-.75,1.45-1.15s.95-.84,1.4-1.29a18.48,18.48,0,0,0,1.28-1.39A16.42,16.42,0,0,0,145.32,105Zm-90.91-7.2c-3.3,0-6-1.37-6-3.06s2.67-3.06,6-3.06,6,1.37,6,3.06S57.71,97.84,54.41,97.84Zm16.71-2.5c-5.23,0-9.47-11-9.47-24.45a49.3,49.3,0,0,1,2.86-17.51,2.32,2.32,0,0,1,3.51-1l11,8a2.24,2.24,0,0,1,.92,1.5,59.51,59.51,0,0,1,.67,9C80.58,84.39,76.34,95.34,71.12,95.34Zm49.76,0c-5.22,0-9.46-11-9.46-24.45a59.51,59.51,0,0,1,.67-9,2.28,2.28,0,0,1,.92-1.5l11-8a2.32,2.32,0,0,1,3.51,1,49.3,49.3,0,0,1,2.86,17.51C130.35,84.39,126.11,95.34,120.88,95.34Zm16.71,2.5c-3.3,0-6-1.37-6-3.06s2.67-3.06,6-3.06,6,1.37,6,3.06S140.89,97.84,137.59,97.84Z" fill="#414241"/><path d="M177.17,85.52v-.19l0-.25a9.65,9.65,0,0,0-.27-2,11.42,11.42,0,0,0-1.48-3.25,16.75,16.75,0,0,0-4.06-4.12l-.22-.15a17.43,17.43,0,0,0,.26-11,22.84,22.84,0,0,0-9.56-12c0-.19,0-.38-.07-.52-.1-.72-.32-1.45-.48-2.18l-.14-.54-.19-.53-.39-1.07a16,16,0,0,0-1-2l-.26-.51-.31-.48-.62-1c-.42-.63-.92-1.2-1.4-1.79s-1-1.1-1.57-1.62-1.11-1-1.72-1.42l-.89-.66-.94-.6a9.81,9.81,0,0,0-1-.55c-.32-.17-.64-.36-1-.51l-1-.46-1-.41-.17-.06v-.08c-.12-.75-.27-1.5-.4-2.25-.3-1.5-.64-3-1-4.49-.2-.75-.43-1.49-.65-2.24s-.48-1.48-.75-2.22A40.27,40.27,0,0,0,143,20a29.51,29.51,0,0,0-2.6-4.21,22.67,22.67,0,0,0-3.52-3.76,18.15,18.15,0,0,0-9.68-4.2,25.17,25.17,0,0,0-10,1,43.49,43.49,0,0,0-8.73,3.68,68.34,68.34,0,0,0-7.76,5q-1.83,1.37-3.6,2.82L96,21.26l-1.11-.94q-1.77-1.45-3.6-2.82a68.34,68.34,0,0,0-7.76-5A43.49,43.49,0,0,0,74.8,8.84a25.17,25.17,0,0,0-10-1,18.24,18.24,0,0,0-9.68,4.2,22.67,22.67,0,0,0-3.52,3.76A29.51,29.51,0,0,0,49,20a42.31,42.31,0,0,0-1.9,4.4c-.27.74-.51,1.48-.75,2.22s-.45,1.49-.65,2.24c-.39,1.5-.73,3-1,4.49-.13.75-.28,1.5-.4,2.25v.08l-.17.06-1,.41-1,.46c-.33.15-.65.34-1,.51a9.81,9.81,0,0,0-.95.55l-.94.6L38.3,39c-.61.41-1.15,1-1.72,1.42S35.51,41.46,35,42s-1,1.16-1.4,1.79l-.62,1-.31.48-.26.51a16,16,0,0,0-1,2l-.39,1.07-.19.53-.14.54c-.16.73-.38,1.46-.48,2.18,0,.14-.05.33-.07.52a22.84,22.84,0,0,0-9.56,12,17.43,17.43,0,0,0,.26,11c-.07,0-.14.09-.21.15a16.61,16.61,0,0,0-4.07,4.12,11.42,11.42,0,0,0-1.48,3.25,9.65,9.65,0,0,0-.27,2l0,.25v.19c0-.18,0,.27,0,.23v.46a.78.78,0,0,0,0,.13l0,.17c0,.23.07.46.11.69a8.2,8.2,0,0,0,2.1,4,11.1,11.1,0,0,0,3,2.15A19,19,0,0,0,25.53,95a37.4,37.4,0,0,0,6.9.35c.75,4,3,9,8,10.68.05.23.1.47.16.71.12.39.23.81.39,1.21a20.81,20.81,0,0,0,1.13,2.4,21.11,21.11,0,0,0,1.49,2.27,20,20,0,0,0,7.73,6.23,14,14,0,0,0,1.92.69,11.13,11.13,0,0,0,1.77.33,8.17,8.17,0,0,0,1.48,0c.42,0,.65-.1.65-.1l.19,0c.29.31.58.61.9.91a37.56,37.56,0,0,0,3.48,3c.63.5,1.32.92,2,1.39a20.91,20.91,0,0,0,2.11,1.34,41.49,41.49,0,0,0,4.52,2.27l2.34,1a8.87,8.87,0,0,0,1.19.42l1.19.36a42.9,42.9,0,0,0,4.67,1.28l2.25.45c.16,0,.32.06.47.09l-8.52,22.62a3.4,3.4,0,0,0,3.78,4.54l6.87-1.23-6.93,21.21a3.39,3.39,0,0,0,1.59,4,3.3,3.3,0,0,0,1.63.42,3.4,3.4,0,0,0,2.63-1.24l34.05-41.4a3.4,3.4,0,0,0-3-5.54l-10.39,1.06,1.46-3.94c.72-.07,1.46-.15,2.23-.25a21.89,21.89,0,0,0,2.17-.37l2.25-.45a42.9,42.9,0,0,0,4.67-1.28l1.19-.36a8.87,8.87,0,0,0,1.19-.42l2.34-1a40.6,40.6,0,0,0,4.52-2.27,20.91,20.91,0,0,0,2.11-1.34c.68-.47,1.37-.89,2-1.39a36.3,36.3,0,0,0,3.48-3c.32-.3.61-.6.9-.91l.19,0s.23,0,.66.1a8.06,8.06,0,0,0,1.47,0,11.13,11.13,0,0,0,1.77-.33,14,14,0,0,0,1.92-.69,20,20,0,0,0,7.73-6.23,19.7,19.7,0,0,0,1.49-2.27,20.81,20.81,0,0,0,1.13-2.4c.16-.4.27-.82.39-1.21.06-.24.11-.48.16-.71,5-1.65,7.22-6.64,8-10.68a37.4,37.4,0,0,0,6.9-.35,19,19,0,0,0,5.46-1.64,11.1,11.1,0,0,0,3-2.15,8.2,8.2,0,0,0,2.1-4c0-.23.08-.46.11-.69l0-.17a.78.78,0,0,0,0-.13v-.46S177.18,85.34,177.17,85.52ZM89.68,164.33l3.1-9.48a3.39,3.39,0,0,0-3.83-4.4l-6.58,1.18,7-18.6.5,0,1.59,0,2.59,0,1.94,0,1.94,0h.32l-2.35,6.33A3.4,3.4,0,0,0,99.44,144l7.61-.78Zm51.85-55.16c-.49.4-1,.8-1.45,1.15-.33.24-.65.47-1,.68a8.19,8.19,0,0,0,.09-1.09,3.3,3.3,0,0,0,0-.64v-.07a.49.49,0,0,0-.15-.27.53.53,0,0,0-.77,0s-.17.16-.46.39-.72.6-1.22,1-1.13,1-1.84,1.55c-.17.14-.35.3-.52.46l-.57.46c-.4.31-.77.66-1.19,1-.86.66-1.7,1.45-2.7,2.17a34.61,34.61,0,0,1-3.18,2.17c-.55.36-1.19.64-1.79,1s-1.2.68-1.87.93a38.54,38.54,0,0,1-4,1.59l-2,.69a7.17,7.17,0,0,1-1,.3l-1,.26a34.21,34.21,0,0,1-4.12.91l-2,.36a19.14,19.14,0,0,1-1.92.31c-1.27.11-2.46.26-3.57.39-.55,0-1.08.14-1.59.16l-1.45.08c-.91,0-1.7.08-2.35.13l-1.79.14-1.79-.14c-.65,0-1.44-.08-2.35-.13l-1.45-.08c-.51,0-1-.11-1.59-.16-1.11-.13-2.3-.28-3.57-.39a19.14,19.14,0,0,1-1.92-.31l-2-.36a34.21,34.21,0,0,1-4.12-.91l-1-.26a7.17,7.17,0,0,1-1-.3l-2-.69a38.54,38.54,0,0,1-4-1.59c-.67-.25-1.25-.63-1.87-.93s-1.24-.62-1.79-1A34.61,34.61,0,0,1,62.26,116c-1-.72-1.84-1.51-2.7-2.17-.42-.35-.79-.7-1.19-1l-.57-.46c-.17-.16-.35-.32-.52-.46-.71-.58-1.3-1.12-1.84-1.55s-.95-.81-1.22-1-.46-.39-.46-.39a.49.49,0,0,0-.27-.15.55.55,0,0,0-.65.43v.07a3.3,3.3,0,0,0,0,.64,8.19,8.19,0,0,0,.09,1.09c-.32-.21-.64-.44-1-.68-.49-.35-1-.75-1.45-1.15s-.95-.84-1.4-1.29a18.48,18.48,0,0,1-1.28-1.39A16.42,16.42,0,0,1,46.68,105l-1-1.42c-.32-.48-.62-.93-.89-1.35L44,101l-.66-1c-.19-.32-.32-.6-.44-.78a1.87,1.87,0,0,0-.19-.28h0a.34.34,0,0,0-.12-.12.67.67,0,0,0-.94.1l-.08.11c-1.48-1.11-2.16-3.33-2.46-4.91a12.24,12.24,0,0,0,1.09-.56,10.1,10.1,0,0,0,1.55-1.1,5.31,5.31,0,0,0,.53-.51l.07-.08a1,1,0,0,0-.23-1.38l0,0a11.58,11.58,0,0,0-2.26-1.16,15.39,15.39,0,0,0-2.48-.73,13.26,13.26,0,0,0-1.47-.24l-.81-.07-.83,0c-1.12-.06-2.33-.14-3.58-.29a30.63,30.63,0,0,1-3.78-.6,12.93,12.93,0,0,1-3.27-1.07,3.34,3.34,0,0,1-.84-.57c-.11-.13-.13-.16-.16-.15a.31.31,0,0,1,0,.1v0h0l0-.15v-.2a1.34,1.34,0,0,1,0-.2.47.47,0,0,0,0-.21A3.74,3.74,0,0,1,23,83.83a10.56,10.56,0,0,1,2.11-2.58,29.16,29.16,0,0,1,2.95-2.32c1.08-.72,2.07-1.32,3-2a53.22,53.22,0,0,0,4.59-3.36c.55-.46,1-.86,1.27-1.13s.44-.44.44-.44h0a.69.69,0,0,0,.18-.36.74.74,0,0,0-.58-.89,12.2,12.2,0,0,0-2.41-.17,20.33,20.33,0,0,0-6,1c-.52.17-1.06.38-1.61.61a10.37,10.37,0,0,1,0-5.19,15,15,0,0,1,4.28-6.76c0,.09.07.19.12.28a10.92,10.92,0,0,0,1,1.85.68.68,0,0,0,1.2-.19v0c.2-.67.36-1.31.51-1.94l.46-1.83c.31-1.18.62-2.31,1-3.38.08-.26.16-.53.26-.79l.27-.76c.19-.53.43-1,.63-1.49l.15-.37.2-.34.38-.7c.22-.47.59-.87.85-1.31s.66-.81,1-1.23.72-.76,1.06-1.16l1.16-1.07c.42-.32.81-.69,1.25-1s.87-.64,1.33-.93.92-.58,1.38-.86,1-.54,1.43-.79l.72-.36c.22-.11.51-.23.61-.3l1.23-.85a2.91,2.91,0,0,0,1.2-1.94h0L51,36.76c.11-.7.25-1.38.37-2.06.27-1.37.57-2.72.92-4.05.18-.66.38-1.31.57-2s.42-1.28.65-1.91A32.18,32.18,0,0,1,55,23.13a21.64,21.64,0,0,1,2-3.23,15.3,15.3,0,0,1,2.44-2.62,11.44,11.44,0,0,1,6.15-2.67,18.38,18.38,0,0,1,7.3.76,37,37,0,0,1,7.37,3.12,63.33,63.33,0,0,1,7,4.48c1.12.82,2.22,1.69,3.29,2.58s2,1.7,2.89,2.53a.48.48,0,0,0,.09.11,3.33,3.33,0,0,0,1.87,1l.2,0c.13,0,.26,0,.4,0s.27,0,.41,0l.19,0a3.33,3.33,0,0,0,1.87-1,.48.48,0,0,0,.09-.11c.89-.83,1.9-1.71,2.89-2.53s2.17-1.76,3.29-2.58a63.33,63.33,0,0,1,7-4.48,37,37,0,0,1,7.37-3.12,18.38,18.38,0,0,1,7.3-.76,11.44,11.44,0,0,1,6.15,2.67A15.3,15.3,0,0,1,135,19.9a21.64,21.64,0,0,1,2,3.23,32.18,32.18,0,0,1,1.57,3.64c.23.63.44,1.27.65,1.91s.39,1.31.57,2c.35,1.33.65,2.68.92,4.05.13.68.26,1.36.37,2.06l.33,2.07h0a2.91,2.91,0,0,0,1.21,1.94l1.22.85c.1.07.39.19.61.3l.72.36c.48.25,1,.52,1.43.79s.94.55,1.38.86.9.61,1.33.93.83.67,1.25,1l1.16,1.07c.34.4.75.75,1.06,1.16s.7.78,1,1.23a14,14,0,0,1,.85,1.31l.38.7.2.34.15.37c.2.49.44,1,.63,1.49l.27.76c.1.26.18.53.26.79.34,1.07.65,2.2,1,3.38l.46,1.83c.15.63.31,1.27.51,1.94v0a.66.66,0,0,0,.26.36.67.67,0,0,0,.94-.17,11.71,11.71,0,0,0,1-1.85c0-.09.07-.19.11-.28A15,15,0,0,1,165,67.07a10.37,10.37,0,0,1,0,5.19c-.55-.23-1.09-.44-1.61-.61a20.33,20.33,0,0,0-6-1,12.2,12.2,0,0,0-2.41.17.74.74,0,0,0-.36.19.76.76,0,0,0,0,1.06h0s.15.16.44.44.72.67,1.27,1.13A53.22,53.22,0,0,0,160.91,77c1,.63,2,1.23,3,2a28.08,28.08,0,0,1,2.95,2.32A10.56,10.56,0,0,1,169,83.83a3.74,3.74,0,0,1,.37,1.06.47.47,0,0,0,0,.21,1.34,1.34,0,0,1,0,.2v0l0,.17,0,.15h0v0a.31.31,0,0,1,0-.1s0,0-.16.15a3.34,3.34,0,0,1-.84.57,12.93,12.93,0,0,1-3.27,1.07,30.63,30.63,0,0,1-3.78.6c-1.24.15-2.46.23-3.58.29l-.83,0-.8.07a13.07,13.07,0,0,0-1.48.24,15.39,15.39,0,0,0-2.48.73,11.58,11.58,0,0,0-2.26,1.16l0,0-.08.06a1,1,0,0,0-.08,1.4,5.31,5.31,0,0,0,.53.51,10.1,10.1,0,0,0,1.55,1.1,11.22,11.22,0,0,0,1.1.56c-.31,1.58-1,3.8-2.47,4.91l-.08-.11a.74.74,0,0,0-.13-.12.66.66,0,0,0-.93.14h0a1.87,1.87,0,0,0-.19.28c-.12.18-.25.46-.44.78s-.4.63-.66,1-.49.79-.78,1.24-.57.87-.89,1.35l-1,1.42a16.42,16.42,0,0,1-1.11,1.45,18.48,18.48,0,0,1-1.28,1.39C142.48,108.33,142,108.76,141.53,109.17Z"/><path d="M79,60.37l-11-8a2.32,2.32,0,0,0-3.51,1,49.3,49.3,0,0,0-2.86,17.51c0,13.5,4.24,24.45,9.47,24.45s9.46-11,9.46-24.45a59.51,59.51,0,0,0-.67-9A2.24,2.24,0,0,0,79,60.37Z"/><path d="M124,52.37l-11,8a2.28,2.28,0,0,0-.92,1.5,59.51,59.51,0,0,0-.67,9c0,13.5,4.24,24.45,9.46,24.45s9.47-11,9.47-24.45a49.3,49.3,0,0,0-2.86-17.51A2.32,2.32,0,0,0,124,52.37Z"/><ellipse cx="54.41" cy="94.78" rx="5.97" ry="3.06" fill="#e29dc5"/><ellipse cx="137.59" cy="94.78" rx="5.97" ry="3.06" fill="#e29dc5"/></svg>