<svg width="50" height="50" viewBox="0 0 50 50" fill="none" xmlns="http://www.w3.org/2000/svg">
<g id="saro_soda_dark">
<path id="Vector" d="M35.5053 39.2272C34.5574 36.321 33.2527 31.8131 34.8308 28.1361C37.3282 22.3158 36.2475 19.1387 32.5626 14.8756C31.126 13.2317 30.0428 11.31 29.3803 9.22982C29.0365 8.12565 29.2553 6.98242 29.8282 5.94336C29.9134 5.79128 29.959 5.62026 29.961 5.44596C29.961 4.26367 27.7396 3.30273 25.0131 3.30273C22.2865 3.30273 20.0652 4.26367 20.0652 5.44596C20.0671 5.62026 20.1128 5.79128 20.198 5.94336C20.7709 6.98503 20.9792 8.12565 20.6459 9.22982C19.9787 11.3113 18.8901 13.2331 17.448 14.8756C13.7527 19.1387 12.6719 22.3158 15.1693 28.1256C16.7475 31.8027 15.4297 36.3105 14.4949 39.2168C13.81 41.3001 14.185 43.3496 16.3777 44.571C18.3907 45.696 21.2396 46.6881 25.0782 46.6881C28.9167 46.6881 31.6094 45.696 33.6225 44.571C35.8152 43.36 36.198 41.3184 35.5053 39.2272Z" fill="white"/>
<path id="Vector_2" d="M15.1693 28.1257C16.7475 31.8027 15.4297 36.3106 14.4949 39.2168C13.81 41.3001 14.185 43.3496 16.3777 44.571C18.3907 45.696 21.2396 46.6882 25.0782 46.6882C28.9167 46.6882 31.6094 45.696 33.6225 44.571C35.8152 43.3496 36.1902 41.308 35.5053 39.2168C34.5574 36.3106 33.2527 31.8027 34.8308 28.1257C37.3282 22.3053 36.2475 19.1283 32.5626 14.8652C31.7587 13.943 31.0599 12.9342 30.4792 11.8574L30.2839 11.9147C30.2839 11.9147 26.823 13.4173 19.4011 12.071L19.3542 12.123C18.814 13.103 18.1753 14.0253 17.448 14.8757C13.7527 19.1387 12.6719 22.3158 15.1693 28.1257Z" fill="#39251A"/>
<path id="Vector_3" d="M34.4192 29.3464C34.5258 28.933 34.6633 28.5282 34.8307 28.1354C37.3124 22.3464 36.2577 19.1719 32.6223 14.9453C30.1452 15.6574 27.5772 16.0031 24.9999 15.9714C22.4227 16.0027 19.8547 15.657 17.3775 14.9453C13.7317 19.1719 12.69 22.3464 15.1692 28.1354C15.3366 28.529 15.4741 28.9347 15.5807 29.349C18.0624 30.3333 21.4166 30.8906 24.9999 30.8906C28.5833 30.8906 31.9426 30.3333 34.4192 29.3464Z" fill="#ED164F"/>
<path id="Vector_4" d="M25.0781 47.7734C21.6328 47.7734 18.5312 47.0156 15.8541 45.5208C13.4088 44.1562 12.539 41.7396 13.4713 38.8906C14.5703 35.5286 15.513 31.6719 14.1797 28.5599C11.3932 22.0495 12.8776 18.4922 16.6224 14.1719C17.9639 12.6397 18.9746 10.8471 19.5911 8.90625C19.8854 7.96615 19.5573 7.05729 19.2291 6.46094C19.0572 6.15013 18.9675 5.80052 18.9687 5.44531C18.9635 3.33333 22 2.22656 25 2.22656C28 2.22656 31.0364 3.33333 31.0364 5.44531C31.0376 5.80052 30.948 6.15013 30.776 6.46094C30.4479 7.05729 30.1198 7.96615 30.414 8.90625C31.0306 10.8471 32.0413 12.6397 33.3828 14.1719C37.1172 18.4922 38.6119 22.0625 35.8255 28.5599C34.4922 31.6849 35.4349 35.5286 36.5338 38.8906C37.4661 41.7396 36.5963 44.1562 34.151 45.5208C31.4323 47.0365 28.4661 47.7734 25.0781 47.7734ZM21.1276 5.44531C21.8776 6.82812 22.0547 8.24219 21.6484 9.55208C20.9461 11.7729 19.7937 13.8251 18.263 15.5807C14.9479 19.401 13.8021 22.1927 16.1588 27.7109C17.7734 31.4792 16.7422 35.8151 15.5182 39.5599C14.9088 41.4167 15.375 42.7891 16.9036 43.6406C19.2474 44.9427 22.0052 45.6198 25.0781 45.6198C28.0885 45.6198 30.7135 44.974 33.0963 43.6406C34.625 42.7891 35.0911 41.4167 34.4817 39.5599C33.2578 35.8151 32.2265 31.487 33.8411 27.7109C36.2083 22.1927 35.052 19.401 31.7578 15.5807C30.2271 13.8251 29.0746 11.7729 28.3724 9.55208C27.9609 8.25 28.1406 6.82031 28.8932 5.44531C28.7005 5.11979 27.3489 4.38021 25.0208 4.38021C22.6927 4.38021 21.3203 5.11979 21.1276 5.44531Z" fill="black"/>
<path id="Vector_5" d="M25.0002 7.54492C27.7199 7.54492 29.9246 6.60752 29.9246 5.45117C29.9246 4.29483 27.7199 3.35742 25.0002 3.35742C22.2804 3.35742 20.0757 4.29483 20.0757 5.45117C20.0757 6.60752 22.2804 7.54492 25.0002 7.54492Z" fill="#ED164F"/>
<path id="Vector_6" d="M24.9998 8.61979C22.0181 8.61979 19.0103 7.53125 19.0103 5.45052C19.0103 3.36979 22.0181 2.28125 24.9998 2.28125C27.9816 2.28125 30.9894 3.36979 30.9894 5.45052C30.9894 7.53125 27.9816 8.61979 24.9998 8.61979ZM21.1717 5.45052C21.4009 5.77864 22.7186 6.46614 24.9998 6.46614C27.2811 6.46614 28.5988 5.77864 28.828 5.45052C28.5988 5.1224 27.2811 4.42708 24.9998 4.42708C22.7186 4.42708 21.4009 5.1224 21.1717 5.45052Z" fill="black"/>
<path id="Vector_7" d="M23.1536 34.0723C23.437 34.0723 23.6667 33.8309 23.6667 33.5332C23.6667 33.2355 23.437 32.9941 23.1536 32.9941C22.8703 32.9941 22.6406 33.2355 22.6406 33.5332C22.6406 33.8309 22.8703 34.0723 23.1536 34.0723Z" fill="#684B3D"/>
<path id="Vector_8" d="M24.5677 35.6895C24.851 35.6895 25.0807 35.4481 25.0807 35.1504C25.0807 34.8527 24.851 34.6113 24.5677 34.6113C24.2844 34.6113 24.0547 34.8527 24.0547 35.1504C24.0547 35.4481 24.2844 35.6895 24.5677 35.6895Z" fill="#684B3D"/>
<path id="Vector_9" d="M27.4217 38.8145C27.705 38.8145 27.9347 38.5731 27.9347 38.2754C27.9347 37.9777 27.705 37.7363 27.4217 37.7363C27.1384 37.7363 26.9087 37.9777 26.9087 38.2754C26.9087 38.5731 27.1384 38.8145 27.4217 38.8145Z" fill="#684B3D"/>
<path id="Vector_10" d="M28.0259 40.8776C28.1683 40.8776 28.2837 40.7563 28.2837 40.6068C28.2837 40.4572 28.1683 40.3359 28.0259 40.3359C27.8835 40.3359 27.7681 40.4572 27.7681 40.6068C27.7681 40.7563 27.8835 40.8776 28.0259 40.8776Z" fill="#684B3D"/>
<path id="Vector_11" d="M26.4818 34.888C26.6961 34.888 26.8698 34.705 26.8698 34.4792C26.8698 34.2534 26.6961 34.0703 26.4818 34.0703C26.2675 34.0703 26.0938 34.2534 26.0938 34.4792C26.0938 34.705 26.2675 34.888 26.4818 34.888Z" fill="#684B3D"/>
<path id="Vector_12" d="M27.9351 33.4714C28.0774 33.4714 28.1929 33.3501 28.1929 33.2005C28.1929 33.0509 28.0774 32.9297 27.9351 32.9297C27.7927 32.9297 27.6772 33.0509 27.6772 33.2005C27.6772 33.3501 27.7927 33.4714 27.9351 33.4714Z" fill="#684B3D"/>
<path id="Vector_13" d="M28.9637 36.1921C29.0572 36.1921 29.133 36.1128 29.133 36.015C29.133 35.9172 29.0572 35.8379 28.9637 35.8379C28.8702 35.8379 28.7944 35.9172 28.7944 36.015C28.7944 36.1128 28.8702 36.1921 28.9637 36.1921Z" fill="#684B3D"/>
<path id="Vector_14" d="M22.922 41.4707C23.0788 41.4707 23.2059 41.3378 23.2059 41.1738C23.2059 41.0099 23.0788 40.877 22.922 40.877C22.7653 40.877 22.6382 41.0099 22.6382 41.1738C22.6382 41.3378 22.7653 41.4707 22.922 41.4707Z" fill="#684B3D"/>
<path id="Vector_15" d="M24.1771 38.2135C24.3525 38.2135 24.4948 38.0643 24.4948 37.8802C24.4948 37.6961 24.3525 37.5469 24.1771 37.5469C24.0016 37.5469 23.8594 37.6961 23.8594 37.8802C23.8594 38.0643 24.0016 38.2135 24.1771 38.2135Z" fill="#684B3D"/>
<path id="Vector_16" d="M26.2266 40.3385C26.3689 40.3385 26.4844 40.2173 26.4844 40.0677C26.4844 39.9181 26.3689 39.7969 26.2266 39.7969C26.0842 39.7969 25.9688 39.9181 25.9688 40.0677C25.9688 40.2173 26.0842 40.3385 26.2266 40.3385Z" fill="#684B3D"/>
<path id="Vector_17" d="M24.6903 41.0234C24.9736 41.0234 25.2033 40.7821 25.2033 40.4844C25.2033 40.1867 24.9736 39.9453 24.6903 39.9453C24.4069 39.9453 24.1772 40.1867 24.1772 40.4844C24.1772 40.7821 24.4069 41.0234 24.6903 41.0234Z" fill="#684B3D"/>
<path id="Vector_18" d="M26.3934 43.7266C26.6767 43.7266 26.9064 43.4852 26.9064 43.1875C26.9064 42.8898 26.6767 42.6484 26.3934 42.6484C26.1101 42.6484 25.8804 42.8898 25.8804 43.1875C25.8804 43.4852 26.1101 43.7266 26.3934 43.7266Z" fill="#684B3D"/>
<path id="Vector_19" d="M26.159 37.2135C26.3388 37.2135 26.4845 37.0608 26.4845 36.8724C26.4845 36.684 26.3388 36.5312 26.159 36.5312C25.9792 36.5312 25.8335 36.684 25.8335 36.8724C25.8335 37.0608 25.9792 37.2135 26.159 37.2135Z" fill="#684B3D"/>
<path id="Vector_20" d="M18.2292 20.4167C18.371 20.5124 18.4894 20.6387 18.5756 20.7865C18.6408 20.8998 18.6841 21.0243 18.7032 21.1537C18.7202 21.2589 18.7202 21.3661 18.7032 21.4714C18.6876 21.5677 18.6719 21.6458 18.6563 21.7031C18.6135 21.8705 18.5324 22.0256 18.4193 22.1563C18.3059 22.2882 18.1679 22.397 18.0131 22.4766C17.8504 22.5589 17.6737 22.6101 17.4923 22.6276C17.3007 22.6459 17.1075 22.6291 16.9219 22.5781C16.6728 22.519 16.4437 22.395 16.2579 22.2188C16.0902 22.0614 15.9648 21.8644 15.8933 21.6458C15.8739 21.5763 15.8712 21.5031 15.8855 21.4323C15.8929 21.3593 15.9122 21.2881 15.9428 21.2214C15.9711 21.1554 16.0138 21.0967 16.0678 21.0495C16.1191 21.0009 16.1818 20.966 16.2501 20.9479C16.3636 20.918 16.4829 20.918 16.5964 20.9479C16.735 20.9816 16.857 21.0638 16.9402 21.1797C16.9995 21.2671 17.0676 21.3482 17.1433 21.4219C17.1866 21.4671 17.2402 21.501 17.2995 21.5208C17.3255 21.5313 17.3544 21.5311 17.3803 21.5204C17.4061 21.5097 17.4266 21.4893 17.4376 21.4636C17.4766 21.3932 17.4558 21.3281 17.3751 21.2735L17.073 21.0651C17.0235 21.0391 16.9766 21.0104 16.9272 20.9792C16.8797 20.9478 16.836 20.9111 16.7969 20.8698L16.6355 20.7188C16.5602 20.6425 16.4978 20.5546 16.4506 20.4583C16.3893 20.341 16.348 20.2143 16.3282 20.0833C16.3062 19.913 16.3204 19.74 16.3699 19.5755C16.4138 19.4086 16.4948 19.2537 16.6068 19.1224C16.7197 18.9905 16.8578 18.8825 17.0131 18.8047C17.1752 18.7209 17.3521 18.6695 17.5339 18.6537C17.7255 18.6354 17.9187 18.6521 18.1042 18.7031C18.3469 18.7666 18.5693 18.8912 18.7501 19.0651C18.9156 19.2206 19.0415 19.4135 19.1173 19.6276C19.1419 19.6964 19.1525 19.7693 19.1485 19.8422C19.1444 19.9151 19.1259 19.9865 19.0938 20.0521C19.0664 20.1181 19.0246 20.1772 18.9714 20.2249C18.9183 20.2727 18.8551 20.308 18.7865 20.3281C18.6721 20.358 18.552 20.358 18.4376 20.3281C18.3709 20.3084 18.3077 20.2785 18.2501 20.2396C18.1903 20.1985 18.1391 20.1464 18.099 20.086C18.0405 20.0003 17.9733 19.9209 17.8985 19.849C17.855 19.8071 17.8024 19.7759 17.7449 19.7578C17.7169 19.7467 17.6858 19.7457 17.6572 19.7553C17.6286 19.7648 17.6043 19.7842 17.5886 19.8099C17.5678 19.8464 17.5886 19.8985 17.6381 19.9583C17.7007 20.0255 17.7696 20.0866 17.8438 20.1406C17.9271 20.2005 18.0079 20.2552 18.0886 20.3047C18.1379 20.3389 18.1849 20.3763 18.2292 20.4167Z" fill="white"/>
<path id="Vector_21" d="M21.6486 19.3496C21.8401 19.3728 22.0209 19.4505 22.1694 19.5736C22.3293 19.706 22.4612 19.8688 22.5574 20.0528C22.6639 20.2662 22.7377 20.4944 22.7762 20.7298C22.8198 20.9881 22.8242 21.2515 22.7892 21.5111C22.7584 21.7736 22.7141 22.0344 22.6564 22.2923C22.6095 22.5081 22.536 22.7171 22.4376 22.9147C22.3639 23.0718 22.2531 23.2085 22.1147 23.3132C21.9793 23.4061 21.813 23.4426 21.6512 23.4147C21.5368 23.3974 21.4314 23.3424 21.3517 23.2585C21.2614 23.1685 21.1967 23.0562 21.1642 22.933C21.1268 22.7919 21.1084 22.6466 21.1095 22.5007C21.1112 22.3499 21.1225 22.1995 21.1434 22.0502C21.1642 21.9069 21.1902 21.7897 21.2163 21.6673C21.2423 21.5449 21.2606 21.4746 21.2736 21.4278C21.3038 21.2893 21.316 21.1475 21.31 21.0059C21.3137 20.9546 21.2972 20.9039 21.2642 20.8646C21.2311 20.8252 21.1841 20.8002 21.1329 20.7949C21.0828 20.787 21.0315 20.7938 20.9852 20.8147C20.939 20.8355 20.8998 20.8694 20.8725 20.9121C20.8113 21.0194 20.7732 21.1382 20.7606 21.2611C20.7606 21.2897 20.7606 21.3444 20.7397 21.4225C20.7189 21.5007 20.7189 21.5918 20.7033 21.696C20.6876 21.8002 20.6746 21.9121 20.6538 22.0293C20.6329 22.1465 20.6095 22.2559 20.5835 22.3627C20.5648 22.4649 20.5395 22.5658 20.5079 22.6647C20.48 22.7566 20.4397 22.8442 20.3882 22.9252C20.3383 23.0027 20.2704 23.0671 20.1902 23.1127C20.0929 23.1622 19.9841 23.1847 19.8751 23.1778C19.8571 23.1817 19.8385 23.1817 19.8204 23.1778H19.7762C19.6999 23.1701 19.6264 23.1449 19.5614 23.1043C19.4963 23.0636 19.4415 23.0086 19.4012 22.9434C19.3051 22.7776 19.2431 22.5944 19.2189 22.4043C19.1831 22.1455 19.1709 21.8841 19.1824 21.6231C19.1928 21.3262 19.2163 21.0059 19.2527 20.6621L19.3126 20.2038C19.3621 19.8054 19.4194 19.4225 19.4845 19.0892C19.5387 18.7857 19.6171 18.487 19.7189 18.196C19.7896 17.985 19.9031 17.7909 20.0522 17.6257C20.1045 17.5619 20.1719 17.5122 20.2484 17.4813C20.3248 17.4503 20.4078 17.4391 20.4897 17.4486C20.5549 17.4553 20.618 17.4751 20.6753 17.5069C20.7326 17.5386 20.7829 17.5817 20.8231 17.6335C20.9168 17.7583 20.9817 17.9024 21.0132 18.0554C21.0619 18.2603 21.089 18.4698 21.0939 18.6804C21.0939 18.9199 21.0939 19.1778 21.0731 19.4616C21.2488 19.3659 21.4498 19.3268 21.6486 19.3496Z" fill="white"/>
<path id="Vector_22" d="M25.9427 19.5319C26.0282 19.5277 26.1134 19.5431 26.192 19.577C26.2705 19.6108 26.3403 19.6622 26.3959 19.7272C26.5122 19.8723 26.5949 20.0412 26.6381 20.222C26.6911 20.438 26.7225 20.6587 26.7318 20.8809C26.7318 21.1205 26.75 21.347 26.75 21.558C26.75 21.722 26.75 21.92 26.724 22.1517C26.707 22.3776 26.6704 22.6015 26.6146 22.821C26.568 23.0141 26.4859 23.1969 26.3724 23.3601C26.3254 23.4303 26.2613 23.4874 26.1861 23.5261C26.111 23.5648 26.0272 23.5838 25.9427 23.5814C25.8152 23.5834 25.6901 23.5471 25.5834 23.4772C25.4823 23.415 25.4017 23.3244 25.3516 23.2168C25.2495 23.3334 25.1238 23.4269 24.9828 23.4911C24.8419 23.5553 24.6888 23.5888 24.5339 23.5892C24.3395 23.5886 24.1492 23.5336 23.9844 23.4304C23.8059 23.3189 23.6532 23.1707 23.5365 22.9955C23.4033 22.7973 23.3023 22.5793 23.237 22.3496C23.0922 21.8389 23.0922 21.2979 23.237 20.7871C23.3022 20.5583 23.4033 20.3412 23.5365 20.1439C23.654 19.9679 23.8076 19.8188 23.987 19.7064C24.1501 19.5977 24.3406 19.5372 24.5365 19.5319C24.6873 19.5321 24.8361 19.5669 24.9714 19.6335C25.1148 19.7023 25.2439 19.7977 25.3516 19.9147C25.3995 19.8016 25.4803 19.7055 25.5834 19.6387C25.6898 19.5681 25.815 19.5309 25.9427 19.5319ZM24.862 22.0762C24.9174 22.0754 24.9718 22.0606 25.02 22.0333C25.0682 22.006 25.1088 21.967 25.1381 21.92C25.2193 21.814 25.2624 21.6837 25.2604 21.5502C25.2637 21.4209 25.2233 21.2943 25.1459 21.1908C25.1157 21.1451 25.0747 21.1076 25.0266 21.0817C24.9784 21.0558 24.9245 21.0422 24.8698 21.0422C24.8151 21.0422 24.7613 21.0558 24.7131 21.0817C24.6649 21.1076 24.6239 21.1451 24.5938 21.1908C24.5192 21.2963 24.4792 21.4223 24.4792 21.5515C24.4792 21.6806 24.5192 21.8066 24.5938 21.9121C24.6223 21.9581 24.6617 21.9964 24.7084 22.0237C24.7552 22.0509 24.8079 22.0663 24.862 22.0684V22.0762Z" fill="white"/>
<path id="Vector_23" d="M28.966 19.2714C29.0844 19.2571 29.2046 19.2695 29.3176 19.3078C29.545 19.3871 29.7321 19.5527 29.8384 19.7688C29.8991 19.8856 29.9371 20.0128 29.9504 20.1438C29.9662 20.2726 29.9583 20.4032 29.9269 20.5292C29.8984 20.651 29.8462 20.766 29.7733 20.8677C29.7033 20.9655 29.6148 21.0487 29.5129 21.1125C29.4112 21.1745 29.2976 21.2144 29.1795 21.2297C28.9911 21.2509 28.8013 21.2027 28.6457 21.0943L28.6743 21.3365C28.6926 21.5058 28.7082 21.7037 28.716 21.9354C28.7241 22.1599 28.7137 22.3846 28.6848 22.6073C28.6597 22.8062 28.5979 22.9987 28.5025 23.175C28.4613 23.2481 28.4032 23.3102 28.3329 23.356C28.2626 23.4018 28.1823 23.43 28.0988 23.438C28.0143 23.4498 27.9282 23.44 27.8485 23.4095C27.7688 23.379 27.6981 23.3288 27.6431 23.2636C27.5122 23.1098 27.4107 22.9332 27.3436 22.7427C27.2618 22.534 27.2008 22.3176 27.1613 22.0969C27.1197 21.8703 27.091 21.6724 27.0702 21.5058C27.0467 21.2948 27.0259 21.0709 27.0103 20.8365C26.9958 20.6176 27.0028 20.3978 27.0311 20.1802C27.054 19.9956 27.1161 19.818 27.2134 19.6594C27.2578 19.586 27.319 19.5242 27.3918 19.4789C27.4647 19.4337 27.5472 19.4063 27.6327 19.399C27.7644 19.3774 27.8994 19.4042 28.0129 19.4745C28.1198 19.5506 28.2087 19.6493 28.2733 19.7636C28.3342 19.6293 28.423 19.5094 28.5337 19.412C28.6602 19.3224 28.811 19.2734 28.966 19.2714Z" fill="white"/>
<path id="Vector_24" d="M32.9949 21.1615C33.0532 21.1419 33.1135 21.1288 33.1746 21.1224C33.2403 21.1169 33.3064 21.123 33.3699 21.1407C33.4372 21.1621 33.4986 21.1986 33.5496 21.2474C33.6119 21.3093 33.6568 21.3866 33.6798 21.4714C33.7202 21.5967 33.7202 21.7315 33.6798 21.8568C33.6359 21.9818 33.5678 22.0968 33.4793 22.1953C33.3819 22.2984 33.2695 22.3862 33.146 22.4558C33.0233 22.53 32.891 22.5869 32.7527 22.625L32.6746 22.6459C32.407 22.7205 32.1271 22.74 31.8517 22.7032C31.6398 22.6697 31.4369 22.5935 31.2553 22.4792C31.0936 22.3751 30.9553 22.2385 30.8491 22.0782C30.7471 21.9281 30.6599 21.7685 30.5887 21.6016C30.5003 21.3723 30.4272 21.1374 30.3699 20.8985C30.3103 20.6594 30.2874 20.4126 30.3022 20.1667C30.3183 19.9277 30.3858 19.6949 30.5001 19.4844C30.637 19.2471 30.8396 19.0544 31.0835 18.9297C31.2094 18.8603 31.3444 18.8086 31.4845 18.7761C31.6549 18.735 31.8302 18.7175 32.0053 18.724C32.1838 18.729 32.3601 18.7652 32.5262 18.8308C32.6958 18.8982 32.8467 19.0054 32.9663 19.1433C33.1053 19.3065 33.2019 19.5015 33.2475 19.711C33.2966 19.9004 33.3125 20.0969 33.2944 20.2917C33.2796 20.4554 33.2309 20.6141 33.1512 20.7578C33.0761 20.8921 32.9709 21.0071 32.8439 21.0938C32.715 21.1816 32.5711 21.2452 32.4194 21.2813C32.2886 21.32 32.1512 21.3315 32.0158 21.3151C31.9662 21.3183 31.9166 21.3112 31.8699 21.2943C31.8971 21.3957 31.9543 21.4864 32.034 21.5547C32.0867 21.5919 32.1486 21.6138 32.213 21.618C32.2773 21.6221 32.3416 21.6083 32.3986 21.5782C32.4638 21.5514 32.5259 21.5173 32.5835 21.4766C32.6337 21.4417 32.6807 21.4025 32.7241 21.3594C32.7658 21.3177 32.8074 21.2761 32.8491 21.2396C32.892 21.204 32.9416 21.1775 32.9949 21.1615ZM31.5496 20.1042C31.5446 20.1902 31.5705 20.2751 31.6225 20.3438C31.6481 20.374 31.6807 20.3974 31.7175 20.412C31.7543 20.4265 31.7942 20.4317 31.8335 20.4271C31.8704 20.4256 31.907 20.4204 31.9428 20.4115C32.0083 20.3953 32.0678 20.361 32.1147 20.3125C32.139 20.2887 32.1577 20.2597 32.1694 20.2277C32.1812 20.1957 32.1856 20.1615 32.1824 20.1276C32.1839 20.0828 32.1761 20.0382 32.1595 19.9965C32.143 19.9548 32.1179 19.917 32.0861 19.8854C32.0557 19.8527 32.0185 19.827 31.9771 19.8104C31.9357 19.7937 31.8911 19.7864 31.8465 19.7891C31.8197 19.7849 31.7925 19.7849 31.7658 19.7891C31.7303 19.7943 31.6962 19.8068 31.6658 19.8258C31.6353 19.8448 31.6092 19.8699 31.5889 19.8994C31.5686 19.929 31.5546 19.9625 31.5479 19.9977C31.5411 20.033 31.5417 20.0692 31.5496 20.1042Z" fill="white"/>
<path id="Vector_25" d="M24.4998 25.6205C24.694 25.6331 24.8807 25.6999 25.0389 25.8132C25.2097 25.9373 25.3533 26.095 25.4608 26.2767C25.5821 26.482 25.67 26.7053 25.7212 26.9382C25.7786 27.1944 25.7996 27.4574 25.7837 27.7194C25.7663 27.9989 25.7377 28.2594 25.6978 28.5007C25.6663 28.7209 25.6068 28.9362 25.5207 29.1413C25.4561 29.3003 25.3543 29.4414 25.2238 29.5528C25.0946 29.654 24.9314 29.7016 24.7681 29.6856C24.6535 29.6747 24.5451 29.6283 24.4582 29.5528C24.3617 29.4716 24.2895 29.3652 24.2498 29.2455C24.2015 29.1063 24.1751 28.9605 24.1717 28.8132C24.1717 28.6543 24.1717 28.5033 24.1717 28.3627C24.1789 28.2335 24.1928 28.1049 24.2134 27.9772C24.2316 27.8653 24.2472 27.7819 24.2551 27.7351C24.2743 27.5951 24.2743 27.4531 24.2551 27.3132C24.2553 27.2613 24.2362 27.2113 24.2016 27.1728C24.1669 27.1342 24.1191 27.11 24.0676 27.1048C24.0001 27.1009 23.9339 27.1233 23.8827 27.1673C23.8539 27.1948 23.834 27.2301 23.8254 27.2689C23.8142 27.3126 23.8055 27.357 23.7993 27.4017C23.7993 27.4486 23.7993 27.4903 23.7993 27.5293C23.7993 27.5684 23.7993 27.5944 23.7993 27.6074C23.782 27.8835 23.7533 28.1439 23.7134 28.3887C23.6813 28.6068 23.6227 28.8202 23.5389 29.0241C23.4744 29.1853 23.3716 29.3283 23.2394 29.4408C23.1114 29.5424 22.9489 29.59 22.7863 29.5736C22.6686 29.5619 22.5584 29.5104 22.4738 29.4278C22.3777 29.3473 22.3056 29.2418 22.2655 29.1231C22.2163 28.9839 22.1882 28.8382 22.1821 28.6908C22.1729 28.5399 22.1729 28.3886 22.1821 28.2377C22.1821 28.0918 22.2108 27.9616 22.229 27.8496C22.2472 27.7377 22.2629 27.6543 22.2707 27.6048C22.2887 27.4665 22.2887 27.3265 22.2707 27.1882C22.2551 27.0597 22.1926 26.992 22.0832 26.9851C22.031 26.9764 21.9774 26.985 21.9304 27.0094C21.8835 27.0338 21.8457 27.0728 21.8228 27.1205C21.7668 27.2295 21.7357 27.3496 21.7316 27.472C21.7316 27.5033 21.7316 27.558 21.7316 27.6361C21.7316 27.7142 21.7316 27.808 21.716 27.9121C21.7004 28.0163 21.7004 28.1309 21.6873 28.2481C21.6743 28.3653 21.6561 28.4772 21.6379 28.5866C21.6262 28.7044 21.6053 28.8211 21.5754 28.9356C21.5507 29.0352 21.5084 29.1296 21.4504 29.2142C21.393 29.2946 21.3146 29.3576 21.2238 29.3965C21.1074 29.4431 20.9814 29.461 20.8566 29.4486C20.7707 29.4442 20.6874 29.418 20.6145 29.3725C20.5416 29.3269 20.4815 29.2635 20.4399 29.1882C20.3402 29.021 20.2706 28.8377 20.2342 28.6465C20.1887 28.4255 20.1661 28.2003 20.1665 27.9746C20.1665 27.7403 20.1665 27.5423 20.1665 27.3809C20.1795 27.1673 20.2004 26.946 20.2264 26.7116C20.2488 26.4913 20.2942 26.274 20.3618 26.0632C20.4121 25.8861 20.501 25.7225 20.6222 25.584C20.6818 25.5229 20.7545 25.4761 20.8348 25.4472C20.9151 25.4184 21.0009 25.4081 21.0858 25.4173C21.2133 25.4228 21.336 25.4674 21.4373 25.5449C21.5355 25.6154 21.6106 25.7132 21.6535 25.8262C21.7667 25.7162 21.9023 25.6321 22.0511 25.5795C22.1999 25.5269 22.3583 25.5071 22.5155 25.5215C22.7089 25.5338 22.8949 25.6006 23.0519 25.7142C23.2247 25.8372 23.3686 25.9963 23.4738 26.1804C23.5839 26.0097 23.7365 25.8706 23.9165 25.7767C24.0922 25.6704 24.2945 25.6162 24.4998 25.6205Z" fill="white"/>
<path id="Vector_26" d="M28.7058 28.0675C28.7663 28.0605 28.8275 28.0605 28.8881 28.0675C28.9539 28.0722 29.0184 28.089 29.0782 28.1169C29.142 28.1462 29.1975 28.191 29.2396 28.2472C29.2908 28.3187 29.3231 28.402 29.3334 28.4893C29.3529 28.6195 29.3311 28.7525 29.2709 28.8696C29.2064 28.9882 29.1177 29.0921 29.0105 29.1742C28.9001 29.2644 28.7762 29.3365 28.6433 29.3878C28.5103 29.4412 28.3712 29.4779 28.2292 29.4972H28.1459C27.8765 29.5266 27.6039 29.5027 27.3438 29.4268C27.1397 29.3612 26.951 29.2549 26.7891 29.1143C26.6447 28.987 26.5285 28.8309 26.448 28.656C26.3717 28.4888 26.3123 28.3143 26.2709 28.1352C26.2204 27.8944 26.1839 27.651 26.1615 27.406C26.1402 27.1603 26.156 26.9127 26.2084 26.6716C26.2599 26.4371 26.3621 26.2167 26.5079 26.0258C26.6808 25.8138 26.9101 25.6549 27.1693 25.5675C27.3054 25.5188 27.4472 25.4881 27.5912 25.4763C27.7653 25.4633 27.9404 25.4729 28.112 25.505C28.288 25.5379 28.457 25.6004 28.612 25.6899C28.7692 25.7836 28.9021 25.9129 29.0001 26.0675C29.1118 26.2494 29.1771 26.456 29.1902 26.669C29.2105 26.8644 29.1964 27.0619 29.1485 27.2524C29.1084 27.4114 29.0356 27.5604 28.9349 27.6899C28.8416 27.809 28.7222 27.9052 28.586 27.9711C28.4453 28.0383 28.2935 28.0789 28.1381 28.0909C28.003 28.109 27.8656 28.0992 27.7344 28.0623C27.6853 28.0574 27.6376 28.0432 27.5938 28.0206C27.6014 28.1274 27.6434 28.2288 27.7136 28.3097C27.7597 28.3549 27.8176 28.3862 27.8807 28.4C27.9438 28.4138 28.0096 28.4096 28.0704 28.3878C28.1399 28.3728 28.2072 28.3491 28.2709 28.3175C28.3254 28.2894 28.3776 28.2572 28.4271 28.2211L28.5678 28.1222C28.61 28.0956 28.6568 28.0771 28.7058 28.0675ZM27.4376 26.8018C27.4171 26.8902 27.4301 26.9829 27.474 27.0623C27.4949 27.0957 27.5236 27.1235 27.5576 27.1435C27.5916 27.1634 27.6299 27.1749 27.6693 27.1768H27.7787C27.8465 27.1694 27.9112 27.1443 27.9662 27.1039C27.9937 27.0841 28.0164 27.0584 28.0326 27.0286C28.0488 26.9989 28.0582 26.9659 28.0599 26.9321C28.0697 26.8869 28.0693 26.8402 28.059 26.7952C28.0486 26.7502 28.0285 26.708 28 26.6716C27.9754 26.6344 27.9427 26.6031 27.9044 26.5802C27.8661 26.5572 27.8232 26.5431 27.7787 26.5388C27.7519 26.5346 27.7247 26.5346 27.698 26.5388C27.6635 26.5388 27.6295 26.5456 27.5977 26.5589C27.5659 26.5721 27.5371 26.5916 27.5129 26.616C27.4887 26.6405 27.4696 26.6695 27.4566 26.7014C27.4437 26.7333 27.4372 26.7674 27.4376 26.8018Z" fill="white"/>
</g>
</svg>
