<svg width="60" height="60" viewBox="0 0 60 60" fill="none" xmlns="http://www.w3.org/2000/svg">
<g id="saro_tombstone_dark" clip-path="url(#clip0_1301_6478)">
<path id="Vector" d="M47.3689 50.6844H12.6313V24.3125L15.7095 22.5375L12.6313 20.0375C12.6313 11.0406 20.4063 3.75 30.0001 3.75C39.5939 3.75 47.3689 11.0437 47.3689 20.0438V31.25L44.6407 33.7906L47.3689 35.9781V50.6844Z" fill="#AAAAAA"/>
<path id="Vector_2" d="M47.3689 52.0186H12.6314C12.2773 52.0186 11.9375 51.8781 11.6868 51.6279C11.4361 51.3778 11.2948 51.0384 11.2939 50.6842V24.3123C11.2944 24.0775 11.3564 23.8469 11.4737 23.6434C11.591 23.44 11.7596 23.2709 11.9627 23.1529L13.3564 22.3498L11.7939 21.0779C11.6396 20.9527 11.5151 20.7945 11.4297 20.615C11.3443 20.4355 11.3 20.2392 11.3002 20.0404C11.2939 10.3123 19.6877 2.40918 30.0002 2.40918C40.3127 2.40918 48.7064 10.3123 48.7064 20.0404V31.2498C48.7058 31.433 48.6675 31.6141 48.5939 31.7819C48.5202 31.9496 48.4128 32.1004 48.2783 32.2248L46.6783 33.7186L48.2096 34.9686C48.3644 35.0936 48.4893 35.2517 48.5752 35.4312C48.6612 35.6106 48.706 35.807 48.7064 36.0061V50.6936C48.7031 51.0461 48.5608 51.3831 48.3103 51.6312C48.0598 51.8794 47.7215 52.0186 47.3689 52.0186ZM13.9658 49.3498H46.0346V36.6404L43.8002 34.8373C43.6515 34.717 43.5303 34.5662 43.445 34.395C43.3597 34.2239 43.3121 34.0363 43.3056 33.8452C43.2991 33.654 43.3337 33.4637 43.4072 33.2871C43.4807 33.1105 43.5913 32.9518 43.7314 32.8217L46.0346 30.6748V20.0498C46.0346 11.8029 38.8471 5.09043 30.0002 5.09043C21.3846 5.09043 14.3314 11.4654 13.9783 19.4248L16.5627 21.4998C16.7291 21.6367 16.8599 21.8119 16.9441 22.0102C17.0283 22.2086 17.0632 22.4244 17.046 22.6392C17.0289 22.854 16.96 23.0615 16.8454 23.244C16.7308 23.4265 16.5737 23.5786 16.3877 23.6873L13.9783 25.0748L13.9658 49.3498Z" fill="#231F20"/>
<path id="Vector_3" d="M32.5062 3.92773L29.1781 8.27148L32.5906 10.734L28.7656 14.8871" fill="#AAAAAA"/>
<path id="Vector_4" d="M33.5686 4.74052L30.2374 9.08427L29.9593 7.18739L33.3718 9.65302C33.5374 9.75342 33.6775 9.89094 33.7809 10.0547C33.8843 10.2185 33.9482 10.4041 33.9676 10.5969C33.987 10.7896 33.9614 10.9842 33.8927 11.1653C33.824 11.3465 33.7141 11.5091 33.5718 11.6405L29.4405 15.5124C29.2651 15.6423 29.0498 15.707 28.8318 15.6951C28.6138 15.6833 28.4068 15.5958 28.2464 15.4477C28.086 15.2995 27.9824 15.1 27.9534 14.8837C27.9243 14.6673 27.9717 14.4476 28.0874 14.2624L31.6093 9.82802L31.8093 11.8155L28.3968 9.35302C28.2518 9.24881 28.1293 9.11658 28.0363 8.96414C27.9434 8.81171 27.882 8.64219 27.8558 8.4656C27.8296 8.28902 27.839 8.10897 27.8836 7.93611C27.9283 7.76325 28.0071 7.60111 28.1155 7.45927L31.4468 3.12489C31.6679 2.86006 31.9827 2.69089 32.3256 2.65274C32.6685 2.61459 33.0128 2.7104 33.2867 2.92016C33.5606 3.12992 33.7429 3.4374 33.7954 3.77837C33.848 4.11934 33.7667 4.46742 33.5686 4.74989V4.74052Z" fill="#231F20"/>
<path id="Vector_5" d="M39.1408 18.4281L35.3314 15.3063L36.7971 10.9688L32.5908 10.7344" fill="#AAAAAA"/>
<path id="Vector_6" d="M38.6314 19.0625L34.4845 16.3531C34.2664 16.2125 34.1021 16.0025 34.0182 15.7569C33.9343 15.5114 33.9356 15.2447 34.022 15L34.0658 14.8719L35.5345 10.5344L36.7252 12.2969L32.5158 12.0625C32.3358 12.0594 32.1582 12.02 31.9938 11.9467C31.8294 11.8733 31.6815 11.7676 31.5589 11.6357C31.4364 11.5038 31.3417 11.3485 31.2806 11.1792C31.2195 11.0098 31.1932 10.8299 31.2033 10.6501C31.2134 10.4704 31.2597 10.2945 31.3394 10.1331C31.4191 9.97165 31.5306 9.82797 31.6671 9.71065C31.8037 9.59334 31.9625 9.5048 32.1341 9.45034C32.3057 9.39589 32.4866 9.37664 32.6658 9.39375L36.872 9.63125C37.0771 9.64321 37.2767 9.70226 37.4553 9.80382C37.6339 9.90538 37.7867 10.0467 37.9019 10.2169C38.017 10.387 38.0914 10.5814 38.1193 10.785C38.1472 10.9885 38.1278 11.1958 38.0627 11.3906L36.597 15.7281L36.1783 14.2656L39.647 17.8125C39.8012 17.9507 39.8962 18.1429 39.9125 18.3493C39.9288 18.5557 39.8651 18.7605 39.7345 18.9212C39.6039 19.0818 39.4166 19.1861 39.2112 19.2125C39.0059 19.2388 38.7983 19.1851 38.6314 19.0625Z" fill="#231F20"/>
<path id="Vector_7" d="M26.7124 24.1035C27.0261 24.108 27.3319 24.2024 27.5937 24.3754C27.88 24.5541 28.125 24.7916 28.3124 25.0723C28.5264 25.3895 28.6888 25.7386 28.7937 26.1066C28.9117 26.5128 28.9706 26.9337 28.9687 27.3566C28.9687 27.8035 28.9468 28.2223 28.9093 28.6066C28.8799 28.9562 28.8064 29.3006 28.6905 29.6316C28.6021 29.8901 28.4532 30.1237 28.2562 30.3129C28.0601 30.4858 27.8049 30.5765 27.5437 30.566C27.3585 30.5633 27.1795 30.4996 27.0343 30.3848C26.8702 30.2653 26.7434 30.1016 26.6687 29.9129C26.5768 29.6952 26.5209 29.4641 26.503 29.2285C26.478 28.9754 26.4655 28.7379 26.4655 28.5098C26.4643 28.3011 26.4737 28.0925 26.4937 27.8848C26.5155 27.7004 26.528 27.5723 26.5374 27.491C26.5588 27.2658 26.5494 27.0387 26.5093 26.816C26.5055 26.7344 26.4713 26.6571 26.4135 26.5993C26.3557 26.5415 26.2784 26.5073 26.1968 26.5035C26.1429 26.5013 26.0892 26.5105 26.0392 26.5304C25.9891 26.5504 25.9438 26.5806 25.9062 26.6191C25.8625 26.6658 25.8341 26.7247 25.8249 26.7879C25.8094 26.8588 25.8 26.931 25.7968 27.0035C25.7968 27.0785 25.7968 27.1441 25.7968 27.2098V27.3316C25.7968 27.7785 25.778 28.1973 25.7405 28.5816C25.7092 28.9329 25.6358 29.2792 25.5218 29.6129C25.4344 29.878 25.2843 30.1182 25.0843 30.3129C24.8882 30.4858 24.633 30.5765 24.3718 30.566C24.1853 30.5621 24.0056 30.4949 23.8624 30.3754C23.7031 30.2556 23.5781 30.0961 23.4999 29.9129C23.4102 29.694 23.3513 29.4636 23.3249 29.2285C23.2968 28.9869 23.2853 28.7436 23.2905 28.5004C23.2905 28.2691 23.2905 28.0598 23.3249 27.8754C23.3593 27.691 23.3593 27.5629 23.3687 27.4816C23.3882 27.2584 23.3788 27.0337 23.3405 26.8129C23.2999 26.6098 23.1937 26.5004 23.028 26.5004C22.9446 26.4941 22.8613 26.5138 22.7897 26.5569C22.718 26.6 22.6615 26.6644 22.628 26.741C22.5406 26.931 22.4968 27.1382 22.4999 27.3473V28.0535C22.4999 28.2223 22.4999 28.4035 22.4999 28.591C22.4999 28.7785 22.4749 28.9629 22.4562 29.1379C22.4483 29.3278 22.4263 29.5169 22.3905 29.7035C22.3532 29.8684 22.2843 30.0244 22.1874 30.1629C22.1033 30.2952 21.9858 30.403 21.8468 30.4754C21.6651 30.56 21.4657 30.5996 21.2655 30.591C21.1297 30.5949 20.995 30.5643 20.8743 30.502C20.7535 30.4397 20.6505 30.3477 20.5749 30.2348C20.3956 29.9741 20.2653 29.6829 20.1905 29.3754C20.0964 29.0259 20.0377 28.6679 20.0155 28.3066C19.9905 27.9348 19.978 27.616 19.978 27.3691C19.978 27.0316 19.978 26.6723 20.0093 26.2941C20.0238 25.9408 20.0751 25.5899 20.1624 25.2473C20.2286 24.9569 20.3601 24.6855 20.5468 24.4535C20.636 24.349 20.748 24.2664 20.8743 24.2122C21.0006 24.158 21.1377 24.1336 21.2749 24.141C21.4777 24.1388 21.6766 24.1964 21.8468 24.3066C22.0104 24.4108 22.1397 24.5607 22.2187 24.7379C22.3826 24.5519 22.584 24.4026 22.8097 24.2997C23.0353 24.1969 23.2801 24.1428 23.528 24.141C23.8396 24.1416 24.1449 24.2293 24.4093 24.3941C24.6959 24.5763 24.9408 24.817 25.128 25.1004C25.2815 24.8028 25.5126 24.5523 25.7968 24.3754C26.0695 24.1986 26.3874 24.1042 26.7124 24.1035Z" fill="#231F20"/>
<path id="Vector_8" d="M33.1248 28.394C33.2213 28.3818 33.319 28.3818 33.4155 28.394C33.5257 28.4042 33.6323 28.4383 33.728 28.494C33.8256 28.5519 33.9081 28.6323 33.9686 28.7284C34.0427 28.8487 34.0827 28.987 34.0842 29.1284C34.0977 29.3376 34.044 29.5456 33.9311 29.7221C33.8157 29.9019 33.6647 30.0561 33.4873 30.1753C33.2949 30.3033 33.0842 30.4013 32.8623 30.4659C32.6417 30.5311 32.414 30.5699 32.1842 30.5815H32.053C31.6088 30.5957 31.1665 30.5192 30.753 30.3565C30.4354 30.2245 30.1482 30.0288 29.9092 29.7815C29.6962 29.5586 29.5322 29.2935 29.428 29.0034C29.3304 28.7319 29.2602 28.4513 29.2186 28.1659C29.1677 27.7753 29.1427 27.3817 29.1436 26.9878C29.1423 26.5936 29.2013 26.2016 29.3186 25.8253C29.4351 25.4591 29.6291 25.1223 29.8873 24.8378C30.1912 24.5215 30.5795 24.2992 31.0061 24.1971C31.2289 24.1357 31.4593 24.1062 31.6905 24.1096C31.9663 24.1112 32.2407 24.1501 32.5061 24.2253C32.781 24.3017 33.041 24.4243 33.2748 24.5878C33.5132 24.759 33.708 24.9838 33.8436 25.244C33.9994 25.5559 34.0746 25.9018 34.0623 26.2503C34.0701 26.5688 34.0214 26.8862 33.9186 27.1878C33.8325 27.4357 33.6963 27.6634 33.5186 27.8565C33.3523 28.0331 33.1483 28.1699 32.9217 28.2565C32.6871 28.3453 32.4381 28.3898 32.1873 28.3878C31.9742 28.3948 31.7619 28.3598 31.5623 28.2846C31.4852 28.2706 31.4118 28.2409 31.3467 28.1971C31.3459 28.3692 31.3983 28.5373 31.4967 28.6784C31.5658 28.7558 31.6546 28.8131 31.7537 28.8439C31.8528 28.8747 31.9584 28.878 32.0592 28.8534C32.1664 28.8365 32.2713 28.8071 32.3717 28.7659C32.4628 28.7297 32.5506 28.6858 32.6342 28.6346L32.8748 28.4971C32.9502 28.4459 33.0353 28.4108 33.1248 28.394ZM31.278 26.2065C31.235 26.3379 31.2428 26.4806 31.2998 26.6065C31.3292 26.6658 31.3734 26.7166 31.4282 26.7538C31.4829 26.791 31.5464 26.8135 31.6123 26.819C31.6705 26.8256 31.7292 26.8256 31.7873 26.819C31.8975 26.8188 32.0055 26.7885 32.0998 26.7315C32.1465 26.7036 32.1862 26.6655 32.2159 26.62C32.2457 26.5745 32.2648 26.5229 32.2717 26.469C32.2922 26.3997 32.2977 26.3268 32.288 26.2552C32.2783 26.1836 32.2536 26.1148 32.2155 26.0534C32.1802 25.9917 32.1321 25.9383 32.0744 25.8968C32.0167 25.8553 31.9508 25.8266 31.8811 25.8128C31.8375 25.8068 31.7934 25.8068 31.7498 25.8128C31.6936 25.8058 31.6365 25.8104 31.5821 25.8262C31.5276 25.842 31.477 25.8686 31.4331 25.9046C31.3893 25.9405 31.3532 25.985 31.3271 26.0353C31.301 26.0855 31.2853 26.1406 31.2811 26.1971L31.278 26.2065Z" fill="#231F20"/>
<path id="Vector_9" d="M37.7657 24.1033C38.076 24.1022 38.38 24.1913 38.6407 24.3596C38.9231 24.541 39.1656 24.7781 39.3532 25.0564C39.567 25.3742 39.7304 25.7231 39.8376 26.0908C39.9618 26.4958 40.0239 26.9172 40.022 27.3408C40.022 27.7877 40.0001 28.2064 39.9626 28.5908C39.9328 28.9423 39.8593 29.2887 39.7438 29.6221C39.6576 29.887 39.5086 30.1272 39.3095 30.3221C39.1134 30.495 38.8582 30.5857 38.597 30.5752C38.4104 30.5718 38.2306 30.5045 38.0876 30.3846C37.9239 30.2621 37.7973 30.0965 37.722 29.9064C37.6319 29.6898 37.573 29.4615 37.547 29.2283C37.5187 28.9898 37.5072 28.7497 37.5126 28.5096C37.5126 28.2783 37.5126 28.0689 37.547 27.8846C37.5813 27.7002 37.5813 27.5721 37.5907 27.4908C37.6122 27.2656 37.6027 27.0385 37.5626 26.8158C37.5251 26.6075 37.4209 26.5033 37.2501 26.5033C37.1666 26.4965 37.0831 26.5161 37.0114 26.5592C36.9396 26.6024 36.8832 26.667 36.8501 26.7439C36.772 26.9253 36.7347 27.1216 36.7407 27.3189V28.0252C36.7407 28.1939 36.7407 28.3752 36.7407 28.5627C36.7407 28.7502 36.7157 28.9346 36.697 29.1096C36.6873 29.2751 36.6685 29.4399 36.6407 29.6033C36.6132 29.7567 36.5659 29.9059 36.5001 30.0471C36.4367 30.179 36.3423 30.2937 36.2251 30.3814C36.0812 30.4811 35.9124 30.5384 35.7376 30.5471C35.7088 30.5536 35.6789 30.5536 35.6501 30.5471H35.5782C35.4572 30.5457 35.3381 30.5168 35.2298 30.4627C35.1215 30.4085 35.027 30.3305 34.9532 30.2346C34.7667 29.9899 34.6307 29.7105 34.5532 29.4127C34.4401 29.0041 34.3668 28.5854 34.3345 28.1627C34.2907 27.6877 34.2657 27.1752 34.2563 26.6221V25.9377C34.2563 25.3127 34.2563 24.6877 34.3063 24.1346C34.3319 23.641 34.3946 23.15 34.4938 22.6658C34.5613 22.3137 34.6972 21.9782 34.8938 21.6783C34.968 21.5647 35.0695 21.4717 35.1892 21.4078C35.3088 21.3439 35.4426 21.3112 35.5782 21.3127C35.6832 21.3104 35.7877 21.3291 35.8853 21.3677C35.983 21.4064 36.072 21.4642 36.147 21.5377C36.3174 21.7169 36.4483 21.9298 36.5313 22.1627C36.644 22.4782 36.7215 22.8052 36.7626 23.1377C36.8188 23.5158 36.8595 23.9283 36.8876 24.3877C37.1456 24.2079 37.4513 24.1089 37.7657 24.1033Z" fill="#231F20"/>
<path id="Vector_10" d="M49.6719 50.6846H10.3281V57.5908H49.6719V50.6846Z" fill="#AAAAAA" stroke="#231F20" stroke-width="8.55" stroke-linejoin="round"/>
</g>
<defs>
<clipPath id="clip0_1301_6478">
<rect width="60" height="60" fill="white"/>
</clipPath>
</defs>
</svg>
