<svg width="64" height="64" viewBox="0 0 64 64" fill="none" xmlns="http://www.w3.org/2000/svg">
<g id="saro_verified_badge_white">
<path id="Vector" d="M25.9669 39.4597C25.6407 39.3361 25.341 39.1518 25.0836 38.9164C24.6029 38.4693 24.3008 37.8628 24.2336 37.2097C24.2065 36.8836 24.237 36.5553 24.3236 36.2397C25.1436 33.3664 26.1402 29.8597 27.0902 26.4897C27.5736 24.8231 28.0402 23.1564 28.4736 21.6331C28.9069 20.1097 29.2936 18.7097 29.6136 17.5497C29.6954 17.2519 29.6906 16.9368 29.5997 16.6416C29.5088 16.3464 29.3355 16.0833 29.1002 15.8831C26.2902 13.5031 22.0202 10.7231 17.2669 10.7331C17.1961 10.7231 17.1243 10.7231 17.0536 10.7331C17.0102 10.7331 16.9469 10.7331 16.9069 10.7331C16.8447 10.7374 16.7824 10.7374 16.7202 10.7331C14.7954 10.8274 12.9211 11.3805 11.2536 12.3464C10.6046 12.7114 9.98198 13.1212 9.39023 13.5731C8.99679 13.8857 8.62067 14.2195 8.26356 14.5731C7.26793 15.5255 6.44466 16.6431 5.83023 17.8764C5.79356 17.9564 5.74356 18.0431 5.70356 18.1397C5.63023 18.2964 5.58023 18.4731 5.51356 18.6231C5.40048 18.863 5.30684 19.1115 5.23356 19.3664C5.19824 19.4554 5.16928 19.5467 5.14689 19.6397C5.06023 19.9297 4.98356 20.2131 4.91689 20.5064C4.90298 20.6108 4.88295 20.7143 4.85689 20.8164C4.80689 21.0831 4.77356 21.3531 4.73689 21.6097C4.72023 21.7464 4.70023 21.9031 4.69356 22.0497C4.65393 22.3815 4.63612 22.7156 4.64023 23.0497C4.64023 23.1031 4.64023 23.1431 4.64023 23.1964V23.2164C4.61356 31.2897 11.3069 40.8431 18.5636 47.0397C21.2536 49.3731 24.7769 51.5331 27.5969 53.1197C27.8154 53.2395 28.0589 53.3066 28.3079 53.3157C28.5569 53.3247 28.8046 53.2755 29.0312 53.1719C29.2578 53.0683 29.4571 52.9132 29.6132 52.7189C29.7693 52.5247 29.8778 52.2967 29.9302 52.0531L33.1069 36.8564L28.1236 39.2997C27.7952 39.4755 27.4336 39.5806 27.0622 39.6082C26.6907 39.6357 26.3176 39.5852 25.9669 39.4597Z" fill="black"/>
<path id="Vector_2" d="M59.3635 22.9303C59.3624 22.5963 59.3446 22.2625 59.3101 21.9303C59.2999 21.7871 59.281 21.6446 59.2535 21.5036C59.2335 21.2336 59.1868 20.9803 59.1435 20.707C59.1101 20.6036 59.0968 20.507 59.0668 20.3736C59.0035 20.097 58.9335 19.807 58.8401 19.5103C58.8183 19.4214 58.7893 19.3345 58.7535 19.2503C58.6817 18.9958 58.5903 18.7473 58.4801 18.507C58.4201 18.337 58.3435 18.1736 58.2901 18.0136C58.2364 17.9298 58.1896 17.8417 58.1501 17.7503C57.2973 16.0692 56.0689 14.607 54.5601 13.477C52.4732 11.8038 49.9172 10.8217 47.2468 10.667C47.1802 10.6621 47.1134 10.6621 47.0468 10.667C46.9969 10.6634 46.9467 10.6634 46.8968 10.667C46.8291 10.6618 46.7612 10.6618 46.6935 10.667C42.6101 10.667 38.9201 12.7203 36.1735 14.827C35.8898 15.042 35.6886 15.348 35.6035 15.6936C35.5335 15.987 35.4301 16.3603 35.3068 16.837C35.2635 17.0103 35.2101 17.1703 35.1635 17.3636C35.0601 17.737 34.9435 18.1703 34.8068 18.6536C34.1401 21.1303 32.9835 25.1803 31.0635 31.9336L35.6668 29.697C36.2172 29.428 36.8434 29.3568 37.4401 29.4952C38.0368 29.6336 38.5677 29.9732 38.9435 30.457C39.1807 30.7803 39.3442 31.1517 39.4225 31.5451C39.5008 31.9384 39.492 32.3441 39.3968 32.7336L35.6668 50.507C35.605 50.8116 35.6325 51.1276 35.7461 51.417C35.8596 51.7063 36.0543 51.9567 36.3067 52.1381C36.5592 52.3194 36.8587 52.424 37.1692 52.4391C37.4796 52.4543 37.7879 52.3795 38.0568 52.2236C38.6801 51.8536 39.3201 51.457 39.9735 51.0503C41.9312 49.834 43.8003 48.4807 45.5668 47.0003C52.7835 40.7803 59.4301 31.187 59.3735 23.117C59.3793 23.0546 59.3759 22.9917 59.3635 22.9303Z" fill="black"/>
</g>
</svg>
