<svg width="50" height="50" viewBox="0 0 50 50" fill="none" xmlns="http://www.w3.org/2000/svg">
<g id="saro_gif">
<path id="Vector" d="M44.0597 19.6745C43.4942 18.5987 42.6975 17.6615 41.7267 16.9302C40.7559 16.199 39.6352 15.6919 38.4451 15.4453C36.9087 15.1432 31.9998 14.5156 29.3123 17.9922C29.0904 17.4778 28.789 17.0015 28.4191 16.5807C29.1353 15.9406 29.6402 15.0981 29.867 14.1647C30.0938 13.2313 30.0319 12.251 29.6893 11.3536C29.3467 10.4562 28.7397 9.68403 27.9485 9.13923C27.1574 8.59444 26.2195 8.30273 25.2589 8.30273C24.2984 8.30273 23.3605 8.59444 22.5693 9.13923C21.7782 9.68403 21.1712 10.4562 20.8286 11.3536C20.486 12.251 20.424 13.2313 20.6509 14.1647C20.8777 15.0981 21.3826 15.9406 22.0988 16.5807C21.8818 16.8216 21.6891 17.0833 21.5233 17.362C20.5545 15.6927 19.2524 15.2291 18.1665 15.1953H18.0858C17.1854 15.2102 16.3126 15.5081 15.591 16.0468C14.6824 15.4963 13.6403 15.2053 12.578 15.2057C8.49202 15.2057 5.28629 19.4765 5.28629 24.9323C5.28629 27.5911 6.05192 29.9896 7.32796 31.7396C7.04738 31.8808 6.78503 32.0557 6.54671 32.2604C5.95296 32.763 5.2316 33.6979 5.17171 35.2916C5.1448 36.0099 5.26334 36.7261 5.52021 37.3974C5.77709 38.0687 6.16699 38.6811 6.6665 39.1979C8.00765 40.6328 10.2082 41.5651 12.4139 41.6354H12.8905C18.1561 41.6354 21.6717 38.8437 22.7264 33.875C23.4628 34.4072 24.3518 34.6867 25.2602 34.6718C26.0608 34.6786 26.847 34.4593 27.5285 34.039C27.6068 35.0401 27.7539 36.0347 27.9686 37.0156C28.8488 40.8802 30.8332 41.7031 32.3436 41.7031C35.9504 41.7031 36.8358 37.3776 37.117 34.5599C39.479 34.2995 43.0129 33.3698 43.0129 29.8073C43.0326 28.9831 42.8 28.1726 42.3462 27.4843C42.9655 27.1182 43.4942 26.617 43.8931 26.0182C45.0701 24.2682 45.1405 21.664 44.0597 19.6745Z" fill="#74489D"/>
<path id="Vector_2" d="M21.3544 24.7897C21.232 22.9876 21.0445 21.5579 20.9299 20.9147C20.5731 18.847 19.7711 16.972 18.1122 16.9277C17.628 16.9347 17.1555 17.0782 16.7492 17.3417C16.3429 17.6052 16.0192 17.978 15.8153 18.4173C15.758 18.3574 15.6955 18.3027 15.633 18.2454C14.8239 17.4272 13.7288 16.9548 12.5784 16.9277C9.50023 16.9277 7.00544 20.5059 7.00544 24.9329C7.00544 29.0319 9.14346 32.4095 11.9013 32.8887H11.956L12.081 32.9069L12.2398 32.9225C12.3518 32.9225 12.4638 32.9382 12.5784 32.9382C13.4507 32.9275 14.2985 32.6474 15.0054 32.1361V32.3392C15.0054 33.4564 14.4846 34.5736 12.883 34.3861C11.4221 34.2142 10.7763 33.1647 9.67211 33.0189C8.68513 32.8913 6.96638 33.2454 6.88825 35.3314C6.78669 38.1152 9.78669 39.8105 12.4716 39.8939C18.9091 40.0944 20.8231 35.9095 21.2476 32.3574C21.5094 29.8431 21.5451 27.3104 21.3544 24.7897ZM13.8804 22.9173C14.7398 22.9173 15.4429 23.8236 15.4429 24.9434C15.4429 26.0632 14.7476 26.9694 13.8804 26.9694C13.0133 26.9694 12.3179 26.0632 12.3179 24.9434C12.3179 23.8236 13.0211 22.9173 13.8804 22.9173Z" fill="#F17BB0"/>
<path id="Vector_3" d="M25.2603 32.9616C27.0811 32.9616 28.5571 29.367 28.5571 24.9329C28.5571 20.4988 27.0811 16.9043 25.2603 16.9043C23.4394 16.9043 21.9634 20.4988 21.9634 24.9329C21.9634 29.367 23.4394 32.9616 25.2603 32.9616Z" fill="#6DCFF6"/>
<path id="Vector_4" d="M25.2603 16.0801C26.9344 16.0801 28.2915 14.7229 28.2915 13.0488C28.2915 11.3747 26.9344 10.0176 25.2603 10.0176C23.5861 10.0176 22.229 11.3747 22.229 13.0488C22.229 14.7229 23.5861 16.0801 25.2603 16.0801Z" fill="#6DCFF6"/>
<path id="Vector_5" d="M42.5545 20.4894C42.1108 19.6365 41.4837 18.8924 40.7183 18.3107C39.9528 17.729 39.068 17.324 38.1274 17.1248C36.5493 16.8149 32.0675 16.3436 30.2108 19.7524C29.1509 21.6977 29.0571 24.5571 29.0571 28.5597C29.0571 34.867 29.5311 39.9816 32.354 39.9816C34.479 39.9816 35.2733 37.0832 35.5363 32.9503C38.8722 32.768 41.3123 32.0545 41.3123 29.7863C41.3123 27.518 38.8019 26.7993 35.4165 26.6274C35.3853 24.6222 35.6066 23.0832 36.8254 23.0832C37.6847 23.0832 37.8071 24.1404 38.3879 25.0988C39.4946 26.9555 41.4972 26.5259 42.4972 25.0467C43.2811 23.8592 43.3332 21.9243 42.5545 20.4894Z" fill="#F17BB0"/>
</g>
</svg>
