<svg width="46" height="46" viewBox="0 0 46 46" fill="none" xmlns="http://www.w3.org/2000/svg">
<g id="saro_mail_dark">
<path id="Vector" d="M13.2466 16.4458C13.7079 16.366 14.1752 16.3259 14.6434 16.326C15.0285 16.3263 15.4133 16.3495 15.7957 16.3955C15.8604 11.1415 19.126 6.89125 23.1342 6.89125C27.1424 6.89125 30.3936 11.1271 30.4702 16.3668C30.7625 16.3404 31.0596 16.326 31.3567 16.326C31.8248 16.3259 32.2922 16.366 32.7535 16.4458C32.7079 9.28948 28.3499 3.48438 23 3.48438C17.6501 3.48438 13.2921 9.28948 13.2466 16.4458Z" fill="#6DCFF6"/>
<path id="Vector_2" d="M37.3991 18.947C36.5324 18.0245 35.4674 17.311 34.2845 16.8603C34.2845 16.7596 34.2845 16.6566 34.2845 16.556C34.2845 8.5012 29.2197 1.94141 22.993 1.94141C16.7662 1.94141 11.7014 8.49401 11.7014 16.556C11.7014 16.6566 11.7014 16.7596 11.7014 16.8603C10.5187 17.3112 9.45374 18.0247 8.58682 18.947C6.72766 20.9116 5.75255 23.6932 5.91068 26.5778C6.15026 30.9118 8.11484 34.7859 11.7469 38.0945C14.7513 40.8306 18.2828 42.5987 20.7121 43.6049H20.7313C22.1582 44.1924 23.7581 44.1993 25.1899 43.6241L25.372 43.5498C27.799 42.5412 31.3185 40.7611 34.2989 38.0251C37.8927 34.7308 39.8213 30.8807 40.0609 26.5754C40.2358 23.6932 39.2583 20.9116 37.3991 18.947ZM38.5395 26.4915C38.0604 35.3297 29.7205 40.0855 24.797 42.1339L24.6389 42.1986C23.5735 42.6242 22.3841 42.6182 21.3231 42.1818C16.3589 40.1358 7.95672 35.3777 7.46557 26.4915C7.38359 25.3133 7.54131 24.1307 7.92921 23.0152C8.31712 21.8997 8.92715 20.8743 9.72245 20.0012C10.3494 19.3214 11.1113 18.78 11.9595 18.4116C12.8078 18.0431 13.7235 17.8559 14.6483 17.8617C16.3137 17.8645 17.9382 18.3776 19.3031 19.3321C20.6679 20.2865 21.7073 21.6363 22.2814 23.1996C22.3359 23.3464 22.4339 23.4729 22.5624 23.5623C22.6909 23.6516 22.8437 23.6995 23.0002 23.6995C23.1567 23.6995 23.3094 23.6516 23.4379 23.5623C23.5664 23.4729 23.6644 23.3464 23.7189 23.1996C24.2931 21.6359 25.333 20.2858 26.6982 19.3314C28.0635 18.3769 29.6886 17.864 31.3544 17.8617C32.2792 17.8559 33.1949 18.0431 34.0432 18.4116C34.8914 18.78 35.6533 19.3214 36.2803 20.0012C37.076 20.8741 37.6865 21.8994 38.0748 23.0149C38.4631 24.1305 38.6212 25.3131 38.5395 26.4915ZM32.7536 16.4458C32.2923 16.366 31.825 16.3259 31.3568 16.326C31.0597 16.326 30.7627 16.3404 30.4704 16.3667C30.3937 11.127 27.133 6.8912 23.1343 6.8912C19.1357 6.8912 15.8606 11.1414 15.7959 16.3955C15.4135 16.3494 15.0287 16.3262 14.6435 16.326C14.1753 16.3259 13.708 16.366 13.2467 16.4458C13.2922 9.28943 17.6503 3.48432 23.0002 3.48432C28.35 3.48432 32.7081 9.28943 32.7536 16.4458ZM17.3292 16.556C17.3292 12.0758 19.9335 8.42932 23.1343 8.42932C26.3352 8.42932 28.937 12.0758 28.937 16.556V16.6374C27.7002 16.9601 26.5391 17.5236 25.5203 18.2957C24.5016 19.0677 23.6452 20.0332 23.0002 21.1368C21.746 18.9912 19.7175 17.4076 17.3316 16.7117C17.3316 16.659 17.3292 16.6087 17.3292 16.556Z" fill="#74489D"/>
<path id="Vector_3" d="M17.4897 28.9882C17.9728 28.9887 18.4451 28.8458 18.847 28.5777C19.2488 28.3097 19.5621 27.9284 19.7472 27.4822C19.9323 27.036 19.9808 26.5449 19.8867 26.0711C19.7926 25.5973 19.56 25.1621 19.2184 24.8205C18.8769 24.479 18.4416 24.2464 17.9678 24.1523C17.494 24.0581 17.003 24.1067 16.5568 24.2918C16.1106 24.4768 15.7293 24.7901 15.4612 25.192C15.1931 25.5938 15.0503 26.0662 15.0508 26.5492C15.0508 27.1961 15.3077 27.8164 15.7651 28.2738C16.2225 28.7312 16.8429 28.9882 17.4897 28.9882ZM18.0983 26.4462C18.1856 26.4457 18.271 26.4712 18.3438 26.5193C18.4167 26.5675 18.4735 26.6362 18.5073 26.7167C18.541 26.7972 18.5501 26.8859 18.5333 26.9716C18.5166 27.0572 18.4748 27.136 18.4132 27.1979C18.3517 27.2598 18.2731 27.302 18.1876 27.3192C18.102 27.3364 18.0132 27.3278 17.9325 27.2945C17.8518 27.2612 17.7829 27.2047 17.7343 27.1322C17.6858 27.0596 17.6598 26.9743 17.6598 26.887C17.6617 26.771 17.7093 26.6603 17.7923 26.5791C17.8753 26.4979 17.987 26.4527 18.1031 26.4534L18.0983 26.4462ZM16.1002 25.6676C16.0997 25.5129 16.1451 25.3615 16.2308 25.2327C16.3164 25.1039 16.4384 25.0034 16.5812 24.944C16.724 24.8846 16.8813 24.8689 17.033 24.899C17.1847 24.9291 17.3241 25.0035 17.4335 25.1129C17.5428 25.2223 17.6173 25.3616 17.6473 25.5134C17.6774 25.6651 17.6617 25.8223 17.6023 25.9652C17.5429 26.108 17.4424 26.2299 17.3136 26.3156C17.1848 26.4012 17.0335 26.4467 16.8788 26.4462C16.6744 26.4449 16.4786 26.3633 16.3338 26.219C16.189 26.0747 16.1068 25.8792 16.1049 25.6747L16.1002 25.6676Z" fill="black"/>
<path id="Vector_4" d="M16.8831 26.4557C17.3132 26.4557 17.6618 26.1071 17.6618 25.6771C17.6618 25.247 17.3132 24.8984 16.8831 24.8984C16.4531 24.8984 16.1045 25.247 16.1045 25.6771C16.1045 26.1071 16.4531 26.4557 16.8831 26.4557Z" fill="white"/>
<path id="Vector_5" d="M18.1029 27.3348C18.3464 27.3348 18.5438 27.1374 18.5438 26.894C18.5438 26.6505 18.3464 26.4531 18.1029 26.4531C17.8595 26.4531 17.6621 26.6505 17.6621 26.894C17.6621 27.1374 17.8595 27.3348 18.1029 27.3348Z" fill="white"/>
<path id="Vector_6" d="M29.7947 24.1992L26.51 25.802C26.3805 25.8652 26.2713 25.9635 26.195 26.0857C26.1186 26.2079 26.0781 26.3491 26.0781 26.4932C26.0781 26.6373 26.1186 26.7785 26.195 26.9007C26.2713 27.023 26.3805 27.1213 26.51 27.1844L29.7947 28.7872C29.9001 28.8378 30.0156 28.864 30.1325 28.8639C30.306 28.8635 30.4743 28.8044 30.6099 28.6963C30.7456 28.5882 30.8408 28.4374 30.8799 28.2683C30.919 28.0993 30.8999 27.922 30.8255 27.7652C30.7511 27.6085 30.626 27.4815 30.4703 27.4049L28.5992 26.4944L30.4703 25.5816C30.5611 25.5373 30.6422 25.4755 30.7091 25.3997C30.776 25.324 30.8273 25.2359 30.8601 25.1403C30.8929 25.0448 30.9066 24.9437 30.9003 24.8428C30.8941 24.742 30.868 24.6434 30.8237 24.5526C30.7793 24.4618 30.7175 24.3807 30.6418 24.3138C30.5661 24.2469 30.4779 24.1956 30.3824 24.1628C30.2868 24.13 30.1857 24.1163 30.0849 24.1226C29.9841 24.1288 29.8854 24.1549 29.7947 24.1992Z" fill="black"/>
<path id="Vector_7" d="M22.9999 33.8262C23.4447 33.8262 23.8712 33.6495 24.1857 33.335C24.5003 33.0205 24.677 32.5939 24.677 32.1491V30.4936C25.0277 30.2179 25.305 29.8599 25.4844 29.4514C25.5189 29.3596 25.5172 29.2581 25.4796 29.1675C25.442 29.0769 25.3713 29.004 25.2818 28.9637C25.1924 28.9234 25.091 28.9187 24.9982 28.9506C24.9054 28.9824 24.8282 29.0484 24.7824 29.1351C24.6261 29.4773 24.3748 29.7674 24.0583 29.9708C23.7419 30.1741 23.3736 30.2823 22.9975 30.2823C22.6213 30.2823 22.2531 30.1741 21.9366 29.9708C21.6202 29.7674 21.3688 29.4773 21.2126 29.1351C21.1667 29.0484 21.0896 28.9824 20.9968 28.9506C20.904 28.9187 20.8026 28.9234 20.7131 28.9637C20.6237 29.004 20.553 29.0769 20.5153 29.1675C20.4777 29.2581 20.476 29.3596 20.5106 29.4514C20.6925 29.8591 20.9713 30.216 21.3228 30.4912V32.1467C21.3225 32.3672 21.3656 32.5855 21.4498 32.7892C21.5339 32.993 21.6574 33.1782 21.8131 33.3341C21.9689 33.4901 22.1539 33.6139 22.3575 33.6983C22.5612 33.7827 22.7794 33.8262 22.9999 33.8262ZM22.6477 31.0255V31.4831C22.6553 31.5798 22.6992 31.6701 22.7704 31.736C22.8417 31.8018 22.9352 31.8384 23.0322 31.8384C23.1293 31.8384 23.2227 31.8018 23.294 31.736C23.3653 31.6701 23.4091 31.5798 23.4167 31.4831V31.0183C23.5853 30.9945 23.7513 30.9552 23.9127 30.9009V32.1467C23.9007 32.3804 23.7994 32.6006 23.6298 32.7617C23.4601 32.9229 23.2351 33.0128 23.0011 33.0128C22.7671 33.0128 22.542 32.9229 22.3724 32.7617C22.2027 32.6006 22.1014 32.3804 22.0895 32.1467V30.9081C22.2708 30.9671 22.4579 31.0064 22.6477 31.0255Z" fill="black"/>
<path id="Vector_8" d="M23.3712 38.0579L23.2706 37.7249C23.2463 37.6421 23.2503 37.5536 23.282 37.4733C23.3137 37.393 23.3712 37.3256 23.4455 37.2817C23.6139 37.1837 23.7454 37.0329 23.8196 36.8527C23.8938 36.6724 23.9065 36.4728 23.8557 36.2846C23.805 36.0964 23.6936 35.9302 23.5389 35.8117C23.3842 35.6931 23.1947 35.6289 22.9998 35.6289C22.8049 35.6289 22.6155 35.6931 22.4607 35.8117C22.306 35.9302 22.1947 36.0964 22.1439 36.2846C22.0932 36.4728 22.1059 36.6724 22.1801 36.8527C22.2542 37.0329 22.3857 37.1837 22.5542 37.2817C22.6285 37.3256 22.686 37.393 22.7177 37.4733C22.7494 37.5536 22.7534 37.6421 22.7291 37.7249L22.0415 40.0105H23.9582L23.3712 38.0579Z" fill="#6DCFF6"/>
<path id="Vector_9" d="M24.1069 37.8369L24.0853 37.765C24.3401 37.5439 24.5212 37.2501 24.6044 36.9232C24.6876 36.5962 24.6689 36.2517 24.5509 35.9356C24.4328 35.6196 24.221 35.3471 23.9438 35.1548C23.6667 34.9624 23.3374 34.8594 23 34.8594C22.6626 34.8594 22.3333 34.9624 22.0561 35.1548C21.779 35.3471 21.5672 35.6196 21.4491 35.9356C21.3311 36.2517 21.3124 36.5962 21.3956 36.9232C21.4788 37.2501 21.6599 37.5439 21.9147 37.765L21.1528 40.2759C21.1356 40.3334 21.1322 40.3941 21.1426 40.4532C21.1531 40.5123 21.1771 40.5682 21.213 40.6163C21.2488 40.6645 21.2954 40.7036 21.349 40.7306C21.4026 40.7576 21.4617 40.7717 21.5218 40.7718H24.4782C24.5383 40.7719 24.5976 40.7579 24.6513 40.7308C24.705 40.7038 24.7516 40.6645 24.7873 40.6161C24.8237 40.5683 24.8482 40.5124 24.8586 40.4533C24.869 40.3941 24.8651 40.3332 24.8472 40.2759L24.1069 37.8369ZM22.7293 37.7267C22.7535 37.6439 22.7495 37.5554 22.7178 37.4751C22.6862 37.3948 22.6286 37.3274 22.5544 37.2835C22.3859 37.1855 22.2544 37.0347 22.1802 36.8545C22.106 36.6742 22.0934 36.4746 22.1441 36.2864C22.1948 36.0982 22.3062 35.932 22.4609 35.8135C22.6156 35.6949 22.8051 35.6307 23 35.6307C23.1949 35.6307 23.3844 35.6949 23.5391 35.8135C23.6938 35.932 23.8051 36.0982 23.8559 36.2864C23.9066 36.4746 23.8939 36.6742 23.8198 36.8545C23.7456 37.0347 23.6141 37.1855 23.4456 37.2835C23.3713 37.3274 23.3138 37.3948 23.2821 37.4751C23.2505 37.5554 23.2464 37.6439 23.2707 37.7267L23.3713 38.0597L23.9583 40.0123H22.0417L22.7293 37.7267Z" fill="#74489D"/>
<path id="Vector_10" d="M36.2824 19.999C35.6555 19.3192 34.8935 18.7778 34.0453 18.4093C33.1971 18.0409 32.2813 17.8537 31.3566 17.8595C29.6903 17.8613 28.0647 18.374 26.699 19.3285C25.3332 20.283 24.293 21.6333 23.7187 23.1974C23.6642 23.3441 23.5661 23.4707 23.4376 23.56C23.3092 23.6494 23.1564 23.6973 22.9999 23.6973C22.8434 23.6973 22.6906 23.6494 22.5622 23.56C22.4337 23.4707 22.3356 23.3441 22.2812 23.1974C21.7068 21.6333 20.6666 20.283 19.3008 19.3285C17.9351 18.374 16.3095 17.8613 14.6432 17.8595C13.7185 17.8537 12.8027 18.0409 11.9545 18.4093C11.1063 18.7778 10.3443 19.3192 9.71741 19.999C8.92211 20.8721 8.31208 21.8974 7.92417 23.013C7.53627 24.1285 7.37855 25.3111 7.46053 26.4893C7.9397 35.3754 16.3539 40.1455 21.318 42.1796C22.3805 42.6173 23.5718 42.6233 24.6386 42.1964L24.7968 42.1317C29.7202 40.0833 38.0505 35.3275 38.5393 26.4893C38.6213 25.3111 38.4635 24.1285 38.0756 23.013C37.6877 21.8974 37.0777 20.8721 36.2824 19.999ZM17.4895 28.9882C17.0063 28.9877 16.5342 28.8438 16.1328 28.5749C15.7314 28.3059 15.4189 27.9239 15.2348 27.4772C15.0507 27.0305 15.0032 26.5392 15.0985 26.0655C15.1937 25.5918 15.4274 25.1571 15.7699 24.8163C16.1123 24.4755 16.5482 24.2439 17.0224 24.151C17.4965 24.0581 17.9876 24.108 18.4334 24.2943C18.8791 24.4806 19.2596 24.795 19.5266 25.1977C19.7936 25.6004 19.9351 26.0732 19.9332 26.5564C19.9313 27.2028 19.6729 27.8221 19.2147 28.278C18.7564 28.734 18.1359 28.9894 17.4895 28.9882ZM24.7824 40.6056C24.7467 40.6539 24.7001 40.6932 24.6464 40.7203C24.5928 40.7473 24.5335 40.7614 24.4733 40.7613H21.5217C21.4617 40.7612 21.4025 40.7471 21.3489 40.7201C21.2953 40.6931 21.2487 40.6539 21.2129 40.6058C21.1771 40.5576 21.153 40.5018 21.1425 40.4427C21.1321 40.3836 21.1356 40.3229 21.1527 40.2653L21.9146 37.7545C21.6598 37.5333 21.4787 37.2396 21.3955 36.9127C21.3123 36.5857 21.331 36.2411 21.449 35.9251C21.5671 35.6091 21.7789 35.3366 22.056 35.1443C22.3332 34.9519 22.6625 34.8489 22.9999 34.8489C23.3373 34.8489 23.6666 34.9519 23.9438 35.1443C24.2209 35.3366 24.4327 35.6091 24.5508 35.9251C24.6688 36.2411 24.6875 36.5857 24.6043 36.9127C24.5211 37.2396 24.34 37.5333 24.0852 37.7545L24.1068 37.8264L24.8471 40.2653C24.8662 40.3237 24.8708 40.3859 24.8604 40.4465C24.8499 40.507 24.8248 40.5641 24.7872 40.6127L24.7824 40.6056ZM25.482 29.4386C25.3027 29.8471 25.0253 30.2051 24.6746 30.4808V32.1363C24.6746 32.5811 24.4979 33.0076 24.1834 33.3222C23.8689 33.6367 23.4423 33.8134 22.9975 33.8134C22.5527 33.8134 22.1261 33.6367 21.8116 33.3222C21.4971 33.0076 21.3204 32.5811 21.3204 32.1363V30.4808C20.9704 30.2044 20.6932 29.8466 20.513 29.4386C20.4784 29.3468 20.4801 29.2452 20.5178 29.1546C20.5554 29.0641 20.6261 28.9912 20.7156 28.9509C20.805 28.9106 20.9064 28.9059 20.9992 28.9377C21.092 28.9696 21.1692 29.0356 21.215 29.1223C21.3713 29.4645 21.6226 29.7546 21.939 29.9579C22.2555 30.1613 22.6237 30.2694 22.9999 30.2694C23.3761 30.2694 23.7443 30.1613 24.0608 29.9579C24.3772 29.7546 24.6285 29.4645 24.7848 29.1223C24.8306 29.0356 24.9078 28.9696 25.0006 28.9377C25.0934 28.9059 25.1948 28.9106 25.2843 28.9509C25.3737 28.9912 25.4444 29.0641 25.482 29.1546C25.5197 29.2452 25.5214 29.3468 25.4868 29.4386H25.482ZM26.0738 26.4917C26.0738 26.3475 26.1142 26.2062 26.1904 26.0838C26.2666 25.9615 26.3756 25.8629 26.505 25.7993L29.7945 24.1965C29.9778 24.1069 30.1892 24.0938 30.3822 24.1601C30.5752 24.2263 30.7339 24.3666 30.8235 24.5499C30.9131 24.7332 30.9262 24.9446 30.8599 25.1376C30.7936 25.3305 30.6534 25.4893 30.4701 25.5789L28.599 26.4917L30.4701 27.4021C30.6258 27.4787 30.751 27.6057 30.8253 27.7625C30.8997 27.9193 30.9188 28.0966 30.8797 28.2656C30.8406 28.4346 30.7454 28.5854 30.6097 28.6936C30.4741 28.8017 30.3058 28.8608 30.1323 28.8612C30.0154 28.8613 29.8999 28.8351 29.7945 28.7845L26.5098 27.1817C26.3818 27.1188 26.2738 27.0218 26.1977 26.9012C26.1216 26.7807 26.0803 26.6414 26.0785 26.4989L26.0738 26.4917Z" fill="#F17BB0"/>
<path id="Vector_11" d="M23.4166 31.4812C23.409 31.578 23.3652 31.6683 23.2939 31.7342C23.2226 31.8 23.1292 31.8366 23.0321 31.8366C22.9351 31.8366 22.8416 31.8 22.7703 31.7342C22.6991 31.6683 22.6552 31.578 22.6476 31.4812V31.0236C22.4578 31.0046 22.2707 30.9653 22.0894 30.9062V32.1521C22.1013 32.3858 22.2026 32.6059 22.3723 32.7671C22.5419 32.9283 22.767 33.0181 23.001 33.0181C23.235 33.0181 23.46 32.9283 23.6297 32.7671C23.7993 32.6059 23.9006 32.3858 23.9126 32.1521V30.9062C23.7512 30.9605 23.5852 30.9998 23.4166 31.0236V31.4812Z" fill="#F17BB0"/>
<path id="Vector_12" opacity="0.4" d="M22.0894 32.1449C22.1013 32.3786 22.2026 32.5988 22.3723 32.7599C22.5419 32.9211 22.767 33.011 23.001 33.011C23.235 33.011 23.46 32.9211 23.6297 32.7599C23.7993 32.5988 23.9006 32.3786 23.9126 32.1449V30.9062C23.7512 30.9605 23.5852 30.9998 23.4166 31.0236V31.4884C23.409 31.5852 23.3652 31.6755 23.2939 31.7413C23.2226 31.8072 23.1292 31.8438 23.0321 31.8438C22.9351 31.8438 22.8416 31.8072 22.7703 31.7413C22.6991 31.6755 22.6552 31.5852 22.6476 31.4884V31.0308C22.4576 31.0095 22.2704 30.9677 22.0894 30.9062V32.1449Z" fill="white"/>
<path id="Vector_13" opacity="0.4" d="M15.1223 31.0755C16.0948 31.0755 16.8832 30.7569 16.8832 30.3639C16.8832 29.9709 16.0948 29.6523 15.1223 29.6523C14.1497 29.6523 13.3613 29.9709 13.3613 30.3639C13.3613 30.7569 14.1497 31.0755 15.1223 31.0755Z" fill="white"/>
<path id="Vector_14" opacity="0.4" d="M30.6789 31.0755C31.6514 31.0755 32.4398 30.7569 32.4398 30.3639C32.4398 29.9709 31.6514 29.6523 30.6789 29.6523C29.7064 29.6523 28.918 29.9709 28.918 30.3639C28.918 30.7569 29.7064 31.0755 30.6789 31.0755Z" fill="white"/>
</g>
</svg>
