<svg width="64" height="64" viewBox="0 0 64 64" fill="none" xmlns="http://www.w3.org/2000/svg">
<g id="love_love_pink">
<path id="Vector" d="M61.27 21.8966C61.27 21.8399 61.27 21.7966 61.27 21.7399C61.2718 21.3824 61.2518 21.025 61.21 20.6699C61.21 20.5132 61.1833 20.3366 61.1667 20.2032C61.1233 19.9266 61.09 19.6366 61.0367 19.3499C61.0167 19.2432 60.9867 19.1466 60.9733 19.0166C60.9 18.6832 60.82 18.3966 60.7267 18.0866C60.7016 17.9884 60.6716 17.8917 60.6367 17.7966C60.5584 17.5229 60.4569 17.2564 60.3333 16.9999C60.2667 16.8166 60.21 16.6466 60.1333 16.4799C60.09 16.3732 60.0367 16.2832 59.9967 16.1999C59.3357 14.8812 58.4529 13.686 57.3867 12.6666C57.0025 12.2922 56.5998 11.9373 56.18 11.6032C55.5444 11.1209 54.8761 10.6832 54.18 10.2932C52.3962 9.26222 50.3914 8.67357 48.3333 8.57658C48.2674 8.57421 48.2017 8.56753 48.1367 8.55658C48.0933 8.55658 48.0233 8.55658 47.98 8.55658C47.9049 8.54494 47.8284 8.54494 47.7533 8.55658C42.6667 8.55658 38.1033 11.5232 35.0867 14.0799C34.004 15.0559 32.9736 16.0884 32 17.1732C31.0219 16.0904 29.9871 15.06 28.9 14.0866C25.9 11.5299 21.3267 8.55658 16.2333 8.56325C16.1582 8.55161 16.0818 8.55161 16.0067 8.56325C15.9633 8.56325 15.8933 8.56325 15.85 8.56325C15.785 8.57419 15.7193 8.58088 15.6533 8.58325C13.5964 8.68076 11.5928 9.2694 9.81001 10.2999C9.1139 10.6899 8.44564 11.1276 7.81001 11.6099C7.39382 11.942 6.99444 12.2947 6.61334 12.6666C5.54502 13.6887 4.66095 14.8874 4.00001 16.2099C3.96001 16.2932 3.90667 16.3832 3.86667 16.4899C3.78667 16.6566 3.73001 16.8232 3.66334 17.0099C3.54139 17.2659 3.43996 17.5312 3.36001 17.8032C3.32509 17.8983 3.29505 17.9951 3.27001 18.0932C3.17667 18.4032 3.09667 18.7066 3.02334 19.0232C3.02334 19.1466 2.98001 19.2432 2.96001 19.3566C2.90667 19.6432 2.87334 19.9332 2.83001 20.2099C2.83001 20.3532 2.79334 20.5199 2.78667 20.6766C2.74491 21.0317 2.72487 21.389 2.72667 21.7466C2.72667 21.8032 2.72667 21.8466 2.72667 21.9032V21.9266C2.70001 30.5632 9.85667 40.7799 17.62 47.4066C20.3433 49.7399 28.4167 55.4499 32.0033 55.4499C35.59 55.4499 43.67 49.7499 46.3867 47.4066C54.15 40.7799 61.3067 30.5632 61.28 21.9266L61.27 21.8966Z" fill="#F17BB0"/>
</g>
</svg>
