<svg width="30" height="30" viewBox="0 0 30 30" fill="none" xmlns="http://www.w3.org/2000/svg">
<g id="stickers_saro_bone">
<path id="Vector" d="M25.5203 14.9607C25.7099 14.7688 25.913 14.5907 26.1281 14.4279C26.5968 14.056 27.0015 13.7341 27.1718 13.0216C27.252 12.6859 27.26 12.3369 27.1954 11.9978C27.1308 11.6587 26.9949 11.3372 26.7968 11.0545C26.2708 10.3019 25.4689 9.78753 24.5656 9.6232C22.9703 9.39039 21.8984 10.2951 20.7656 11.2545C19.8125 12.0607 18.8265 12.8951 17.5515 12.8701C17.525 12.8716 17.4984 12.8716 17.4718 12.8701C17.45 12.8701 17.3625 12.8623 17.2922 12.8591C16.342 12.8262 15.3985 12.6862 14.4797 12.442C13.2297 12.1138 12.4578 11.0607 11.6343 9.94195C10.6718 8.63727 9.67653 7.2857 7.8156 6.9732C6.75466 6.79195 5.52966 7.12008 4.76716 7.78727C4.49584 8.01542 4.28143 8.30367 4.14094 8.62914C4.00044 8.9546 3.93773 9.30834 3.95778 9.66227C3.98591 10.5045 4.39841 10.9873 4.87341 11.5466C5.07798 11.777 5.26695 12.0208 5.43903 12.2763C5.60507 12.5201 5.7186 12.7957 5.7724 13.0857C5.8262 13.3756 5.81909 13.6736 5.75153 13.9607C5.58122 14.6513 5.05154 15.2654 4.22029 15.7388C3.5656 16.1123 2.84372 16.9888 2.77185 17.8232C2.70417 18.6871 2.97965 19.5428 3.53856 20.205C4.09748 20.8671 4.89482 21.2824 5.75778 21.3607C8.13278 21.5857 9.03903 20.7185 10.0875 19.7138C11.025 18.8107 12.0843 17.7998 14.15 17.7998C14.4157 17.8002 14.6812 17.8153 14.9453 17.8451L16.0531 17.9701C18.5718 18.2545 19.45 19.6045 20.225 20.7951C20.975 21.9498 21.5687 22.8623 23.6406 23.0591C25.0984 23.1982 26.4437 22.0341 26.6375 20.4654C26.7297 19.7248 26.325 18.8107 25.8718 18.3545C24.7593 17.2357 24.625 15.9029 25.5203 14.9607Z" fill="white"/>
<path id="Vector_2" d="M27.0609 15.6032C27.6015 15.1751 28.3406 14.5892 28.6312 13.3767C28.7632 12.8385 28.7786 12.2784 28.6765 11.7338C28.5743 11.1892 28.357 10.6727 28.039 10.2189C27.6637 9.67164 27.1819 9.20569 26.6224 8.8489C26.0629 8.49211 25.4373 8.25179 24.7828 8.14231C22.5156 7.81262 21.0078 9.07981 19.7953 10.1142C18.9984 10.7892 18.3078 11.3736 17.6078 11.3751C17.5437 11.3751 17.4672 11.3657 17.364 11.3611C16.5195 11.334 15.6807 11.2109 14.864 10.9939C14.1203 10.797 13.525 9.99075 12.8328 9.05481C11.8015 7.64856 10.5156 5.91262 8.05778 5.49544C6.5531 5.24075 4.87029 5.697 3.76872 6.6595C3.33009 7.03481 2.9835 7.50584 2.75567 8.03627C2.52784 8.5667 2.42486 9.14236 2.45466 9.71887C2.50154 11.0829 3.21091 11.9157 3.7281 12.5314C3.88851 12.7107 4.03726 12.9002 4.17341 13.0986C4.22949 13.1704 4.26917 13.2536 4.28969 13.3424C4.3102 13.4312 4.31104 13.5235 4.29216 13.6126C4.22341 13.8892 3.93435 14.1845 3.47653 14.4454C2.47341 15.0173 1.39685 16.3204 1.27497 17.7032C1.17592 18.9604 1.57556 20.206 2.3875 21.1709C3.19944 22.1357 4.35846 22.7423 5.61404 22.8595C8.67497 23.1501 10.0328 21.8486 11.1234 20.8017C12.1 19.8642 12.8703 19.1282 14.7718 19.3423L15.8781 19.4673C17.6937 19.672 18.2531 20.5314 18.9609 21.6189C19.7422 22.8111 20.7 24.2939 23.4922 24.5579C23.6187 24.5704 23.7422 24.5767 23.8672 24.5767C25.9765 24.5767 27.8437 22.8907 28.1203 20.6548C28.2593 19.5345 27.7718 18.1548 26.9343 17.3064C26.5687 16.9361 26.2172 16.4079 26.6078 15.997C26.7506 15.8566 26.9019 15.7251 27.0609 15.6032ZM26.6312 20.4689C26.4375 22.0314 25.0922 23.2017 23.6343 23.0626C21.5625 22.8657 20.9687 21.9532 20.2187 20.7986C19.4375 19.6079 18.5656 18.2579 16.0468 17.9736L14.939 17.8486C14.675 17.8188 14.4095 17.8036 14.1437 17.8032C12.0828 17.8032 11.0281 18.8142 10.0812 19.7173C9.03278 20.722 8.12653 21.5923 5.75153 21.3642C4.88857 21.2859 4.09123 20.8706 3.53231 20.2085C2.9734 19.5463 2.69792 18.6906 2.7656 17.8267C2.83747 16.997 3.55935 16.1079 4.21404 15.7423C5.04528 15.2736 5.57497 14.6486 5.74529 13.9642C5.81284 13.6771 5.81995 13.3791 5.76615 13.0891C5.71235 12.7992 5.59882 12.5236 5.43279 12.2798C5.2607 12.0243 5.07173 11.7805 4.86716 11.5501C4.39841 10.9907 3.97966 10.5079 3.95154 9.66575C3.93148 9.31182 3.99419 8.95809 4.13469 8.63262C4.27518 8.30715 4.48959 8.0189 4.76091 7.79075C5.52341 7.12356 6.74841 6.79544 7.80935 6.97669C9.67028 7.28919 10.6656 8.64231 11.6281 9.94544C12.4515 11.0611 13.2281 12.1142 14.4734 12.4454C15.3923 12.6897 16.3357 12.8296 17.2859 12.8626C17.3562 12.8626 17.4422 12.8626 17.4656 12.8736C17.4921 12.8751 17.5187 12.8751 17.5453 12.8736C18.8203 12.8986 19.8062 12.0642 20.7593 11.2579C21.8922 10.2986 22.964 9.39387 24.5593 9.62669C25.4627 9.79101 26.2646 10.3054 26.7906 11.0579C26.9887 11.3407 27.1245 11.6622 27.1892 12.0013C27.2538 12.3404 27.2458 12.6894 27.1656 13.0251C26.9953 13.7329 26.5906 14.0548 26.1218 14.4314C25.9067 14.5942 25.7036 14.7722 25.514 14.9642C24.6187 15.9017 24.7531 17.2392 25.8593 18.3611C26.314 18.8142 26.7187 19.7282 26.6312 20.4689Z" fill="#6ECFF6"/>
</g>
</svg>
