<svg width="192" height="192" viewBox="0 0 192 192" fill="none" xmlns="http://www.w3.org/2000/svg">
<path d="M96.0005 95.9998L16.7805 70.2598C14.9838 75.784 13.7738 81.4821 13.1705 87.2598C12.9105 89.8264 12.7638 92.4264 12.7305 95.0598C12.7305 95.3598 12.7305 95.6698 12.7305 95.9698C12.7339 98.8788 12.8841 101.786 13.1805 104.68C13.4505 107.29 13.8505 109.86 14.3505 112.4C16.5349 123.193 20.8364 133.446 27.0065 142.568C33.1766 151.689 41.093 159.497 50.2983 165.541C59.5036 171.585 69.8153 175.744 80.6376 177.78C91.46 179.815 102.578 179.686 113.35 177.4L96.0005 95.9998Z" fill="#B9B9BA"/>
<path d="M78.6801 14.5303C72.9857 15.734 67.4347 17.5374 62.1201 19.9103L96.0001 96.0003L78.6801 14.5303Z" fill="#7252A1"/>
<path d="M62.1198 19.9102C56.8044 22.2799 51.7532 25.2027 47.0498 28.6302L95.9998 96.0002L62.1198 19.9102Z" fill="#77BAE6"/>
<path d="M96.0004 95.9999L47.0504 28.6299C42.3416 32.0501 38.0045 35.9548 34.1104 40.2799L96.0004 95.9999Z" fill="#98CC71"/>
<path d="M23.8703 54.3604C20.9534 59.3958 18.5769 64.7254 16.7803 70.2604L96.0003 96.0004L23.8703 54.3604Z" fill="#F3BFD8"/>
<path d="M96.0001 96.0003L34.1101 40.2803C30.2138 44.6026 26.7817 49.3218 23.8701 54.3603L96.0001 96.0003Z" fill="#FAA819"/>
<path d="M157.89 151.72C161.784 147.399 165.216 142.684 168.13 137.65L96 96L157.89 151.72Z" fill="#FAA819"/>
<path d="M96 96L145 163.37C149.709 159.95 154.046 156.045 157.94 151.72L96 96Z" fill="#98CC71"/>
<path d="M96 96L168.13 137.65C171.045 132.61 173.421 127.277 175.22 121.74L96 96Z" fill="#F3BFD8"/>
<path d="M113.32 177.47C119.014 176.266 124.565 174.463 129.88 172.09L96 96L113.32 177.47Z" fill="#7252A1"/>
<path d="M129.88 172.09C135.213 169.723 140.281 166.8 145 163.37L96 96L129.88 172.09Z" fill="#77BAE6"/>
<path d="M178.83 87.2904C178.56 84.6804 178.16 82.1104 177.66 79.5704C175.476 68.7771 171.174 58.5237 165.004 49.4025C158.834 40.2814 150.918 32.4733 141.712 26.4294C132.507 20.3855 122.195 16.2257 111.373 14.1902C100.551 12.1547 89.4323 12.2839 78.6602 14.5704L96.0002 96.0004L175.22 121.74C177.017 116.216 178.227 110.518 178.83 104.74C179.09 102.174 179.237 99.5737 179.27 96.9404C179.27 96.6404 179.27 96.3304 179.27 96.0304C179.271 93.1115 179.124 90.1944 178.83 87.2904Z" fill="#B9B9BA"/>
<path d="M95.9999 183.41C78.7118 183.41 61.812 178.283 47.4375 168.679C33.063 159.074 21.8594 145.422 15.2436 129.45C8.62772 113.478 6.89671 95.9029 10.2694 78.947C13.6422 61.9912 21.9672 46.4162 34.1917 34.1917C46.4162 21.9672 61.9912 13.6422 78.947 10.2694C95.9029 6.89671 113.478 8.62772 129.45 15.2436C145.422 21.8594 159.074 33.063 168.679 47.4375C178.283 61.812 183.41 78.7118 183.41 95.9999C183.383 119.174 174.166 141.392 157.779 157.779C141.392 174.166 119.174 183.383 95.9999 183.41ZM95.9999 16.8499C80.3455 16.8499 65.0426 21.492 52.0265 30.1891C39.0103 38.8862 28.8655 51.2477 22.8748 65.7105C16.8841 80.1733 15.3167 96.0877 18.3707 111.441C21.4247 126.795 28.9631 140.898 40.0324 151.967C51.1017 163.037 65.2049 170.575 80.5585 173.629C95.9121 176.683 111.827 175.116 126.289 169.125C140.752 163.134 153.114 152.989 161.811 139.973C170.508 126.957 175.15 111.654 175.15 95.9999C175.126 75.0153 166.779 54.897 151.941 40.0587C137.103 25.2203 116.984 16.8737 95.9999 16.8499Z" fill="black"/>
<path d="M95.9999 183.41C78.7118 183.41 61.812 178.283 47.4375 168.679C33.063 159.074 21.8594 145.422 15.2436 129.45C8.62772 113.478 6.89671 95.9029 10.2694 78.947C13.6422 61.9912 21.9672 46.4162 34.1917 34.1917C46.4162 21.9672 61.9912 13.6422 78.947 10.2694C95.9029 6.89671 113.478 8.62772 129.45 15.2436C145.422 21.8594 159.074 33.063 168.679 47.4375C178.283 61.812 183.41 78.7118 183.41 95.9999C183.383 119.174 174.166 141.392 157.779 157.779C141.392 174.166 119.174 183.383 95.9999 183.41ZM95.9999 16.8499C80.3455 16.8499 65.0426 21.492 52.0265 30.1891C39.0103 38.8862 28.8655 51.2477 22.8748 65.7105C16.8841 80.1733 15.3167 96.0877 18.3707 111.441C21.4247 126.795 28.9631 140.898 40.0324 151.967C51.1017 163.037 65.2049 170.575 80.5585 173.629C95.9121 176.683 111.827 175.116 126.289 169.125C140.752 163.134 153.114 152.989 161.811 139.973C170.508 126.957 175.15 111.654 175.15 95.9999C175.126 75.0153 166.779 54.897 151.941 40.0587C137.103 25.2203 116.984 16.8737 95.9999 16.8499Z" fill="black"/>
<path d="M95.9996 126.94C113.087 126.94 126.94 113.087 126.94 95.9996C126.94 78.9119 113.087 65.0596 95.9996 65.0596C78.9119 65.0596 65.0596 78.9119 65.0596 95.9996C65.0596 113.087 78.9119 126.94 95.9996 126.94Z" fill="white"/>
<path d="M95.9997 131.07C89.0635 131.07 82.2831 129.013 76.5159 125.159C70.7486 121.306 66.2536 115.829 63.5992 109.42C60.9449 103.012 60.2504 95.9608 61.6036 89.1579C62.9567 82.355 66.2968 76.1061 71.2015 71.2015C76.1061 66.2968 82.355 62.9567 89.1579 61.6036C95.9608 60.2504 103.012 60.9449 109.42 63.5992C115.829 66.2536 121.306 70.7486 125.159 76.5159C129.013 82.2831 131.07 89.0635 131.07 95.9997C131.059 105.298 127.361 114.212 120.786 120.786C114.212 127.361 105.298 131.059 95.9997 131.07ZM95.9997 69.1897C90.6972 69.1897 85.5137 70.7621 81.1049 73.708C76.696 76.6539 73.2597 80.8411 71.2305 85.74C69.2013 90.6388 68.6704 96.0294 69.7049 101.23C70.7393 106.431 73.2927 111.208 77.0422 114.957C80.7916 118.707 85.5687 121.26 90.7693 122.295C95.97 123.329 101.361 122.798 106.259 120.769C111.158 118.74 115.345 115.303 118.291 110.895C121.237 106.486 122.81 101.302 122.81 95.9997C122.802 88.8917 119.975 82.0771 114.948 77.0509C109.922 72.0248 103.108 69.1976 95.9997 69.1897Z" fill="black"/>
<path d="M55.7297 123.46C56.0395 124.022 56.1851 124.659 56.1497 125.3C56.1113 125.997 55.9274 126.678 55.6097 127.3C55.2515 128.001 54.7821 128.639 54.2197 129.19C53.6057 129.815 52.9011 130.344 52.1297 130.76C51.3735 131.183 50.5958 131.567 49.7997 131.91C49.1379 132.203 48.4428 132.415 47.7297 132.54C47.1701 132.646 46.5928 132.612 46.0497 132.44C45.7983 132.359 45.5655 132.229 45.3647 132.057C45.1639 131.885 44.999 131.676 44.8797 131.44C44.7048 131.102 44.6418 130.716 44.6997 130.34C44.7568 129.926 44.9263 129.535 45.1897 129.21C45.4936 128.824 45.8544 128.487 46.2597 128.21C46.6897 127.92 47.1097 127.65 47.5197 127.43C47.8917 127.218 48.2757 127.028 48.6697 126.86L49.4197 126.55C49.8465 126.359 50.2465 126.114 50.6097 125.82C50.7534 125.731 50.8581 125.59 50.9026 125.427C50.9471 125.264 50.9282 125.09 50.8497 124.94C50.8011 124.841 50.7324 124.754 50.648 124.683C50.5636 124.613 50.4654 124.56 50.3597 124.53C50.2335 124.486 50.096 124.486 49.9697 124.53C49.8265 124.575 49.6863 124.628 49.5497 124.69L49.1797 124.88L48.9997 125C48.1997 125.44 47.4197 125.82 46.6797 126.15C46.0116 126.445 45.3096 126.657 44.5897 126.78C44.0272 126.884 43.448 126.853 42.8997 126.69C42.3967 126.518 41.9783 126.16 41.7297 125.69C41.5534 125.348 41.4937 124.959 41.5597 124.58C41.6249 124.173 41.7898 123.788 42.0397 123.46C42.3403 123.075 42.6977 122.738 43.0997 122.46C43.5079 122.165 43.9355 121.898 44.3797 121.66C44.7997 121.44 45.1897 121.26 45.5397 121.11L46.2897 120.79C46.7164 120.609 47.114 120.367 47.4697 120.07C47.5429 120.028 47.607 119.971 47.6582 119.904C47.7095 119.837 47.7469 119.76 47.7682 119.678C47.7896 119.596 47.7946 119.511 47.7828 119.427C47.7711 119.343 47.7428 119.263 47.6997 119.19C47.6292 119.033 47.5111 118.902 47.3622 118.816C47.2132 118.73 47.0409 118.693 46.8697 118.71C46.4663 118.751 46.0769 118.881 45.7297 119.09L45.2497 119.35L44.4497 119.79C44.1497 119.96 43.8197 120.13 43.4497 120.3C43.0797 120.47 42.7497 120.63 42.4497 120.77C42.0969 120.941 41.7327 121.088 41.3597 121.21C41.0379 121.318 40.6988 121.365 40.3597 121.35C40.0379 121.334 39.7266 121.23 39.4597 121.05C39.1258 120.808 38.8549 120.489 38.6697 120.12C38.534 119.873 38.4629 119.596 38.4629 119.315C38.4629 119.034 38.534 118.757 38.6697 118.51C38.9657 117.923 39.3616 117.392 39.8397 116.94C40.3809 116.425 40.9702 115.963 41.5997 115.56C42.2397 115.15 42.8097 114.81 43.2797 114.56C43.7497 114.31 44.5497 113.88 45.2797 113.56C45.9178 113.234 46.5881 112.976 47.2797 112.79C47.8686 112.625 48.4863 112.591 49.0897 112.69C49.3666 112.748 49.6267 112.868 49.8503 113.041C50.0738 113.214 50.2549 113.436 50.3797 113.69C50.5956 114.055 50.6902 114.478 50.6497 114.9C50.6271 115.295 50.4879 115.674 50.2497 115.99C50.7482 116.102 51.2176 116.317 51.6276 116.622C52.0376 116.927 52.379 117.315 52.6297 117.76C52.9406 118.321 53.0862 118.959 53.0497 119.6C53.0103 120.299 52.8192 120.982 52.4897 121.6C53.1633 121.609 53.8237 121.788 54.4097 122.12C54.9625 122.439 55.4186 122.902 55.7297 123.46Z" fill="#231F20"/>
<path d="M60.7197 129.35C61.1002 129.718 61.3195 130.221 61.3297 130.75C61.3083 131.308 61.1467 131.852 60.8597 132.33C60.5058 132.955 60.0831 133.539 59.5997 134.07C59.0597 134.67 58.4497 135.29 57.7797 135.93C57.1097 136.57 56.4597 137.13 55.7797 137.63C55.2313 138.088 54.6344 138.483 53.9997 138.81C53.504 139.073 52.9505 139.207 52.3897 139.2C51.861 139.164 51.3682 138.92 51.0197 138.52C50.6489 138.152 50.4372 137.653 50.4297 137.13C50.4562 136.572 50.6211 136.029 50.9097 135.55C51.2753 134.925 51.7042 134.338 52.1897 133.8C52.7297 133.19 53.3397 132.57 53.9997 131.94C54.6597 131.31 55.3197 130.74 55.9997 130.23C56.5556 129.779 57.1592 129.39 57.7997 129.07C58.2908 128.806 58.8424 128.675 59.3997 128.69C59.9095 128.728 60.3838 128.965 60.7197 129.35ZM64.7997 129C64.5614 129.236 64.2748 129.417 63.9597 129.53C63.642 129.657 63.3013 129.715 62.9597 129.7C62.6346 129.692 62.3148 129.617 62.0197 129.48C61.7017 129.34 61.4159 129.136 61.1797 128.88C60.9465 128.644 60.7648 128.362 60.646 128.053C60.5273 127.743 60.474 127.412 60.4897 127.08C60.4948 126.749 60.5675 126.422 60.7034 126.119C60.8392 125.816 61.0353 125.545 61.2797 125.32C61.5255 125.09 61.8143 124.91 62.1297 124.79C62.4324 124.674 62.7555 124.619 63.0797 124.63C63.4079 124.639 63.731 124.714 64.0297 124.85C64.3379 124.979 64.6143 125.174 64.8397 125.42C65.0735 125.658 65.2562 125.942 65.3765 126.253C65.4969 126.564 65.5524 126.897 65.5397 127.23C65.5453 127.56 65.4824 127.888 65.3551 128.193C65.2277 128.497 65.0386 128.772 64.7997 129Z" fill="#231F20"/>
<path d="M71.0799 138.34C71.2242 138.77 71.1992 139.238 71.0099 139.65C70.7708 140.09 70.4274 140.464 70.0099 140.74C69.4785 141.116 68.9086 141.434 68.3099 141.69C67.6299 141.98 66.8799 142.27 66.0699 142.53C66.0699 143.39 66.0099 144.19 65.9299 144.92C65.8701 145.57 65.7359 146.211 65.5299 146.83C65.3865 147.302 65.1289 147.731 64.7799 148.08C64.4608 148.36 64.0551 148.522 63.6309 148.538C63.2066 148.555 62.7897 148.425 62.4499 148.17C61.9341 147.754 61.5602 147.188 61.3799 146.55C61.1018 145.685 60.9174 144.794 60.8299 143.89C59.9395 144.08 59.0302 144.167 58.1199 144.15C57.4603 144.167 56.8112 143.982 56.2599 143.62C55.9388 143.387 55.7006 143.058 55.5799 142.68C55.4356 142.25 55.4607 141.782 55.6499 141.37C55.8831 140.926 56.2277 140.55 56.6499 140.28C57.1818 139.902 57.7556 139.586 58.3599 139.34C59.0266 139.053 59.7766 138.773 60.6099 138.5C60.6099 137.64 60.6699 136.84 60.7399 136.1C60.7928 135.451 60.9203 134.81 61.1199 134.19C61.2685 133.718 61.5293 133.289 61.8799 132.94C62.2122 132.635 62.6492 132.47 63.0999 132.48C63.4992 132.486 63.8868 132.615 64.2099 132.85C64.7327 133.266 65.1107 133.836 65.2899 134.48C65.5607 135.342 65.7416 136.23 65.8299 137.13C66.7141 136.942 67.6161 136.852 68.5199 136.86C69.1863 136.838 69.8433 137.023 70.3999 137.39C70.7119 137.636 70.9477 137.965 71.0799 138.34Z" fill="#231F20"/>
<path d="M95.9999 106.33C101.705 106.33 106.33 101.705 106.33 95.9999C106.33 90.2948 101.705 85.6699 95.9999 85.6699C90.2948 85.6699 85.6699 90.2948 85.6699 95.9999C85.6699 101.705 90.2948 106.33 95.9999 106.33Z" fill="white"/>
<path d="M96 110.46C93.1401 110.46 90.3444 109.612 87.9665 108.023C85.5886 106.434 83.7352 104.176 82.6407 101.534C81.5463 98.8914 81.2599 95.984 81.8179 93.179C82.3758 90.3741 83.753 87.7975 85.7753 85.7753C87.7975 83.753 90.3741 82.3758 93.179 81.8179C95.984 81.2599 98.8914 81.5463 101.534 82.6407C104.176 83.7352 106.434 85.5886 108.023 87.9665C109.612 90.3444 110.46 93.1401 110.46 96C110.455 99.8334 108.93 103.508 106.219 106.219C103.508 108.93 99.8334 110.455 96 110.46ZM96 89.81C94.7758 89.81 93.579 90.1731 92.5611 90.8532C91.5431 91.5334 90.7497 92.5002 90.2812 93.6312C89.8127 94.7623 89.6901 96.0069 89.929 97.2077C90.1678 98.4084 90.7574 99.5113 91.6231 100.377C92.4887 101.243 93.5917 101.832 94.7924 102.071C95.9932 102.31 97.2378 102.187 98.3689 101.719C99.4999 101.25 100.467 100.457 101.147 99.439C101.827 98.4211 102.19 97.2243 102.19 96C102.19 94.3584 101.538 92.7839 100.377 91.6231C99.2162 90.4622 97.6417 89.81 96 89.81Z" fill="#231F20"/>
</svg>
