<svg width="46" height="46" viewBox="0 0 46 46" fill="none" xmlns="http://www.w3.org/2000/svg">
<g id="saro_mail_dark">
<path id="Vector" d="M9.57346 24.7524C12.204 24.7524 14.3364 22.62 14.3364 19.9895C14.3364 17.359 12.204 15.2266 9.57346 15.2266C6.94298 15.2266 4.81055 17.359 4.81055 19.9895C4.81055 22.62 6.94298 24.7524 9.57346 24.7524Z" fill="#6DCFF6"/>
<path id="Vector_2" d="M8.52447 21.2501C9.85559 21.2501 10.9347 20.171 10.9347 18.8399C10.9347 17.5088 9.85559 16.4297 8.52447 16.4297C7.19335 16.4297 6.11426 17.5088 6.11426 18.8399C6.11426 20.171 7.19335 21.2501 8.52447 21.2501Z" fill="white"/>
<path id="Vector_3" d="M10.9348 24.0238C11.7234 24.0238 12.3627 23.3845 12.3627 22.5959C12.3627 21.8073 11.7234 21.168 10.9348 21.168C10.1461 21.168 9.50684 21.8073 9.50684 22.5959C9.50684 23.3845 10.1461 24.0238 10.9348 24.0238Z" fill="white"/>
<path id="Vector_4" d="M7.49165 30.7685C10.527 30.7685 12.9877 29.5157 12.9877 27.9702C12.9877 26.4247 10.527 25.1719 7.49165 25.1719C4.45627 25.1719 1.99561 26.4247 1.99561 27.9702C1.99561 29.5157 4.45627 30.7685 7.49165 30.7685Z" fill="#F17BB0"/>
<path id="Vector_5" d="M36.426 24.7524C39.0565 24.7524 41.1889 22.62 41.1889 19.9895C41.1889 17.359 39.0565 15.2266 36.426 15.2266C33.7955 15.2266 31.6631 17.359 31.6631 19.9895C31.6631 22.62 33.7955 24.7524 36.426 24.7524Z" fill="#6DCFF6"/>
<path id="Vector_6" d="M37.4756 21.2501C38.8068 21.2501 39.8858 20.171 39.8858 18.8399C39.8858 17.5088 38.8068 16.4297 37.4756 16.4297C36.1445 16.4297 35.0654 17.5088 35.0654 18.8399C35.0654 20.171 36.1445 21.2501 37.4756 21.2501Z" fill="white"/>
<path id="Vector_7" d="M35.0656 24.0238C35.8542 24.0238 36.4935 23.3845 36.4935 22.5959C36.4935 21.8073 35.8542 21.168 35.0656 21.168C34.277 21.168 33.6377 21.8073 33.6377 22.5959C33.6377 23.3845 34.277 24.0238 35.0656 24.0238Z" fill="white"/>
<path id="Vector_8" d="M38.5082 30.7685C41.5436 30.7685 44.0043 29.5157 44.0043 27.9702C44.0043 26.4247 41.5436 25.1719 38.5082 25.1719C35.4729 25.1719 33.0122 26.4247 33.0122 27.9702C33.0122 29.5157 35.4729 30.7685 38.5082 30.7685Z" fill="#F17BB0"/>
<path id="Vector_9" d="M29.9719 25.5769C29.9663 25.4158 29.9068 25.2613 29.8029 25.1382C29.6991 25.015 29.5568 24.9303 29.399 24.8977C29.2412 24.8651 29.077 24.8864 28.9328 24.9583C28.7886 25.0302 28.6728 25.1485 28.6038 25.2942L28.4816 25.5337C28.2421 26.1998 27.9162 27.1485 27.128 27.2108C27.0055 27.2265 26.8811 27.2147 26.7638 27.1761C26.6465 27.1376 26.5393 27.0733 26.45 26.988C25.9133 26.552 25.1107 25.941 24.3393 25.7542C23.9153 25.6319 23.4744 25.5785 23.0335 25.596H22.988C22.5408 25.5864 22.0946 25.6413 21.6631 25.759C21.2217 25.8864 20.803 26.082 20.4221 26.3387C19.8734 26.6694 19.6099 27.0767 19.1068 27.218C18.182 27.3282 17.7723 26.2597 17.5207 25.5266C17.3794 25.2247 17.1901 24.9396 16.8139 24.9156C16.7184 24.9064 16.6219 24.9165 16.5303 24.9452C16.4386 24.9739 16.3537 25.0207 16.2804 25.0828C16.2072 25.1449 16.1471 25.221 16.1038 25.3067C16.0604 25.3924 16.0347 25.4859 16.0281 25.5817C15.9879 26.0059 16.0105 26.4338 16.0952 26.8515C16.2749 27.781 16.8523 28.7513 17.813 29.1562C18.3074 29.3705 18.8509 29.4458 19.385 29.3741C19.9191 29.3023 20.4234 29.0862 20.8437 28.749C21.5912 28.1572 22.08 27.7163 23 27.6804C23.244 27.6933 23.4855 27.7368 23.7187 27.8098C24.7058 28.1548 25.3958 29.276 26.5937 29.3791C28.853 29.6642 30.1875 27.6181 29.9719 25.5769Z" fill="#74489D"/>
</g>
</svg>
