<svg width="30" height="30" viewBox="0 0 30 30" fill="none" xmlns="http://www.w3.org/2000/svg">
<g id="saro_x_light">
<path id="Vector" d="M9.53109 14.9539C8.43734 13.8851 7.38734 12.9414 6.44671 11.8961C5.24671 10.5617 4.06234 9.21795 3.39828 7.48513C2.72015 5.70076 3.30296 4.0617 5.05453 3.35701C5.51025 3.16189 6.0062 3.0792 6.50057 3.11591C6.99495 3.15262 7.47325 3.30766 7.89515 3.56795C9.26745 4.41877 10.5827 5.35827 11.8327 6.38045C12.9483 7.31795 13.9092 8.43201 14.9764 9.50545C16.0061 8.46013 16.9514 7.40388 18.0014 6.46326C19.378 5.23201 20.7373 3.92263 22.5561 3.35701C23.8498 2.95545 25.1373 3.01013 26.1077 4.13826C27.0577 5.24295 27.103 6.56951 26.4452 7.75232C25.6568 9.13458 24.7397 10.4393 23.7061 11.6492C22.7373 12.8039 21.5811 13.8023 20.3389 15.0367C20.6998 15.3289 21.0467 15.5601 21.3373 15.8492C22.9592 17.4539 24.6686 18.9929 25.8295 20.9883C26.2592 21.7273 26.6483 22.5508 26.778 23.3898C27.142 25.7336 24.8498 27.6289 22.3342 26.4742C21.1373 25.9258 20.0264 25.1211 19.0092 24.2742C17.592 23.0914 16.2998 21.7586 14.9045 20.4445C13.8436 21.532 12.8123 22.6789 11.6686 23.7148C10.3608 24.9023 9.04046 26.0914 7.26859 26.6086C6.00765 26.9773 4.87015 26.8461 3.96234 25.8929C2.99828 24.8804 2.90453 23.6695 3.4264 22.3836C4.13578 20.6304 5.34984 19.232 6.59984 17.8679C7.49984 16.8883 8.48265 15.9851 9.53109 14.9539Z" fill="black"/>
</g>
</svg>
